solid OpenSCAD_Model
  facet normal -1 0 0
    outer loop
      vertex -5.95269 -0.751999 -1
      vertex -5.95269 0.751999 1
      vertex -5.95269 0.751999 -1
    endloop
  endfacet
  facet normal -1 -0 0
    outer loop
      vertex -5.95269 0.751999 1
      vertex -5.95269 -0.751999 -1
      vertex -5.95269 -0.751999 1
    endloop
  endfacet
  facet normal -0.0627904 0.998027 0
    outer loop
      vertex 0 5.96446 -1
      vertex -1.12429 5.89372 1
      vertex 0 5.96446 1
    endloop
  endfacet
  facet normal -0.0627904 0.998027 0
    outer loop
      vertex -1.12429 5.89372 1
      vertex 0 5.96446 -1
      vertex -1.12429 5.89372 -1
    endloop
  endfacet
  facet normal -0.728969 0.684547 0
    outer loop
      vertex -4.8541 3.52671 -1
      vertex -3.82454 4.62308 1
      vertex -3.82454 4.62308 -1
    endloop
  endfacet
  facet normal -0.728969 0.684547 0
    outer loop
      vertex -3.82454 4.62308 1
      vertex -4.8541 3.52671 -1
      vertex -4.8541 3.52671 1
    endloop
  endfacet
  facet normal -0.876307 0.481754 0
    outer loop
      vertex -5.57866 2.20875 -1
      vertex -4.8541 3.52671 1
      vertex -4.8541 3.52671 -1
    endloop
  endfacet
  facet normal -0.876307 0.481754 0
    outer loop
      vertex -4.8541 3.52671 1
      vertex -5.57866 2.20875 -1
      vertex -5.57866 2.20875 1
    endloop
  endfacet
  facet normal -0.535827 0.844328 0
    outer loop
      vertex -2.55468 5.42896 -1
      vertex -3.82454 4.62308 1
      vertex -2.55468 5.42896 1
    endloop
  endfacet
  facet normal -0.535827 0.844328 0
    outer loop
      vertex -3.82454 4.62308 1
      vertex -2.55468 5.42896 -1
      vertex -3.82454 4.62308 -1
    endloop
  endfacet
  facet normal 0 0 -1
    outer loop
      vertex -0.562143 2.94686 -1
      vertex 0 5.96446 -1
      vertex 0.188371 2.99408 -1
    endloop
  endfacet
  facet normal 0 0 -1
    outer loop
      vertex -0.562143 2.94686 -1
      vertex -1.12429 5.89372 -1
      vertex 0 5.96446 -1
    endloop
  endfacet
  facet normal 0 0 -1
    outer loop
      vertex -1.27734 2.71448 -1
      vertex -1.12429 5.89372 -1
      vertex -0.562143 2.94686 -1
    endloop
  endfacet
  facet normal 0 0 -1
    outer loop
      vertex -2.55468 5.42896 -1
      vertex -1.27734 2.71448 -1
      vertex -1.91227 2.31154 -1
    endloop
  endfacet
  facet normal 0 0 -1
    outer loop
      vertex -3.82454 4.62308 -1
      vertex -1.91227 2.31154 -1
      vertex -2.42705 1.76336 -1
    endloop
  endfacet
  facet normal 0 0 -1
    outer loop
      vertex -1.27734 2.71448 -1
      vertex -2.55468 5.42896 -1
      vertex -1.12429 5.89372 -1
    endloop
  endfacet
  facet normal 0 0 -1
    outer loop
      vertex -4.8541 3.52671 -1
      vertex -2.42705 1.76336 -1
      vertex -2.78933 1.10437 -1
    endloop
  endfacet
  facet normal 0 0 -1
    outer loop
      vertex -5.57866 2.20875 -1
      vertex -2.78933 1.10437 -1
      vertex -2.97634 0.375999 -1
    endloop
  endfacet
  facet normal -0 0 -1
    outer loop
      vertex -2.78933 -1.10437 -1
      vertex -5.57866 -2.20875 -1
      vertex -2.97634 -0.375999 -1
    endloop
  endfacet
  facet normal 0 0 -1
    outer loop
      vertex -1.91227 2.31154 -1
      vertex -3.82454 4.62308 -1
      vertex -2.55468 5.42896 -1
    endloop
  endfacet
  facet normal 0 0 -1
    outer loop
      vertex -5.95269 -0.751999 -1
      vertex -2.97634 -0.375999 -1
      vertex -5.57866 -2.20875 -1
    endloop
  endfacet
  facet normal 0 0 -1
    outer loop
      vertex -2.42705 1.76336 -1
      vertex -4.8541 3.52671 -1
      vertex -3.82454 4.62308 -1
    endloop
  endfacet
  facet normal -0 0 -1
    outer loop
      vertex -2.97634 -0.375999 -1
      vertex -5.95269 -0.751999 -1
      vertex -2.97634 0.375999 -1
    endloop
  endfacet
  facet normal 0 0 -1
    outer loop
      vertex -2.78933 1.10437 -1
      vertex -5.57866 2.20875 -1
      vertex -4.8541 3.52671 -1
    endloop
  endfacet
  facet normal 0 0 -1
    outer loop
      vertex -5.95269 0.751999 -1
      vertex -2.97634 0.375999 -1
      vertex -5.95269 -0.751999 -1
    endloop
  endfacet
  facet normal 0 0 -1
    outer loop
      vertex -2.97634 0.375999 -1
      vertex -5.95269 0.751999 -1
      vertex -5.57866 2.20875 -1
    endloop
  endfacet
  facet normal 0 0 -1
    outer loop
      vertex 28.0877 -2.31154 -1
      vertex 30 -5.96446 -1
      vertex 30 -6 -1
    endloop
  endfacet
  facet normal 0 0 -1
    outer loop
      vertex 30 -5.96446 -1
      vertex 28.7227 -2.71448 -1
      vertex 29.4379 -2.94686 -1
    endloop
  endfacet
  facet normal 0 0 -1
    outer loop
      vertex 30 -5.96446 -1
      vertex 28.0877 -2.31154 -1
      vertex 28.7227 -2.71448 -1
    endloop
  endfacet
  facet normal 0 0 -1
    outer loop
      vertex 30 -6 -1
      vertex 27.5729 -1.76336 -1
      vertex 28.0877 -2.31154 -1
    endloop
  endfacet
  facet normal 0 0 -1
    outer loop
      vertex 27.0237 -0.375999 -1
      vertex 3 0 -1
      vertex 27.0237 0.375999 -1
    endloop
  endfacet
  facet normal 0 0 -1
    outer loop
      vertex 2.90575 -0.746069 -1
      vertex 27.0237 -0.375999 -1
      vertex 27.2107 -1.10437 -1
    endloop
  endfacet
  facet normal 0 0 -1
    outer loop
      vertex 2.62892 -1.44526 -1
      vertex 27.2107 -1.10437 -1
      vertex 27.5729 -1.76336 -1
    endloop
  endfacet
  facet normal 0 0 -1
    outer loop
      vertex 2.18691 -2.05364 -1
      vertex 27.5729 -1.76336 -1
      vertex 30 -6 -1
    endloop
  endfacet
  facet normal -0 0 -1
    outer loop
      vertex 27.0237 -0.375999 -1
      vertex 2.90575 -0.746069 -1
      vertex 3 0 -1
    endloop
  endfacet
  facet normal -0 0 -1
    outer loop
      vertex 27.2107 -1.10437 -1
      vertex 2.62892 -1.44526 -1
      vertex 2.90575 -0.746069 -1
    endloop
  endfacet
  facet normal -0 0 -1
    outer loop
      vertex 27.5729 -1.76336 -1
      vertex 2.18691 -2.05364 -1
      vertex 2.62892 -1.44526 -1
    endloop
  endfacet
  facet normal 0 0 -1
    outer loop
      vertex 0 -6 -1
      vertex 2.18691 -2.05364 -1
      vertex 30 -6 -1
    endloop
  endfacet
  facet normal 0 0 -1
    outer loop
      vertex 2.18691 -2.05364 -1
      vertex 0 -6 -1
      vertex 1.60748 -2.53298 -1
    endloop
  endfacet
  facet normal 0 0 -1
    outer loop
      vertex 0 -5.96446 -1
      vertex 1.60748 -2.53298 -1
      vertex 0 -6 -1
    endloop
  endfacet
  facet normal 0 0 -1
    outer loop
      vertex 1.60748 -2.53298 -1
      vertex 0 -5.96446 -1
      vertex 0.927051 -2.85317 -1
    endloop
  endfacet
  facet normal 0 0 -1
    outer loop
      vertex 0.927051 -2.85317 -1
      vertex 0 -5.96446 -1
      vertex 0.188371 -2.99408 -1
    endloop
  endfacet
  facet normal 0 0 -1
    outer loop
      vertex 0 -5.96446 -1
      vertex -0.562143 -2.94686 -1
      vertex 0.188371 -2.99408 -1
    endloop
  endfacet
  facet normal 0 0 -1
    outer loop
      vertex -1.12429 -5.89372 -1
      vertex -0.562143 -2.94686 -1
      vertex 0 -5.96446 -1
    endloop
  endfacet
  facet normal 0 0 -1
    outer loop
      vertex -1.12429 -5.89372 -1
      vertex -1.27734 -2.71448 -1
      vertex -0.562143 -2.94686 -1
    endloop
  endfacet
  facet normal 0 0 -1
    outer loop
      vertex -2.55468 -5.42896 -1
      vertex -1.27734 -2.71448 -1
      vertex -1.12429 -5.89372 -1
    endloop
  endfacet
  facet normal -0 0 -1
    outer loop
      vertex -1.27734 -2.71448 -1
      vertex -2.55468 -5.42896 -1
      vertex -1.91227 -2.31154 -1
    endloop
  endfacet
  facet normal 0 0 -1
    outer loop
      vertex -3.82454 -4.62308 -1
      vertex -1.91227 -2.31154 -1
      vertex -2.55468 -5.42896 -1
    endloop
  endfacet
  facet normal -0 0 -1
    outer loop
      vertex -1.91227 -2.31154 -1
      vertex -3.82454 -4.62308 -1
      vertex -2.42705 -1.76336 -1
    endloop
  endfacet
  facet normal 0 0 -1
    outer loop
      vertex -4.8541 -3.52671 -1
      vertex -2.42705 -1.76336 -1
      vertex -3.82454 -4.62308 -1
    endloop
  endfacet
  facet normal 0 0 -1
    outer loop
      vertex -5.57866 -2.20875 -1
      vertex -2.78933 -1.10437 -1
      vertex -4.8541 -3.52671 -1
    endloop
  endfacet
  facet normal -0 0 -1
    outer loop
      vertex -2.42705 -1.76336 -1
      vertex -4.8541 -3.52671 -1
      vertex -2.78933 -1.10437 -1
    endloop
  endfacet
  facet normal 0 0 -1
    outer loop
      vertex 33 0 -1
      vertex 36 0 -1
      vertex 35.8115 -1.49214 -1
    endloop
  endfacet
  facet normal 0 0 -1
    outer loop
      vertex 32.9058 -0.746069 -1
      vertex 35.8115 -1.49214 -1
      vertex 35.2578 -2.89052 -1
    endloop
  endfacet
  facet normal 0 0 -1
    outer loop
      vertex 36 0 -1
      vertex 33 0 -1
      vertex 35.8115 1.49214 -1
    endloop
  endfacet
  facet normal 0 0 -1
    outer loop
      vertex 32.6289 -1.44526 -1
      vertex 35.2578 -2.89052 -1
      vertex 34.3738 -4.10728 -1
    endloop
  endfacet
  facet normal 0 0 -1
    outer loop
      vertex 32.9058 0.746069 -1
      vertex 35.8115 1.49214 -1
      vertex 33 0 -1
    endloop
  endfacet
  facet normal 0 0 -1
    outer loop
      vertex 32.1869 -2.05364 -1
      vertex 34.3738 -4.10728 -1
      vertex 33.215 -5.06597 -1
    endloop
  endfacet
  facet normal -0 0 -1
    outer loop
      vertex 35.8115 1.49214 -1
      vertex 32.9058 0.746069 -1
      vertex 35.2578 2.89052 -1
    endloop
  endfacet
  facet normal 0 0 -1
    outer loop
      vertex 32.6289 1.44526 -1
      vertex 35.2578 2.89052 -1
      vertex 32.9058 0.746069 -1
    endloop
  endfacet
  facet normal 0 0 -1
    outer loop
      vertex 35.8115 -1.49214 -1
      vertex 32.9058 -0.746069 -1
      vertex 33 0 -1
    endloop
  endfacet
  facet normal 0 0 -1
    outer loop
      vertex 35.2578 -2.89052 -1
      vertex 32.6289 -1.44526 -1
      vertex 32.9058 -0.746069 -1
    endloop
  endfacet
  facet normal 0 0 -1
    outer loop
      vertex 34.3738 -4.10728 -1
      vertex 32.1869 -2.05364 -1
      vertex 32.6289 -1.44526 -1
    endloop
  endfacet
  facet normal 0 0 -1
    outer loop
      vertex 31.6075 -2.53298 -1
      vertex 33.215 -5.06597 -1
      vertex 31.8541 -5.70634 -1
    endloop
  endfacet
  facet normal 0 0 -1
    outer loop
      vertex 33.215 -5.06597 -1
      vertex 31.6075 -2.53298 -1
      vertex 32.1869 -2.05364 -1
    endloop
  endfacet
  facet normal 0 0 -1
    outer loop
      vertex 31.8541 -5.70634 -1
      vertex 30.9271 -2.85317 -1
      vertex 31.6075 -2.53298 -1
    endloop
  endfacet
  facet normal 0 0 -1
    outer loop
      vertex 30.3767 -5.98816 -1
      vertex 30.9271 -2.85317 -1
      vertex 31.8541 -5.70634 -1
    endloop
  endfacet
  facet normal 0 0 -1
    outer loop
      vertex 30.3767 -5.98816 -1
      vertex 30.1884 -2.99408 -1
      vertex 30.9271 -2.85317 -1
    endloop
  endfacet
  facet normal 0 0 -1
    outer loop
      vertex 30 -5.96446 -1
      vertex 30.1884 -2.99408 -1
      vertex 30.3767 -5.98816 -1
    endloop
  endfacet
  facet normal -0 0 -1
    outer loop
      vertex 30.1884 -2.99408 -1
      vertex 30 -5.96446 -1
      vertex 29.4379 -2.94686 -1
    endloop
  endfacet
  facet normal -0 0 -1
    outer loop
      vertex 35.2578 2.89052 -1
      vertex 32.6289 1.44526 -1
      vertex 34.3738 4.10728 -1
    endloop
  endfacet
  facet normal 0 0 -1
    outer loop
      vertex 32.1869 2.05364 -1
      vertex 34.3738 4.10728 -1
      vertex 32.6289 1.44526 -1
    endloop
  endfacet
  facet normal -0 0 -1
    outer loop
      vertex 34.3738 4.10728 -1
      vertex 32.1869 2.05364 -1
      vertex 33.215 5.06597 -1
    endloop
  endfacet
  facet normal 0 0 -1
    outer loop
      vertex 31.6075 2.53298 -1
      vertex 33.215 5.06597 -1
      vertex 32.1869 2.05364 -1
    endloop
  endfacet
  facet normal -0 0 -1
    outer loop
      vertex 33.215 5.06597 -1
      vertex 31.6075 2.53298 -1
      vertex 31.8541 5.70634 -1
    endloop
  endfacet
  facet normal 0 0 -1
    outer loop
      vertex 30.9271 2.85317 -1
      vertex 31.8541 5.70634 -1
      vertex 31.6075 2.53298 -1
    endloop
  endfacet
  facet normal 0 0 -1
    outer loop
      vertex 30.9271 2.85317 -1
      vertex 30.3767 5.98816 -1
      vertex 31.8541 5.70634 -1
    endloop
  endfacet
  facet normal 0 0 -1
    outer loop
      vertex 30.1884 2.99408 -1
      vertex 30.3767 5.98816 -1
      vertex 30.9271 2.85317 -1
    endloop
  endfacet
  facet normal 0 0 -1
    outer loop
      vertex 30.1884 2.99408 -1
      vertex 30 5.96446 -1
      vertex 30.3767 5.98816 -1
    endloop
  endfacet
  facet normal 0 0 -1
    outer loop
      vertex 29.4379 2.94686 -1
      vertex 30 5.96446 -1
      vertex 30.1884 2.99408 -1
    endloop
  endfacet
  facet normal 0 0 -1
    outer loop
      vertex 28.7227 2.71448 -1
      vertex 30 5.96446 -1
      vertex 29.4379 2.94686 -1
    endloop
  endfacet
  facet normal 0 0 -1
    outer loop
      vertex 28.0877 2.31154 -1
      vertex 30 5.96446 -1
      vertex 28.7227 2.71448 -1
    endloop
  endfacet
  facet normal -0 0 -1
    outer loop
      vertex 30 5.96446 -1
      vertex 28.0877 2.31154 -1
      vertex 30 6 -1
    endloop
  endfacet
  facet normal 0 0 -1
    outer loop
      vertex 27.5729 1.76336 -1
      vertex 30 6 -1
      vertex 28.0877 2.31154 -1
    endloop
  endfacet
  facet normal 0 0 -1
    outer loop
      vertex 2.90575 0.746069 -1
      vertex 27.0237 0.375999 -1
      vertex 3 0 -1
    endloop
  endfacet
  facet normal 0 0 -1
    outer loop
      vertex 27.0237 0.375999 -1
      vertex 2.90575 0.746069 -1
      vertex 27.2107 1.10437 -1
    endloop
  endfacet
  facet normal 0 0 -1
    outer loop
      vertex 2.62892 1.44526 -1
      vertex 27.2107 1.10437 -1
      vertex 2.90575 0.746069 -1
    endloop
  endfacet
  facet normal 0 0 -1
    outer loop
      vertex 27.2107 1.10437 -1
      vertex 2.62892 1.44526 -1
      vertex 27.5729 1.76336 -1
    endloop
  endfacet
  facet normal 0 0 -1
    outer loop
      vertex 2.18691 2.05364 -1
      vertex 27.5729 1.76336 -1
      vertex 2.62892 1.44526 -1
    endloop
  endfacet
  facet normal 0 0 -1
    outer loop
      vertex 27.5729 1.76336 -1
      vertex 2.18691 2.05364 -1
      vertex 30 6 -1
    endloop
  endfacet
  facet normal 0 0 -1
    outer loop
      vertex 0 6 -1
      vertex 2.18691 2.05364 -1
      vertex 1.60748 2.53298 -1
    endloop
  endfacet
  facet normal 0 0 -1
    outer loop
      vertex 0 5.96446 -1
      vertex 1.60748 2.53298 -1
      vertex 0.927051 2.85317 -1
    endloop
  endfacet
  facet normal 0 0 -1
    outer loop
      vertex 0 5.96446 -1
      vertex 0.927051 2.85317 -1
      vertex 0.188371 2.99408 -1
    endloop
  endfacet
  facet normal 0 0 -1
    outer loop
      vertex 1.60748 2.53298 -1
      vertex 0 5.96446 -1
      vertex 0 6 -1
    endloop
  endfacet
  facet normal 0 0 -1
    outer loop
      vertex 2.18691 2.05364 -1
      vertex 0 6 -1
      vertex 30 6 -1
    endloop
  endfacet
  facet normal -0.968583 0.24869 0
    outer loop
      vertex -5.95269 0.751999 -1
      vertex -5.57866 2.20875 1
      vertex -5.57866 2.20875 -1
    endloop
  endfacet
  facet normal -0.968583 0.24869 0
    outer loop
      vertex -5.57866 2.20875 1
      vertex -5.95269 0.751999 -1
      vertex -5.95269 0.751999 1
    endloop
  endfacet
  facet normal 0 0 1
    outer loop
      vertex -0.562143 -2.94686 1
      vertex 0 -5.96446 1
      vertex 0.188371 -2.99408 1
    endloop
  endfacet
  facet normal 0 0 1
    outer loop
      vertex -0.562143 -2.94686 1
      vertex -1.12429 -5.89372 1
      vertex 0 -5.96446 1
    endloop
  endfacet
  facet normal 0 0 1
    outer loop
      vertex -1.27734 -2.71448 1
      vertex -1.12429 -5.89372 1
      vertex -0.562143 -2.94686 1
    endloop
  endfacet
  facet normal 0 0 1
    outer loop
      vertex -2.55468 -5.42896 1
      vertex -1.27734 -2.71448 1
      vertex -1.91227 -2.31154 1
    endloop
  endfacet
  facet normal 0 0 1
    outer loop
      vertex -3.82454 -4.62308 1
      vertex -1.91227 -2.31154 1
      vertex -2.42705 -1.76336 1
    endloop
  endfacet
  facet normal 0 0 1
    outer loop
      vertex -1.27734 -2.71448 1
      vertex -2.55468 -5.42896 1
      vertex -1.12429 -5.89372 1
    endloop
  endfacet
  facet normal 0 0 1
    outer loop
      vertex -4.8541 -3.52671 1
      vertex -2.42705 -1.76336 1
      vertex -2.78933 -1.10437 1
    endloop
  endfacet
  facet normal 0 0 1
    outer loop
      vertex -5.57866 -2.20875 1
      vertex -2.78933 -1.10437 1
      vertex -2.97634 -0.375999 1
    endloop
  endfacet
  facet normal 0 0 1
    outer loop
      vertex -2.78933 1.10437 1
      vertex -5.57866 2.20875 1
      vertex -2.97634 0.375999 1
    endloop
  endfacet
  facet normal 0 0 1
    outer loop
      vertex -1.91227 -2.31154 1
      vertex -3.82454 -4.62308 1
      vertex -2.55468 -5.42896 1
    endloop
  endfacet
  facet normal -0 0 1
    outer loop
      vertex -5.95269 0.751999 1
      vertex -2.97634 0.375999 1
      vertex -5.57866 2.20875 1
    endloop
  endfacet
  facet normal 0 0 1
    outer loop
      vertex -2.42705 -1.76336 1
      vertex -4.8541 -3.52671 1
      vertex -3.82454 -4.62308 1
    endloop
  endfacet
  facet normal 0 0 1
    outer loop
      vertex -2.97634 0.375999 1
      vertex -5.95269 0.751999 1
      vertex -2.97634 -0.375999 1
    endloop
  endfacet
  facet normal 0 0 1
    outer loop
      vertex -2.78933 -1.10437 1
      vertex -5.57866 -2.20875 1
      vertex -4.8541 -3.52671 1
    endloop
  endfacet
  facet normal 0 0 1
    outer loop
      vertex -5.95269 -0.751999 1
      vertex -2.97634 -0.375999 1
      vertex -5.95269 0.751999 1
    endloop
  endfacet
  facet normal 0 0 1
    outer loop
      vertex -2.97634 -0.375999 1
      vertex -5.95269 -0.751999 1
      vertex -5.57866 -2.20875 1
    endloop
  endfacet
  facet normal 0 0 1
    outer loop
      vertex 28.0877 2.31154 1
      vertex 30 5.96446 1
      vertex 30 6 1
    endloop
  endfacet
  facet normal 0 0 1
    outer loop
      vertex 30 5.96446 1
      vertex 28.7227 2.71448 1
      vertex 29.4379 2.94686 1
    endloop
  endfacet
  facet normal 0 0 1
    outer loop
      vertex 30 5.96446 1
      vertex 28.0877 2.31154 1
      vertex 28.7227 2.71448 1
    endloop
  endfacet
  facet normal 0 0 1
    outer loop
      vertex 30 6 1
      vertex 27.5729 1.76336 1
      vertex 28.0877 2.31154 1
    endloop
  endfacet
  facet normal 0 0 1
    outer loop
      vertex 27.0237 0.375999 1
      vertex 3 0 1
      vertex 27.0237 -0.375999 1
    endloop
  endfacet
  facet normal -0 0 1
    outer loop
      vertex 2.90575 0.746069 1
      vertex 27.0237 0.375999 1
      vertex 27.2107 1.10437 1
    endloop
  endfacet
  facet normal -0 0 1
    outer loop
      vertex 2.62892 1.44526 1
      vertex 27.2107 1.10437 1
      vertex 27.5729 1.76336 1
    endloop
  endfacet
  facet normal -0 0 1
    outer loop
      vertex 2.18691 2.05364 1
      vertex 27.5729 1.76336 1
      vertex 30 6 1
    endloop
  endfacet
  facet normal 0 0 1
    outer loop
      vertex 27.0237 0.375999 1
      vertex 2.90575 0.746069 1
      vertex 3 0 1
    endloop
  endfacet
  facet normal 0 0 1
    outer loop
      vertex 27.2107 1.10437 1
      vertex 2.62892 1.44526 1
      vertex 2.90575 0.746069 1
    endloop
  endfacet
  facet normal 0 0 1
    outer loop
      vertex 27.5729 1.76336 1
      vertex 2.18691 2.05364 1
      vertex 2.62892 1.44526 1
    endloop
  endfacet
  facet normal -0 0 1
    outer loop
      vertex 0 6 1
      vertex 2.18691 2.05364 1
      vertex 30 6 1
    endloop
  endfacet
  facet normal 0 0 1
    outer loop
      vertex 2.18691 2.05364 1
      vertex 0 6 1
      vertex 1.60748 2.53298 1
    endloop
  endfacet
  facet normal -0 0 1
    outer loop
      vertex 0 5.96446 1
      vertex 1.60748 2.53298 1
      vertex 0 6 1
    endloop
  endfacet
  facet normal 0 0 1
    outer loop
      vertex 1.60748 2.53298 1
      vertex 0 5.96446 1
      vertex 0.927051 2.85317 1
    endloop
  endfacet
  facet normal 0 0 1
    outer loop
      vertex 0.927051 2.85317 1
      vertex 0 5.96446 1
      vertex 0.188371 2.99408 1
    endloop
  endfacet
  facet normal 0 0 1
    outer loop
      vertex 0 5.96446 1
      vertex -0.562143 2.94686 1
      vertex 0.188371 2.99408 1
    endloop
  endfacet
  facet normal -0 0 1
    outer loop
      vertex -1.12429 5.89372 1
      vertex -0.562143 2.94686 1
      vertex 0 5.96446 1
    endloop
  endfacet
  facet normal 0 0 1
    outer loop
      vertex -1.12429 5.89372 1
      vertex -1.27734 2.71448 1
      vertex -0.562143 2.94686 1
    endloop
  endfacet
  facet normal -0 0 1
    outer loop
      vertex -2.55468 5.42896 1
      vertex -1.27734 2.71448 1
      vertex -1.12429 5.89372 1
    endloop
  endfacet
  facet normal 0 0 1
    outer loop
      vertex -1.27734 2.71448 1
      vertex -2.55468 5.42896 1
      vertex -1.91227 2.31154 1
    endloop
  endfacet
  facet normal -0 0 1
    outer loop
      vertex -3.82454 4.62308 1
      vertex -1.91227 2.31154 1
      vertex -2.55468 5.42896 1
    endloop
  endfacet
  facet normal 0 0 1
    outer loop
      vertex -1.91227 2.31154 1
      vertex -3.82454 4.62308 1
      vertex -2.42705 1.76336 1
    endloop
  endfacet
  facet normal -0 0 1
    outer loop
      vertex -4.8541 3.52671 1
      vertex -2.42705 1.76336 1
      vertex -3.82454 4.62308 1
    endloop
  endfacet
  facet normal -0 0 1
    outer loop
      vertex -5.57866 2.20875 1
      vertex -2.78933 1.10437 1
      vertex -4.8541 3.52671 1
    endloop
  endfacet
  facet normal 0 0 1
    outer loop
      vertex -2.42705 1.76336 1
      vertex -4.8541 3.52671 1
      vertex -2.78933 1.10437 1
    endloop
  endfacet
  facet normal 0 0 1
    outer loop
      vertex 33 0 1
      vertex 36 0 1
      vertex 35.8115 1.49214 1
    endloop
  endfacet
  facet normal 0 0 1
    outer loop
      vertex 32.9058 0.746069 1
      vertex 35.8115 1.49214 1
      vertex 35.2578 2.89052 1
    endloop
  endfacet
  facet normal 0 0 1
    outer loop
      vertex 36 0 1
      vertex 33 0 1
      vertex 35.8115 -1.49214 1
    endloop
  endfacet
  facet normal 0 0 1
    outer loop
      vertex 32.6289 1.44526 1
      vertex 35.2578 2.89052 1
      vertex 34.3738 4.10728 1
    endloop
  endfacet
  facet normal -0 0 1
    outer loop
      vertex 32.9058 -0.746069 1
      vertex 35.8115 -1.49214 1
      vertex 33 0 1
    endloop
  endfacet
  facet normal 0 0 1
    outer loop
      vertex 32.1869 2.05364 1
      vertex 34.3738 4.10728 1
      vertex 33.215 5.06597 1
    endloop
  endfacet
  facet normal 0 0 1
    outer loop
      vertex 35.8115 -1.49214 1
      vertex 32.9058 -0.746069 1
      vertex 35.2578 -2.89052 1
    endloop
  endfacet
  facet normal -0 0 1
    outer loop
      vertex 32.6289 -1.44526 1
      vertex 35.2578 -2.89052 1
      vertex 32.9058 -0.746069 1
    endloop
  endfacet
  facet normal 0 0 1
    outer loop
      vertex 35.8115 1.49214 1
      vertex 32.9058 0.746069 1
      vertex 33 0 1
    endloop
  endfacet
  facet normal 0 0 1
    outer loop
      vertex 35.2578 2.89052 1
      vertex 32.6289 1.44526 1
      vertex 32.9058 0.746069 1
    endloop
  endfacet
  facet normal 0 0 1
    outer loop
      vertex 34.3738 4.10728 1
      vertex 32.1869 2.05364 1
      vertex 32.6289 1.44526 1
    endloop
  endfacet
  facet normal 0 0 1
    outer loop
      vertex 31.6075 2.53298 1
      vertex 33.215 5.06597 1
      vertex 31.8541 5.70634 1
    endloop
  endfacet
  facet normal 0 0 1
    outer loop
      vertex 33.215 5.06597 1
      vertex 31.6075 2.53298 1
      vertex 32.1869 2.05364 1
    endloop
  endfacet
  facet normal 0 0 1
    outer loop
      vertex 31.8541 5.70634 1
      vertex 30.9271 2.85317 1
      vertex 31.6075 2.53298 1
    endloop
  endfacet
  facet normal 0 0 1
    outer loop
      vertex 30.3767 5.98816 1
      vertex 30.9271 2.85317 1
      vertex 31.8541 5.70634 1
    endloop
  endfacet
  facet normal 0 0 1
    outer loop
      vertex 30.3767 5.98816 1
      vertex 30.1884 2.99408 1
      vertex 30.9271 2.85317 1
    endloop
  endfacet
  facet normal -0 0 1
    outer loop
      vertex 30 5.96446 1
      vertex 30.1884 2.99408 1
      vertex 30.3767 5.98816 1
    endloop
  endfacet
  facet normal 0 0 1
    outer loop
      vertex 30.1884 2.99408 1
      vertex 30 5.96446 1
      vertex 29.4379 2.94686 1
    endloop
  endfacet
  facet normal 0 0 1
    outer loop
      vertex 35.2578 -2.89052 1
      vertex 32.6289 -1.44526 1
      vertex 34.3738 -4.10728 1
    endloop
  endfacet
  facet normal -0 0 1
    outer loop
      vertex 32.1869 -2.05364 1
      vertex 34.3738 -4.10728 1
      vertex 32.6289 -1.44526 1
    endloop
  endfacet
  facet normal 0 0 1
    outer loop
      vertex 34.3738 -4.10728 1
      vertex 32.1869 -2.05364 1
      vertex 33.215 -5.06597 1
    endloop
  endfacet
  facet normal -0 0 1
    outer loop
      vertex 31.6075 -2.53298 1
      vertex 33.215 -5.06597 1
      vertex 32.1869 -2.05364 1
    endloop
  endfacet
  facet normal 0 0 1
    outer loop
      vertex 33.215 -5.06597 1
      vertex 31.6075 -2.53298 1
      vertex 31.8541 -5.70634 1
    endloop
  endfacet
  facet normal -0 0 1
    outer loop
      vertex 30.9271 -2.85317 1
      vertex 31.8541 -5.70634 1
      vertex 31.6075 -2.53298 1
    endloop
  endfacet
  facet normal 0 0 1
    outer loop
      vertex 30.9271 -2.85317 1
      vertex 30.3767 -5.98816 1
      vertex 31.8541 -5.70634 1
    endloop
  endfacet
  facet normal -0 0 1
    outer loop
      vertex 30.1884 -2.99408 1
      vertex 30.3767 -5.98816 1
      vertex 30.9271 -2.85317 1
    endloop
  endfacet
  facet normal 0 0 1
    outer loop
      vertex 30.1884 -2.99408 1
      vertex 30 -5.96446 1
      vertex 30.3767 -5.98816 1
    endloop
  endfacet
  facet normal 0 0 1
    outer loop
      vertex 29.4379 -2.94686 1
      vertex 30 -5.96446 1
      vertex 30.1884 -2.99408 1
    endloop
  endfacet
  facet normal 0 0 1
    outer loop
      vertex 28.7227 -2.71448 1
      vertex 30 -5.96446 1
      vertex 29.4379 -2.94686 1
    endloop
  endfacet
  facet normal 0 0 1
    outer loop
      vertex 28.0877 -2.31154 1
      vertex 30 -5.96446 1
      vertex 28.7227 -2.71448 1
    endloop
  endfacet
  facet normal 0 0 1
    outer loop
      vertex 30 -5.96446 1
      vertex 28.0877 -2.31154 1
      vertex 30 -6 1
    endloop
  endfacet
  facet normal 0 0 1
    outer loop
      vertex 27.5729 -1.76336 1
      vertex 30 -6 1
      vertex 28.0877 -2.31154 1
    endloop
  endfacet
  facet normal 0 0 1
    outer loop
      vertex 2.90575 -0.746069 1
      vertex 27.0237 -0.375999 1
      vertex 3 0 1
    endloop
  endfacet
  facet normal 0 0 1
    outer loop
      vertex 27.0237 -0.375999 1
      vertex 2.90575 -0.746069 1
      vertex 27.2107 -1.10437 1
    endloop
  endfacet
  facet normal 0 0 1
    outer loop
      vertex 2.62892 -1.44526 1
      vertex 27.2107 -1.10437 1
      vertex 2.90575 -0.746069 1
    endloop
  endfacet
  facet normal 0 0 1
    outer loop
      vertex 27.2107 -1.10437 1
      vertex 2.62892 -1.44526 1
      vertex 27.5729 -1.76336 1
    endloop
  endfacet
  facet normal 0 0 1
    outer loop
      vertex 2.18691 -2.05364 1
      vertex 27.5729 -1.76336 1
      vertex 2.62892 -1.44526 1
    endloop
  endfacet
  facet normal 0 0 1
    outer loop
      vertex 27.5729 -1.76336 1
      vertex 2.18691 -2.05364 1
      vertex 30 -6 1
    endloop
  endfacet
  facet normal 0 0 1
    outer loop
      vertex 0 -6 1
      vertex 2.18691 -2.05364 1
      vertex 1.60748 -2.53298 1
    endloop
  endfacet
  facet normal 0 0 1
    outer loop
      vertex 0 -5.96446 1
      vertex 1.60748 -2.53298 1
      vertex 0.927051 -2.85317 1
    endloop
  endfacet
  facet normal 0 0 1
    outer loop
      vertex 0 -5.96446 1
      vertex 0.927051 -2.85317 1
      vertex 0.188371 -2.99408 1
    endloop
  endfacet
  facet normal 0 0 1
    outer loop
      vertex 1.60748 -2.53298 1
      vertex 0 -5.96446 1
      vertex 0 -6 1
    endloop
  endfacet
  facet normal 0 0 1
    outer loop
      vertex 2.18691 -2.05364 1
      vertex 0 -6 1
      vertex 30 -6 1
    endloop
  endfacet
  facet normal -0.309017 0.951056 0
    outer loop
      vertex -1.12429 5.89372 -1
      vertex -2.55468 5.42896 1
      vertex -1.12429 5.89372 1
    endloop
  endfacet
  facet normal -0.309017 0.951056 0
    outer loop
      vertex -2.55468 5.42896 1
      vertex -1.12429 5.89372 -1
      vertex -2.55468 5.42896 -1
    endloop
  endfacet
  facet normal -0.535827 -0.844328 0
    outer loop
      vertex -3.82454 -4.62308 -1
      vertex -2.55468 -5.42896 1
      vertex -3.82454 -4.62308 1
    endloop
  endfacet
  facet normal -0.535827 -0.844328 -0
    outer loop
      vertex -2.55468 -5.42896 1
      vertex -3.82454 -4.62308 -1
      vertex -2.55468 -5.42896 -1
    endloop
  endfacet
  facet normal -0.0627904 -0.998027 0
    outer loop
      vertex -1.12429 -5.89372 -1
      vertex 0 -5.96446 1
      vertex -1.12429 -5.89372 1
    endloop
  endfacet
  facet normal -0.0627904 -0.998027 -0
    outer loop
      vertex 0 -5.96446 1
      vertex -1.12429 -5.89372 -1
      vertex 0 -5.96446 -1
    endloop
  endfacet
  facet normal -0.728969 -0.684547 0
    outer loop
      vertex -3.82454 -4.62308 -1
      vertex -4.8541 -3.52671 1
      vertex -4.8541 -3.52671 -1
    endloop
  endfacet
  facet normal -0.728969 -0.684547 0
    outer loop
      vertex -4.8541 -3.52671 1
      vertex -3.82454 -4.62308 -1
      vertex -3.82454 -4.62308 1
    endloop
  endfacet
  facet normal -0.968583 -0.24869 0
    outer loop
      vertex -5.57866 -2.20875 -1
      vertex -5.95269 -0.751999 1
      vertex -5.95269 -0.751999 -1
    endloop
  endfacet
  facet normal -0.968583 -0.24869 0
    outer loop
      vertex -5.95269 -0.751999 1
      vertex -5.57866 -2.20875 -1
      vertex -5.57866 -2.20875 1
    endloop
  endfacet
  facet normal -0.309017 -0.951056 0
    outer loop
      vertex -2.55468 -5.42896 -1
      vertex -1.12429 -5.89372 1
      vertex -2.55468 -5.42896 1
    endloop
  endfacet
  facet normal -0.309017 -0.951056 -0
    outer loop
      vertex -1.12429 -5.89372 1
      vertex -2.55468 -5.42896 -1
      vertex -1.12429 -5.89372 -1
    endloop
  endfacet
  facet normal -0.876307 -0.481754 0
    outer loop
      vertex -4.8541 -3.52671 -1
      vertex -5.57866 -2.20875 1
      vertex -5.57866 -2.20875 -1
    endloop
  endfacet
  facet normal -0.876307 -0.481754 0
    outer loop
      vertex -5.57866 -2.20875 1
      vertex -4.8541 -3.52671 -1
      vertex -4.8541 -3.52671 1
    endloop
  endfacet
  facet normal 0.42578 0.904827 -0
    outer loop
      vertex 33.215 5.06597 -1
      vertex 31.8541 5.70634 1
      vertex 33.215 5.06597 1
    endloop
  endfacet
  facet normal 0.42578 0.904827 0
    outer loop
      vertex 31.8541 5.70634 1
      vertex 33.215 5.06597 -1
      vertex 31.8541 5.70634 -1
    endloop
  endfacet
  facet normal 0.187381 -0.982287 0
    outer loop
      vertex 30.3767 -5.98816 -1
      vertex 31.8541 -5.70634 1
      vertex 30.3767 -5.98816 1
    endloop
  endfacet
  facet normal 0.187381 -0.982287 0
    outer loop
      vertex 31.8541 -5.70634 1
      vertex 30.3767 -5.98816 -1
      vertex 31.8541 -5.70634 -1
    endloop
  endfacet
  facet normal -0.0627904 -0.998027 0
    outer loop
      vertex 30 -5.96446 -1
      vertex 30.3767 -5.98816 1
      vertex 30 -5.96446 1
    endloop
  endfacet
  facet normal -0.0627904 -0.998027 -0
    outer loop
      vertex 30.3767 -5.98816 1
      vertex 30 -5.96446 -1
      vertex 30.3767 -5.98816 -1
    endloop
  endfacet
  facet normal 0.637424 0.770513 -0
    outer loop
      vertex 34.3738 4.10728 -1
      vertex 33.215 5.06597 1
      vertex 34.3738 4.10728 1
    endloop
  endfacet
  facet normal 0.637424 0.770513 0
    outer loop
      vertex 33.215 5.06597 1
      vertex 34.3738 4.10728 -1
      vertex 33.215 5.06597 -1
    endloop
  endfacet
  facet normal 0.992115 -0.125332 0
    outer loop
      vertex 35.8115 -1.49214 1
      vertex 36 0 -1
      vertex 36 0 1
    endloop
  endfacet
  facet normal 0.992115 -0.125332 0
    outer loop
      vertex 36 0 -1
      vertex 35.8115 -1.49214 1
      vertex 35.8115 -1.49214 -1
    endloop
  endfacet
  facet normal 0.809016 0.587786 0
    outer loop
      vertex 35.2578 2.89052 1
      vertex 34.3738 4.10728 -1
      vertex 34.3738 4.10728 1
    endloop
  endfacet
  facet normal 0.809016 0.587786 0
    outer loop
      vertex 34.3738 4.10728 -1
      vertex 35.2578 2.89052 1
      vertex 35.2578 2.89052 -1
    endloop
  endfacet
  facet normal -0.0627904 0.998027 0
    outer loop
      vertex 30.3767 5.98816 -1
      vertex 30 5.96446 1
      vertex 30.3767 5.98816 1
    endloop
  endfacet
  facet normal -0.0627904 0.998027 0
    outer loop
      vertex 30 5.96446 1
      vertex 30.3767 5.98816 -1
      vertex 30 5.96446 -1
    endloop
  endfacet
  facet normal 0.992115 0.125332 0
    outer loop
      vertex 36 0 1
      vertex 35.8115 1.49214 -1
      vertex 35.8115 1.49214 1
    endloop
  endfacet
  facet normal 0.992115 0.125332 0
    outer loop
      vertex 35.8115 1.49214 -1
      vertex 36 0 1
      vertex 36 0 -1
    endloop
  endfacet
  facet normal 0.929776 -0.368126 0
    outer loop
      vertex 35.2578 -2.89052 1
      vertex 35.8115 -1.49214 -1
      vertex 35.8115 -1.49214 1
    endloop
  endfacet
  facet normal 0.929776 -0.368126 0
    outer loop
      vertex 35.8115 -1.49214 -1
      vertex 35.2578 -2.89052 1
      vertex 35.2578 -2.89052 -1
    endloop
  endfacet
  facet normal 0.42578 -0.904827 0
    outer loop
      vertex 31.8541 -5.70634 -1
      vertex 33.215 -5.06597 1
      vertex 31.8541 -5.70634 1
    endloop
  endfacet
  facet normal 0.42578 -0.904827 0
    outer loop
      vertex 33.215 -5.06597 1
      vertex 31.8541 -5.70634 -1
      vertex 33.215 -5.06597 -1
    endloop
  endfacet
  facet normal 0.929776 0.368126 0
    outer loop
      vertex 35.8115 1.49214 1
      vertex 35.2578 2.89052 -1
      vertex 35.2578 2.89052 1
    endloop
  endfacet
  facet normal 0.929776 0.368126 0
    outer loop
      vertex 35.2578 2.89052 -1
      vertex 35.8115 1.49214 1
      vertex 35.8115 1.49214 -1
    endloop
  endfacet
  facet normal 0.187381 0.982287 -0
    outer loop
      vertex 31.8541 5.70634 -1
      vertex 30.3767 5.98816 1
      vertex 31.8541 5.70634 1
    endloop
  endfacet
  facet normal 0.187381 0.982287 0
    outer loop
      vertex 30.3767 5.98816 1
      vertex 31.8541 5.70634 -1
      vertex 30.3767 5.98816 -1
    endloop
  endfacet
  facet normal 0.809016 -0.587786 0
    outer loop
      vertex 34.3738 -4.10728 1
      vertex 35.2578 -2.89052 -1
      vertex 35.2578 -2.89052 1
    endloop
  endfacet
  facet normal 0.809016 -0.587786 0
    outer loop
      vertex 35.2578 -2.89052 -1
      vertex 34.3738 -4.10728 1
      vertex 34.3738 -4.10728 -1
    endloop
  endfacet
  facet normal 0.637424 -0.770513 0
    outer loop
      vertex 33.215 -5.06597 -1
      vertex 34.3738 -4.10728 1
      vertex 33.215 -5.06597 1
    endloop
  endfacet
  facet normal 0.637424 -0.770513 0
    outer loop
      vertex 34.3738 -4.10728 1
      vertex 33.215 -5.06597 -1
      vertex 34.3738 -4.10728 -1
    endloop
  endfacet
  facet normal -1 0 0
    outer loop
      vertex 0 -6 -1
      vertex 0 -5.96446 1
      vertex 0 -5.96446 -1
    endloop
  endfacet
  facet normal -1 -0 0
    outer loop
      vertex 0 -5.96446 1
      vertex 0 -6 -1
      vertex 0 -6 1
    endloop
  endfacet
  facet normal -1 0 0
    outer loop
      vertex 0 5.96446 -1
      vertex 0 6 1
      vertex 0 6 -1
    endloop
  endfacet
  facet normal -1 -0 0
    outer loop
      vertex 0 6 1
      vertex 0 5.96446 -1
      vertex 0 5.96446 1
    endloop
  endfacet
  facet normal 1 -0 0
    outer loop
      vertex 30 -6 1
      vertex 30 -5.96446 -1
      vertex 30 -5.96446 1
    endloop
  endfacet
  facet normal 1 0 0
    outer loop
      vertex 30 -5.96446 -1
      vertex 30 -6 1
      vertex 30 -6 -1
    endloop
  endfacet
  facet normal 1 -0 0
    outer loop
      vertex 30 5.96446 1
      vertex 30 6 -1
      vertex 30 6 1
    endloop
  endfacet
  facet normal 1 0 0
    outer loop
      vertex 30 6 -1
      vertex 30 5.96446 1
      vertex 30 5.96446 -1
    endloop
  endfacet
  facet normal 0 -1 0
    outer loop
      vertex 0 -6 -1
      vertex 30 -6 1
      vertex 0 -6 1
    endloop
  endfacet
  facet normal 0 -1 -0
    outer loop
      vertex 30 -6 1
      vertex 0 -6 -1
      vertex 30 -6 -1
    endloop
  endfacet
  facet normal 0 1 -0
    outer loop
      vertex 30 6 -1
      vertex 0 6 1
      vertex 30 6 1
    endloop
  endfacet
  facet normal 0 1 0
    outer loop
      vertex 0 6 1
      vertex 30 6 -1
      vertex 0 6 -1
    endloop
  endfacet
  facet normal -0.992115 -0.125334 0
    outer loop
      vertex 3 0 -1
      vertex 2.90575 0.746069 1
      vertex 2.90575 0.746069 -1
    endloop
  endfacet
  facet normal -0.992115 -0.125334 0
    outer loop
      vertex 2.90575 0.746069 1
      vertex 3 0 -1
      vertex 3 0 1
    endloop
  endfacet
  facet normal 1 -0 0
    outer loop
      vertex -2.97634 -0.375999 1
      vertex -2.97634 0.375999 -1
      vertex -2.97634 0.375999 1
    endloop
  endfacet
  facet normal 1 0 0
    outer loop
      vertex -2.97634 0.375999 -1
      vertex -2.97634 -0.375999 1
      vertex -2.97634 -0.375999 -1
    endloop
  endfacet
  facet normal -0.809017 -0.587785 0
    outer loop
      vertex 2.62892 1.44526 -1
      vertex 2.18691 2.05364 1
      vertex 2.18691 2.05364 -1
    endloop
  endfacet
  facet normal -0.809017 -0.587785 0
    outer loop
      vertex 2.18691 2.05364 1
      vertex 2.62892 1.44526 -1
      vertex 2.62892 1.44526 1
    endloop
  endfacet
  facet normal -0.929776 -0.368125 0
    outer loop
      vertex 2.90575 0.746069 -1
      vertex 2.62892 1.44526 1
      vertex 2.62892 1.44526 -1
    endloop
  endfacet
  facet normal -0.929776 -0.368125 0
    outer loop
      vertex 2.62892 1.44526 1
      vertex 2.90575 0.746069 -1
      vertex 2.90575 0.746069 1
    endloop
  endfacet
  facet normal 0.535826 -0.844328 0
    outer loop
      vertex -1.91227 2.31154 -1
      vertex -1.27734 2.71448 1
      vertex -1.91227 2.31154 1
    endloop
  endfacet
  facet normal 0.535826 -0.844328 0
    outer loop
      vertex -1.27734 2.71448 1
      vertex -1.91227 2.31154 -1
      vertex -1.27734 2.71448 -1
    endloop
  endfacet
  facet normal 0.968583 -0.24869 0
    outer loop
      vertex -2.97634 0.375999 1
      vertex -2.78933 1.10437 -1
      vertex -2.78933 1.10437 1
    endloop
  endfacet
  facet normal 0.968583 -0.24869 0
    outer loop
      vertex -2.78933 1.10437 -1
      vertex -2.97634 0.375999 1
      vertex -2.97634 0.375999 -1
    endloop
  endfacet
  facet normal 0.728969 -0.684547 0
    outer loop
      vertex -2.42705 1.76336 1
      vertex -1.91227 2.31154 -1
      vertex -1.91227 2.31154 1
    endloop
  endfacet
  facet normal 0.728969 -0.684547 0
    outer loop
      vertex -1.91227 2.31154 -1
      vertex -2.42705 1.76336 1
      vertex -2.42705 1.76336 -1
    endloop
  endfacet
  facet normal -0.42578 0.904827 0
    outer loop
      vertex 1.60748 -2.53298 -1
      vertex 0.927051 -2.85317 1
      vertex 1.60748 -2.53298 1
    endloop
  endfacet
  facet normal -0.42578 0.904827 0
    outer loop
      vertex 0.927051 -2.85317 1
      vertex 1.60748 -2.53298 -1
      vertex 0.927051 -2.85317 -1
    endloop
  endfacet
  facet normal -0.637424 -0.770513 0
    outer loop
      vertex 1.60748 2.53298 -1
      vertex 2.18691 2.05364 1
      vertex 1.60748 2.53298 1
    endloop
  endfacet
  facet normal -0.637424 -0.770513 -0
    outer loop
      vertex 2.18691 2.05364 1
      vertex 1.60748 2.53298 -1
      vertex 2.18691 2.05364 -1
    endloop
  endfacet
  facet normal 0.0627905 -0.998027 0
    outer loop
      vertex -0.562143 2.94686 -1
      vertex 0.188371 2.99408 1
      vertex -0.562143 2.94686 1
    endloop
  endfacet
  facet normal 0.0627905 -0.998027 0
    outer loop
      vertex 0.188371 2.99408 1
      vertex -0.562143 2.94686 -1
      vertex 0.188371 2.99408 -1
    endloop
  endfacet
  facet normal -0.42578 -0.904827 0
    outer loop
      vertex 0.927051 2.85317 -1
      vertex 1.60748 2.53298 1
      vertex 0.927051 2.85317 1
    endloop
  endfacet
  facet normal -0.42578 -0.904827 -0
    outer loop
      vertex 1.60748 2.53298 1
      vertex 0.927051 2.85317 -1
      vertex 1.60748 2.53298 -1
    endloop
  endfacet
  facet normal 0.876307 -0.481753 0
    outer loop
      vertex -2.78933 1.10437 1
      vertex -2.42705 1.76336 -1
      vertex -2.42705 1.76336 1
    endloop
  endfacet
  facet normal 0.876307 -0.481753 0
    outer loop
      vertex -2.42705 1.76336 -1
      vertex -2.78933 1.10437 1
      vertex -2.78933 1.10437 -1
    endloop
  endfacet
  facet normal 0.309017 -0.951056 0
    outer loop
      vertex -1.27734 2.71448 -1
      vertex -0.562143 2.94686 1
      vertex -1.27734 2.71448 1
    endloop
  endfacet
  facet normal 0.309017 -0.951056 0
    outer loop
      vertex -0.562143 2.94686 1
      vertex -1.27734 2.71448 -1
      vertex -0.562143 2.94686 -1
    endloop
  endfacet
  facet normal -0.929776 0.368125 0
    outer loop
      vertex 2.62892 -1.44526 -1
      vertex 2.90575 -0.746069 1
      vertex 2.90575 -0.746069 -1
    endloop
  endfacet
  facet normal -0.929776 0.368125 0
    outer loop
      vertex 2.90575 -0.746069 1
      vertex 2.62892 -1.44526 -1
      vertex 2.62892 -1.44526 1
    endloop
  endfacet
  facet normal 0.535826 0.844328 -0
    outer loop
      vertex -1.27734 -2.71448 -1
      vertex -1.91227 -2.31154 1
      vertex -1.27734 -2.71448 1
    endloop
  endfacet
  facet normal 0.535826 0.844328 0
    outer loop
      vertex -1.91227 -2.31154 1
      vertex -1.27734 -2.71448 -1
      vertex -1.91227 -2.31154 -1
    endloop
  endfacet
  facet normal 0.728969 0.684547 0
    outer loop
      vertex -1.91227 -2.31154 1
      vertex -2.42705 -1.76336 -1
      vertex -2.42705 -1.76336 1
    endloop
  endfacet
  facet normal 0.728969 0.684547 0
    outer loop
      vertex -2.42705 -1.76336 -1
      vertex -1.91227 -2.31154 1
      vertex -1.91227 -2.31154 -1
    endloop
  endfacet
  facet normal -0.809017 0.587785 0
    outer loop
      vertex 2.18691 -2.05364 -1
      vertex 2.62892 -1.44526 1
      vertex 2.62892 -1.44526 -1
    endloop
  endfacet
  facet normal -0.809017 0.587785 0
    outer loop
      vertex 2.62892 -1.44526 1
      vertex 2.18691 -2.05364 -1
      vertex 2.18691 -2.05364 1
    endloop
  endfacet
  facet normal -0.992115 0.125334 0
    outer loop
      vertex 2.90575 -0.746069 -1
      vertex 3 0 1
      vertex 3 0 -1
    endloop
  endfacet
  facet normal -0.992115 0.125334 0
    outer loop
      vertex 3 0 1
      vertex 2.90575 -0.746069 -1
      vertex 2.90575 -0.746069 1
    endloop
  endfacet
  facet normal -0.187381 -0.982287 0
    outer loop
      vertex 0.188371 2.99408 -1
      vertex 0.927051 2.85317 1
      vertex 0.188371 2.99408 1
    endloop
  endfacet
  facet normal -0.187381 -0.982287 -0
    outer loop
      vertex 0.927051 2.85317 1
      vertex 0.188371 2.99408 -1
      vertex 0.927051 2.85317 -1
    endloop
  endfacet
  facet normal 0.968583 0.24869 0
    outer loop
      vertex -2.78933 -1.10437 1
      vertex -2.97634 -0.375999 -1
      vertex -2.97634 -0.375999 1
    endloop
  endfacet
  facet normal 0.968583 0.24869 0
    outer loop
      vertex -2.97634 -0.375999 -1
      vertex -2.78933 -1.10437 1
      vertex -2.78933 -1.10437 -1
    endloop
  endfacet
  facet normal -0.637424 0.770513 0
    outer loop
      vertex 2.18691 -2.05364 -1
      vertex 1.60748 -2.53298 1
      vertex 2.18691 -2.05364 1
    endloop
  endfacet
  facet normal -0.637424 0.770513 0
    outer loop
      vertex 1.60748 -2.53298 1
      vertex 2.18691 -2.05364 -1
      vertex 1.60748 -2.53298 -1
    endloop
  endfacet
  facet normal -0.187381 0.982287 0
    outer loop
      vertex 0.927051 -2.85317 -1
      vertex 0.188371 -2.99408 1
      vertex 0.927051 -2.85317 1
    endloop
  endfacet
  facet normal -0.187381 0.982287 0
    outer loop
      vertex 0.188371 -2.99408 1
      vertex 0.927051 -2.85317 -1
      vertex 0.188371 -2.99408 -1
    endloop
  endfacet
  facet normal 0.0627905 0.998027 -0
    outer loop
      vertex 0.188371 -2.99408 -1
      vertex -0.562143 -2.94686 1
      vertex 0.188371 -2.99408 1
    endloop
  endfacet
  facet normal 0.0627905 0.998027 0
    outer loop
      vertex -0.562143 -2.94686 1
      vertex 0.188371 -2.99408 -1
      vertex -0.562143 -2.94686 -1
    endloop
  endfacet
  facet normal 0.876307 0.481753 0
    outer loop
      vertex -2.42705 -1.76336 1
      vertex -2.78933 -1.10437 -1
      vertex -2.78933 -1.10437 1
    endloop
  endfacet
  facet normal 0.876307 0.481753 0
    outer loop
      vertex -2.78933 -1.10437 -1
      vertex -2.42705 -1.76336 1
      vertex -2.42705 -1.76336 -1
    endloop
  endfacet
  facet normal 0.309017 0.951056 -0
    outer loop
      vertex -0.562143 -2.94686 -1
      vertex -1.27734 -2.71448 1
      vertex -0.562143 -2.94686 1
    endloop
  endfacet
  facet normal 0.309017 0.951056 0
    outer loop
      vertex -1.27734 -2.71448 1
      vertex -0.562143 -2.94686 -1
      vertex -1.27734 -2.71448 -1
    endloop
  endfacet
  facet normal -0.992115 -0.125332 0
    outer loop
      vertex 33 0 -1
      vertex 32.9058 0.746069 1
      vertex 32.9058 0.746069 -1
    endloop
  endfacet
  facet normal -0.992115 -0.125332 0
    outer loop
      vertex 32.9058 0.746069 1
      vertex 33 0 -1
      vertex 33 0 1
    endloop
  endfacet
  facet normal 1 -0 0
    outer loop
      vertex 27.0237 -0.375999 1
      vertex 27.0237 0.375999 -1
      vertex 27.0237 0.375999 1
    endloop
  endfacet
  facet normal 1 0 0
    outer loop
      vertex 27.0237 0.375999 -1
      vertex 27.0237 -0.375999 1
      vertex 27.0237 -0.375999 -1
    endloop
  endfacet
  facet normal -0.809015 -0.587788 0
    outer loop
      vertex 32.6289 1.44526 -1
      vertex 32.1869 2.05364 1
      vertex 32.1869 2.05364 -1
    endloop
  endfacet
  facet normal -0.809015 -0.587788 0
    outer loop
      vertex 32.1869 2.05364 1
      vertex 32.6289 1.44526 -1
      vertex 32.6289 1.44526 1
    endloop
  endfacet
  facet normal -0.929777 -0.368123 0
    outer loop
      vertex 32.9058 0.746069 -1
      vertex 32.6289 1.44526 1
      vertex 32.6289 1.44526 -1
    endloop
  endfacet
  facet normal -0.929777 -0.368123 0
    outer loop
      vertex 32.6289 1.44526 1
      vertex 32.9058 0.746069 -1
      vertex 32.9058 0.746069 1
    endloop
  endfacet
  facet normal -0.18738 -0.982287 0
    outer loop
      vertex 30.1884 2.99408 -1
      vertex 30.9271 2.85317 1
      vertex 30.1884 2.99408 1
    endloop
  endfacet
  facet normal -0.18738 -0.982287 -0
    outer loop
      vertex 30.9271 2.85317 1
      vertex 30.1884 2.99408 -1
      vertex 30.9271 2.85317 -1
    endloop
  endfacet
  facet normal -0.425781 -0.904826 0
    outer loop
      vertex 30.9271 2.85317 -1
      vertex 31.6075 2.53298 1
      vertex 30.9271 2.85317 1
    endloop
  endfacet
  facet normal -0.425781 -0.904826 -0
    outer loop
      vertex 31.6075 2.53298 1
      vertex 30.9271 2.85317 -1
      vertex 31.6075 2.53298 -1
    endloop
  endfacet
  facet normal 0.535825 -0.844329 0
    outer loop
      vertex 28.0877 2.31154 -1
      vertex 28.7227 2.71448 1
      vertex 28.0877 2.31154 1
    endloop
  endfacet
  facet normal 0.535825 -0.844329 0
    outer loop
      vertex 28.7227 2.71448 1
      vertex 28.0877 2.31154 -1
      vertex 28.7227 2.71448 -1
    endloop
  endfacet
  facet normal 0.968583 -0.248691 0
    outer loop
      vertex 27.0237 0.375999 1
      vertex 27.2107 1.10437 -1
      vertex 27.2107 1.10437 1
    endloop
  endfacet
  facet normal 0.968583 -0.248691 0
    outer loop
      vertex 27.2107 1.10437 -1
      vertex 27.0237 0.375999 1
      vertex 27.0237 0.375999 -1
    endloop
  endfacet
  facet normal 0.728969 -0.684546 0
    outer loop
      vertex 27.5729 1.76336 1
      vertex 28.0877 2.31154 -1
      vertex 28.0877 2.31154 1
    endloop
  endfacet
  facet normal 0.728969 -0.684546 0
    outer loop
      vertex 28.0877 2.31154 -1
      vertex 27.5729 1.76336 1
      vertex 27.5729 1.76336 -1
    endloop
  endfacet
  facet normal -0.425781 0.904826 0
    outer loop
      vertex 31.6075 -2.53298 -1
      vertex 30.9271 -2.85317 1
      vertex 31.6075 -2.53298 1
    endloop
  endfacet
  facet normal -0.425781 0.904826 0
    outer loop
      vertex 30.9271 -2.85317 1
      vertex 31.6075 -2.53298 -1
      vertex 30.9271 -2.85317 -1
    endloop
  endfacet
  facet normal -0.637424 -0.770513 0
    outer loop
      vertex 31.6075 2.53298 -1
      vertex 32.1869 2.05364 1
      vertex 31.6075 2.53298 1
    endloop
  endfacet
  facet normal -0.637424 -0.770513 -0
    outer loop
      vertex 32.1869 2.05364 1
      vertex 31.6075 2.53298 -1
      vertex 32.1869 2.05364 -1
    endloop
  endfacet
  facet normal 0.0627904 -0.998027 0
    outer loop
      vertex 29.4379 2.94686 -1
      vertex 30.1884 2.99408 1
      vertex 29.4379 2.94686 1
    endloop
  endfacet
  facet normal 0.0627904 -0.998027 0
    outer loop
      vertex 30.1884 2.99408 1
      vertex 29.4379 2.94686 -1
      vertex 30.1884 2.99408 -1
    endloop
  endfacet
  facet normal 0.876307 -0.481753 0
    outer loop
      vertex 27.2107 1.10437 1
      vertex 27.5729 1.76336 -1
      vertex 27.5729 1.76336 1
    endloop
  endfacet
  facet normal 0.876307 -0.481753 0
    outer loop
      vertex 27.5729 1.76336 -1
      vertex 27.2107 1.10437 1
      vertex 27.2107 1.10437 -1
    endloop
  endfacet
  facet normal 0.309018 -0.951056 0
    outer loop
      vertex 28.7227 2.71448 -1
      vertex 29.4379 2.94686 1
      vertex 28.7227 2.71448 1
    endloop
  endfacet
  facet normal 0.309018 -0.951056 0
    outer loop
      vertex 29.4379 2.94686 1
      vertex 28.7227 2.71448 -1
      vertex 29.4379 2.94686 -1
    endloop
  endfacet
  facet normal -0.929777 0.368123 0
    outer loop
      vertex 32.6289 -1.44526 -1
      vertex 32.9058 -0.746069 1
      vertex 32.9058 -0.746069 -1
    endloop
  endfacet
  facet normal -0.929777 0.368123 0
    outer loop
      vertex 32.9058 -0.746069 1
      vertex 32.6289 -1.44526 -1
      vertex 32.6289 -1.44526 1
    endloop
  endfacet
  facet normal 0.535825 0.844329 -0
    outer loop
      vertex 28.7227 -2.71448 -1
      vertex 28.0877 -2.31154 1
      vertex 28.7227 -2.71448 1
    endloop
  endfacet
  facet normal 0.535825 0.844329 0
    outer loop
      vertex 28.0877 -2.31154 1
      vertex 28.7227 -2.71448 -1
      vertex 28.0877 -2.31154 -1
    endloop
  endfacet
  facet normal 0.728969 0.684546 0
    outer loop
      vertex 28.0877 -2.31154 1
      vertex 27.5729 -1.76336 -1
      vertex 27.5729 -1.76336 1
    endloop
  endfacet
  facet normal 0.728969 0.684546 0
    outer loop
      vertex 27.5729 -1.76336 -1
      vertex 28.0877 -2.31154 1
      vertex 28.0877 -2.31154 -1
    endloop
  endfacet
  facet normal -0.809015 0.587788 0
    outer loop
      vertex 32.1869 -2.05364 -1
      vertex 32.6289 -1.44526 1
      vertex 32.6289 -1.44526 -1
    endloop
  endfacet
  facet normal -0.809015 0.587788 0
    outer loop
      vertex 32.6289 -1.44526 1
      vertex 32.1869 -2.05364 -1
      vertex 32.1869 -2.05364 1
    endloop
  endfacet
  facet normal -0.992115 0.125332 0
    outer loop
      vertex 32.9058 -0.746069 -1
      vertex 33 0 1
      vertex 33 0 -1
    endloop
  endfacet
  facet normal -0.992115 0.125332 0
    outer loop
      vertex 33 0 1
      vertex 32.9058 -0.746069 -1
      vertex 32.9058 -0.746069 1
    endloop
  endfacet
  facet normal 0.968583 0.248691 0
    outer loop
      vertex 27.2107 -1.10437 1
      vertex 27.0237 -0.375999 -1
      vertex 27.0237 -0.375999 1
    endloop
  endfacet
  facet normal 0.968583 0.248691 0
    outer loop
      vertex 27.0237 -0.375999 -1
      vertex 27.2107 -1.10437 1
      vertex 27.2107 -1.10437 -1
    endloop
  endfacet
  facet normal -0.637424 0.770513 0
    outer loop
      vertex 32.1869 -2.05364 -1
      vertex 31.6075 -2.53298 1
      vertex 32.1869 -2.05364 1
    endloop
  endfacet
  facet normal -0.637424 0.770513 0
    outer loop
      vertex 31.6075 -2.53298 1
      vertex 32.1869 -2.05364 -1
      vertex 31.6075 -2.53298 -1
    endloop
  endfacet
  facet normal -0.18738 0.982287 0
    outer loop
      vertex 30.9271 -2.85317 -1
      vertex 30.1884 -2.99408 1
      vertex 30.9271 -2.85317 1
    endloop
  endfacet
  facet normal -0.18738 0.982287 0
    outer loop
      vertex 30.1884 -2.99408 1
      vertex 30.9271 -2.85317 -1
      vertex 30.1884 -2.99408 -1
    endloop
  endfacet
  facet normal 0.0627904 0.998027 -0
    outer loop
      vertex 30.1884 -2.99408 -1
      vertex 29.4379 -2.94686 1
      vertex 30.1884 -2.99408 1
    endloop
  endfacet
  facet normal 0.0627904 0.998027 0
    outer loop
      vertex 29.4379 -2.94686 1
      vertex 30.1884 -2.99408 -1
      vertex 29.4379 -2.94686 -1
    endloop
  endfacet
  facet normal 0.876307 0.481753 0
    outer loop
      vertex 27.5729 -1.76336 1
      vertex 27.2107 -1.10437 -1
      vertex 27.2107 -1.10437 1
    endloop
  endfacet
  facet normal 0.876307 0.481753 0
    outer loop
      vertex 27.2107 -1.10437 -1
      vertex 27.5729 -1.76336 1
      vertex 27.5729 -1.76336 -1
    endloop
  endfacet
  facet normal 0.309018 0.951056 -0
    outer loop
      vertex 29.4379 -2.94686 -1
      vertex 28.7227 -2.71448 1
      vertex 29.4379 -2.94686 1
    endloop
  endfacet
  facet normal 0.309018 0.951056 0
    outer loop
      vertex 28.7227 -2.71448 1
      vertex 29.4379 -2.94686 -1
      vertex 28.7227 -2.71448 -1
    endloop
  endfacet
endsolid OpenSCAD_Model
