solid OpenSCAD_Model
  facet normal 0.992115 0.125333 0
    outer loop
      vertex 6 0 2
      vertex 5.8115 1.49214 0
      vertex 5.8115 1.49214 2
    endloop
  endfacet
  facet normal 0.992115 0.125333 0
    outer loop
      vertex 5.8115 1.49214 0
      vertex 6 0 2
      vertex 6 0 0
    endloop
  endfacet
  facet normal -1 0 0
    outer loop
      vertex -5.95269 -0.751999 0
      vertex -5.95269 0.751999 2
      vertex -5.95269 0.751999 0
    endloop
  endfacet
  facet normal -1 -0 0
    outer loop
      vertex -5.95269 0.751999 2
      vertex -5.95269 -0.751999 0
      vertex -5.95269 -0.751999 2
    endloop
  endfacet
  facet normal -0.0627904 0.998027 0
    outer loop
      vertex 0.376742 5.98816 0
      vertex -1.12429 5.89372 2
      vertex 0.376742 5.98816 2
    endloop
  endfacet
  facet normal -0.0627904 0.998027 0
    outer loop
      vertex -1.12429 5.89372 2
      vertex 0.376742 5.98816 0
      vertex -1.12429 5.89372 0
    endloop
  endfacet
  facet normal 0.637424 0.770513 -0
    outer loop
      vertex 4.37381 4.10728 0
      vertex 3.21496 5.06597 2
      vertex 4.37381 4.10728 2
    endloop
  endfacet
  facet normal 0.637424 0.770513 0
    outer loop
      vertex 3.21496 5.06597 2
      vertex 4.37381 4.10728 0
      vertex 3.21496 5.06597 0
    endloop
  endfacet
  facet normal 0.42578 0.904827 -0
    outer loop
      vertex 3.21496 5.06597 0
      vertex 1.8541 5.70634 2
      vertex 3.21496 5.06597 2
    endloop
  endfacet
  facet normal 0.42578 0.904827 0
    outer loop
      vertex 1.8541 5.70634 2
      vertex 3.21496 5.06597 0
      vertex 1.8541 5.70634 0
    endloop
  endfacet
  facet normal -0.728969 0.684547 0
    outer loop
      vertex -4.8541 3.52671 0
      vertex -3.82454 4.62308 2
      vertex -3.82454 4.62308 0
    endloop
  endfacet
  facet normal -0.728969 0.684547 0
    outer loop
      vertex -3.82454 4.62308 2
      vertex -4.8541 3.52671 0
      vertex -4.8541 3.52671 2
    endloop
  endfacet
  facet normal -0.876307 0.481754 0
    outer loop
      vertex -5.57866 2.20875 0
      vertex -4.8541 3.52671 2
      vertex -4.8541 3.52671 0
    endloop
  endfacet
  facet normal -0.876307 0.481754 0
    outer loop
      vertex -4.8541 3.52671 2
      vertex -5.57866 2.20875 0
      vertex -5.57866 2.20875 2
    endloop
  endfacet
  facet normal -0.535827 0.844328 0
    outer loop
      vertex -2.55468 5.42896 0
      vertex -3.82454 4.62308 2
      vertex -2.55468 5.42896 2
    endloop
  endfacet
  facet normal -0.535827 0.844328 0
    outer loop
      vertex -3.82454 4.62308 2
      vertex -2.55468 5.42896 0
      vertex -3.82454 4.62308 0
    endloop
  endfacet
  facet normal 0 0 -1
    outer loop
      vertex 3 0 0
      vertex 6 0 0
      vertex 5.8115 -1.49214 0
    endloop
  endfacet
  facet normal 0 0 -1
    outer loop
      vertex 2.90575 -0.746069 0
      vertex 5.8115 -1.49214 0
      vertex 5.25784 -2.89052 0
    endloop
  endfacet
  facet normal 0 0 -1
    outer loop
      vertex 6 0 0
      vertex 3 0 0
      vertex 5.8115 1.49214 0
    endloop
  endfacet
  facet normal 0 0 -1
    outer loop
      vertex 2.62892 -1.44526 0
      vertex 5.25784 -2.89052 0
      vertex 4.37381 -4.10728 0
    endloop
  endfacet
  facet normal 0 0 -1
    outer loop
      vertex 2.90575 0.746069 0
      vertex 5.8115 1.49214 0
      vertex 3 0 0
    endloop
  endfacet
  facet normal 0 0 -1
    outer loop
      vertex 2.18691 -2.05364 0
      vertex 4.37381 -4.10728 0
      vertex 3.21496 -5.06597 0
    endloop
  endfacet
  facet normal -0 0 -1
    outer loop
      vertex 5.8115 1.49214 0
      vertex 2.90575 0.746069 0
      vertex 5.25784 2.89052 0
    endloop
  endfacet
  facet normal 0 0 -1
    outer loop
      vertex 2.62892 1.44526 0
      vertex 5.25784 2.89052 0
      vertex 2.90575 0.746069 0
    endloop
  endfacet
  facet normal 0 0 -1
    outer loop
      vertex 5.8115 -1.49214 0
      vertex 2.90575 -0.746069 0
      vertex 3 0 0
    endloop
  endfacet
  facet normal 0 0 -1
    outer loop
      vertex 5.25784 -2.89052 0
      vertex 2.62892 -1.44526 0
      vertex 2.90575 -0.746069 0
    endloop
  endfacet
  facet normal 0 0 -1
    outer loop
      vertex 4.37381 -4.10728 0
      vertex 2.18691 -2.05364 0
      vertex 2.62892 -1.44526 0
    endloop
  endfacet
  facet normal 0 0 -1
    outer loop
      vertex 1.60748 -2.53298 0
      vertex 3.21496 -5.06597 0
      vertex 1.8541 -5.70634 0
    endloop
  endfacet
  facet normal 0 0 -1
    outer loop
      vertex 3.21496 -5.06597 0
      vertex 1.60748 -2.53298 0
      vertex 2.18691 -2.05364 0
    endloop
  endfacet
  facet normal 0 0 -1
    outer loop
      vertex 1.8541 -5.70634 0
      vertex 0.927051 -2.85317 0
      vertex 1.60748 -2.53298 0
    endloop
  endfacet
  facet normal 0 0 -1
    outer loop
      vertex 0.376742 -5.98816 0
      vertex 0.927051 -2.85317 0
      vertex 1.8541 -5.70634 0
    endloop
  endfacet
  facet normal 0 0 -1
    outer loop
      vertex 0.376742 -5.98816 0
      vertex 0.188371 -2.99408 0
      vertex 0.927051 -2.85317 0
    endloop
  endfacet
  facet normal 0 0 -1
    outer loop
      vertex 0.376742 -5.98816 0
      vertex -0.562143 -2.94686 0
      vertex 0.188371 -2.99408 0
    endloop
  endfacet
  facet normal 0 0 -1
    outer loop
      vertex -1.12429 -5.89372 0
      vertex -0.562143 -2.94686 0
      vertex 0.376742 -5.98816 0
    endloop
  endfacet
  facet normal 0 0 -1
    outer loop
      vertex -1.12429 -5.89372 0
      vertex -1.27734 -2.71448 0
      vertex -0.562143 -2.94686 0
    endloop
  endfacet
  facet normal 0 0 -1
    outer loop
      vertex -2.55468 -5.42896 0
      vertex -1.27734 -2.71448 0
      vertex -1.12429 -5.89372 0
    endloop
  endfacet
  facet normal -0 0 -1
    outer loop
      vertex -1.27734 -2.71448 0
      vertex -2.55468 -5.42896 0
      vertex -1.91227 -2.31154 0
    endloop
  endfacet
  facet normal 0 0 -1
    outer loop
      vertex -3.82454 -4.62308 0
      vertex -1.91227 -2.31154 0
      vertex -2.55468 -5.42896 0
    endloop
  endfacet
  facet normal -0 0 -1
    outer loop
      vertex -1.91227 -2.31154 0
      vertex -3.82454 -4.62308 0
      vertex -2.42705 -1.76336 0
    endloop
  endfacet
  facet normal 0 0 -1
    outer loop
      vertex -4.8541 -3.52671 0
      vertex -2.42705 -1.76336 0
      vertex -3.82454 -4.62308 0
    endloop
  endfacet
  facet normal 0 0 -1
    outer loop
      vertex -5.57866 -2.20875 0
      vertex -2.78933 -1.10437 0
      vertex -4.8541 -3.52671 0
    endloop
  endfacet
  facet normal -0 0 -1
    outer loop
      vertex -2.42705 -1.76336 0
      vertex -4.8541 -3.52671 0
      vertex -2.78933 -1.10437 0
    endloop
  endfacet
  facet normal -0 0 -1
    outer loop
      vertex 5.25784 2.89052 0
      vertex 2.62892 1.44526 0
      vertex 4.37381 4.10728 0
    endloop
  endfacet
  facet normal 0 0 -1
    outer loop
      vertex 2.18691 2.05364 0
      vertex 4.37381 4.10728 0
      vertex 2.62892 1.44526 0
    endloop
  endfacet
  facet normal -0 0 -1
    outer loop
      vertex 4.37381 4.10728 0
      vertex 2.18691 2.05364 0
      vertex 3.21496 5.06597 0
    endloop
  endfacet
  facet normal 0 0 -1
    outer loop
      vertex 1.60748 2.53298 0
      vertex 3.21496 5.06597 0
      vertex 2.18691 2.05364 0
    endloop
  endfacet
  facet normal -0 0 -1
    outer loop
      vertex 3.21496 5.06597 0
      vertex 1.60748 2.53298 0
      vertex 1.8541 5.70634 0
    endloop
  endfacet
  facet normal 0 0 -1
    outer loop
      vertex 0.927051 2.85317 0
      vertex 1.8541 5.70634 0
      vertex 1.60748 2.53298 0
    endloop
  endfacet
  facet normal 0 0 -1
    outer loop
      vertex 0.927051 2.85317 0
      vertex 0.376742 5.98816 0
      vertex 1.8541 5.70634 0
    endloop
  endfacet
  facet normal 0 0 -1
    outer loop
      vertex 0.188371 2.99408 0
      vertex 0.376742 5.98816 0
      vertex 0.927051 2.85317 0
    endloop
  endfacet
  facet normal 0 0 -1
    outer loop
      vertex -0.562143 2.94686 0
      vertex 0.376742 5.98816 0
      vertex 0.188371 2.99408 0
    endloop
  endfacet
  facet normal 0 0 -1
    outer loop
      vertex -0.562143 2.94686 0
      vertex -1.12429 5.89372 0
      vertex 0.376742 5.98816 0
    endloop
  endfacet
  facet normal 0 0 -1
    outer loop
      vertex -1.27734 2.71448 0
      vertex -1.12429 5.89372 0
      vertex -0.562143 2.94686 0
    endloop
  endfacet
  facet normal 0 0 -1
    outer loop
      vertex -2.55468 5.42896 0
      vertex -1.27734 2.71448 0
      vertex -1.91227 2.31154 0
    endloop
  endfacet
  facet normal 0 0 -1
    outer loop
      vertex -3.82454 4.62308 0
      vertex -1.91227 2.31154 0
      vertex -2.42705 1.76336 0
    endloop
  endfacet
  facet normal 0 0 -1
    outer loop
      vertex -1.27734 2.71448 0
      vertex -2.55468 5.42896 0
      vertex -1.12429 5.89372 0
    endloop
  endfacet
  facet normal 0 0 -1
    outer loop
      vertex -4.8541 3.52671 0
      vertex -2.42705 1.76336 0
      vertex -2.78933 1.10437 0
    endloop
  endfacet
  facet normal 0 0 -1
    outer loop
      vertex -5.57866 2.20875 0
      vertex -2.78933 1.10437 0
      vertex -2.97634 0.375999 0
    endloop
  endfacet
  facet normal -0 0 -1
    outer loop
      vertex -2.78933 -1.10437 0
      vertex -5.57866 -2.20875 0
      vertex -2.97634 -0.375999 0
    endloop
  endfacet
  facet normal 0 0 -1
    outer loop
      vertex -1.91227 2.31154 0
      vertex -3.82454 4.62308 0
      vertex -2.55468 5.42896 0
    endloop
  endfacet
  facet normal 0 0 -1
    outer loop
      vertex -5.95269 -0.751999 0
      vertex -2.97634 -0.375999 0
      vertex -5.57866 -2.20875 0
    endloop
  endfacet
  facet normal 0 0 -1
    outer loop
      vertex -2.42705 1.76336 0
      vertex -4.8541 3.52671 0
      vertex -3.82454 4.62308 0
    endloop
  endfacet
  facet normal -0 0 -1
    outer loop
      vertex -2.97634 -0.375999 0
      vertex -5.95269 -0.751999 0
      vertex -2.97634 0.375999 0
    endloop
  endfacet
  facet normal 0 0 -1
    outer loop
      vertex -2.78933 1.10437 0
      vertex -5.57866 2.20875 0
      vertex -4.8541 3.52671 0
    endloop
  endfacet
  facet normal 0 0 -1
    outer loop
      vertex -5.95269 0.751999 0
      vertex -2.97634 0.375999 0
      vertex -5.95269 -0.751999 0
    endloop
  endfacet
  facet normal 0 0 -1
    outer loop
      vertex -2.97634 0.375999 0
      vertex -5.95269 0.751999 0
      vertex -5.57866 2.20875 0
    endloop
  endfacet
  facet normal 0.809017 0.587785 0
    outer loop
      vertex 5.25784 2.89052 2
      vertex 4.37381 4.10728 0
      vertex 4.37381 4.10728 2
    endloop
  endfacet
  facet normal 0.809017 0.587785 0
    outer loop
      vertex 4.37381 4.10728 0
      vertex 5.25784 2.89052 2
      vertex 5.25784 2.89052 0
    endloop
  endfacet
  facet normal 0.929776 0.368125 0
    outer loop
      vertex 5.8115 1.49214 2
      vertex 5.25784 2.89052 0
      vertex 5.25784 2.89052 2
    endloop
  endfacet
  facet normal 0.929776 0.368125 0
    outer loop
      vertex 5.25784 2.89052 0
      vertex 5.8115 1.49214 2
      vertex 5.8115 1.49214 0
    endloop
  endfacet
  facet normal 0.187381 0.982287 -0
    outer loop
      vertex 1.8541 5.70634 0
      vertex 0.376742 5.98816 2
      vertex 1.8541 5.70634 2
    endloop
  endfacet
  facet normal 0.187381 0.982287 0
    outer loop
      vertex 0.376742 5.98816 2
      vertex 1.8541 5.70634 0
      vertex 0.376742 5.98816 0
    endloop
  endfacet
  facet normal -0.968583 0.24869 0
    outer loop
      vertex -5.95269 0.751999 0
      vertex -5.57866 2.20875 2
      vertex -5.57866 2.20875 0
    endloop
  endfacet
  facet normal -0.968583 0.24869 0
    outer loop
      vertex -5.57866 2.20875 2
      vertex -5.95269 0.751999 0
      vertex -5.95269 0.751999 2
    endloop
  endfacet
  facet normal -0.309017 0.951056 0
    outer loop
      vertex -1.12429 5.89372 0
      vertex -2.55468 5.42896 2
      vertex -1.12429 5.89372 2
    endloop
  endfacet
  facet normal -0.309017 0.951056 0
    outer loop
      vertex -2.55468 5.42896 2
      vertex -1.12429 5.89372 0
      vertex -2.55468 5.42896 0
    endloop
  endfacet
  facet normal 0.992115 -0.125333 0
    outer loop
      vertex 5.8115 -1.49214 2
      vertex 6 0 0
      vertex 6 0 2
    endloop
  endfacet
  facet normal 0.992115 -0.125333 0
    outer loop
      vertex 6 0 0
      vertex 5.8115 -1.49214 2
      vertex 5.8115 -1.49214 0
    endloop
  endfacet
  facet normal 0.187381 -0.982287 0
    outer loop
      vertex 0.376742 -5.98816 0
      vertex 1.8541 -5.70634 2
      vertex 0.376742 -5.98816 2
    endloop
  endfacet
  facet normal 0.187381 -0.982287 0
    outer loop
      vertex 1.8541 -5.70634 2
      vertex 0.376742 -5.98816 0
      vertex 1.8541 -5.70634 0
    endloop
  endfacet
  facet normal -0.535827 -0.844328 0
    outer loop
      vertex -3.82454 -4.62308 0
      vertex -2.55468 -5.42896 2
      vertex -3.82454 -4.62308 2
    endloop
  endfacet
  facet normal -0.535827 -0.844328 -0
    outer loop
      vertex -2.55468 -5.42896 2
      vertex -3.82454 -4.62308 0
      vertex -2.55468 -5.42896 0
    endloop
  endfacet
  facet normal -0.0627904 -0.998027 0
    outer loop
      vertex -1.12429 -5.89372 0
      vertex 0.376742 -5.98816 2
      vertex -1.12429 -5.89372 2
    endloop
  endfacet
  facet normal -0.0627904 -0.998027 -0
    outer loop
      vertex 0.376742 -5.98816 2
      vertex -1.12429 -5.89372 0
      vertex 0.376742 -5.98816 0
    endloop
  endfacet
  facet normal -0.728969 -0.684547 0
    outer loop
      vertex -3.82454 -4.62308 0
      vertex -4.8541 -3.52671 2
      vertex -4.8541 -3.52671 0
    endloop
  endfacet
  facet normal -0.728969 -0.684547 0
    outer loop
      vertex -4.8541 -3.52671 2
      vertex -3.82454 -4.62308 0
      vertex -3.82454 -4.62308 2
    endloop
  endfacet
  facet normal -0.968583 -0.24869 0
    outer loop
      vertex -5.57866 -2.20875 0
      vertex -5.95269 -0.751999 2
      vertex -5.95269 -0.751999 0
    endloop
  endfacet
  facet normal -0.968583 -0.24869 0
    outer loop
      vertex -5.95269 -0.751999 2
      vertex -5.57866 -2.20875 0
      vertex -5.57866 -2.20875 2
    endloop
  endfacet
  facet normal 0.637424 -0.770513 0
    outer loop
      vertex 3.21496 -5.06597 0
      vertex 4.37381 -4.10728 2
      vertex 3.21496 -5.06597 2
    endloop
  endfacet
  facet normal 0.637424 -0.770513 0
    outer loop
      vertex 4.37381 -4.10728 2
      vertex 3.21496 -5.06597 0
      vertex 4.37381 -4.10728 0
    endloop
  endfacet
  facet normal 0.929776 -0.368125 0
    outer loop
      vertex 5.25784 -2.89052 2
      vertex 5.8115 -1.49214 0
      vertex 5.8115 -1.49214 2
    endloop
  endfacet
  facet normal 0.929776 -0.368125 0
    outer loop
      vertex 5.8115 -1.49214 0
      vertex 5.25784 -2.89052 2
      vertex 5.25784 -2.89052 0
    endloop
  endfacet
  facet normal 0.809017 -0.587785 0
    outer loop
      vertex 4.37381 -4.10728 2
      vertex 5.25784 -2.89052 0
      vertex 5.25784 -2.89052 2
    endloop
  endfacet
  facet normal 0.809017 -0.587785 0
    outer loop
      vertex 5.25784 -2.89052 0
      vertex 4.37381 -4.10728 2
      vertex 4.37381 -4.10728 0
    endloop
  endfacet
  facet normal 0.42578 -0.904827 0
    outer loop
      vertex 1.8541 -5.70634 0
      vertex 3.21496 -5.06597 2
      vertex 1.8541 -5.70634 2
    endloop
  endfacet
  facet normal 0.42578 -0.904827 0
    outer loop
      vertex 3.21496 -5.06597 2
      vertex 1.8541 -5.70634 0
      vertex 3.21496 -5.06597 0
    endloop
  endfacet
  facet normal -0.309017 -0.951056 0
    outer loop
      vertex -2.55468 -5.42896 0
      vertex -1.12429 -5.89372 2
      vertex -2.55468 -5.42896 2
    endloop
  endfacet
  facet normal -0.309017 -0.951056 -0
    outer loop
      vertex -1.12429 -5.89372 2
      vertex -2.55468 -5.42896 0
      vertex -1.12429 -5.89372 0
    endloop
  endfacet
  facet normal -0.876307 -0.481754 0
    outer loop
      vertex -4.8541 -3.52671 0
      vertex -5.57866 -2.20875 2
      vertex -5.57866 -2.20875 0
    endloop
  endfacet
  facet normal -0.876307 -0.481754 0
    outer loop
      vertex -5.57866 -2.20875 2
      vertex -4.8541 -3.52671 0
      vertex -4.8541 -3.52671 2
    endloop
  endfacet
  facet normal 0 0 1
    outer loop
      vertex 3 0 2
      vertex 6 0 2
      vertex 5.8115 1.49214 2
    endloop
  endfacet
  facet normal 0 0 1
    outer loop
      vertex 2.90575 0.746069 2
      vertex 5.8115 1.49214 2
      vertex 5.25784 2.89052 2
    endloop
  endfacet
  facet normal 0 0 1
    outer loop
      vertex 6 0 2
      vertex 3 0 2
      vertex 5.8115 -1.49214 2
    endloop
  endfacet
  facet normal 0 0 1
    outer loop
      vertex 2.62892 1.44526 2
      vertex 5.25784 2.89052 2
      vertex 4.37381 4.10728 2
    endloop
  endfacet
  facet normal -0 0 1
    outer loop
      vertex 2.90575 -0.746069 2
      vertex 5.8115 -1.49214 2
      vertex 3 0 2
    endloop
  endfacet
  facet normal 0 0 1
    outer loop
      vertex 2.18691 2.05364 2
      vertex 4.37381 4.10728 2
      vertex 3.21496 5.06597 2
    endloop
  endfacet
  facet normal 0 0 1
    outer loop
      vertex 5.8115 -1.49214 2
      vertex 2.90575 -0.746069 2
      vertex 5.25784 -2.89052 2
    endloop
  endfacet
  facet normal -0 0 1
    outer loop
      vertex 2.62892 -1.44526 2
      vertex 5.25784 -2.89052 2
      vertex 2.90575 -0.746069 2
    endloop
  endfacet
  facet normal 0 0 1
    outer loop
      vertex 5.8115 1.49214 2
      vertex 2.90575 0.746069 2
      vertex 3 0 2
    endloop
  endfacet
  facet normal 0 0 1
    outer loop
      vertex 5.25784 2.89052 2
      vertex 2.62892 1.44526 2
      vertex 2.90575 0.746069 2
    endloop
  endfacet
  facet normal 0 0 1
    outer loop
      vertex 4.37381 4.10728 2
      vertex 2.18691 2.05364 2
      vertex 2.62892 1.44526 2
    endloop
  endfacet
  facet normal 0 0 1
    outer loop
      vertex 1.60748 2.53298 2
      vertex 3.21496 5.06597 2
      vertex 1.8541 5.70634 2
    endloop
  endfacet
  facet normal 0 0 1
    outer loop
      vertex 3.21496 5.06597 2
      vertex 1.60748 2.53298 2
      vertex 2.18691 2.05364 2
    endloop
  endfacet
  facet normal 0 0 1
    outer loop
      vertex 1.8541 5.70634 2
      vertex 0.927051 2.85317 2
      vertex 1.60748 2.53298 2
    endloop
  endfacet
  facet normal 0 0 1
    outer loop
      vertex 0.376742 5.98816 2
      vertex 0.927051 2.85317 2
      vertex 1.8541 5.70634 2
    endloop
  endfacet
  facet normal 0 0 1
    outer loop
      vertex 0.376742 5.98816 2
      vertex 0.188371 2.99408 2
      vertex 0.927051 2.85317 2
    endloop
  endfacet
  facet normal 0 0 1
    outer loop
      vertex 0.376742 5.98816 2
      vertex -0.562143 2.94686 2
      vertex 0.188371 2.99408 2
    endloop
  endfacet
  facet normal -0 0 1
    outer loop
      vertex -1.12429 5.89372 2
      vertex -0.562143 2.94686 2
      vertex 0.376742 5.98816 2
    endloop
  endfacet
  facet normal 0 0 1
    outer loop
      vertex -1.12429 5.89372 2
      vertex -1.27734 2.71448 2
      vertex -0.562143 2.94686 2
    endloop
  endfacet
  facet normal -0 0 1
    outer loop
      vertex -2.55468 5.42896 2
      vertex -1.27734 2.71448 2
      vertex -1.12429 5.89372 2
    endloop
  endfacet
  facet normal 0 0 1
    outer loop
      vertex -1.27734 2.71448 2
      vertex -2.55468 5.42896 2
      vertex -1.91227 2.31154 2
    endloop
  endfacet
  facet normal -0 0 1
    outer loop
      vertex -3.82454 4.62308 2
      vertex -1.91227 2.31154 2
      vertex -2.55468 5.42896 2
    endloop
  endfacet
  facet normal 0 0 1
    outer loop
      vertex -1.91227 2.31154 2
      vertex -3.82454 4.62308 2
      vertex -2.42705 1.76336 2
    endloop
  endfacet
  facet normal -0 0 1
    outer loop
      vertex -4.8541 3.52671 2
      vertex -2.42705 1.76336 2
      vertex -3.82454 4.62308 2
    endloop
  endfacet
  facet normal -0 0 1
    outer loop
      vertex -5.57866 2.20875 2
      vertex -2.78933 1.10437 2
      vertex -4.8541 3.52671 2
    endloop
  endfacet
  facet normal 0 0 1
    outer loop
      vertex -2.42705 1.76336 2
      vertex -4.8541 3.52671 2
      vertex -2.78933 1.10437 2
    endloop
  endfacet
  facet normal 0 0 1
    outer loop
      vertex 5.25784 -2.89052 2
      vertex 2.62892 -1.44526 2
      vertex 4.37381 -4.10728 2
    endloop
  endfacet
  facet normal -0 0 1
    outer loop
      vertex 2.18691 -2.05364 2
      vertex 4.37381 -4.10728 2
      vertex 2.62892 -1.44526 2
    endloop
  endfacet
  facet normal 0 0 1
    outer loop
      vertex 4.37381 -4.10728 2
      vertex 2.18691 -2.05364 2
      vertex 3.21496 -5.06597 2
    endloop
  endfacet
  facet normal -0 0 1
    outer loop
      vertex 1.60748 -2.53298 2
      vertex 3.21496 -5.06597 2
      vertex 2.18691 -2.05364 2
    endloop
  endfacet
  facet normal 0 0 1
    outer loop
      vertex 3.21496 -5.06597 2
      vertex 1.60748 -2.53298 2
      vertex 1.8541 -5.70634 2
    endloop
  endfacet
  facet normal -0 0 1
    outer loop
      vertex 0.927051 -2.85317 2
      vertex 1.8541 -5.70634 2
      vertex 1.60748 -2.53298 2
    endloop
  endfacet
  facet normal 0 0 1
    outer loop
      vertex 0.927051 -2.85317 2
      vertex 0.376742 -5.98816 2
      vertex 1.8541 -5.70634 2
    endloop
  endfacet
  facet normal -0 0 1
    outer loop
      vertex 0.188371 -2.99408 2
      vertex 0.376742 -5.98816 2
      vertex 0.927051 -2.85317 2
    endloop
  endfacet
  facet normal 0 0 1
    outer loop
      vertex -0.562143 -2.94686 2
      vertex 0.376742 -5.98816 2
      vertex 0.188371 -2.99408 2
    endloop
  endfacet
  facet normal 0 0 1
    outer loop
      vertex -0.562143 -2.94686 2
      vertex -1.12429 -5.89372 2
      vertex 0.376742 -5.98816 2
    endloop
  endfacet
  facet normal 0 0 1
    outer loop
      vertex -1.27734 -2.71448 2
      vertex -1.12429 -5.89372 2
      vertex -0.562143 -2.94686 2
    endloop
  endfacet
  facet normal 0 0 1
    outer loop
      vertex -2.55468 -5.42896 2
      vertex -1.27734 -2.71448 2
      vertex -1.91227 -2.31154 2
    endloop
  endfacet
  facet normal 0 0 1
    outer loop
      vertex -3.82454 -4.62308 2
      vertex -1.91227 -2.31154 2
      vertex -2.42705 -1.76336 2
    endloop
  endfacet
  facet normal 0 0 1
    outer loop
      vertex -1.27734 -2.71448 2
      vertex -2.55468 -5.42896 2
      vertex -1.12429 -5.89372 2
    endloop
  endfacet
  facet normal 0 0 1
    outer loop
      vertex -4.8541 -3.52671 2
      vertex -2.42705 -1.76336 2
      vertex -2.78933 -1.10437 2
    endloop
  endfacet
  facet normal 0 0 1
    outer loop
      vertex -5.57866 -2.20875 2
      vertex -2.78933 -1.10437 2
      vertex -2.97634 -0.375999 2
    endloop
  endfacet
  facet normal 0 0 1
    outer loop
      vertex -2.78933 1.10437 2
      vertex -5.57866 2.20875 2
      vertex -2.97634 0.375999 2
    endloop
  endfacet
  facet normal 0 0 1
    outer loop
      vertex -1.91227 -2.31154 2
      vertex -3.82454 -4.62308 2
      vertex -2.55468 -5.42896 2
    endloop
  endfacet
  facet normal -0 0 1
    outer loop
      vertex -5.95269 0.751999 2
      vertex -2.97634 0.375999 2
      vertex -5.57866 2.20875 2
    endloop
  endfacet
  facet normal 0 0 1
    outer loop
      vertex -2.42705 -1.76336 2
      vertex -4.8541 -3.52671 2
      vertex -3.82454 -4.62308 2
    endloop
  endfacet
  facet normal 0 0 1
    outer loop
      vertex -2.97634 0.375999 2
      vertex -5.95269 0.751999 2
      vertex -2.97634 -0.375999 2
    endloop
  endfacet
  facet normal 0 0 1
    outer loop
      vertex -2.78933 -1.10437 2
      vertex -5.57866 -2.20875 2
      vertex -4.8541 -3.52671 2
    endloop
  endfacet
  facet normal 0 0 1
    outer loop
      vertex -5.95269 -0.751999 2
      vertex -2.97634 -0.375999 2
      vertex -5.95269 0.751999 2
    endloop
  endfacet
  facet normal 0 0 1
    outer loop
      vertex -2.97634 -0.375999 2
      vertex -5.95269 -0.751999 2
      vertex -5.57866 -2.20875 2
    endloop
  endfacet
  facet normal -0.992115 -0.125334 0
    outer loop
      vertex 3 0 0
      vertex 2.90575 0.746069 2
      vertex 2.90575 0.746069 0
    endloop
  endfacet
  facet normal -0.992115 -0.125334 0
    outer loop
      vertex 2.90575 0.746069 2
      vertex 3 0 0
      vertex 3 0 2
    endloop
  endfacet
  facet normal 1 -0 0
    outer loop
      vertex -2.97634 -0.375999 2
      vertex -2.97634 0.375999 0
      vertex -2.97634 0.375999 2
    endloop
  endfacet
  facet normal 1 0 0
    outer loop
      vertex -2.97634 0.375999 0
      vertex -2.97634 -0.375999 2
      vertex -2.97634 -0.375999 0
    endloop
  endfacet
  facet normal 0.0627905 -0.998027 0
    outer loop
      vertex -0.562143 2.94686 0
      vertex 0.188371 2.99408 2
      vertex -0.562143 2.94686 2
    endloop
  endfacet
  facet normal 0.0627905 -0.998027 0
    outer loop
      vertex 0.188371 2.99408 2
      vertex -0.562143 2.94686 0
      vertex 0.188371 2.99408 0
    endloop
  endfacet
  facet normal -0.187381 0.982287 0
    outer loop
      vertex 0.927051 -2.85317 0
      vertex 0.188371 -2.99408 2
      vertex 0.927051 -2.85317 2
    endloop
  endfacet
  facet normal -0.187381 0.982287 0
    outer loop
      vertex 0.188371 -2.99408 2
      vertex 0.927051 -2.85317 0
      vertex 0.188371 -2.99408 0
    endloop
  endfacet
  facet normal -0.637424 -0.770513 0
    outer loop
      vertex 1.60748 2.53298 0
      vertex 2.18691 2.05364 2
      vertex 1.60748 2.53298 2
    endloop
  endfacet
  facet normal -0.637424 -0.770513 -0
    outer loop
      vertex 2.18691 2.05364 2
      vertex 1.60748 2.53298 0
      vertex 2.18691 2.05364 0
    endloop
  endfacet
  facet normal -0.929776 -0.368125 0
    outer loop
      vertex 2.90575 0.746069 0
      vertex 2.62892 1.44526 2
      vertex 2.62892 1.44526 0
    endloop
  endfacet
  facet normal -0.929776 -0.368125 0
    outer loop
      vertex 2.62892 1.44526 2
      vertex 2.90575 0.746069 0
      vertex 2.90575 0.746069 2
    endloop
  endfacet
  facet normal -0.42578 -0.904827 0
    outer loop
      vertex 0.927051 2.85317 0
      vertex 1.60748 2.53298 2
      vertex 0.927051 2.85317 2
    endloop
  endfacet
  facet normal -0.42578 -0.904827 -0
    outer loop
      vertex 1.60748 2.53298 2
      vertex 0.927051 2.85317 0
      vertex 1.60748 2.53298 0
    endloop
  endfacet
  facet normal 0.728969 -0.684547 0
    outer loop
      vertex -2.42705 1.76336 2
      vertex -1.91227 2.31154 0
      vertex -1.91227 2.31154 2
    endloop
  endfacet
  facet normal 0.728969 -0.684547 0
    outer loop
      vertex -1.91227 2.31154 0
      vertex -2.42705 1.76336 2
      vertex -2.42705 1.76336 0
    endloop
  endfacet
  facet normal 0.535826 -0.844328 0
    outer loop
      vertex -1.91227 2.31154 0
      vertex -1.27734 2.71448 2
      vertex -1.91227 2.31154 2
    endloop
  endfacet
  facet normal 0.535826 -0.844328 0
    outer loop
      vertex -1.27734 2.71448 2
      vertex -1.91227 2.31154 0
      vertex -1.27734 2.71448 0
    endloop
  endfacet
  facet normal -0.809017 -0.587785 0
    outer loop
      vertex 2.62892 1.44526 0
      vertex 2.18691 2.05364 2
      vertex 2.18691 2.05364 0
    endloop
  endfacet
  facet normal -0.809017 -0.587785 0
    outer loop
      vertex 2.18691 2.05364 2
      vertex 2.62892 1.44526 0
      vertex 2.62892 1.44526 2
    endloop
  endfacet
  facet normal -0.187381 -0.982287 0
    outer loop
      vertex 0.188371 2.99408 0
      vertex 0.927051 2.85317 2
      vertex 0.188371 2.99408 2
    endloop
  endfacet
  facet normal -0.187381 -0.982287 -0
    outer loop
      vertex 0.927051 2.85317 2
      vertex 0.188371 2.99408 0
      vertex 0.927051 2.85317 0
    endloop
  endfacet
  facet normal 0.876307 -0.481753 0
    outer loop
      vertex -2.78933 1.10437 2
      vertex -2.42705 1.76336 0
      vertex -2.42705 1.76336 2
    endloop
  endfacet
  facet normal 0.876307 -0.481753 0
    outer loop
      vertex -2.42705 1.76336 0
      vertex -2.78933 1.10437 2
      vertex -2.78933 1.10437 0
    endloop
  endfacet
  facet normal 0.968583 -0.24869 0
    outer loop
      vertex -2.97634 0.375999 2
      vertex -2.78933 1.10437 0
      vertex -2.78933 1.10437 2
    endloop
  endfacet
  facet normal 0.968583 -0.24869 0
    outer loop
      vertex -2.78933 1.10437 0
      vertex -2.97634 0.375999 2
      vertex -2.97634 0.375999 0
    endloop
  endfacet
  facet normal 0.309017 -0.951056 0
    outer loop
      vertex -1.27734 2.71448 0
      vertex -0.562143 2.94686 2
      vertex -1.27734 2.71448 2
    endloop
  endfacet
  facet normal 0.309017 -0.951056 0
    outer loop
      vertex -0.562143 2.94686 2
      vertex -1.27734 2.71448 0
      vertex -0.562143 2.94686 0
    endloop
  endfacet
  facet normal -0.992115 0.125334 0
    outer loop
      vertex 2.90575 -0.746069 0
      vertex 3 0 2
      vertex 3 0 0
    endloop
  endfacet
  facet normal -0.992115 0.125334 0
    outer loop
      vertex 3 0 2
      vertex 2.90575 -0.746069 0
      vertex 2.90575 -0.746069 2
    endloop
  endfacet
  facet normal -0.809017 0.587785 0
    outer loop
      vertex 2.18691 -2.05364 0
      vertex 2.62892 -1.44526 2
      vertex 2.62892 -1.44526 0
    endloop
  endfacet
  facet normal -0.809017 0.587785 0
    outer loop
      vertex 2.62892 -1.44526 2
      vertex 2.18691 -2.05364 0
      vertex 2.18691 -2.05364 2
    endloop
  endfacet
  facet normal -0.929776 0.368125 0
    outer loop
      vertex 2.62892 -1.44526 0
      vertex 2.90575 -0.746069 2
      vertex 2.90575 -0.746069 0
    endloop
  endfacet
  facet normal -0.929776 0.368125 0
    outer loop
      vertex 2.90575 -0.746069 2
      vertex 2.62892 -1.44526 0
      vertex 2.62892 -1.44526 2
    endloop
  endfacet
  facet normal 0.535826 0.844328 -0
    outer loop
      vertex -1.27734 -2.71448 0
      vertex -1.91227 -2.31154 2
      vertex -1.27734 -2.71448 2
    endloop
  endfacet
  facet normal 0.535826 0.844328 0
    outer loop
      vertex -1.91227 -2.31154 2
      vertex -1.27734 -2.71448 0
      vertex -1.91227 -2.31154 0
    endloop
  endfacet
  facet normal 0.728969 0.684547 0
    outer loop
      vertex -1.91227 -2.31154 2
      vertex -2.42705 -1.76336 0
      vertex -2.42705 -1.76336 2
    endloop
  endfacet
  facet normal 0.728969 0.684547 0
    outer loop
      vertex -2.42705 -1.76336 0
      vertex -1.91227 -2.31154 2
      vertex -1.91227 -2.31154 0
    endloop
  endfacet
  facet normal -0.42578 0.904827 0
    outer loop
      vertex 1.60748 -2.53298 0
      vertex 0.927051 -2.85317 2
      vertex 1.60748 -2.53298 2
    endloop
  endfacet
  facet normal -0.42578 0.904827 0
    outer loop
      vertex 0.927051 -2.85317 2
      vertex 1.60748 -2.53298 0
      vertex 0.927051 -2.85317 0
    endloop
  endfacet
  facet normal 0.0627905 0.998027 -0
    outer loop
      vertex 0.188371 -2.99408 0
      vertex -0.562143 -2.94686 2
      vertex 0.188371 -2.99408 2
    endloop
  endfacet
  facet normal 0.0627905 0.998027 0
    outer loop
      vertex -0.562143 -2.94686 2
      vertex 0.188371 -2.99408 0
      vertex -0.562143 -2.94686 0
    endloop
  endfacet
  facet normal 0.876307 0.481753 0
    outer loop
      vertex -2.42705 -1.76336 2
      vertex -2.78933 -1.10437 0
      vertex -2.78933 -1.10437 2
    endloop
  endfacet
  facet normal 0.876307 0.481753 0
    outer loop
      vertex -2.78933 -1.10437 0
      vertex -2.42705 -1.76336 2
      vertex -2.42705 -1.76336 0
    endloop
  endfacet
  facet normal 0.968583 0.24869 0
    outer loop
      vertex -2.78933 -1.10437 2
      vertex -2.97634 -0.375999 0
      vertex -2.97634 -0.375999 2
    endloop
  endfacet
  facet normal 0.968583 0.24869 0
    outer loop
      vertex -2.97634 -0.375999 0
      vertex -2.78933 -1.10437 2
      vertex -2.78933 -1.10437 0
    endloop
  endfacet
  facet normal -0.637424 0.770513 0
    outer loop
      vertex 2.18691 -2.05364 0
      vertex 1.60748 -2.53298 2
      vertex 2.18691 -2.05364 2
    endloop
  endfacet
  facet normal -0.637424 0.770513 0
    outer loop
      vertex 1.60748 -2.53298 2
      vertex 2.18691 -2.05364 0
      vertex 1.60748 -2.53298 0
    endloop
  endfacet
  facet normal 0.309017 0.951056 -0
    outer loop
      vertex -0.562143 -2.94686 0
      vertex -1.27734 -2.71448 2
      vertex -0.562143 -2.94686 2
    endloop
  endfacet
  facet normal 0.309017 0.951056 0
    outer loop
      vertex -1.27734 -2.71448 2
      vertex -0.562143 -2.94686 0
      vertex -1.27734 -2.71448 0
    endloop
  endfacet
endsolid OpenSCAD_Model
