solid OpenSCAD_Model
  facet normal 0.992115 0.125333 0
    outer loop
      vertex 2.5 0 80
      vertex 2.42146 0.621725 0
      vertex 2.42146 0.621725 80
    endloop
  endfacet
  facet normal 0.992115 0.125333 0
    outer loop
      vertex 2.42146 0.621725 0
      vertex 2.5 0 80
      vertex 2.5 0 0
    endloop
  endfacet
  facet normal 0.929776 0.368125 0
    outer loop
      vertex 2.42146 0.621725 80
      vertex 2.19077 1.20438 0
      vertex 2.19077 1.20438 80
    endloop
  endfacet
  facet normal 0.929776 0.368125 0
    outer loop
      vertex 2.19077 1.20438 0
      vertex 2.42146 0.621725 80
      vertex 2.42146 0.621725 0
    endloop
  endfacet
  facet normal 0.809017 0.587785 0
    outer loop
      vertex 2.19077 1.20438 80
      vertex 1.82242 1.71137 0
      vertex 1.82242 1.71137 80
    endloop
  endfacet
  facet normal 0.809017 0.587785 0
    outer loop
      vertex 1.82242 1.71137 0
      vertex 2.19077 1.20438 80
      vertex 2.19077 1.20438 0
    endloop
  endfacet
  facet normal 0.637424 0.770513 -0
    outer loop
      vertex 1.82242 1.71137 0
      vertex 1.33957 2.11082 80
      vertex 1.82242 1.71137 80
    endloop
  endfacet
  facet normal 0.637424 0.770513 0
    outer loop
      vertex 1.33957 2.11082 80
      vertex 1.82242 1.71137 0
      vertex 1.33957 2.11082 0
    endloop
  endfacet
  facet normal 0.425779 0.904827 -0
    outer loop
      vertex 1.33957 2.11082 0
      vertex 0.772542 2.37764 80
      vertex 1.33957 2.11082 80
    endloop
  endfacet
  facet normal 0.425779 0.904827 0
    outer loop
      vertex 0.772542 2.37764 80
      vertex 1.33957 2.11082 0
      vertex 0.772542 2.37764 0
    endloop
  endfacet
  facet normal 0.187382 0.982287 -0
    outer loop
      vertex 0.772542 2.37764 0
      vertex 0.156976 2.49507 80
      vertex 0.772542 2.37764 80
    endloop
  endfacet
  facet normal 0.187382 0.982287 0
    outer loop
      vertex 0.156976 2.49507 80
      vertex 0.772542 2.37764 0
      vertex 0.156976 2.49507 0
    endloop
  endfacet
  facet normal -0.0627908 0.998027 0
    outer loop
      vertex 0.156976 2.49507 0
      vertex -0.468453 2.45572 80
      vertex 0.156976 2.49507 80
    endloop
  endfacet
  facet normal -0.0627908 0.998027 0
    outer loop
      vertex -0.468453 2.45572 80
      vertex 0.156976 2.49507 0
      vertex -0.468453 2.45572 0
    endloop
  endfacet
  facet normal -0.309017 0.951057 0
    outer loop
      vertex -0.468453 2.45572 0
      vertex -1.06445 2.26207 80
      vertex -0.468453 2.45572 80
    endloop
  endfacet
  facet normal -0.309017 0.951057 0
    outer loop
      vertex -1.06445 2.26207 80
      vertex -0.468453 2.45572 0
      vertex -1.06445 2.26207 0
    endloop
  endfacet
  facet normal -0.535827 0.844328 0
    outer loop
      vertex -1.06445 2.26207 0
      vertex -1.59356 1.92628 80
      vertex -1.06445 2.26207 80
    endloop
  endfacet
  facet normal -0.535827 0.844328 0
    outer loop
      vertex -1.59356 1.92628 80
      vertex -1.06445 2.26207 0
      vertex -1.59356 1.92628 0
    endloop
  endfacet
  facet normal -0.728969 0.684547 0
    outer loop
      vertex -2.02254 1.46946 0
      vertex -1.59356 1.92628 80
      vertex -1.59356 1.92628 0
    endloop
  endfacet
  facet normal -0.728969 0.684547 0
    outer loop
      vertex -1.59356 1.92628 80
      vertex -2.02254 1.46946 0
      vertex -2.02254 1.46946 80
    endloop
  endfacet
  facet normal -0.876307 0.481754 0
    outer loop
      vertex -2.32444 0.920311 0
      vertex -2.02254 1.46946 80
      vertex -2.02254 1.46946 0
    endloop
  endfacet
  facet normal -0.876307 0.481754 0
    outer loop
      vertex -2.02254 1.46946 80
      vertex -2.32444 0.920311 0
      vertex -2.32444 0.920311 80
    endloop
  endfacet
  facet normal -0.968583 0.24869 0
    outer loop
      vertex -2.48029 0.313333 0
      vertex -2.32444 0.920311 80
      vertex -2.32444 0.920311 0
    endloop
  endfacet
  facet normal -0.968583 0.24869 0
    outer loop
      vertex -2.32444 0.920311 80
      vertex -2.48029 0.313333 0
      vertex -2.48029 0.313333 80
    endloop
  endfacet
  facet normal -1 0 0
    outer loop
      vertex -2.48029 -0.313333 0
      vertex -2.48029 0.313333 80
      vertex -2.48029 0.313333 0
    endloop
  endfacet
  facet normal -1 -0 0
    outer loop
      vertex -2.48029 0.313333 80
      vertex -2.48029 -0.313333 0
      vertex -2.48029 -0.313333 80
    endloop
  endfacet
  facet normal -0.968583 -0.24869 0
    outer loop
      vertex -2.32444 -0.920311 0
      vertex -2.48029 -0.313333 80
      vertex -2.48029 -0.313333 0
    endloop
  endfacet
  facet normal -0.968583 -0.24869 0
    outer loop
      vertex -2.48029 -0.313333 80
      vertex -2.32444 -0.920311 0
      vertex -2.32444 -0.920311 80
    endloop
  endfacet
  facet normal -0.876307 -0.481754 0
    outer loop
      vertex -2.02254 -1.46946 0
      vertex -2.32444 -0.920311 80
      vertex -2.32444 -0.920311 0
    endloop
  endfacet
  facet normal -0.876307 -0.481754 0
    outer loop
      vertex -2.32444 -0.920311 80
      vertex -2.02254 -1.46946 0
      vertex -2.02254 -1.46946 80
    endloop
  endfacet
  facet normal -0.728969 -0.684547 0
    outer loop
      vertex -1.59356 -1.92628 0
      vertex -2.02254 -1.46946 80
      vertex -2.02254 -1.46946 0
    endloop
  endfacet
  facet normal -0.728969 -0.684547 0
    outer loop
      vertex -2.02254 -1.46946 80
      vertex -1.59356 -1.92628 0
      vertex -1.59356 -1.92628 80
    endloop
  endfacet
  facet normal -0.535827 -0.844328 0
    outer loop
      vertex -1.59356 -1.92628 0
      vertex -1.06445 -2.26207 80
      vertex -1.59356 -1.92628 80
    endloop
  endfacet
  facet normal -0.535827 -0.844328 -0
    outer loop
      vertex -1.06445 -2.26207 80
      vertex -1.59356 -1.92628 0
      vertex -1.06445 -2.26207 0
    endloop
  endfacet
  facet normal -0.309017 -0.951057 0
    outer loop
      vertex -1.06445 -2.26207 0
      vertex -0.468453 -2.45572 80
      vertex -1.06445 -2.26207 80
    endloop
  endfacet
  facet normal -0.309017 -0.951057 -0
    outer loop
      vertex -0.468453 -2.45572 80
      vertex -1.06445 -2.26207 0
      vertex -0.468453 -2.45572 0
    endloop
  endfacet
  facet normal -0.0627908 -0.998027 0
    outer loop
      vertex -0.468453 -2.45572 0
      vertex 0.156976 -2.49507 80
      vertex -0.468453 -2.45572 80
    endloop
  endfacet
  facet normal -0.0627908 -0.998027 -0
    outer loop
      vertex 0.156976 -2.49507 80
      vertex -0.468453 -2.45572 0
      vertex 0.156976 -2.49507 0
    endloop
  endfacet
  facet normal 0.187382 -0.982287 0
    outer loop
      vertex 0.156976 -2.49507 0
      vertex 0.772542 -2.37764 80
      vertex 0.156976 -2.49507 80
    endloop
  endfacet
  facet normal 0.187382 -0.982287 0
    outer loop
      vertex 0.772542 -2.37764 80
      vertex 0.156976 -2.49507 0
      vertex 0.772542 -2.37764 0
    endloop
  endfacet
  facet normal 0.425779 -0.904827 0
    outer loop
      vertex 0.772542 -2.37764 0
      vertex 1.33957 -2.11082 80
      vertex 0.772542 -2.37764 80
    endloop
  endfacet
  facet normal 0.425779 -0.904827 0
    outer loop
      vertex 1.33957 -2.11082 80
      vertex 0.772542 -2.37764 0
      vertex 1.33957 -2.11082 0
    endloop
  endfacet
  facet normal 0.637424 -0.770513 0
    outer loop
      vertex 1.33957 -2.11082 0
      vertex 1.82242 -1.71137 80
      vertex 1.33957 -2.11082 80
    endloop
  endfacet
  facet normal 0.637424 -0.770513 0
    outer loop
      vertex 1.82242 -1.71137 80
      vertex 1.33957 -2.11082 0
      vertex 1.82242 -1.71137 0
    endloop
  endfacet
  facet normal 0.809017 -0.587785 0
    outer loop
      vertex 1.82242 -1.71137 80
      vertex 2.19077 -1.20438 0
      vertex 2.19077 -1.20438 80
    endloop
  endfacet
  facet normal 0.809017 -0.587785 0
    outer loop
      vertex 2.19077 -1.20438 0
      vertex 1.82242 -1.71137 80
      vertex 1.82242 -1.71137 0
    endloop
  endfacet
  facet normal 0.929776 -0.368125 0
    outer loop
      vertex 2.19077 -1.20438 80
      vertex 2.42146 -0.621725 0
      vertex 2.42146 -0.621725 80
    endloop
  endfacet
  facet normal 0.929776 -0.368125 0
    outer loop
      vertex 2.42146 -0.621725 0
      vertex 2.19077 -1.20438 80
      vertex 2.19077 -1.20438 0
    endloop
  endfacet
  facet normal 0.992115 -0.125333 0
    outer loop
      vertex 2.42146 -0.621725 80
      vertex 2.5 0 0
      vertex 2.5 0 80
    endloop
  endfacet
  facet normal 0.992115 -0.125333 0
    outer loop
      vertex 2.5 0 0
      vertex 2.42146 -0.621725 80
      vertex 2.42146 -0.621725 0
    endloop
  endfacet
  facet normal 0 0 -1
    outer loop
      vertex 2.42146 -0.621725 0
      vertex 2.42146 0.621725 0
      vertex 2.5 0 0
    endloop
  endfacet
  facet normal 0 0 -1
    outer loop
      vertex 2.19077 -1.20438 0
      vertex 2.42146 0.621725 0
      vertex 2.42146 -0.621725 0
    endloop
  endfacet
  facet normal 0 0 -1
    outer loop
      vertex 2.19077 -1.20438 0
      vertex 2.19077 1.20438 0
      vertex 2.42146 0.621725 0
    endloop
  endfacet
  facet normal 0 0 -1
    outer loop
      vertex 1.82242 -1.71137 0
      vertex 2.19077 1.20438 0
      vertex 2.19077 -1.20438 0
    endloop
  endfacet
  facet normal 0 0 -1
    outer loop
      vertex 1.82242 -1.71137 0
      vertex 1.82242 1.71137 0
      vertex 2.19077 1.20438 0
    endloop
  endfacet
  facet normal 0 0 -1
    outer loop
      vertex 1.33957 -2.11082 0
      vertex 1.82242 1.71137 0
      vertex 1.82242 -1.71137 0
    endloop
  endfacet
  facet normal 0 0 -1
    outer loop
      vertex 1.33957 -2.11082 0
      vertex 1.33957 2.11082 0
      vertex 1.82242 1.71137 0
    endloop
  endfacet
  facet normal 0 0 -1
    outer loop
      vertex 0.772542 -2.37764 0
      vertex 1.33957 2.11082 0
      vertex 1.33957 -2.11082 0
    endloop
  endfacet
  facet normal 0 0 -1
    outer loop
      vertex 0.772542 -2.37764 0
      vertex 0.772542 2.37764 0
      vertex 1.33957 2.11082 0
    endloop
  endfacet
  facet normal 0 0 -1
    outer loop
      vertex 0.156976 -2.49507 0
      vertex 0.772542 2.37764 0
      vertex 0.772542 -2.37764 0
    endloop
  endfacet
  facet normal 0 0 -1
    outer loop
      vertex 0.156976 -2.49507 0
      vertex 0.156976 2.49507 0
      vertex 0.772542 2.37764 0
    endloop
  endfacet
  facet normal 0 0 -1
    outer loop
      vertex -0.468453 -2.45572 0
      vertex 0.156976 2.49507 0
      vertex 0.156976 -2.49507 0
    endloop
  endfacet
  facet normal 0 0 -1
    outer loop
      vertex -0.468453 -2.45572 0
      vertex -0.468453 2.45572 0
      vertex 0.156976 2.49507 0
    endloop
  endfacet
  facet normal 0 0 -1
    outer loop
      vertex -1.06445 -2.26207 0
      vertex -0.468453 2.45572 0
      vertex -0.468453 -2.45572 0
    endloop
  endfacet
  facet normal 0 0 -1
    outer loop
      vertex -1.06445 -2.26207 0
      vertex -1.06445 2.26207 0
      vertex -0.468453 2.45572 0
    endloop
  endfacet
  facet normal 0 0 -1
    outer loop
      vertex -1.59356 -1.92628 0
      vertex -1.06445 2.26207 0
      vertex -1.06445 -2.26207 0
    endloop
  endfacet
  facet normal 0 0 -1
    outer loop
      vertex -1.59356 -1.92628 0
      vertex -1.59356 1.92628 0
      vertex -1.06445 2.26207 0
    endloop
  endfacet
  facet normal 0 0 -1
    outer loop
      vertex -2.02254 -1.46946 0
      vertex -1.59356 1.92628 0
      vertex -1.59356 -1.92628 0
    endloop
  endfacet
  facet normal 0 0 -1
    outer loop
      vertex -2.02254 -1.46946 0
      vertex -2.02254 1.46946 0
      vertex -1.59356 1.92628 0
    endloop
  endfacet
  facet normal 0 0 -1
    outer loop
      vertex -2.32444 -0.920311 0
      vertex -2.02254 1.46946 0
      vertex -2.02254 -1.46946 0
    endloop
  endfacet
  facet normal 0 0 -1
    outer loop
      vertex -2.32444 -0.920311 0
      vertex -2.32444 0.920311 0
      vertex -2.02254 1.46946 0
    endloop
  endfacet
  facet normal 0 0 -1
    outer loop
      vertex -2.48029 -0.313333 0
      vertex -2.32444 0.920311 0
      vertex -2.32444 -0.920311 0
    endloop
  endfacet
  facet normal 0 0 -1
    outer loop
      vertex -2.32444 0.920311 0
      vertex -2.48029 -0.313333 0
      vertex -2.48029 0.313333 0
    endloop
  endfacet
  facet normal 0 0 1
    outer loop
      vertex 2.42146 0.621725 80
      vertex 2.42146 -0.621725 80
      vertex 2.5 0 80
    endloop
  endfacet
  facet normal 0 0 1
    outer loop
      vertex 2.19077 1.20438 80
      vertex 2.42146 -0.621725 80
      vertex 2.42146 0.621725 80
    endloop
  endfacet
  facet normal 0 0 1
    outer loop
      vertex 2.19077 1.20438 80
      vertex 2.19077 -1.20438 80
      vertex 2.42146 -0.621725 80
    endloop
  endfacet
  facet normal 0 0 1
    outer loop
      vertex 1.82242 1.71137 80
      vertex 2.19077 -1.20438 80
      vertex 2.19077 1.20438 80
    endloop
  endfacet
  facet normal 0 0 1
    outer loop
      vertex 1.82242 1.71137 80
      vertex 1.82242 -1.71137 80
      vertex 2.19077 -1.20438 80
    endloop
  endfacet
  facet normal 0 0 1
    outer loop
      vertex 1.33957 2.11082 80
      vertex 1.82242 -1.71137 80
      vertex 1.82242 1.71137 80
    endloop
  endfacet
  facet normal 0 0 1
    outer loop
      vertex 1.33957 2.11082 80
      vertex 1.33957 -2.11082 80
      vertex 1.82242 -1.71137 80
    endloop
  endfacet
  facet normal 0 0 1
    outer loop
      vertex 0.772542 2.37764 80
      vertex 1.33957 -2.11082 80
      vertex 1.33957 2.11082 80
    endloop
  endfacet
  facet normal 0 0 1
    outer loop
      vertex 0.772542 2.37764 80
      vertex 0.772542 -2.37764 80
      vertex 1.33957 -2.11082 80
    endloop
  endfacet
  facet normal 0 0 1
    outer loop
      vertex 0.156976 2.49507 80
      vertex 0.772542 -2.37764 80
      vertex 0.772542 2.37764 80
    endloop
  endfacet
  facet normal 0 0 1
    outer loop
      vertex 0.156976 2.49507 80
      vertex 0.156976 -2.49507 80
      vertex 0.772542 -2.37764 80
    endloop
  endfacet
  facet normal -0 0 1
    outer loop
      vertex -0.468453 2.45572 80
      vertex 0.156976 -2.49507 80
      vertex 0.156976 2.49507 80
    endloop
  endfacet
  facet normal 0 0 1
    outer loop
      vertex -0.468453 2.45572 80
      vertex -0.468453 -2.45572 80
      vertex 0.156976 -2.49507 80
    endloop
  endfacet
  facet normal -0 0 1
    outer loop
      vertex -1.06445 2.26207 80
      vertex -0.468453 -2.45572 80
      vertex -0.468453 2.45572 80
    endloop
  endfacet
  facet normal 0 0 1
    outer loop
      vertex -1.06445 2.26207 80
      vertex -1.06445 -2.26207 80
      vertex -0.468453 -2.45572 80
    endloop
  endfacet
  facet normal -0 0 1
    outer loop
      vertex -1.59356 1.92628 80
      vertex -1.06445 -2.26207 80
      vertex -1.06445 2.26207 80
    endloop
  endfacet
  facet normal 0 0 1
    outer loop
      vertex -1.59356 1.92628 80
      vertex -1.59356 -1.92628 80
      vertex -1.06445 -2.26207 80
    endloop
  endfacet
  facet normal -0 0 1
    outer loop
      vertex -2.02254 1.46946 80
      vertex -1.59356 -1.92628 80
      vertex -1.59356 1.92628 80
    endloop
  endfacet
  facet normal 0 0 1
    outer loop
      vertex -2.02254 1.46946 80
      vertex -2.02254 -1.46946 80
      vertex -1.59356 -1.92628 80
    endloop
  endfacet
  facet normal -0 0 1
    outer loop
      vertex -2.32444 0.920311 80
      vertex -2.02254 -1.46946 80
      vertex -2.02254 1.46946 80
    endloop
  endfacet
  facet normal 0 0 1
    outer loop
      vertex -2.32444 0.920311 80
      vertex -2.32444 -0.920311 80
      vertex -2.02254 -1.46946 80
    endloop
  endfacet
  facet normal -0 0 1
    outer loop
      vertex -2.48029 0.313333 80
      vertex -2.32444 -0.920311 80
      vertex -2.32444 0.920311 80
    endloop
  endfacet
  facet normal 0 0 1
    outer loop
      vertex -2.32444 -0.920311 80
      vertex -2.48029 0.313333 80
      vertex -2.48029 -0.313333 80
    endloop
  endfacet
endsolid OpenSCAD_Model
