solid OpenSCAD_Model
  facet normal -1 0 0
    outer loop
      vertex -4.96057 -0.626666 -1
      vertex -4.96057 0.626666 1
      vertex -4.96057 0.626666 -1
    endloop
  endfacet
  facet normal -1 -0 0
    outer loop
      vertex -4.96057 0.626666 1
      vertex -4.96057 -0.626666 -1
      vertex -4.96057 -0.626666 1
    endloop
  endfacet
  facet normal -0.535827 0.844328 0
    outer loop
      vertex -2.1289 4.52413 -1
      vertex -3.18712 3.85257 1
      vertex -2.1289 4.52413 1
    endloop
  endfacet
  facet normal -0.535827 0.844328 0
    outer loop
      vertex -3.18712 3.85257 1
      vertex -2.1289 4.52413 -1
      vertex -3.18712 3.85257 -1
    endloop
  endfacet
  facet normal -0.968583 0.24869 0
    outer loop
      vertex -4.96057 0.626666 -1
      vertex -4.64888 1.84062 1
      vertex -4.64888 1.84062 -1
    endloop
  endfacet
  facet normal -0.968583 0.24869 0
    outer loop
      vertex -4.64888 1.84062 1
      vertex -4.96057 0.626666 -1
      vertex -4.96057 0.626666 1
    endloop
  endfacet
  facet normal -0.728968 0.684547 0
    outer loop
      vertex -4.04508 2.93893 -1
      vertex -3.18712 3.85257 1
      vertex -3.18712 3.85257 -1
    endloop
  endfacet
  facet normal -0.728968 0.684547 0
    outer loop
      vertex -3.18712 3.85257 1
      vertex -4.04508 2.93893 -1
      vertex -4.04508 2.93893 1
    endloop
  endfacet
  facet normal -0.0627906 0.998027 0
    outer loop
      vertex 0 4.97038 -1
      vertex -0.936906 4.91144 1
      vertex 0 4.97038 1
    endloop
  endfacet
  facet normal -0.0627906 0.998027 0
    outer loop
      vertex -0.936906 4.91144 1
      vertex 0 4.97038 -1
      vertex -0.936906 4.91144 -1
    endloop
  endfacet
  facet normal 0 0 1
    outer loop
      vertex -0.468452 -2.45572 1
      vertex 0 -4.97038 1
      vertex 0.156976 -2.49507 1
    endloop
  endfacet
  facet normal 0 0 1
    outer loop
      vertex -0.468452 -2.45572 1
      vertex -0.936906 -4.91144 1
      vertex 0 -4.97038 1
    endloop
  endfacet
  facet normal 0 0 1
    outer loop
      vertex -1.06445 -2.26207 1
      vertex -0.936906 -4.91144 1
      vertex -0.468452 -2.45572 1
    endloop
  endfacet
  facet normal 0 0 1
    outer loop
      vertex -2.1289 -4.52413 1
      vertex -1.06445 -2.26207 1
      vertex -1.59356 -1.92628 1
    endloop
  endfacet
  facet normal 0 0 1
    outer loop
      vertex -3.18712 -3.85257 1
      vertex -1.59356 -1.92628 1
      vertex -2.02254 -1.46946 1
    endloop
  endfacet
  facet normal 0 0 1
    outer loop
      vertex -1.06445 -2.26207 1
      vertex -2.1289 -4.52413 1
      vertex -0.936906 -4.91144 1
    endloop
  endfacet
  facet normal 0 0 1
    outer loop
      vertex -4.04508 -2.93893 1
      vertex -2.02254 -1.46946 1
      vertex -2.32444 -0.920311 1
    endloop
  endfacet
  facet normal 0 0 1
    outer loop
      vertex -4.64888 -1.84062 1
      vertex -2.32444 -0.920311 1
      vertex -2.48029 -0.313333 1
    endloop
  endfacet
  facet normal 0 0 1
    outer loop
      vertex -2.32444 0.920311 1
      vertex -4.64888 1.84062 1
      vertex -2.48029 0.313333 1
    endloop
  endfacet
  facet normal 0 0 1
    outer loop
      vertex -1.59356 -1.92628 1
      vertex -3.18712 -3.85257 1
      vertex -2.1289 -4.52413 1
    endloop
  endfacet
  facet normal -0 0 1
    outer loop
      vertex -4.96057 0.626666 1
      vertex -2.48029 0.313333 1
      vertex -4.64888 1.84062 1
    endloop
  endfacet
  facet normal 0 0 1
    outer loop
      vertex -2.02254 -1.46946 1
      vertex -4.04508 -2.93893 1
      vertex -3.18712 -3.85257 1
    endloop
  endfacet
  facet normal 0 0 1
    outer loop
      vertex -2.48029 0.313333 1
      vertex -4.96057 0.626666 1
      vertex -2.48029 -0.313333 1
    endloop
  endfacet
  facet normal 0 0 1
    outer loop
      vertex -2.32444 -0.920311 1
      vertex -4.64888 -1.84062 1
      vertex -4.04508 -2.93893 1
    endloop
  endfacet
  facet normal 0 0 1
    outer loop
      vertex -4.96057 -0.626666 1
      vertex -2.48029 -0.313333 1
      vertex -4.96057 0.626666 1
    endloop
  endfacet
  facet normal 0 0 1
    outer loop
      vertex -2.48029 -0.313333 1
      vertex -4.96057 -0.626666 1
      vertex -4.64888 -1.84062 1
    endloop
  endfacet
  facet normal 0 0 1
    outer loop
      vertex 28.4064 1.92628 1
      vertex 30 4.97038 1
      vertex 30 5 1
    endloop
  endfacet
  facet normal 0 0 1
    outer loop
      vertex 30 4.97038 1
      vertex 28.9356 2.26207 1
      vertex 29.5315 2.45572 1
    endloop
  endfacet
  facet normal 0 0 1
    outer loop
      vertex 30 4.97038 1
      vertex 28.4064 1.92628 1
      vertex 28.9356 2.26207 1
    endloop
  endfacet
  facet normal 0 0 1
    outer loop
      vertex 30 5 1
      vertex 27.9775 1.46946 1
      vertex 28.4064 1.92628 1
    endloop
  endfacet
  facet normal 0 0 1
    outer loop
      vertex 27.5197 0.313333 1
      vertex 2.5 0 1
      vertex 27.5197 -0.313333 1
    endloop
  endfacet
  facet normal -0 0 1
    outer loop
      vertex 2.42146 0.621724 1
      vertex 27.5197 0.313333 1
      vertex 27.6756 0.920311 1
    endloop
  endfacet
  facet normal -0 0 1
    outer loop
      vertex 2.19077 1.20438 1
      vertex 27.6756 0.920311 1
      vertex 27.9775 1.46946 1
    endloop
  endfacet
  facet normal -0 0 1
    outer loop
      vertex 1.82242 1.71137 1
      vertex 27.9775 1.46946 1
      vertex 30 5 1
    endloop
  endfacet
  facet normal 0 0 1
    outer loop
      vertex 27.5197 0.313333 1
      vertex 2.42146 0.621724 1
      vertex 2.5 0 1
    endloop
  endfacet
  facet normal 0 0 1
    outer loop
      vertex 27.6756 0.920311 1
      vertex 2.19077 1.20438 1
      vertex 2.42146 0.621724 1
    endloop
  endfacet
  facet normal 0 0 1
    outer loop
      vertex 27.9775 1.46946 1
      vertex 1.82242 1.71137 1
      vertex 2.19077 1.20438 1
    endloop
  endfacet
  facet normal -0 0 1
    outer loop
      vertex 0 5 1
      vertex 1.82242 1.71137 1
      vertex 30 5 1
    endloop
  endfacet
  facet normal 0 0 1
    outer loop
      vertex 1.82242 1.71137 1
      vertex 0 5 1
      vertex 1.33957 2.11082 1
    endloop
  endfacet
  facet normal -0 0 1
    outer loop
      vertex 0 4.97038 1
      vertex 1.33957 2.11082 1
      vertex 0 5 1
    endloop
  endfacet
  facet normal 0 0 1
    outer loop
      vertex 1.33957 2.11082 1
      vertex 0 4.97038 1
      vertex 0.772542 2.37764 1
    endloop
  endfacet
  facet normal 0 0 1
    outer loop
      vertex 0.772542 2.37764 1
      vertex 0 4.97038 1
      vertex 0.156976 2.49507 1
    endloop
  endfacet
  facet normal 0 0 1
    outer loop
      vertex 0 4.97038 1
      vertex -0.468452 2.45572 1
      vertex 0.156976 2.49507 1
    endloop
  endfacet
  facet normal -0 0 1
    outer loop
      vertex -0.936906 4.91144 1
      vertex -0.468452 2.45572 1
      vertex 0 4.97038 1
    endloop
  endfacet
  facet normal 0 0 1
    outer loop
      vertex -0.936906 4.91144 1
      vertex -1.06445 2.26207 1
      vertex -0.468452 2.45572 1
    endloop
  endfacet
  facet normal -0 0 1
    outer loop
      vertex -2.1289 4.52413 1
      vertex -1.06445 2.26207 1
      vertex -0.936906 4.91144 1
    endloop
  endfacet
  facet normal 0 0 1
    outer loop
      vertex -1.06445 2.26207 1
      vertex -2.1289 4.52413 1
      vertex -1.59356 1.92628 1
    endloop
  endfacet
  facet normal -0 0 1
    outer loop
      vertex -3.18712 3.85257 1
      vertex -1.59356 1.92628 1
      vertex -2.1289 4.52413 1
    endloop
  endfacet
  facet normal 0 0 1
    outer loop
      vertex -1.59356 1.92628 1
      vertex -3.18712 3.85257 1
      vertex -2.02254 1.46946 1
    endloop
  endfacet
  facet normal -0 0 1
    outer loop
      vertex -4.04508 2.93893 1
      vertex -2.02254 1.46946 1
      vertex -3.18712 3.85257 1
    endloop
  endfacet
  facet normal -0 0 1
    outer loop
      vertex -4.64888 1.84062 1
      vertex -2.32444 0.920311 1
      vertex -4.04508 2.93893 1
    endloop
  endfacet
  facet normal 0 0 1
    outer loop
      vertex -2.02254 1.46946 1
      vertex -4.04508 2.93893 1
      vertex -2.32444 0.920311 1
    endloop
  endfacet
  facet normal 0 0 1
    outer loop
      vertex 32.5 0 1
      vertex 35 0 1
      vertex 34.8429 1.24345 1
    endloop
  endfacet
  facet normal 0 0 1
    outer loop
      vertex 32.4215 0.621724 1
      vertex 34.8429 1.24345 1
      vertex 34.3815 2.40877 1
    endloop
  endfacet
  facet normal 0 0 1
    outer loop
      vertex 35 0 1
      vertex 32.5 0 1
      vertex 34.8429 -1.24345 1
    endloop
  endfacet
  facet normal 0 0 1
    outer loop
      vertex 32.1908 1.20438 1
      vertex 34.3815 2.40877 1
      vertex 33.6448 3.42274 1
    endloop
  endfacet
  facet normal -0 0 1
    outer loop
      vertex 32.4215 -0.621724 1
      vertex 34.8429 -1.24345 1
      vertex 32.5 0 1
    endloop
  endfacet
  facet normal 0 0 1
    outer loop
      vertex 31.8224 1.71137 1
      vertex 33.6448 3.42274 1
      vertex 32.6791 4.22164 1
    endloop
  endfacet
  facet normal 0 0 1
    outer loop
      vertex 34.8429 -1.24345 1
      vertex 32.4215 -0.621724 1
      vertex 34.3815 -2.40877 1
    endloop
  endfacet
  facet normal -0 0 1
    outer loop
      vertex 32.1908 -1.20438 1
      vertex 34.3815 -2.40877 1
      vertex 32.4215 -0.621724 1
    endloop
  endfacet
  facet normal 0 0 1
    outer loop
      vertex 34.8429 1.24345 1
      vertex 32.4215 0.621724 1
      vertex 32.5 0 1
    endloop
  endfacet
  facet normal 0 0 1
    outer loop
      vertex 34.3815 2.40877 1
      vertex 32.1908 1.20438 1
      vertex 32.4215 0.621724 1
    endloop
  endfacet
  facet normal 0 0 1
    outer loop
      vertex 33.6448 3.42274 1
      vertex 31.8224 1.71137 1
      vertex 32.1908 1.20438 1
    endloop
  endfacet
  facet normal 0 0 1
    outer loop
      vertex 31.3396 2.11082 1
      vertex 32.6791 4.22164 1
      vertex 31.5451 4.75528 1
    endloop
  endfacet
  facet normal 0 0 1
    outer loop
      vertex 32.6791 4.22164 1
      vertex 31.3396 2.11082 1
      vertex 31.8224 1.71137 1
    endloop
  endfacet
  facet normal 0 0 1
    outer loop
      vertex 31.5451 4.75528 1
      vertex 30.7725 2.37764 1
      vertex 31.3396 2.11082 1
    endloop
  endfacet
  facet normal 0 0 1
    outer loop
      vertex 30.314 4.99013 1
      vertex 30.7725 2.37764 1
      vertex 31.5451 4.75528 1
    endloop
  endfacet
  facet normal 0 0 1
    outer loop
      vertex 30.314 4.99013 1
      vertex 30.157 2.49507 1
      vertex 30.7725 2.37764 1
    endloop
  endfacet
  facet normal -0 0 1
    outer loop
      vertex 30 4.97038 1
      vertex 30.157 2.49507 1
      vertex 30.314 4.99013 1
    endloop
  endfacet
  facet normal 0 0 1
    outer loop
      vertex 30.157 2.49507 1
      vertex 30 4.97038 1
      vertex 29.5315 2.45572 1
    endloop
  endfacet
  facet normal 0 0 1
    outer loop
      vertex 34.3815 -2.40877 1
      vertex 32.1908 -1.20438 1
      vertex 33.6448 -3.42274 1
    endloop
  endfacet
  facet normal -0 0 1
    outer loop
      vertex 31.8224 -1.71137 1
      vertex 33.6448 -3.42274 1
      vertex 32.1908 -1.20438 1
    endloop
  endfacet
  facet normal 0 0 1
    outer loop
      vertex 33.6448 -3.42274 1
      vertex 31.8224 -1.71137 1
      vertex 32.6791 -4.22164 1
    endloop
  endfacet
  facet normal -0 0 1
    outer loop
      vertex 31.3396 -2.11082 1
      vertex 32.6791 -4.22164 1
      vertex 31.8224 -1.71137 1
    endloop
  endfacet
  facet normal 0 0 1
    outer loop
      vertex 32.6791 -4.22164 1
      vertex 31.3396 -2.11082 1
      vertex 31.5451 -4.75528 1
    endloop
  endfacet
  facet normal -0 0 1
    outer loop
      vertex 30.7725 -2.37764 1
      vertex 31.5451 -4.75528 1
      vertex 31.3396 -2.11082 1
    endloop
  endfacet
  facet normal 0 0 1
    outer loop
      vertex 30.7725 -2.37764 1
      vertex 30.314 -4.99013 1
      vertex 31.5451 -4.75528 1
    endloop
  endfacet
  facet normal -0 0 1
    outer loop
      vertex 30.157 -2.49507 1
      vertex 30.314 -4.99013 1
      vertex 30.7725 -2.37764 1
    endloop
  endfacet
  facet normal 0 0 1
    outer loop
      vertex 30.157 -2.49507 1
      vertex 30 -4.97038 1
      vertex 30.314 -4.99013 1
    endloop
  endfacet
  facet normal 0 0 1
    outer loop
      vertex 29.5315 -2.45572 1
      vertex 30 -4.97038 1
      vertex 30.157 -2.49507 1
    endloop
  endfacet
  facet normal 0 0 1
    outer loop
      vertex 28.9356 -2.26207 1
      vertex 30 -4.97038 1
      vertex 29.5315 -2.45572 1
    endloop
  endfacet
  facet normal 0 0 1
    outer loop
      vertex 28.4064 -1.92628 1
      vertex 30 -4.97038 1
      vertex 28.9356 -2.26207 1
    endloop
  endfacet
  facet normal 0 0 1
    outer loop
      vertex 30 -4.97038 1
      vertex 28.4064 -1.92628 1
      vertex 30 -5 1
    endloop
  endfacet
  facet normal 0 0 1
    outer loop
      vertex 27.9775 -1.46946 1
      vertex 30 -5 1
      vertex 28.4064 -1.92628 1
    endloop
  endfacet
  facet normal 0 0 1
    outer loop
      vertex 2.42146 -0.621724 1
      vertex 27.5197 -0.313333 1
      vertex 2.5 0 1
    endloop
  endfacet
  facet normal 0 0 1
    outer loop
      vertex 27.5197 -0.313333 1
      vertex 2.42146 -0.621724 1
      vertex 27.6756 -0.920311 1
    endloop
  endfacet
  facet normal 0 0 1
    outer loop
      vertex 2.19077 -1.20438 1
      vertex 27.6756 -0.920311 1
      vertex 2.42146 -0.621724 1
    endloop
  endfacet
  facet normal 0 0 1
    outer loop
      vertex 27.6756 -0.920311 1
      vertex 2.19077 -1.20438 1
      vertex 27.9775 -1.46946 1
    endloop
  endfacet
  facet normal 0 0 1
    outer loop
      vertex 1.82242 -1.71137 1
      vertex 27.9775 -1.46946 1
      vertex 2.19077 -1.20438 1
    endloop
  endfacet
  facet normal 0 0 1
    outer loop
      vertex 27.9775 -1.46946 1
      vertex 1.82242 -1.71137 1
      vertex 30 -5 1
    endloop
  endfacet
  facet normal 0 0 1
    outer loop
      vertex 0 -5 1
      vertex 1.82242 -1.71137 1
      vertex 1.33957 -2.11082 1
    endloop
  endfacet
  facet normal 0 0 1
    outer loop
      vertex 0 -4.97038 1
      vertex 1.33957 -2.11082 1
      vertex 0.772542 -2.37764 1
    endloop
  endfacet
  facet normal 0 0 1
    outer loop
      vertex 0 -4.97038 1
      vertex 0.772542 -2.37764 1
      vertex 0.156976 -2.49507 1
    endloop
  endfacet
  facet normal 0 0 1
    outer loop
      vertex 1.33957 -2.11082 1
      vertex 0 -4.97038 1
      vertex 0 -5 1
    endloop
  endfacet
  facet normal 0 0 1
    outer loop
      vertex 1.82242 -1.71137 1
      vertex 0 -5 1
      vertex 30 -5 1
    endloop
  endfacet
  facet normal -0.876307 0.481753 0
    outer loop
      vertex -4.64888 1.84062 -1
      vertex -4.04508 2.93893 1
      vertex -4.04508 2.93893 -1
    endloop
  endfacet
  facet normal -0.876307 0.481753 0
    outer loop
      vertex -4.04508 2.93893 1
      vertex -4.64888 1.84062 -1
      vertex -4.64888 1.84062 1
    endloop
  endfacet
  facet normal -0.309017 0.951056 0
    outer loop
      vertex -0.936906 4.91144 -1
      vertex -2.1289 4.52413 1
      vertex -0.936906 4.91144 1
    endloop
  endfacet
  facet normal -0.309017 0.951056 0
    outer loop
      vertex -2.1289 4.52413 1
      vertex -0.936906 4.91144 -1
      vertex -2.1289 4.52413 -1
    endloop
  endfacet
  facet normal -0.535827 -0.844328 0
    outer loop
      vertex -3.18712 -3.85257 -1
      vertex -2.1289 -4.52413 1
      vertex -3.18712 -3.85257 1
    endloop
  endfacet
  facet normal -0.535827 -0.844328 -0
    outer loop
      vertex -2.1289 -4.52413 1
      vertex -3.18712 -3.85257 -1
      vertex -2.1289 -4.52413 -1
    endloop
  endfacet
  facet normal -0.728968 -0.684547 0
    outer loop
      vertex -3.18712 -3.85257 -1
      vertex -4.04508 -2.93893 1
      vertex -4.04508 -2.93893 -1
    endloop
  endfacet
  facet normal -0.728968 -0.684547 0
    outer loop
      vertex -4.04508 -2.93893 1
      vertex -3.18712 -3.85257 -1
      vertex -3.18712 -3.85257 1
    endloop
  endfacet
  facet normal -0.968583 -0.24869 0
    outer loop
      vertex -4.64888 -1.84062 -1
      vertex -4.96057 -0.626666 1
      vertex -4.96057 -0.626666 -1
    endloop
  endfacet
  facet normal -0.968583 -0.24869 0
    outer loop
      vertex -4.96057 -0.626666 1
      vertex -4.64888 -1.84062 -1
      vertex -4.64888 -1.84062 1
    endloop
  endfacet
  facet normal -0.0627906 -0.998027 0
    outer loop
      vertex -0.936906 -4.91144 -1
      vertex 0 -4.97038 1
      vertex -0.936906 -4.91144 1
    endloop
  endfacet
  facet normal -0.0627906 -0.998027 -0
    outer loop
      vertex 0 -4.97038 1
      vertex -0.936906 -4.91144 -1
      vertex 0 -4.97038 -1
    endloop
  endfacet
  facet normal 0 0 -1
    outer loop
      vertex -0.468452 2.45572 -1
      vertex 0 4.97038 -1
      vertex 0.156976 2.49507 -1
    endloop
  endfacet
  facet normal 0 0 -1
    outer loop
      vertex -0.468452 2.45572 -1
      vertex -0.936906 4.91144 -1
      vertex 0 4.97038 -1
    endloop
  endfacet
  facet normal 0 0 -1
    outer loop
      vertex -1.06445 2.26207 -1
      vertex -0.936906 4.91144 -1
      vertex -0.468452 2.45572 -1
    endloop
  endfacet
  facet normal 0 0 -1
    outer loop
      vertex -2.1289 4.52413 -1
      vertex -1.06445 2.26207 -1
      vertex -1.59356 1.92628 -1
    endloop
  endfacet
  facet normal 0 0 -1
    outer loop
      vertex -3.18712 3.85257 -1
      vertex -1.59356 1.92628 -1
      vertex -2.02254 1.46946 -1
    endloop
  endfacet
  facet normal 0 0 -1
    outer loop
      vertex -1.06445 2.26207 -1
      vertex -2.1289 4.52413 -1
      vertex -0.936906 4.91144 -1
    endloop
  endfacet
  facet normal 0 0 -1
    outer loop
      vertex -4.04508 2.93893 -1
      vertex -2.02254 1.46946 -1
      vertex -2.32444 0.920311 -1
    endloop
  endfacet
  facet normal 0 0 -1
    outer loop
      vertex -4.64888 1.84062 -1
      vertex -2.32444 0.920311 -1
      vertex -2.48029 0.313333 -1
    endloop
  endfacet
  facet normal -0 0 -1
    outer loop
      vertex -2.32444 -0.920311 -1
      vertex -4.64888 -1.84062 -1
      vertex -2.48029 -0.313333 -1
    endloop
  endfacet
  facet normal 0 0 -1
    outer loop
      vertex -1.59356 1.92628 -1
      vertex -3.18712 3.85257 -1
      vertex -2.1289 4.52413 -1
    endloop
  endfacet
  facet normal 0 0 -1
    outer loop
      vertex -4.96057 -0.626666 -1
      vertex -2.48029 -0.313333 -1
      vertex -4.64888 -1.84062 -1
    endloop
  endfacet
  facet normal 0 0 -1
    outer loop
      vertex -2.02254 1.46946 -1
      vertex -4.04508 2.93893 -1
      vertex -3.18712 3.85257 -1
    endloop
  endfacet
  facet normal -0 0 -1
    outer loop
      vertex -2.48029 -0.313333 -1
      vertex -4.96057 -0.626666 -1
      vertex -2.48029 0.313333 -1
    endloop
  endfacet
  facet normal 0 0 -1
    outer loop
      vertex -2.32444 0.920311 -1
      vertex -4.64888 1.84062 -1
      vertex -4.04508 2.93893 -1
    endloop
  endfacet
  facet normal 0 0 -1
    outer loop
      vertex -4.96057 0.626666 -1
      vertex -2.48029 0.313333 -1
      vertex -4.96057 -0.626666 -1
    endloop
  endfacet
  facet normal 0 0 -1
    outer loop
      vertex -2.48029 0.313333 -1
      vertex -4.96057 0.626666 -1
      vertex -4.64888 1.84062 -1
    endloop
  endfacet
  facet normal 0 0 -1
    outer loop
      vertex 28.4064 -1.92628 -1
      vertex 30 -4.97038 -1
      vertex 30 -5 -1
    endloop
  endfacet
  facet normal 0 0 -1
    outer loop
      vertex 30 -4.97038 -1
      vertex 28.9356 -2.26207 -1
      vertex 29.5315 -2.45572 -1
    endloop
  endfacet
  facet normal 0 0 -1
    outer loop
      vertex 30 -4.97038 -1
      vertex 28.4064 -1.92628 -1
      vertex 28.9356 -2.26207 -1
    endloop
  endfacet
  facet normal 0 0 -1
    outer loop
      vertex 30 -5 -1
      vertex 27.9775 -1.46946 -1
      vertex 28.4064 -1.92628 -1
    endloop
  endfacet
  facet normal 0 0 -1
    outer loop
      vertex 27.5197 -0.313333 -1
      vertex 2.5 0 -1
      vertex 27.5197 0.313333 -1
    endloop
  endfacet
  facet normal 0 0 -1
    outer loop
      vertex 2.42146 -0.621724 -1
      vertex 27.5197 -0.313333 -1
      vertex 27.6756 -0.920311 -1
    endloop
  endfacet
  facet normal 0 0 -1
    outer loop
      vertex 2.19077 -1.20438 -1
      vertex 27.6756 -0.920311 -1
      vertex 27.9775 -1.46946 -1
    endloop
  endfacet
  facet normal 0 0 -1
    outer loop
      vertex 1.82242 -1.71137 -1
      vertex 27.9775 -1.46946 -1
      vertex 30 -5 -1
    endloop
  endfacet
  facet normal -0 0 -1
    outer loop
      vertex 27.5197 -0.313333 -1
      vertex 2.42146 -0.621724 -1
      vertex 2.5 0 -1
    endloop
  endfacet
  facet normal -0 0 -1
    outer loop
      vertex 27.6756 -0.920311 -1
      vertex 2.19077 -1.20438 -1
      vertex 2.42146 -0.621724 -1
    endloop
  endfacet
  facet normal -0 0 -1
    outer loop
      vertex 27.9775 -1.46946 -1
      vertex 1.82242 -1.71137 -1
      vertex 2.19077 -1.20438 -1
    endloop
  endfacet
  facet normal 0 0 -1
    outer loop
      vertex 0 -5 -1
      vertex 1.82242 -1.71137 -1
      vertex 30 -5 -1
    endloop
  endfacet
  facet normal 0 0 -1
    outer loop
      vertex 1.82242 -1.71137 -1
      vertex 0 -5 -1
      vertex 1.33957 -2.11082 -1
    endloop
  endfacet
  facet normal 0 0 -1
    outer loop
      vertex 0 -4.97038 -1
      vertex 1.33957 -2.11082 -1
      vertex 0 -5 -1
    endloop
  endfacet
  facet normal 0 0 -1
    outer loop
      vertex 1.33957 -2.11082 -1
      vertex 0 -4.97038 -1
      vertex 0.772542 -2.37764 -1
    endloop
  endfacet
  facet normal 0 0 -1
    outer loop
      vertex 0.772542 -2.37764 -1
      vertex 0 -4.97038 -1
      vertex 0.156976 -2.49507 -1
    endloop
  endfacet
  facet normal 0 0 -1
    outer loop
      vertex 0 -4.97038 -1
      vertex -0.468452 -2.45572 -1
      vertex 0.156976 -2.49507 -1
    endloop
  endfacet
  facet normal 0 0 -1
    outer loop
      vertex -0.936906 -4.91144 -1
      vertex -0.468452 -2.45572 -1
      vertex 0 -4.97038 -1
    endloop
  endfacet
  facet normal 0 0 -1
    outer loop
      vertex -0.936906 -4.91144 -1
      vertex -1.06445 -2.26207 -1
      vertex -0.468452 -2.45572 -1
    endloop
  endfacet
  facet normal 0 0 -1
    outer loop
      vertex -2.1289 -4.52413 -1
      vertex -1.06445 -2.26207 -1
      vertex -0.936906 -4.91144 -1
    endloop
  endfacet
  facet normal -0 0 -1
    outer loop
      vertex -1.06445 -2.26207 -1
      vertex -2.1289 -4.52413 -1
      vertex -1.59356 -1.92628 -1
    endloop
  endfacet
  facet normal 0 0 -1
    outer loop
      vertex -3.18712 -3.85257 -1
      vertex -1.59356 -1.92628 -1
      vertex -2.1289 -4.52413 -1
    endloop
  endfacet
  facet normal -0 0 -1
    outer loop
      vertex -1.59356 -1.92628 -1
      vertex -3.18712 -3.85257 -1
      vertex -2.02254 -1.46946 -1
    endloop
  endfacet
  facet normal 0 0 -1
    outer loop
      vertex -4.04508 -2.93893 -1
      vertex -2.02254 -1.46946 -1
      vertex -3.18712 -3.85257 -1
    endloop
  endfacet
  facet normal 0 0 -1
    outer loop
      vertex -4.64888 -1.84062 -1
      vertex -2.32444 -0.920311 -1
      vertex -4.04508 -2.93893 -1
    endloop
  endfacet
  facet normal -0 0 -1
    outer loop
      vertex -2.02254 -1.46946 -1
      vertex -4.04508 -2.93893 -1
      vertex -2.32444 -0.920311 -1
    endloop
  endfacet
  facet normal 0 0 -1
    outer loop
      vertex 32.5 0 -1
      vertex 35 0 -1
      vertex 34.8429 -1.24345 -1
    endloop
  endfacet
  facet normal 0 0 -1
    outer loop
      vertex 32.4215 -0.621724 -1
      vertex 34.8429 -1.24345 -1
      vertex 34.3815 -2.40877 -1
    endloop
  endfacet
  facet normal 0 0 -1
    outer loop
      vertex 35 0 -1
      vertex 32.5 0 -1
      vertex 34.8429 1.24345 -1
    endloop
  endfacet
  facet normal 0 0 -1
    outer loop
      vertex 32.1908 -1.20438 -1
      vertex 34.3815 -2.40877 -1
      vertex 33.6448 -3.42274 -1
    endloop
  endfacet
  facet normal 0 0 -1
    outer loop
      vertex 32.4215 0.621724 -1
      vertex 34.8429 1.24345 -1
      vertex 32.5 0 -1
    endloop
  endfacet
  facet normal 0 0 -1
    outer loop
      vertex 31.8224 -1.71137 -1
      vertex 33.6448 -3.42274 -1
      vertex 32.6791 -4.22164 -1
    endloop
  endfacet
  facet normal -0 0 -1
    outer loop
      vertex 34.8429 1.24345 -1
      vertex 32.4215 0.621724 -1
      vertex 34.3815 2.40877 -1
    endloop
  endfacet
  facet normal 0 0 -1
    outer loop
      vertex 32.1908 1.20438 -1
      vertex 34.3815 2.40877 -1
      vertex 32.4215 0.621724 -1
    endloop
  endfacet
  facet normal 0 0 -1
    outer loop
      vertex 34.8429 -1.24345 -1
      vertex 32.4215 -0.621724 -1
      vertex 32.5 0 -1
    endloop
  endfacet
  facet normal 0 0 -1
    outer loop
      vertex 34.3815 -2.40877 -1
      vertex 32.1908 -1.20438 -1
      vertex 32.4215 -0.621724 -1
    endloop
  endfacet
  facet normal 0 0 -1
    outer loop
      vertex 33.6448 -3.42274 -1
      vertex 31.8224 -1.71137 -1
      vertex 32.1908 -1.20438 -1
    endloop
  endfacet
  facet normal 0 0 -1
    outer loop
      vertex 31.3396 -2.11082 -1
      vertex 32.6791 -4.22164 -1
      vertex 31.5451 -4.75528 -1
    endloop
  endfacet
  facet normal 0 0 -1
    outer loop
      vertex 32.6791 -4.22164 -1
      vertex 31.3396 -2.11082 -1
      vertex 31.8224 -1.71137 -1
    endloop
  endfacet
  facet normal 0 0 -1
    outer loop
      vertex 31.5451 -4.75528 -1
      vertex 30.7725 -2.37764 -1
      vertex 31.3396 -2.11082 -1
    endloop
  endfacet
  facet normal 0 0 -1
    outer loop
      vertex 30.314 -4.99013 -1
      vertex 30.7725 -2.37764 -1
      vertex 31.5451 -4.75528 -1
    endloop
  endfacet
  facet normal 0 0 -1
    outer loop
      vertex 30.314 -4.99013 -1
      vertex 30.157 -2.49507 -1
      vertex 30.7725 -2.37764 -1
    endloop
  endfacet
  facet normal 0 0 -1
    outer loop
      vertex 30 -4.97038 -1
      vertex 30.157 -2.49507 -1
      vertex 30.314 -4.99013 -1
    endloop
  endfacet
  facet normal -0 0 -1
    outer loop
      vertex 30.157 -2.49507 -1
      vertex 30 -4.97038 -1
      vertex 29.5315 -2.45572 -1
    endloop
  endfacet
  facet normal -0 0 -1
    outer loop
      vertex 34.3815 2.40877 -1
      vertex 32.1908 1.20438 -1
      vertex 33.6448 3.42274 -1
    endloop
  endfacet
  facet normal 0 0 -1
    outer loop
      vertex 31.8224 1.71137 -1
      vertex 33.6448 3.42274 -1
      vertex 32.1908 1.20438 -1
    endloop
  endfacet
  facet normal -0 0 -1
    outer loop
      vertex 33.6448 3.42274 -1
      vertex 31.8224 1.71137 -1
      vertex 32.6791 4.22164 -1
    endloop
  endfacet
  facet normal 0 0 -1
    outer loop
      vertex 31.3396 2.11082 -1
      vertex 32.6791 4.22164 -1
      vertex 31.8224 1.71137 -1
    endloop
  endfacet
  facet normal -0 0 -1
    outer loop
      vertex 32.6791 4.22164 -1
      vertex 31.3396 2.11082 -1
      vertex 31.5451 4.75528 -1
    endloop
  endfacet
  facet normal 0 0 -1
    outer loop
      vertex 30.7725 2.37764 -1
      vertex 31.5451 4.75528 -1
      vertex 31.3396 2.11082 -1
    endloop
  endfacet
  facet normal 0 0 -1
    outer loop
      vertex 30.7725 2.37764 -1
      vertex 30.314 4.99013 -1
      vertex 31.5451 4.75528 -1
    endloop
  endfacet
  facet normal 0 0 -1
    outer loop
      vertex 30.157 2.49507 -1
      vertex 30.314 4.99013 -1
      vertex 30.7725 2.37764 -1
    endloop
  endfacet
  facet normal 0 0 -1
    outer loop
      vertex 30.157 2.49507 -1
      vertex 30 4.97038 -1
      vertex 30.314 4.99013 -1
    endloop
  endfacet
  facet normal 0 0 -1
    outer loop
      vertex 29.5315 2.45572 -1
      vertex 30 4.97038 -1
      vertex 30.157 2.49507 -1
    endloop
  endfacet
  facet normal 0 0 -1
    outer loop
      vertex 28.9356 2.26207 -1
      vertex 30 4.97038 -1
      vertex 29.5315 2.45572 -1
    endloop
  endfacet
  facet normal 0 0 -1
    outer loop
      vertex 28.4064 1.92628 -1
      vertex 30 4.97038 -1
      vertex 28.9356 2.26207 -1
    endloop
  endfacet
  facet normal -0 0 -1
    outer loop
      vertex 30 4.97038 -1
      vertex 28.4064 1.92628 -1
      vertex 30 5 -1
    endloop
  endfacet
  facet normal 0 0 -1
    outer loop
      vertex 27.9775 1.46946 -1
      vertex 30 5 -1
      vertex 28.4064 1.92628 -1
    endloop
  endfacet
  facet normal 0 0 -1
    outer loop
      vertex 2.42146 0.621724 -1
      vertex 27.5197 0.313333 -1
      vertex 2.5 0 -1
    endloop
  endfacet
  facet normal 0 0 -1
    outer loop
      vertex 27.5197 0.313333 -1
      vertex 2.42146 0.621724 -1
      vertex 27.6756 0.920311 -1
    endloop
  endfacet
  facet normal 0 0 -1
    outer loop
      vertex 2.19077 1.20438 -1
      vertex 27.6756 0.920311 -1
      vertex 2.42146 0.621724 -1
    endloop
  endfacet
  facet normal 0 0 -1
    outer loop
      vertex 27.6756 0.920311 -1
      vertex 2.19077 1.20438 -1
      vertex 27.9775 1.46946 -1
    endloop
  endfacet
  facet normal 0 0 -1
    outer loop
      vertex 1.82242 1.71137 -1
      vertex 27.9775 1.46946 -1
      vertex 2.19077 1.20438 -1
    endloop
  endfacet
  facet normal 0 0 -1
    outer loop
      vertex 27.9775 1.46946 -1
      vertex 1.82242 1.71137 -1
      vertex 30 5 -1
    endloop
  endfacet
  facet normal 0 0 -1
    outer loop
      vertex 0 5 -1
      vertex 1.82242 1.71137 -1
      vertex 1.33957 2.11082 -1
    endloop
  endfacet
  facet normal 0 0 -1
    outer loop
      vertex 0 4.97038 -1
      vertex 1.33957 2.11082 -1
      vertex 0.772542 2.37764 -1
    endloop
  endfacet
  facet normal 0 0 -1
    outer loop
      vertex 0 4.97038 -1
      vertex 0.772542 2.37764 -1
      vertex 0.156976 2.49507 -1
    endloop
  endfacet
  facet normal 0 0 -1
    outer loop
      vertex 1.33957 2.11082 -1
      vertex 0 4.97038 -1
      vertex 0 5 -1
    endloop
  endfacet
  facet normal 0 0 -1
    outer loop
      vertex 1.82242 1.71137 -1
      vertex 0 5 -1
      vertex 30 5 -1
    endloop
  endfacet
  facet normal -0.876307 -0.481753 0
    outer loop
      vertex -4.04508 -2.93893 -1
      vertex -4.64888 -1.84062 1
      vertex -4.64888 -1.84062 -1
    endloop
  endfacet
  facet normal -0.876307 -0.481753 0
    outer loop
      vertex -4.64888 -1.84062 1
      vertex -4.04508 -2.93893 -1
      vertex -4.04508 -2.93893 1
    endloop
  endfacet
  facet normal -0.309017 -0.951056 0
    outer loop
      vertex -2.1289 -4.52413 -1
      vertex -0.936906 -4.91144 1
      vertex -2.1289 -4.52413 1
    endloop
  endfacet
  facet normal -0.309017 -0.951056 -0
    outer loop
      vertex -0.936906 -4.91144 1
      vertex -2.1289 -4.52413 -1
      vertex -0.936906 -4.91144 -1
    endloop
  endfacet
  facet normal 0.992115 0.125334 0
    outer loop
      vertex 35 0 1
      vertex 34.8429 1.24345 -1
      vertex 34.8429 1.24345 1
    endloop
  endfacet
  facet normal 0.992115 0.125334 0
    outer loop
      vertex 34.8429 1.24345 -1
      vertex 35 0 1
      vertex 35 0 -1
    endloop
  endfacet
  facet normal -0.0627897 0.998027 0
    outer loop
      vertex 30.314 4.99013 -1
      vertex 30 4.97038 1
      vertex 30.314 4.99013 1
    endloop
  endfacet
  facet normal -0.0627897 0.998027 0
    outer loop
      vertex 30 4.97038 1
      vertex 30.314 4.99013 -1
      vertex 30 4.97038 -1
    endloop
  endfacet
  facet normal 0.187381 -0.982287 0
    outer loop
      vertex 30.314 -4.99013 -1
      vertex 31.5451 -4.75528 1
      vertex 30.314 -4.99013 1
    endloop
  endfacet
  facet normal 0.187381 -0.982287 0
    outer loop
      vertex 31.5451 -4.75528 1
      vertex 30.314 -4.99013 -1
      vertex 31.5451 -4.75528 -1
    endloop
  endfacet
  facet normal 0.637423 0.770514 -0
    outer loop
      vertex 33.6448 3.42274 -1
      vertex 32.6791 4.22164 1
      vertex 33.6448 3.42274 1
    endloop
  endfacet
  facet normal 0.637423 0.770514 0
    outer loop
      vertex 32.6791 4.22164 1
      vertex 33.6448 3.42274 -1
      vertex 32.6791 4.22164 -1
    endloop
  endfacet
  facet normal 0.42578 0.904827 -0
    outer loop
      vertex 32.6791 4.22164 -1
      vertex 31.5451 4.75528 1
      vertex 32.6791 4.22164 1
    endloop
  endfacet
  facet normal 0.42578 0.904827 0
    outer loop
      vertex 31.5451 4.75528 1
      vertex 32.6791 4.22164 -1
      vertex 31.5451 4.75528 -1
    endloop
  endfacet
  facet normal 0.929776 -0.368126 0
    outer loop
      vertex 34.3815 -2.40877 1
      vertex 34.8429 -1.24345 -1
      vertex 34.8429 -1.24345 1
    endloop
  endfacet
  facet normal 0.929776 -0.368126 0
    outer loop
      vertex 34.8429 -1.24345 -1
      vertex 34.3815 -2.40877 1
      vertex 34.3815 -2.40877 -1
    endloop
  endfacet
  facet normal 0.809018 0.587783 0
    outer loop
      vertex 34.3815 2.40877 1
      vertex 33.6448 3.42274 -1
      vertex 33.6448 3.42274 1
    endloop
  endfacet
  facet normal 0.809018 0.587783 0
    outer loop
      vertex 33.6448 3.42274 -1
      vertex 34.3815 2.40877 1
      vertex 34.3815 2.40877 -1
    endloop
  endfacet
  facet normal 0.929776 0.368126 0
    outer loop
      vertex 34.8429 1.24345 1
      vertex 34.3815 2.40877 -1
      vertex 34.3815 2.40877 1
    endloop
  endfacet
  facet normal 0.929776 0.368126 0
    outer loop
      vertex 34.3815 2.40877 -1
      vertex 34.8429 1.24345 1
      vertex 34.8429 1.24345 -1
    endloop
  endfacet
  facet normal 0.187381 0.982287 -0
    outer loop
      vertex 31.5451 4.75528 -1
      vertex 30.314 4.99013 1
      vertex 31.5451 4.75528 1
    endloop
  endfacet
  facet normal 0.187381 0.982287 0
    outer loop
      vertex 30.314 4.99013 1
      vertex 31.5451 4.75528 -1
      vertex 30.314 4.99013 -1
    endloop
  endfacet
  facet normal 0.809018 -0.587783 0
    outer loop
      vertex 33.6448 -3.42274 1
      vertex 34.3815 -2.40877 -1
      vertex 34.3815 -2.40877 1
    endloop
  endfacet
  facet normal 0.809018 -0.587783 0
    outer loop
      vertex 34.3815 -2.40877 -1
      vertex 33.6448 -3.42274 1
      vertex 33.6448 -3.42274 -1
    endloop
  endfacet
  facet normal 0.992115 -0.125334 0
    outer loop
      vertex 34.8429 -1.24345 1
      vertex 35 0 -1
      vertex 35 0 1
    endloop
  endfacet
  facet normal 0.992115 -0.125334 0
    outer loop
      vertex 35 0 -1
      vertex 34.8429 -1.24345 1
      vertex 34.8429 -1.24345 -1
    endloop
  endfacet
  facet normal -0.0627897 -0.998027 0
    outer loop
      vertex 30 -4.97038 -1
      vertex 30.314 -4.99013 1
      vertex 30 -4.97038 1
    endloop
  endfacet
  facet normal -0.0627897 -0.998027 -0
    outer loop
      vertex 30.314 -4.99013 1
      vertex 30 -4.97038 -1
      vertex 30.314 -4.99013 -1
    endloop
  endfacet
  facet normal 0.637423 -0.770514 0
    outer loop
      vertex 32.6791 -4.22164 -1
      vertex 33.6448 -3.42274 1
      vertex 32.6791 -4.22164 1
    endloop
  endfacet
  facet normal 0.637423 -0.770514 0
    outer loop
      vertex 33.6448 -3.42274 1
      vertex 32.6791 -4.22164 -1
      vertex 33.6448 -3.42274 -1
    endloop
  endfacet
  facet normal 0.42578 -0.904827 0
    outer loop
      vertex 31.5451 -4.75528 -1
      vertex 32.6791 -4.22164 1
      vertex 31.5451 -4.75528 1
    endloop
  endfacet
  facet normal 0.42578 -0.904827 0
    outer loop
      vertex 32.6791 -4.22164 1
      vertex 31.5451 -4.75528 -1
      vertex 32.6791 -4.22164 -1
    endloop
  endfacet
  facet normal -1 0 0
    outer loop
      vertex 0 -5 -1
      vertex 0 -4.97038 1
      vertex 0 -4.97038 -1
    endloop
  endfacet
  facet normal -1 -0 0
    outer loop
      vertex 0 -4.97038 1
      vertex 0 -5 -1
      vertex 0 -5 1
    endloop
  endfacet
  facet normal -1 0 0
    outer loop
      vertex 0 4.97038 -1
      vertex 0 5 1
      vertex 0 5 -1
    endloop
  endfacet
  facet normal -1 -0 0
    outer loop
      vertex 0 5 1
      vertex 0 4.97038 -1
      vertex 0 4.97038 1
    endloop
  endfacet
  facet normal 1 -0 0
    outer loop
      vertex 30 -5 1
      vertex 30 -4.97038 -1
      vertex 30 -4.97038 1
    endloop
  endfacet
  facet normal 1 0 0
    outer loop
      vertex 30 -4.97038 -1
      vertex 30 -5 1
      vertex 30 -5 -1
    endloop
  endfacet
  facet normal 1 -0 0
    outer loop
      vertex 30 4.97038 1
      vertex 30 5 -1
      vertex 30 5 1
    endloop
  endfacet
  facet normal 1 0 0
    outer loop
      vertex 30 5 -1
      vertex 30 4.97038 1
      vertex 30 4.97038 -1
    endloop
  endfacet
  facet normal 0 -1 0
    outer loop
      vertex 0 -5 -1
      vertex 30 -5 1
      vertex 0 -5 1
    endloop
  endfacet
  facet normal 0 -1 -0
    outer loop
      vertex 30 -5 1
      vertex 0 -5 -1
      vertex 30 -5 -1
    endloop
  endfacet
  facet normal 0 1 -0
    outer loop
      vertex 30 5 -1
      vertex 0 5 1
      vertex 30 5 1
    endloop
  endfacet
  facet normal 0 1 0
    outer loop
      vertex 0 5 1
      vertex 30 5 -1
      vertex 0 5 -1
    endloop
  endfacet
  facet normal 0.992115 0.125334 0
    outer loop
      vertex 2.5 0 -1
      vertex 2.42146 0.621724 -6
      vertex 2.42146 0.621724 -1
    endloop
  endfacet
  facet normal 0.992115 0.125334 0
    outer loop
      vertex 2.42146 0.621724 -6
      vertex 2.5 0 -1
      vertex 2.5 0 -6
    endloop
  endfacet
  facet normal 0.992115 0.125334 0
    outer loop
      vertex 2.5 0 6
      vertex 2.42146 0.621724 1
      vertex 2.42146 0.621724 6
    endloop
  endfacet
  facet normal 0.992115 0.125334 0
    outer loop
      vertex 2.42146 0.621724 1
      vertex 2.5 0 6
      vertex 2.5 0 1
    endloop
  endfacet
  facet normal -1 0 0
    outer loop
      vertex -2.48029 -0.313333 -6
      vertex -2.48029 0.313333 -1
      vertex -2.48029 0.313333 -6
    endloop
  endfacet
  facet normal -1 -0 0
    outer loop
      vertex -2.48029 0.313333 -1
      vertex -2.48029 -0.313333 -6
      vertex -2.48029 -0.313333 -1
    endloop
  endfacet
  facet normal -1 0 0
    outer loop
      vertex -2.48029 -0.313333 1
      vertex -2.48029 0.313333 6
      vertex -2.48029 0.313333 1
    endloop
  endfacet
  facet normal -1 -0 0
    outer loop
      vertex -2.48029 0.313333 6
      vertex -2.48029 -0.313333 1
      vertex -2.48029 -0.313333 6
    endloop
  endfacet
  facet normal -0.0627905 0.998027 0
    outer loop
      vertex 0.156976 2.49507 -6
      vertex -0.468452 2.45572 -1
      vertex 0.156976 2.49507 -1
    endloop
  endfacet
  facet normal -0.0627905 0.998027 0
    outer loop
      vertex -0.468452 2.45572 -1
      vertex 0.156976 2.49507 -6
      vertex -0.468452 2.45572 -6
    endloop
  endfacet
  facet normal -0.0627905 0.998027 0
    outer loop
      vertex 0.156976 2.49507 1
      vertex -0.468452 2.45572 6
      vertex 0.156976 2.49507 6
    endloop
  endfacet
  facet normal -0.0627905 0.998027 0
    outer loop
      vertex -0.468452 2.45572 6
      vertex 0.156976 2.49507 1
      vertex -0.468452 2.45572 1
    endloop
  endfacet
  facet normal 0 0 -1
    outer loop
      vertex 2.42146 -0.621724 -6
      vertex 2.42146 0.621724 -6
      vertex 2.5 0 -6
    endloop
  endfacet
  facet normal 0 0 -1
    outer loop
      vertex 2.19077 -1.20438 -6
      vertex 2.42146 0.621724 -6
      vertex 2.42146 -0.621724 -6
    endloop
  endfacet
  facet normal 0 0 -1
    outer loop
      vertex 2.19077 -1.20438 -6
      vertex 2.19077 1.20438 -6
      vertex 2.42146 0.621724 -6
    endloop
  endfacet
  facet normal 0 0 -1
    outer loop
      vertex 1.82242 -1.71137 -6
      vertex 2.19077 1.20438 -6
      vertex 2.19077 -1.20438 -6
    endloop
  endfacet
  facet normal 0 0 -1
    outer loop
      vertex 1.82242 -1.71137 -6
      vertex 1.82242 1.71137 -6
      vertex 2.19077 1.20438 -6
    endloop
  endfacet
  facet normal 0 0 -1
    outer loop
      vertex 1.33957 -2.11082 -6
      vertex 1.82242 1.71137 -6
      vertex 1.82242 -1.71137 -6
    endloop
  endfacet
  facet normal 0 0 -1
    outer loop
      vertex 1.33957 -2.11082 -6
      vertex 1.33957 2.11082 -6
      vertex 1.82242 1.71137 -6
    endloop
  endfacet
  facet normal 0 0 -1
    outer loop
      vertex 0.772542 -2.37764 -6
      vertex 1.33957 2.11082 -6
      vertex 1.33957 -2.11082 -6
    endloop
  endfacet
  facet normal 0 0 -1
    outer loop
      vertex 0.772542 -2.37764 -6
      vertex 0.772542 2.37764 -6
      vertex 1.33957 2.11082 -6
    endloop
  endfacet
  facet normal 0 0 -1
    outer loop
      vertex 0.156976 -2.49507 -6
      vertex 0.772542 2.37764 -6
      vertex 0.772542 -2.37764 -6
    endloop
  endfacet
  facet normal 0 0 -1
    outer loop
      vertex 0.156976 -2.49507 -6
      vertex 0.156976 2.49507 -6
      vertex 0.772542 2.37764 -6
    endloop
  endfacet
  facet normal 0 0 -1
    outer loop
      vertex -0.468452 -2.45572 -6
      vertex 0.156976 2.49507 -6
      vertex 0.156976 -2.49507 -6
    endloop
  endfacet
  facet normal 0 0 -1
    outer loop
      vertex -0.468452 -2.45572 -6
      vertex -0.468452 2.45572 -6
      vertex 0.156976 2.49507 -6
    endloop
  endfacet
  facet normal 0 0 -1
    outer loop
      vertex -1.06445 -2.26207 -6
      vertex -0.468452 2.45572 -6
      vertex -0.468452 -2.45572 -6
    endloop
  endfacet
  facet normal 0 0 -1
    outer loop
      vertex -1.06445 -2.26207 -6
      vertex -1.06445 2.26207 -6
      vertex -0.468452 2.45572 -6
    endloop
  endfacet
  facet normal 0 0 -1
    outer loop
      vertex -1.59356 -1.92628 -6
      vertex -1.06445 2.26207 -6
      vertex -1.06445 -2.26207 -6
    endloop
  endfacet
  facet normal 0 0 -1
    outer loop
      vertex -1.59356 -1.92628 -6
      vertex -1.59356 1.92628 -6
      vertex -1.06445 2.26207 -6
    endloop
  endfacet
  facet normal 0 0 -1
    outer loop
      vertex -2.02254 -1.46946 -6
      vertex -1.59356 1.92628 -6
      vertex -1.59356 -1.92628 -6
    endloop
  endfacet
  facet normal 0 0 -1
    outer loop
      vertex -2.02254 -1.46946 -6
      vertex -2.02254 1.46946 -6
      vertex -1.59356 1.92628 -6
    endloop
  endfacet
  facet normal 0 0 -1
    outer loop
      vertex -2.32444 -0.920311 -6
      vertex -2.02254 1.46946 -6
      vertex -2.02254 -1.46946 -6
    endloop
  endfacet
  facet normal 0 0 -1
    outer loop
      vertex -2.32444 -0.920311 -6
      vertex -2.32444 0.920311 -6
      vertex -2.02254 1.46946 -6
    endloop
  endfacet
  facet normal 0 0 -1
    outer loop
      vertex -2.48029 -0.313333 -6
      vertex -2.32444 0.920311 -6
      vertex -2.32444 -0.920311 -6
    endloop
  endfacet
  facet normal 0 0 -1
    outer loop
      vertex -2.32444 0.920311 -6
      vertex -2.48029 -0.313333 -6
      vertex -2.48029 0.313333 -6
    endloop
  endfacet
  facet normal 0.637423 0.770514 -0
    outer loop
      vertex 1.82242 1.71137 -6
      vertex 1.33957 2.11082 -1
      vertex 1.82242 1.71137 -1
    endloop
  endfacet
  facet normal 0.637423 0.770514 0
    outer loop
      vertex 1.33957 2.11082 -1
      vertex 1.82242 1.71137 -6
      vertex 1.33957 2.11082 -6
    endloop
  endfacet
  facet normal 0.637423 0.770514 -0
    outer loop
      vertex 1.82242 1.71137 1
      vertex 1.33957 2.11082 6
      vertex 1.82242 1.71137 6
    endloop
  endfacet
  facet normal 0.637423 0.770514 0
    outer loop
      vertex 1.33957 2.11082 6
      vertex 1.82242 1.71137 1
      vertex 1.33957 2.11082 1
    endloop
  endfacet
  facet normal 0.42578 0.904827 -0
    outer loop
      vertex 1.33957 2.11082 -6
      vertex 0.772542 2.37764 -1
      vertex 1.33957 2.11082 -1
    endloop
  endfacet
  facet normal 0.42578 0.904827 0
    outer loop
      vertex 0.772542 2.37764 -1
      vertex 1.33957 2.11082 -6
      vertex 0.772542 2.37764 -6
    endloop
  endfacet
  facet normal 0.42578 0.904827 -0
    outer loop
      vertex 1.33957 2.11082 1
      vertex 0.772542 2.37764 6
      vertex 1.33957 2.11082 6
    endloop
  endfacet
  facet normal 0.42578 0.904827 0
    outer loop
      vertex 0.772542 2.37764 6
      vertex 1.33957 2.11082 1
      vertex 0.772542 2.37764 1
    endloop
  endfacet
  facet normal -0.728969 0.684547 0
    outer loop
      vertex -2.02254 1.46946 1
      vertex -1.59356 1.92628 6
      vertex -1.59356 1.92628 1
    endloop
  endfacet
  facet normal -0.728969 0.684547 0
    outer loop
      vertex -1.59356 1.92628 6
      vertex -2.02254 1.46946 1
      vertex -2.02254 1.46946 6
    endloop
  endfacet
  facet normal -0.728969 0.684547 0
    outer loop
      vertex -2.02254 1.46946 -6
      vertex -1.59356 1.92628 -1
      vertex -1.59356 1.92628 -6
    endloop
  endfacet
  facet normal -0.728969 0.684547 0
    outer loop
      vertex -1.59356 1.92628 -1
      vertex -2.02254 1.46946 -6
      vertex -2.02254 1.46946 -1
    endloop
  endfacet
  facet normal -0.876306 0.481754 0
    outer loop
      vertex -2.32444 0.920311 1
      vertex -2.02254 1.46946 6
      vertex -2.02254 1.46946 1
    endloop
  endfacet
  facet normal -0.876306 0.481754 0
    outer loop
      vertex -2.02254 1.46946 6
      vertex -2.32444 0.920311 1
      vertex -2.32444 0.920311 6
    endloop
  endfacet
  facet normal -0.876306 0.481754 0
    outer loop
      vertex -2.32444 0.920311 -6
      vertex -2.02254 1.46946 -1
      vertex -2.02254 1.46946 -6
    endloop
  endfacet
  facet normal -0.876306 0.481754 0
    outer loop
      vertex -2.02254 1.46946 -1
      vertex -2.32444 0.920311 -6
      vertex -2.32444 0.920311 -1
    endloop
  endfacet
  facet normal -0.535826 0.844328 0
    outer loop
      vertex -1.06445 2.26207 -6
      vertex -1.59356 1.92628 -1
      vertex -1.06445 2.26207 -1
    endloop
  endfacet
  facet normal -0.535826 0.844328 0
    outer loop
      vertex -1.59356 1.92628 -1
      vertex -1.06445 2.26207 -6
      vertex -1.59356 1.92628 -6
    endloop
  endfacet
  facet normal -0.535826 0.844328 0
    outer loop
      vertex -1.06445 2.26207 1
      vertex -1.59356 1.92628 6
      vertex -1.06445 2.26207 6
    endloop
  endfacet
  facet normal -0.535826 0.844328 0
    outer loop
      vertex -1.59356 1.92628 6
      vertex -1.06445 2.26207 1
      vertex -1.59356 1.92628 1
    endloop
  endfacet
  facet normal -0.968583 -0.24869 0
    outer loop
      vertex -2.32444 -0.920311 -6
      vertex -2.48029 -0.313333 -1
      vertex -2.48029 -0.313333 -6
    endloop
  endfacet
  facet normal -0.968583 -0.24869 0
    outer loop
      vertex -2.48029 -0.313333 -1
      vertex -2.32444 -0.920311 -6
      vertex -2.32444 -0.920311 -1
    endloop
  endfacet
  facet normal -0.968583 -0.24869 0
    outer loop
      vertex -2.32444 -0.920311 1
      vertex -2.48029 -0.313333 6
      vertex -2.48029 -0.313333 1
    endloop
  endfacet
  facet normal -0.968583 -0.24869 0
    outer loop
      vertex -2.48029 -0.313333 6
      vertex -2.32444 -0.920311 1
      vertex -2.32444 -0.920311 6
    endloop
  endfacet
  facet normal 0.809017 0.587785 0
    outer loop
      vertex 2.19077 1.20438 6
      vertex 1.82242 1.71137 1
      vertex 1.82242 1.71137 6
    endloop
  endfacet
  facet normal 0.809017 0.587785 0
    outer loop
      vertex 1.82242 1.71137 1
      vertex 2.19077 1.20438 6
      vertex 2.19077 1.20438 1
    endloop
  endfacet
  facet normal 0.809017 0.587785 0
    outer loop
      vertex 2.19077 1.20438 -1
      vertex 1.82242 1.71137 -6
      vertex 1.82242 1.71137 -1
    endloop
  endfacet
  facet normal 0.809017 0.587785 0
    outer loop
      vertex 1.82242 1.71137 -6
      vertex 2.19077 1.20438 -1
      vertex 2.19077 1.20438 -6
    endloop
  endfacet
  facet normal 0.929777 0.368124 0
    outer loop
      vertex 2.42146 0.621724 -1
      vertex 2.19077 1.20438 -6
      vertex 2.19077 1.20438 -1
    endloop
  endfacet
  facet normal 0.929777 0.368124 0
    outer loop
      vertex 2.19077 1.20438 -6
      vertex 2.42146 0.621724 -1
      vertex 2.42146 0.621724 -6
    endloop
  endfacet
  facet normal 0.929777 0.368124 0
    outer loop
      vertex 2.42146 0.621724 6
      vertex 2.19077 1.20438 1
      vertex 2.19077 1.20438 6
    endloop
  endfacet
  facet normal 0.929777 0.368124 0
    outer loop
      vertex 2.19077 1.20438 1
      vertex 2.42146 0.621724 6
      vertex 2.42146 0.621724 1
    endloop
  endfacet
  facet normal 0.187382 0.982287 -0
    outer loop
      vertex 0.772542 2.37764 -6
      vertex 0.156976 2.49507 -1
      vertex 0.772542 2.37764 -1
    endloop
  endfacet
  facet normal 0.187382 0.982287 0
    outer loop
      vertex 0.156976 2.49507 -1
      vertex 0.772542 2.37764 -6
      vertex 0.156976 2.49507 -6
    endloop
  endfacet
  facet normal 0.187382 0.982287 -0
    outer loop
      vertex 0.772542 2.37764 1
      vertex 0.156976 2.49507 6
      vertex 0.772542 2.37764 6
    endloop
  endfacet
  facet normal 0.187382 0.982287 0
    outer loop
      vertex 0.156976 2.49507 6
      vertex 0.772542 2.37764 1
      vertex 0.156976 2.49507 1
    endloop
  endfacet
  facet normal -0.968583 0.24869 0
    outer loop
      vertex -2.48029 0.313333 -6
      vertex -2.32444 0.920311 -1
      vertex -2.32444 0.920311 -6
    endloop
  endfacet
  facet normal -0.968583 0.24869 0
    outer loop
      vertex -2.32444 0.920311 -1
      vertex -2.48029 0.313333 -6
      vertex -2.48029 0.313333 -1
    endloop
  endfacet
  facet normal -0.968583 0.24869 0
    outer loop
      vertex -2.48029 0.313333 1
      vertex -2.32444 0.920311 6
      vertex -2.32444 0.920311 1
    endloop
  endfacet
  facet normal -0.968583 0.24869 0
    outer loop
      vertex -2.32444 0.920311 6
      vertex -2.48029 0.313333 1
      vertex -2.48029 0.313333 6
    endloop
  endfacet
  facet normal 0 0 1
    outer loop
      vertex 2.42146 0.621724 6
      vertex 2.42146 -0.621724 6
      vertex 2.5 0 6
    endloop
  endfacet
  facet normal 0 0 1
    outer loop
      vertex 2.19077 1.20438 6
      vertex 2.42146 -0.621724 6
      vertex 2.42146 0.621724 6
    endloop
  endfacet
  facet normal 0 0 1
    outer loop
      vertex 2.19077 1.20438 6
      vertex 2.19077 -1.20438 6
      vertex 2.42146 -0.621724 6
    endloop
  endfacet
  facet normal 0 0 1
    outer loop
      vertex 1.82242 1.71137 6
      vertex 2.19077 -1.20438 6
      vertex 2.19077 1.20438 6
    endloop
  endfacet
  facet normal 0 0 1
    outer loop
      vertex 1.82242 1.71137 6
      vertex 1.82242 -1.71137 6
      vertex 2.19077 -1.20438 6
    endloop
  endfacet
  facet normal 0 0 1
    outer loop
      vertex 1.33957 2.11082 6
      vertex 1.82242 -1.71137 6
      vertex 1.82242 1.71137 6
    endloop
  endfacet
  facet normal 0 0 1
    outer loop
      vertex 1.33957 2.11082 6
      vertex 1.33957 -2.11082 6
      vertex 1.82242 -1.71137 6
    endloop
  endfacet
  facet normal 0 0 1
    outer loop
      vertex 0.772542 2.37764 6
      vertex 1.33957 -2.11082 6
      vertex 1.33957 2.11082 6
    endloop
  endfacet
  facet normal 0 0 1
    outer loop
      vertex 0.772542 2.37764 6
      vertex 0.772542 -2.37764 6
      vertex 1.33957 -2.11082 6
    endloop
  endfacet
  facet normal 0 0 1
    outer loop
      vertex 0.156976 2.49507 6
      vertex 0.772542 -2.37764 6
      vertex 0.772542 2.37764 6
    endloop
  endfacet
  facet normal 0 0 1
    outer loop
      vertex 0.156976 2.49507 6
      vertex 0.156976 -2.49507 6
      vertex 0.772542 -2.37764 6
    endloop
  endfacet
  facet normal -0 0 1
    outer loop
      vertex -0.468452 2.45572 6
      vertex 0.156976 -2.49507 6
      vertex 0.156976 2.49507 6
    endloop
  endfacet
  facet normal 0 0 1
    outer loop
      vertex -0.468452 2.45572 6
      vertex -0.468452 -2.45572 6
      vertex 0.156976 -2.49507 6
    endloop
  endfacet
  facet normal -0 0 1
    outer loop
      vertex -1.06445 2.26207 6
      vertex -0.468452 -2.45572 6
      vertex -0.468452 2.45572 6
    endloop
  endfacet
  facet normal 0 0 1
    outer loop
      vertex -1.06445 2.26207 6
      vertex -1.06445 -2.26207 6
      vertex -0.468452 -2.45572 6
    endloop
  endfacet
  facet normal -0 0 1
    outer loop
      vertex -1.59356 1.92628 6
      vertex -1.06445 -2.26207 6
      vertex -1.06445 2.26207 6
    endloop
  endfacet
  facet normal 0 0 1
    outer loop
      vertex -1.59356 1.92628 6
      vertex -1.59356 -1.92628 6
      vertex -1.06445 -2.26207 6
    endloop
  endfacet
  facet normal -0 0 1
    outer loop
      vertex -2.02254 1.46946 6
      vertex -1.59356 -1.92628 6
      vertex -1.59356 1.92628 6
    endloop
  endfacet
  facet normal 0 0 1
    outer loop
      vertex -2.02254 1.46946 6
      vertex -2.02254 -1.46946 6
      vertex -1.59356 -1.92628 6
    endloop
  endfacet
  facet normal -0 0 1
    outer loop
      vertex -2.32444 0.920311 6
      vertex -2.02254 -1.46946 6
      vertex -2.02254 1.46946 6
    endloop
  endfacet
  facet normal 0 0 1
    outer loop
      vertex -2.32444 0.920311 6
      vertex -2.32444 -0.920311 6
      vertex -2.02254 -1.46946 6
    endloop
  endfacet
  facet normal -0 0 1
    outer loop
      vertex -2.48029 0.313333 6
      vertex -2.32444 -0.920311 6
      vertex -2.32444 0.920311 6
    endloop
  endfacet
  facet normal 0 0 1
    outer loop
      vertex -2.32444 -0.920311 6
      vertex -2.48029 0.313333 6
      vertex -2.48029 -0.313333 6
    endloop
  endfacet
  facet normal -0.309018 0.951056 0
    outer loop
      vertex -0.468452 2.45572 -6
      vertex -1.06445 2.26207 -1
      vertex -0.468452 2.45572 -1
    endloop
  endfacet
  facet normal -0.309018 0.951056 0
    outer loop
      vertex -1.06445 2.26207 -1
      vertex -0.468452 2.45572 -6
      vertex -1.06445 2.26207 -6
    endloop
  endfacet
  facet normal -0.309018 0.951056 0
    outer loop
      vertex -0.468452 2.45572 1
      vertex -1.06445 2.26207 6
      vertex -0.468452 2.45572 6
    endloop
  endfacet
  facet normal -0.309018 0.951056 0
    outer loop
      vertex -1.06445 2.26207 6
      vertex -0.468452 2.45572 1
      vertex -1.06445 2.26207 1
    endloop
  endfacet
  facet normal 0.992115 -0.125334 0
    outer loop
      vertex 2.42146 -0.621724 -1
      vertex 2.5 0 -6
      vertex 2.5 0 -1
    endloop
  endfacet
  facet normal 0.992115 -0.125334 0
    outer loop
      vertex 2.5 0 -6
      vertex 2.42146 -0.621724 -1
      vertex 2.42146 -0.621724 -6
    endloop
  endfacet
  facet normal 0.992115 -0.125334 0
    outer loop
      vertex 2.42146 -0.621724 6
      vertex 2.5 0 1
      vertex 2.5 0 6
    endloop
  endfacet
  facet normal 0.992115 -0.125334 0
    outer loop
      vertex 2.5 0 1
      vertex 2.42146 -0.621724 6
      vertex 2.42146 -0.621724 1
    endloop
  endfacet
  facet normal 0.187382 -0.982287 0
    outer loop
      vertex 0.156976 -2.49507 -6
      vertex 0.772542 -2.37764 -1
      vertex 0.156976 -2.49507 -1
    endloop
  endfacet
  facet normal 0.187382 -0.982287 0
    outer loop
      vertex 0.772542 -2.37764 -1
      vertex 0.156976 -2.49507 -6
      vertex 0.772542 -2.37764 -6
    endloop
  endfacet
  facet normal 0.187382 -0.982287 0
    outer loop
      vertex 0.156976 -2.49507 1
      vertex 0.772542 -2.37764 6
      vertex 0.156976 -2.49507 6
    endloop
  endfacet
  facet normal 0.187382 -0.982287 0
    outer loop
      vertex 0.772542 -2.37764 6
      vertex 0.156976 -2.49507 1
      vertex 0.772542 -2.37764 1
    endloop
  endfacet
  facet normal -0.535826 -0.844328 0
    outer loop
      vertex -1.59356 -1.92628 -6
      vertex -1.06445 -2.26207 -1
      vertex -1.59356 -1.92628 -1
    endloop
  endfacet
  facet normal -0.535826 -0.844328 -0
    outer loop
      vertex -1.06445 -2.26207 -1
      vertex -1.59356 -1.92628 -6
      vertex -1.06445 -2.26207 -6
    endloop
  endfacet
  facet normal -0.535826 -0.844328 0
    outer loop
      vertex -1.59356 -1.92628 1
      vertex -1.06445 -2.26207 6
      vertex -1.59356 -1.92628 6
    endloop
  endfacet
  facet normal -0.535826 -0.844328 -0
    outer loop
      vertex -1.06445 -2.26207 6
      vertex -1.59356 -1.92628 1
      vertex -1.06445 -2.26207 1
    endloop
  endfacet
  facet normal -0.0627905 -0.998027 0
    outer loop
      vertex -0.468452 -2.45572 -6
      vertex 0.156976 -2.49507 -1
      vertex -0.468452 -2.45572 -1
    endloop
  endfacet
  facet normal -0.0627905 -0.998027 -0
    outer loop
      vertex 0.156976 -2.49507 -1
      vertex -0.468452 -2.45572 -6
      vertex 0.156976 -2.49507 -6
    endloop
  endfacet
  facet normal -0.0627905 -0.998027 0
    outer loop
      vertex -0.468452 -2.45572 1
      vertex 0.156976 -2.49507 6
      vertex -0.468452 -2.45572 6
    endloop
  endfacet
  facet normal -0.0627905 -0.998027 -0
    outer loop
      vertex 0.156976 -2.49507 6
      vertex -0.468452 -2.45572 1
      vertex 0.156976 -2.49507 1
    endloop
  endfacet
  facet normal -0.876306 -0.481754 0
    outer loop
      vertex -2.02254 -1.46946 -6
      vertex -2.32444 -0.920311 -1
      vertex -2.32444 -0.920311 -6
    endloop
  endfacet
  facet normal -0.876306 -0.481754 0
    outer loop
      vertex -2.32444 -0.920311 -1
      vertex -2.02254 -1.46946 -6
      vertex -2.02254 -1.46946 -1
    endloop
  endfacet
  facet normal -0.876306 -0.481754 0
    outer loop
      vertex -2.02254 -1.46946 1
      vertex -2.32444 -0.920311 6
      vertex -2.32444 -0.920311 1
    endloop
  endfacet
  facet normal -0.876306 -0.481754 0
    outer loop
      vertex -2.32444 -0.920311 6
      vertex -2.02254 -1.46946 1
      vertex -2.02254 -1.46946 6
    endloop
  endfacet
  facet normal 0.809017 -0.587785 0
    outer loop
      vertex 1.82242 -1.71137 -1
      vertex 2.19077 -1.20438 -6
      vertex 2.19077 -1.20438 -1
    endloop
  endfacet
  facet normal 0.809017 -0.587785 0
    outer loop
      vertex 2.19077 -1.20438 -6
      vertex 1.82242 -1.71137 -1
      vertex 1.82242 -1.71137 -6
    endloop
  endfacet
  facet normal 0.809017 -0.587785 0
    outer loop
      vertex 1.82242 -1.71137 6
      vertex 2.19077 -1.20438 1
      vertex 2.19077 -1.20438 6
    endloop
  endfacet
  facet normal 0.809017 -0.587785 0
    outer loop
      vertex 2.19077 -1.20438 1
      vertex 1.82242 -1.71137 6
      vertex 1.82242 -1.71137 1
    endloop
  endfacet
  facet normal 0.42578 -0.904827 0
    outer loop
      vertex 0.772542 -2.37764 -6
      vertex 1.33957 -2.11082 -1
      vertex 0.772542 -2.37764 -1
    endloop
  endfacet
  facet normal 0.42578 -0.904827 0
    outer loop
      vertex 1.33957 -2.11082 -1
      vertex 0.772542 -2.37764 -6
      vertex 1.33957 -2.11082 -6
    endloop
  endfacet
  facet normal 0.42578 -0.904827 0
    outer loop
      vertex 0.772542 -2.37764 1
      vertex 1.33957 -2.11082 6
      vertex 0.772542 -2.37764 6
    endloop
  endfacet
  facet normal 0.42578 -0.904827 0
    outer loop
      vertex 1.33957 -2.11082 6
      vertex 0.772542 -2.37764 1
      vertex 1.33957 -2.11082 1
    endloop
  endfacet
  facet normal -0.309018 -0.951056 0
    outer loop
      vertex -1.06445 -2.26207 -6
      vertex -0.468452 -2.45572 -1
      vertex -1.06445 -2.26207 -1
    endloop
  endfacet
  facet normal -0.309018 -0.951056 -0
    outer loop
      vertex -0.468452 -2.45572 -1
      vertex -1.06445 -2.26207 -6
      vertex -0.468452 -2.45572 -6
    endloop
  endfacet
  facet normal -0.309018 -0.951056 0
    outer loop
      vertex -1.06445 -2.26207 1
      vertex -0.468452 -2.45572 6
      vertex -1.06445 -2.26207 6
    endloop
  endfacet
  facet normal -0.309018 -0.951056 -0
    outer loop
      vertex -0.468452 -2.45572 6
      vertex -1.06445 -2.26207 1
      vertex -0.468452 -2.45572 1
    endloop
  endfacet
  facet normal -0.728969 -0.684547 0
    outer loop
      vertex -1.59356 -1.92628 -6
      vertex -2.02254 -1.46946 -1
      vertex -2.02254 -1.46946 -6
    endloop
  endfacet
  facet normal -0.728969 -0.684547 0
    outer loop
      vertex -2.02254 -1.46946 -1
      vertex -1.59356 -1.92628 -6
      vertex -1.59356 -1.92628 -1
    endloop
  endfacet
  facet normal -0.728969 -0.684547 0
    outer loop
      vertex -1.59356 -1.92628 1
      vertex -2.02254 -1.46946 6
      vertex -2.02254 -1.46946 1
    endloop
  endfacet
  facet normal -0.728969 -0.684547 0
    outer loop
      vertex -2.02254 -1.46946 6
      vertex -1.59356 -1.92628 1
      vertex -1.59356 -1.92628 6
    endloop
  endfacet
  facet normal 0.929777 -0.368124 0
    outer loop
      vertex 2.19077 -1.20438 -1
      vertex 2.42146 -0.621724 -6
      vertex 2.42146 -0.621724 -1
    endloop
  endfacet
  facet normal 0.929777 -0.368124 0
    outer loop
      vertex 2.42146 -0.621724 -6
      vertex 2.19077 -1.20438 -1
      vertex 2.19077 -1.20438 -6
    endloop
  endfacet
  facet normal 0.929777 -0.368124 0
    outer loop
      vertex 2.19077 -1.20438 6
      vertex 2.42146 -0.621724 1
      vertex 2.42146 -0.621724 6
    endloop
  endfacet
  facet normal 0.929777 -0.368124 0
    outer loop
      vertex 2.42146 -0.621724 1
      vertex 2.19077 -1.20438 6
      vertex 2.19077 -1.20438 1
    endloop
  endfacet
  facet normal 0.637423 -0.770514 0
    outer loop
      vertex 1.33957 -2.11082 -6
      vertex 1.82242 -1.71137 -1
      vertex 1.33957 -2.11082 -1
    endloop
  endfacet
  facet normal 0.637423 -0.770514 0
    outer loop
      vertex 1.82242 -1.71137 -1
      vertex 1.33957 -2.11082 -6
      vertex 1.82242 -1.71137 -6
    endloop
  endfacet
  facet normal 0.637423 -0.770514 0
    outer loop
      vertex 1.33957 -2.11082 1
      vertex 1.82242 -1.71137 6
      vertex 1.33957 -2.11082 6
    endloop
  endfacet
  facet normal 0.637423 -0.770514 0
    outer loop
      vertex 1.82242 -1.71137 6
      vertex 1.33957 -2.11082 1
      vertex 1.82242 -1.71137 1
    endloop
  endfacet
  facet normal -0.992114 -0.125337 0
    outer loop
      vertex 32.5 0 -1
      vertex 32.4215 0.621724 1
      vertex 32.4215 0.621724 -1
    endloop
  endfacet
  facet normal -0.992114 -0.125337 0
    outer loop
      vertex 32.4215 0.621724 1
      vertex 32.5 0 -1
      vertex 32.5 0 1
    endloop
  endfacet
  facet normal 1 -0 0
    outer loop
      vertex 27.5197 -0.313333 1
      vertex 27.5197 0.313333 -1
      vertex 27.5197 0.313333 1
    endloop
  endfacet
  facet normal 1 0 0
    outer loop
      vertex 27.5197 0.313333 -1
      vertex 27.5197 -0.313333 1
      vertex 27.5197 -0.313333 -1
    endloop
  endfacet
  facet normal 0.0627906 -0.998027 0
    outer loop
      vertex 29.5315 2.45572 -1
      vertex 30.157 2.49507 1
      vertex 29.5315 2.45572 1
    endloop
  endfacet
  facet normal 0.0627906 -0.998027 0
    outer loop
      vertex 30.157 2.49507 1
      vertex 29.5315 2.45572 -1
      vertex 30.157 2.49507 -1
    endloop
  endfacet
  facet normal 0.728968 0.684548 0
    outer loop
      vertex 28.4064 -1.92628 1
      vertex 27.9775 -1.46946 -1
      vertex 27.9775 -1.46946 1
    endloop
  endfacet
  facet normal 0.728968 0.684548 0
    outer loop
      vertex 27.9775 -1.46946 -1
      vertex 28.4064 -1.92628 1
      vertex 28.4064 -1.92628 -1
    endloop
  endfacet
  facet normal -0.637422 -0.770515 0
    outer loop
      vertex 31.3396 2.11082 -1
      vertex 31.8224 1.71137 1
      vertex 31.3396 2.11082 1
    endloop
  endfacet
  facet normal -0.637422 -0.770515 -0
    outer loop
      vertex 31.8224 1.71137 1
      vertex 31.3396 2.11082 -1
      vertex 31.8224 1.71137 -1
    endloop
  endfacet
  facet normal 0.728968 -0.684548 0
    outer loop
      vertex 27.9775 1.46946 1
      vertex 28.4064 1.92628 -1
      vertex 28.4064 1.92628 1
    endloop
  endfacet
  facet normal 0.728968 -0.684548 0
    outer loop
      vertex 28.4064 1.92628 -1
      vertex 27.9775 1.46946 1
      vertex 27.9775 1.46946 -1
    endloop
  endfacet
  facet normal 0.876306 -0.481754 0
    outer loop
      vertex 27.6756 0.920311 1
      vertex 27.9775 1.46946 -1
      vertex 27.9775 1.46946 1
    endloop
  endfacet
  facet normal 0.876306 -0.481754 0
    outer loop
      vertex 27.9775 1.46946 -1
      vertex 27.6756 0.920311 1
      vertex 27.6756 0.920311 -1
    endloop
  endfacet
  facet normal 0.535827 -0.844328 0
    outer loop
      vertex 28.4064 1.92628 -1
      vertex 28.9356 2.26207 1
      vertex 28.4064 1.92628 1
    endloop
  endfacet
  facet normal 0.535827 -0.844328 0
    outer loop
      vertex 28.9356 2.26207 1
      vertex 28.4064 1.92628 -1
      vertex 28.9356 2.26207 -1
    endloop
  endfacet
  facet normal 0.968583 0.24869 0
    outer loop
      vertex 27.6756 -0.920311 1
      vertex 27.5197 -0.313333 -1
      vertex 27.5197 -0.313333 1
    endloop
  endfacet
  facet normal 0.968583 0.24869 0
    outer loop
      vertex 27.5197 -0.313333 -1
      vertex 27.6756 -0.920311 1
      vertex 27.6756 -0.920311 -1
    endloop
  endfacet
  facet normal -0.809018 -0.587783 0
    outer loop
      vertex 32.1908 1.20438 -1
      vertex 31.8224 1.71137 1
      vertex 31.8224 1.71137 -1
    endloop
  endfacet
  facet normal -0.809018 -0.587783 0
    outer loop
      vertex 31.8224 1.71137 1
      vertex 32.1908 1.20438 -1
      vertex 32.1908 1.20438 1
    endloop
  endfacet
  facet normal -0.929777 -0.368123 0
    outer loop
      vertex 32.4215 0.621724 -1
      vertex 32.1908 1.20438 1
      vertex 32.1908 1.20438 -1
    endloop
  endfacet
  facet normal -0.929777 -0.368123 0
    outer loop
      vertex 32.1908 1.20438 1
      vertex 32.4215 0.621724 -1
      vertex 32.4215 0.621724 1
    endloop
  endfacet
  facet normal -0.187382 -0.982287 0
    outer loop
      vertex 30.157 2.49507 -1
      vertex 30.7725 2.37764 1
      vertex 30.157 2.49507 1
    endloop
  endfacet
  facet normal -0.187382 -0.982287 -0
    outer loop
      vertex 30.7725 2.37764 1
      vertex 30.157 2.49507 -1
      vertex 30.7725 2.37764 -1
    endloop
  endfacet
  facet normal -0.42578 -0.904827 0
    outer loop
      vertex 30.7725 2.37764 -1
      vertex 31.3396 2.11082 1
      vertex 30.7725 2.37764 1
    endloop
  endfacet
  facet normal -0.42578 -0.904827 -0
    outer loop
      vertex 31.3396 2.11082 1
      vertex 30.7725 2.37764 -1
      vertex 31.3396 2.11082 -1
    endloop
  endfacet
  facet normal 0.968583 -0.24869 0
    outer loop
      vertex 27.5197 0.313333 1
      vertex 27.6756 0.920311 -1
      vertex 27.6756 0.920311 1
    endloop
  endfacet
  facet normal 0.968583 -0.24869 0
    outer loop
      vertex 27.6756 0.920311 -1
      vertex 27.5197 0.313333 1
      vertex 27.5197 0.313333 -1
    endloop
  endfacet
  facet normal 0.309017 -0.951056 0
    outer loop
      vertex 28.9356 2.26207 -1
      vertex 29.5315 2.45572 1
      vertex 28.9356 2.26207 1
    endloop
  endfacet
  facet normal 0.309017 -0.951056 0
    outer loop
      vertex 29.5315 2.45572 1
      vertex 28.9356 2.26207 -1
      vertex 29.5315 2.45572 -1
    endloop
  endfacet
  facet normal -0.992114 0.125337 0
    outer loop
      vertex 32.4215 -0.621724 -1
      vertex 32.5 0 1
      vertex 32.5 0 -1
    endloop
  endfacet
  facet normal -0.992114 0.125337 0
    outer loop
      vertex 32.5 0 1
      vertex 32.4215 -0.621724 -1
      vertex 32.4215 -0.621724 1
    endloop
  endfacet
  facet normal -0.187382 0.982287 0
    outer loop
      vertex 30.7725 -2.37764 -1
      vertex 30.157 -2.49507 1
      vertex 30.7725 -2.37764 1
    endloop
  endfacet
  facet normal -0.187382 0.982287 0
    outer loop
      vertex 30.157 -2.49507 1
      vertex 30.7725 -2.37764 -1
      vertex 30.157 -2.49507 -1
    endloop
  endfacet
  facet normal 0.535827 0.844328 -0
    outer loop
      vertex 28.9356 -2.26207 -1
      vertex 28.4064 -1.92628 1
      vertex 28.9356 -2.26207 1
    endloop
  endfacet
  facet normal 0.535827 0.844328 0
    outer loop
      vertex 28.4064 -1.92628 1
      vertex 28.9356 -2.26207 -1
      vertex 28.4064 -1.92628 -1
    endloop
  endfacet
  facet normal 0.0627906 0.998027 -0
    outer loop
      vertex 30.157 -2.49507 -1
      vertex 29.5315 -2.45572 1
      vertex 30.157 -2.49507 1
    endloop
  endfacet
  facet normal 0.0627906 0.998027 0
    outer loop
      vertex 29.5315 -2.45572 1
      vertex 30.157 -2.49507 -1
      vertex 29.5315 -2.45572 -1
    endloop
  endfacet
  facet normal 0.876306 0.481754 0
    outer loop
      vertex 27.9775 -1.46946 1
      vertex 27.6756 -0.920311 -1
      vertex 27.6756 -0.920311 1
    endloop
  endfacet
  facet normal 0.876306 0.481754 0
    outer loop
      vertex 27.6756 -0.920311 -1
      vertex 27.9775 -1.46946 1
      vertex 27.9775 -1.46946 -1
    endloop
  endfacet
  facet normal -0.637422 0.770515 0
    outer loop
      vertex 31.8224 -1.71137 -1
      vertex 31.3396 -2.11082 1
      vertex 31.8224 -1.71137 1
    endloop
  endfacet
  facet normal -0.637422 0.770515 0
    outer loop
      vertex 31.3396 -2.11082 1
      vertex 31.8224 -1.71137 -1
      vertex 31.3396 -2.11082 -1
    endloop
  endfacet
  facet normal -0.929777 0.368123 0
    outer loop
      vertex 32.1908 -1.20438 -1
      vertex 32.4215 -0.621724 1
      vertex 32.4215 -0.621724 -1
    endloop
  endfacet
  facet normal -0.929777 0.368123 0
    outer loop
      vertex 32.4215 -0.621724 1
      vertex 32.1908 -1.20438 -1
      vertex 32.1908 -1.20438 1
    endloop
  endfacet
  facet normal -0.809018 0.587783 0
    outer loop
      vertex 31.8224 -1.71137 -1
      vertex 32.1908 -1.20438 1
      vertex 32.1908 -1.20438 -1
    endloop
  endfacet
  facet normal -0.809018 0.587783 0
    outer loop
      vertex 32.1908 -1.20438 1
      vertex 31.8224 -1.71137 -1
      vertex 31.8224 -1.71137 1
    endloop
  endfacet
  facet normal -0.42578 0.904827 0
    outer loop
      vertex 31.3396 -2.11082 -1
      vertex 30.7725 -2.37764 1
      vertex 31.3396 -2.11082 1
    endloop
  endfacet
  facet normal -0.42578 0.904827 0
    outer loop
      vertex 30.7725 -2.37764 1
      vertex 31.3396 -2.11082 -1
      vertex 30.7725 -2.37764 -1
    endloop
  endfacet
  facet normal 0.309017 0.951056 -0
    outer loop
      vertex 29.5315 -2.45572 -1
      vertex 28.9356 -2.26207 1
      vertex 29.5315 -2.45572 1
    endloop
  endfacet
  facet normal 0.309017 0.951056 0
    outer loop
      vertex 28.9356 -2.26207 1
      vertex 29.5315 -2.45572 -1
      vertex 28.9356 -2.26207 -1
    endloop
  endfacet
endsolid OpenSCAD_Model
