solid OpenSCAD_Model
  facet normal 0.992115 0.125333 0
    outer loop
      vertex 6 0 0
      vertex 5.8115 1.49214 -4
      vertex 5.8115 1.49214 0
    endloop
  endfacet
  facet normal 0.992115 0.125333 0
    outer loop
      vertex 5.8115 1.49214 -4
      vertex 6 0 0
      vertex 6 0 -4
    endloop
  endfacet
  facet normal 0.992115 0.125333 0
    outer loop
      vertex 6 0 6
      vertex 5.8115 1.49214 2
      vertex 5.8115 1.49214 6
    endloop
  endfacet
  facet normal 0.992115 0.125333 0
    outer loop
      vertex 5.8115 1.49214 2
      vertex 6 0 6
      vertex 6 0 2
    endloop
  endfacet
  facet normal -1 0 0
    outer loop
      vertex -5.95269 -0.751999 -4
      vertex -5.95269 0.751999 6
      vertex -5.95269 0.751999 -4
    endloop
  endfacet
  facet normal -1 -0 0
    outer loop
      vertex -5.95269 0.751999 6
      vertex -5.95269 -0.751999 -4
      vertex -5.95269 -0.751999 6
    endloop
  endfacet
  facet normal -0.0627905 0.998027 0
    outer loop
      vertex 0.376742 5.98816 0
      vertex 0.376742 5.98816 -4
      vertex 0 5.96446 0
    endloop
  endfacet
  facet normal -0.0627905 0.998027 0
    outer loop
      vertex 0 5.96446 2
      vertex 0.376742 5.98816 6
      vertex 0.376742 5.98816 2
    endloop
  endfacet
  facet normal -0.0627904 0.998027 -9.99962e-09
    outer loop
      vertex 0.376742 5.98816 6
      vertex 0 5.96446 2
      vertex -1.12429 5.89372 6
    endloop
  endfacet
  facet normal -0.0627904 0.998027 0
    outer loop
      vertex 0 5.96446 0
      vertex -1.12429 5.89372 6
      vertex 0 5.96446 2
    endloop
  endfacet
  facet normal -0.0627904 0.998027 9.99962e-09
    outer loop
      vertex -1.12429 5.89372 -4
      vertex 0 5.96446 0
      vertex 0.376742 5.98816 -4
    endloop
  endfacet
  facet normal -0.0627904 0.998027 0
    outer loop
      vertex 0 5.96446 0
      vertex -1.12429 5.89372 -4
      vertex -1.12429 5.89372 6
    endloop
  endfacet
  facet normal 0.637424 0.770513 -0
    outer loop
      vertex 4.37381 4.10728 -4
      vertex 3.21496 5.06597 0
      vertex 4.37381 4.10728 0
    endloop
  endfacet
  facet normal 0.637424 0.770513 0
    outer loop
      vertex 3.21496 5.06597 0
      vertex 4.37381 4.10728 -4
      vertex 3.21496 5.06597 -4
    endloop
  endfacet
  facet normal 0.637424 0.770513 -0
    outer loop
      vertex 4.37381 4.10728 2
      vertex 3.21496 5.06597 6
      vertex 4.37381 4.10728 6
    endloop
  endfacet
  facet normal 0.637424 0.770513 0
    outer loop
      vertex 3.21496 5.06597 6
      vertex 4.37381 4.10728 2
      vertex 3.21496 5.06597 2
    endloop
  endfacet
  facet normal 0.42578 0.904827 -0
    outer loop
      vertex 3.21496 5.06597 -4
      vertex 1.8541 5.70634 0
      vertex 3.21496 5.06597 0
    endloop
  endfacet
  facet normal 0.42578 0.904827 0
    outer loop
      vertex 1.8541 5.70634 0
      vertex 3.21496 5.06597 -4
      vertex 1.8541 5.70634 -4
    endloop
  endfacet
  facet normal 0.42578 0.904827 -0
    outer loop
      vertex 3.21496 5.06597 2
      vertex 1.8541 5.70634 6
      vertex 3.21496 5.06597 6
    endloop
  endfacet
  facet normal 0.42578 0.904827 0
    outer loop
      vertex 1.8541 5.70634 6
      vertex 3.21496 5.06597 2
      vertex 1.8541 5.70634 2
    endloop
  endfacet
  facet normal -0.728969 0.684547 0
    outer loop
      vertex -4.8541 3.52671 -4
      vertex -3.82454 4.62308 6
      vertex -3.82454 4.62308 -4
    endloop
  endfacet
  facet normal -0.728969 0.684547 0
    outer loop
      vertex -3.82454 4.62308 6
      vertex -4.8541 3.52671 -4
      vertex -4.8541 3.52671 6
    endloop
  endfacet
  facet normal -0.876307 0.481754 0
    outer loop
      vertex -5.57866 2.20875 -4
      vertex -4.8541 3.52671 6
      vertex -4.8541 3.52671 -4
    endloop
  endfacet
  facet normal -0.876307 0.481754 0
    outer loop
      vertex -4.8541 3.52671 6
      vertex -5.57866 2.20875 -4
      vertex -5.57866 2.20875 6
    endloop
  endfacet
  facet normal -0.535827 0.844328 0
    outer loop
      vertex -2.55468 5.42896 -4
      vertex -3.82454 4.62308 6
      vertex -2.55468 5.42896 6
    endloop
  endfacet
  facet normal -0.535827 0.844328 0
    outer loop
      vertex -3.82454 4.62308 6
      vertex -2.55468 5.42896 -4
      vertex -3.82454 4.62308 -4
    endloop
  endfacet
  facet normal 0 0 -1
    outer loop
      vertex 3 0 -4
      vertex 6 0 -4
      vertex 5.8115 -1.49214 -4
    endloop
  endfacet
  facet normal 0 0 -1
    outer loop
      vertex 2.90575 -0.746069 -4
      vertex 5.8115 -1.49214 -4
      vertex 5.25784 -2.89052 -4
    endloop
  endfacet
  facet normal 0 0 -1
    outer loop
      vertex 6 0 -4
      vertex 3 0 -4
      vertex 5.8115 1.49214 -4
    endloop
  endfacet
  facet normal 0 0 -1
    outer loop
      vertex 2.62892 -1.44526 -4
      vertex 5.25784 -2.89052 -4
      vertex 4.37381 -4.10728 -4
    endloop
  endfacet
  facet normal 0 0 -1
    outer loop
      vertex 2.90575 0.746069 -4
      vertex 5.8115 1.49214 -4
      vertex 3 0 -4
    endloop
  endfacet
  facet normal 0 0 -1
    outer loop
      vertex 2.18691 -2.05364 -4
      vertex 4.37381 -4.10728 -4
      vertex 3.21496 -5.06597 -4
    endloop
  endfacet
  facet normal -0 0 -1
    outer loop
      vertex 5.8115 1.49214 -4
      vertex 2.90575 0.746069 -4
      vertex 5.25784 2.89052 -4
    endloop
  endfacet
  facet normal 0 0 -1
    outer loop
      vertex 2.62892 1.44526 -4
      vertex 5.25784 2.89052 -4
      vertex 2.90575 0.746069 -4
    endloop
  endfacet
  facet normal 0 0 -1
    outer loop
      vertex 5.8115 -1.49214 -4
      vertex 2.90575 -0.746069 -4
      vertex 3 0 -4
    endloop
  endfacet
  facet normal 0 0 -1
    outer loop
      vertex 5.25784 -2.89052 -4
      vertex 2.62892 -1.44526 -4
      vertex 2.90575 -0.746069 -4
    endloop
  endfacet
  facet normal 0 0 -1
    outer loop
      vertex 4.37381 -4.10728 -4
      vertex 2.18691 -2.05364 -4
      vertex 2.62892 -1.44526 -4
    endloop
  endfacet
  facet normal 0 0 -1
    outer loop
      vertex 1.60748 -2.53298 -4
      vertex 3.21496 -5.06597 -4
      vertex 1.8541 -5.70634 -4
    endloop
  endfacet
  facet normal 0 0 -1
    outer loop
      vertex 3.21496 -5.06597 -4
      vertex 1.60748 -2.53298 -4
      vertex 2.18691 -2.05364 -4
    endloop
  endfacet
  facet normal 0 0 -1
    outer loop
      vertex 1.8541 -5.70634 -4
      vertex 0.927051 -2.85317 -4
      vertex 1.60748 -2.53298 -4
    endloop
  endfacet
  facet normal 0 0 -1
    outer loop
      vertex 0.376742 -5.98816 -4
      vertex 0.927051 -2.85317 -4
      vertex 1.8541 -5.70634 -4
    endloop
  endfacet
  facet normal 0 0 -1
    outer loop
      vertex 0.376742 -5.98816 -4
      vertex 0.188371 -2.99408 -4
      vertex 0.927051 -2.85317 -4
    endloop
  endfacet
  facet normal 0 0 -1
    outer loop
      vertex 0.376742 -5.98816 -4
      vertex -0.562143 -2.94686 -4
      vertex 0.188371 -2.99408 -4
    endloop
  endfacet
  facet normal 0 0 -1
    outer loop
      vertex -1.12429 -5.89372 -4
      vertex -0.562143 -2.94686 -4
      vertex 0.376742 -5.98816 -4
    endloop
  endfacet
  facet normal 0 0 -1
    outer loop
      vertex -1.12429 -5.89372 -4
      vertex -1.27734 -2.71448 -4
      vertex -0.562143 -2.94686 -4
    endloop
  endfacet
  facet normal 0 0 -1
    outer loop
      vertex -2.55468 -5.42896 -4
      vertex -1.27734 -2.71448 -4
      vertex -1.12429 -5.89372 -4
    endloop
  endfacet
  facet normal -0 0 -1
    outer loop
      vertex -1.27734 -2.71448 -4
      vertex -2.55468 -5.42896 -4
      vertex -1.91227 -2.31154 -4
    endloop
  endfacet
  facet normal 0 0 -1
    outer loop
      vertex -3.82454 -4.62308 -4
      vertex -1.91227 -2.31154 -4
      vertex -2.55468 -5.42896 -4
    endloop
  endfacet
  facet normal -0 0 -1
    outer loop
      vertex -1.91227 -2.31154 -4
      vertex -3.82454 -4.62308 -4
      vertex -2.42705 -1.76336 -4
    endloop
  endfacet
  facet normal 0 0 -1
    outer loop
      vertex -4.8541 -3.52671 -4
      vertex -2.42705 -1.76336 -4
      vertex -3.82454 -4.62308 -4
    endloop
  endfacet
  facet normal 0 0 -1
    outer loop
      vertex -5.57866 -2.20875 -4
      vertex -2.78933 -1.10437 -4
      vertex -4.8541 -3.52671 -4
    endloop
  endfacet
  facet normal -0 0 -1
    outer loop
      vertex -2.42705 -1.76336 -4
      vertex -4.8541 -3.52671 -4
      vertex -2.78933 -1.10437 -4
    endloop
  endfacet
  facet normal -0 0 -1
    outer loop
      vertex 5.25784 2.89052 -4
      vertex 2.62892 1.44526 -4
      vertex 4.37381 4.10728 -4
    endloop
  endfacet
  facet normal 0 0 -1
    outer loop
      vertex 2.18691 2.05364 -4
      vertex 4.37381 4.10728 -4
      vertex 2.62892 1.44526 -4
    endloop
  endfacet
  facet normal -0 0 -1
    outer loop
      vertex 4.37381 4.10728 -4
      vertex 2.18691 2.05364 -4
      vertex 3.21496 5.06597 -4
    endloop
  endfacet
  facet normal 0 0 -1
    outer loop
      vertex 1.60748 2.53298 -4
      vertex 3.21496 5.06597 -4
      vertex 2.18691 2.05364 -4
    endloop
  endfacet
  facet normal -0 0 -1
    outer loop
      vertex 3.21496 5.06597 -4
      vertex 1.60748 2.53298 -4
      vertex 1.8541 5.70634 -4
    endloop
  endfacet
  facet normal 0 0 -1
    outer loop
      vertex 0.927051 2.85317 -4
      vertex 1.8541 5.70634 -4
      vertex 1.60748 2.53298 -4
    endloop
  endfacet
  facet normal 0 0 -1
    outer loop
      vertex 0.927051 2.85317 -4
      vertex 0.376742 5.98816 -4
      vertex 1.8541 5.70634 -4
    endloop
  endfacet
  facet normal 0 0 -1
    outer loop
      vertex 0.188371 2.99408 -4
      vertex 0.376742 5.98816 -4
      vertex 0.927051 2.85317 -4
    endloop
  endfacet
  facet normal 0 0 -1
    outer loop
      vertex -0.562143 2.94686 -4
      vertex 0.376742 5.98816 -4
      vertex 0.188371 2.99408 -4
    endloop
  endfacet
  facet normal 0 0 -1
    outer loop
      vertex -0.562143 2.94686 -4
      vertex -1.12429 5.89372 -4
      vertex 0.376742 5.98816 -4
    endloop
  endfacet
  facet normal 0 0 -1
    outer loop
      vertex -1.27734 2.71448 -4
      vertex -1.12429 5.89372 -4
      vertex -0.562143 2.94686 -4
    endloop
  endfacet
  facet normal 0 0 -1
    outer loop
      vertex -2.55468 5.42896 -4
      vertex -1.27734 2.71448 -4
      vertex -1.91227 2.31154 -4
    endloop
  endfacet
  facet normal 0 0 -1
    outer loop
      vertex -3.82454 4.62308 -4
      vertex -1.91227 2.31154 -4
      vertex -2.42705 1.76336 -4
    endloop
  endfacet
  facet normal 0 0 -1
    outer loop
      vertex -1.27734 2.71448 -4
      vertex -2.55468 5.42896 -4
      vertex -1.12429 5.89372 -4
    endloop
  endfacet
  facet normal 0 0 -1
    outer loop
      vertex -4.8541 3.52671 -4
      vertex -2.42705 1.76336 -4
      vertex -2.78933 1.10437 -4
    endloop
  endfacet
  facet normal 0 0 -1
    outer loop
      vertex -5.57866 2.20875 -4
      vertex -2.78933 1.10437 -4
      vertex -2.97634 0.375999 -4
    endloop
  endfacet
  facet normal -0 0 -1
    outer loop
      vertex -2.78933 -1.10437 -4
      vertex -5.57866 -2.20875 -4
      vertex -2.97634 -0.375999 -4
    endloop
  endfacet
  facet normal 0 0 -1
    outer loop
      vertex -1.91227 2.31154 -4
      vertex -3.82454 4.62308 -4
      vertex -2.55468 5.42896 -4
    endloop
  endfacet
  facet normal 0 0 -1
    outer loop
      vertex -5.95269 -0.751999 -4
      vertex -2.97634 -0.375999 -4
      vertex -5.57866 -2.20875 -4
    endloop
  endfacet
  facet normal 0 0 -1
    outer loop
      vertex -2.42705 1.76336 -4
      vertex -4.8541 3.52671 -4
      vertex -3.82454 4.62308 -4
    endloop
  endfacet
  facet normal -0 0 -1
    outer loop
      vertex -2.97634 -0.375999 -4
      vertex -5.95269 -0.751999 -4
      vertex -2.97634 0.375999 -4
    endloop
  endfacet
  facet normal 0 0 -1
    outer loop
      vertex -2.78933 1.10437 -4
      vertex -5.57866 2.20875 -4
      vertex -4.8541 3.52671 -4
    endloop
  endfacet
  facet normal 0 0 -1
    outer loop
      vertex -5.95269 0.751999 -4
      vertex -2.97634 0.375999 -4
      vertex -5.95269 -0.751999 -4
    endloop
  endfacet
  facet normal 0 0 -1
    outer loop
      vertex -2.97634 0.375999 -4
      vertex -5.95269 0.751999 -4
      vertex -5.57866 2.20875 -4
    endloop
  endfacet
  facet normal 0.809017 0.587785 0
    outer loop
      vertex 5.25784 2.89052 6
      vertex 4.37381 4.10728 2
      vertex 4.37381 4.10728 6
    endloop
  endfacet
  facet normal 0.809017 0.587785 0
    outer loop
      vertex 4.37381 4.10728 2
      vertex 5.25784 2.89052 6
      vertex 5.25784 2.89052 2
    endloop
  endfacet
  facet normal 0.809017 0.587785 0
    outer loop
      vertex 5.25784 2.89052 0
      vertex 4.37381 4.10728 -4
      vertex 4.37381 4.10728 0
    endloop
  endfacet
  facet normal 0.809017 0.587785 0
    outer loop
      vertex 4.37381 4.10728 -4
      vertex 5.25784 2.89052 0
      vertex 5.25784 2.89052 -4
    endloop
  endfacet
  facet normal 0.929776 0.368125 0
    outer loop
      vertex 5.8115 1.49214 0
      vertex 5.25784 2.89052 -4
      vertex 5.25784 2.89052 0
    endloop
  endfacet
  facet normal 0.929776 0.368125 0
    outer loop
      vertex 5.25784 2.89052 -4
      vertex 5.8115 1.49214 0
      vertex 5.8115 1.49214 -4
    endloop
  endfacet
  facet normal 0.929776 0.368125 0
    outer loop
      vertex 5.8115 1.49214 6
      vertex 5.25784 2.89052 2
      vertex 5.25784 2.89052 6
    endloop
  endfacet
  facet normal 0.929776 0.368125 0
    outer loop
      vertex 5.25784 2.89052 2
      vertex 5.8115 1.49214 6
      vertex 5.8115 1.49214 2
    endloop
  endfacet
  facet normal 0.187381 0.982287 -0
    outer loop
      vertex 1.8541 5.70634 -4
      vertex 0.376742 5.98816 0
      vertex 1.8541 5.70634 0
    endloop
  endfacet
  facet normal 0.187381 0.982287 0
    outer loop
      vertex 0.376742 5.98816 0
      vertex 1.8541 5.70634 -4
      vertex 0.376742 5.98816 -4
    endloop
  endfacet
  facet normal 0.187381 0.982287 -0
    outer loop
      vertex 1.8541 5.70634 2
      vertex 0.376742 5.98816 6
      vertex 1.8541 5.70634 6
    endloop
  endfacet
  facet normal 0.187381 0.982287 0
    outer loop
      vertex 0.376742 5.98816 6
      vertex 1.8541 5.70634 2
      vertex 0.376742 5.98816 2
    endloop
  endfacet
  facet normal -0.968583 0.24869 0
    outer loop
      vertex -5.95269 0.751999 -4
      vertex -5.57866 2.20875 6
      vertex -5.57866 2.20875 -4
    endloop
  endfacet
  facet normal -0.968583 0.24869 0
    outer loop
      vertex -5.57866 2.20875 6
      vertex -5.95269 0.751999 -4
      vertex -5.95269 0.751999 6
    endloop
  endfacet
  facet normal 0 0 1
    outer loop
      vertex 3 0 6
      vertex 6 0 6
      vertex 5.8115 1.49214 6
    endloop
  endfacet
  facet normal 0 0 1
    outer loop
      vertex 2.90575 0.746069 6
      vertex 5.8115 1.49214 6
      vertex 5.25784 2.89052 6
    endloop
  endfacet
  facet normal 0 0 1
    outer loop
      vertex 6 0 6
      vertex 3 0 6
      vertex 5.8115 -1.49214 6
    endloop
  endfacet
  facet normal 0 0 1
    outer loop
      vertex 2.62892 1.44526 6
      vertex 5.25784 2.89052 6
      vertex 4.37381 4.10728 6
    endloop
  endfacet
  facet normal -0 0 1
    outer loop
      vertex 2.90575 -0.746069 6
      vertex 5.8115 -1.49214 6
      vertex 3 0 6
    endloop
  endfacet
  facet normal 0 0 1
    outer loop
      vertex 2.18691 2.05364 6
      vertex 4.37381 4.10728 6
      vertex 3.21496 5.06597 6
    endloop
  endfacet
  facet normal 0 0 1
    outer loop
      vertex 5.8115 -1.49214 6
      vertex 2.90575 -0.746069 6
      vertex 5.25784 -2.89052 6
    endloop
  endfacet
  facet normal -0 0 1
    outer loop
      vertex 2.62892 -1.44526 6
      vertex 5.25784 -2.89052 6
      vertex 2.90575 -0.746069 6
    endloop
  endfacet
  facet normal 0 0 1
    outer loop
      vertex 5.8115 1.49214 6
      vertex 2.90575 0.746069 6
      vertex 3 0 6
    endloop
  endfacet
  facet normal 0 0 1
    outer loop
      vertex 5.25784 2.89052 6
      vertex 2.62892 1.44526 6
      vertex 2.90575 0.746069 6
    endloop
  endfacet
  facet normal 0 0 1
    outer loop
      vertex 4.37381 4.10728 6
      vertex 2.18691 2.05364 6
      vertex 2.62892 1.44526 6
    endloop
  endfacet
  facet normal 0 0 1
    outer loop
      vertex 1.60748 2.53298 6
      vertex 3.21496 5.06597 6
      vertex 1.8541 5.70634 6
    endloop
  endfacet
  facet normal 0 0 1
    outer loop
      vertex 3.21496 5.06597 6
      vertex 1.60748 2.53298 6
      vertex 2.18691 2.05364 6
    endloop
  endfacet
  facet normal 0 0 1
    outer loop
      vertex 1.8541 5.70634 6
      vertex 0.927051 2.85317 6
      vertex 1.60748 2.53298 6
    endloop
  endfacet
  facet normal 0 0 1
    outer loop
      vertex 0.376742 5.98816 6
      vertex 0.927051 2.85317 6
      vertex 1.8541 5.70634 6
    endloop
  endfacet
  facet normal 0 0 1
    outer loop
      vertex 0.376742 5.98816 6
      vertex 0.188371 2.99408 6
      vertex 0.927051 2.85317 6
    endloop
  endfacet
  facet normal 0 0 1
    outer loop
      vertex 0.376742 5.98816 6
      vertex -0.562143 2.94686 6
      vertex 0.188371 2.99408 6
    endloop
  endfacet
  facet normal -0 0 1
    outer loop
      vertex -1.12429 5.89372 6
      vertex -0.562143 2.94686 6
      vertex 0.376742 5.98816 6
    endloop
  endfacet
  facet normal 0 0 1
    outer loop
      vertex -1.12429 5.89372 6
      vertex -1.27734 2.71448 6
      vertex -0.562143 2.94686 6
    endloop
  endfacet
  facet normal -0 0 1
    outer loop
      vertex -2.55468 5.42896 6
      vertex -1.27734 2.71448 6
      vertex -1.12429 5.89372 6
    endloop
  endfacet
  facet normal 0 0 1
    outer loop
      vertex -1.27734 2.71448 6
      vertex -2.55468 5.42896 6
      vertex -1.91227 2.31154 6
    endloop
  endfacet
  facet normal -0 0 1
    outer loop
      vertex -3.82454 4.62308 6
      vertex -1.91227 2.31154 6
      vertex -2.55468 5.42896 6
    endloop
  endfacet
  facet normal 0 0 1
    outer loop
      vertex -1.91227 2.31154 6
      vertex -3.82454 4.62308 6
      vertex -2.42705 1.76336 6
    endloop
  endfacet
  facet normal -0 0 1
    outer loop
      vertex -4.8541 3.52671 6
      vertex -2.42705 1.76336 6
      vertex -3.82454 4.62308 6
    endloop
  endfacet
  facet normal -0 0 1
    outer loop
      vertex -5.57866 2.20875 6
      vertex -2.78933 1.10437 6
      vertex -4.8541 3.52671 6
    endloop
  endfacet
  facet normal 0 0 1
    outer loop
      vertex -2.42705 1.76336 6
      vertex -4.8541 3.52671 6
      vertex -2.78933 1.10437 6
    endloop
  endfacet
  facet normal 0 0 1
    outer loop
      vertex 5.25784 -2.89052 6
      vertex 2.62892 -1.44526 6
      vertex 4.37381 -4.10728 6
    endloop
  endfacet
  facet normal -0 0 1
    outer loop
      vertex 2.18691 -2.05364 6
      vertex 4.37381 -4.10728 6
      vertex 2.62892 -1.44526 6
    endloop
  endfacet
  facet normal 0 0 1
    outer loop
      vertex 4.37381 -4.10728 6
      vertex 2.18691 -2.05364 6
      vertex 3.21496 -5.06597 6
    endloop
  endfacet
  facet normal -0 0 1
    outer loop
      vertex 1.60748 -2.53298 6
      vertex 3.21496 -5.06597 6
      vertex 2.18691 -2.05364 6
    endloop
  endfacet
  facet normal 0 0 1
    outer loop
      vertex 3.21496 -5.06597 6
      vertex 1.60748 -2.53298 6
      vertex 1.8541 -5.70634 6
    endloop
  endfacet
  facet normal -0 0 1
    outer loop
      vertex 0.927051 -2.85317 6
      vertex 1.8541 -5.70634 6
      vertex 1.60748 -2.53298 6
    endloop
  endfacet
  facet normal 0 0 1
    outer loop
      vertex 0.927051 -2.85317 6
      vertex 0.376742 -5.98816 6
      vertex 1.8541 -5.70634 6
    endloop
  endfacet
  facet normal -0 0 1
    outer loop
      vertex 0.188371 -2.99408 6
      vertex 0.376742 -5.98816 6
      vertex 0.927051 -2.85317 6
    endloop
  endfacet
  facet normal 0 0 1
    outer loop
      vertex -0.562143 -2.94686 6
      vertex 0.376742 -5.98816 6
      vertex 0.188371 -2.99408 6
    endloop
  endfacet
  facet normal 0 0 1
    outer loop
      vertex -0.562143 -2.94686 6
      vertex -1.12429 -5.89372 6
      vertex 0.376742 -5.98816 6
    endloop
  endfacet
  facet normal 0 0 1
    outer loop
      vertex -1.27734 -2.71448 6
      vertex -1.12429 -5.89372 6
      vertex -0.562143 -2.94686 6
    endloop
  endfacet
  facet normal 0 0 1
    outer loop
      vertex -2.55468 -5.42896 6
      vertex -1.27734 -2.71448 6
      vertex -1.91227 -2.31154 6
    endloop
  endfacet
  facet normal 0 0 1
    outer loop
      vertex -3.82454 -4.62308 6
      vertex -1.91227 -2.31154 6
      vertex -2.42705 -1.76336 6
    endloop
  endfacet
  facet normal 0 0 1
    outer loop
      vertex -1.27734 -2.71448 6
      vertex -2.55468 -5.42896 6
      vertex -1.12429 -5.89372 6
    endloop
  endfacet
  facet normal 0 0 1
    outer loop
      vertex -4.8541 -3.52671 6
      vertex -2.42705 -1.76336 6
      vertex -2.78933 -1.10437 6
    endloop
  endfacet
  facet normal 0 0 1
    outer loop
      vertex -5.57866 -2.20875 6
      vertex -2.78933 -1.10437 6
      vertex -2.97634 -0.375999 6
    endloop
  endfacet
  facet normal 0 0 1
    outer loop
      vertex -2.78933 1.10437 6
      vertex -5.57866 2.20875 6
      vertex -2.97634 0.375999 6
    endloop
  endfacet
  facet normal 0 0 1
    outer loop
      vertex -1.91227 -2.31154 6
      vertex -3.82454 -4.62308 6
      vertex -2.55468 -5.42896 6
    endloop
  endfacet
  facet normal -0 0 1
    outer loop
      vertex -5.95269 0.751999 6
      vertex -2.97634 0.375999 6
      vertex -5.57866 2.20875 6
    endloop
  endfacet
  facet normal 0 0 1
    outer loop
      vertex -2.42705 -1.76336 6
      vertex -4.8541 -3.52671 6
      vertex -3.82454 -4.62308 6
    endloop
  endfacet
  facet normal 0 0 1
    outer loop
      vertex -2.97634 0.375999 6
      vertex -5.95269 0.751999 6
      vertex -2.97634 -0.375999 6
    endloop
  endfacet
  facet normal 0 0 1
    outer loop
      vertex -2.78933 -1.10437 6
      vertex -5.57866 -2.20875 6
      vertex -4.8541 -3.52671 6
    endloop
  endfacet
  facet normal 0 0 1
    outer loop
      vertex -5.95269 -0.751999 6
      vertex -2.97634 -0.375999 6
      vertex -5.95269 0.751999 6
    endloop
  endfacet
  facet normal 0 0 1
    outer loop
      vertex -2.97634 -0.375999 6
      vertex -5.95269 -0.751999 6
      vertex -5.57866 -2.20875 6
    endloop
  endfacet
  facet normal -0.309017 0.951056 0
    outer loop
      vertex -1.12429 5.89372 -4
      vertex -2.55468 5.42896 6
      vertex -1.12429 5.89372 6
    endloop
  endfacet
  facet normal -0.309017 0.951056 0
    outer loop
      vertex -2.55468 5.42896 6
      vertex -1.12429 5.89372 -4
      vertex -2.55468 5.42896 -4
    endloop
  endfacet
  facet normal 0.992115 -0.125333 0
    outer loop
      vertex 5.8115 -1.49214 0
      vertex 6 0 -4
      vertex 6 0 0
    endloop
  endfacet
  facet normal 0.992115 -0.125333 0
    outer loop
      vertex 6 0 -4
      vertex 5.8115 -1.49214 0
      vertex 5.8115 -1.49214 -4
    endloop
  endfacet
  facet normal 0.992115 -0.125333 0
    outer loop
      vertex 5.8115 -1.49214 6
      vertex 6 0 2
      vertex 6 0 6
    endloop
  endfacet
  facet normal 0.992115 -0.125333 0
    outer loop
      vertex 6 0 2
      vertex 5.8115 -1.49214 6
      vertex 5.8115 -1.49214 2
    endloop
  endfacet
  facet normal 0.187381 -0.982287 0
    outer loop
      vertex 0.376742 -5.98816 -4
      vertex 1.8541 -5.70634 0
      vertex 0.376742 -5.98816 0
    endloop
  endfacet
  facet normal 0.187381 -0.982287 0
    outer loop
      vertex 1.8541 -5.70634 0
      vertex 0.376742 -5.98816 -4
      vertex 1.8541 -5.70634 -4
    endloop
  endfacet
  facet normal 0.187381 -0.982287 0
    outer loop
      vertex 0.376742 -5.98816 2
      vertex 1.8541 -5.70634 6
      vertex 0.376742 -5.98816 6
    endloop
  endfacet
  facet normal 0.187381 -0.982287 0
    outer loop
      vertex 1.8541 -5.70634 6
      vertex 0.376742 -5.98816 2
      vertex 1.8541 -5.70634 2
    endloop
  endfacet
  facet normal -0.535827 -0.844328 0
    outer loop
      vertex -3.82454 -4.62308 -4
      vertex -2.55468 -5.42896 6
      vertex -3.82454 -4.62308 6
    endloop
  endfacet
  facet normal -0.535827 -0.844328 -0
    outer loop
      vertex -2.55468 -5.42896 6
      vertex -3.82454 -4.62308 -4
      vertex -2.55468 -5.42896 -4
    endloop
  endfacet
  facet normal -0.0627904 -0.998027 -9.99962e-09
    outer loop
      vertex -1.12429 -5.89372 6
      vertex 0 -5.96446 2
      vertex 0.376742 -5.98816 6
    endloop
  endfacet
  facet normal -0.0627904 -0.998027 0
    outer loop
      vertex -1.12429 -5.89372 6
      vertex 0 -5.96446 0
      vertex 0 -5.96446 2
    endloop
  endfacet
  facet normal -0.0627904 -0.998027 0
    outer loop
      vertex -1.12429 -5.89372 -4
      vertex 0 -5.96446 0
      vertex -1.12429 -5.89372 6
    endloop
  endfacet
  facet normal -0.0627904 -0.998027 9.99962e-09
    outer loop
      vertex 0.376742 -5.98816 -4
      vertex 0 -5.96446 0
      vertex -1.12429 -5.89372 -4
    endloop
  endfacet
  facet normal -0.0627905 -0.998027 0
    outer loop
      vertex 0 -5.96446 0
      vertex 0.376742 -5.98816 -4
      vertex 0.376742 -5.98816 0
    endloop
  endfacet
  facet normal -0.0627905 -0.998027 -0
    outer loop
      vertex 0.376742 -5.98816 6
      vertex 0 -5.96446 2
      vertex 0.376742 -5.98816 2
    endloop
  endfacet
  facet normal -0.728969 -0.684547 0
    outer loop
      vertex -3.82454 -4.62308 -4
      vertex -4.8541 -3.52671 6
      vertex -4.8541 -3.52671 -4
    endloop
  endfacet
  facet normal -0.728969 -0.684547 0
    outer loop
      vertex -4.8541 -3.52671 6
      vertex -3.82454 -4.62308 -4
      vertex -3.82454 -4.62308 6
    endloop
  endfacet
  facet normal -0.968583 -0.24869 0
    outer loop
      vertex -5.57866 -2.20875 -4
      vertex -5.95269 -0.751999 6
      vertex -5.95269 -0.751999 -4
    endloop
  endfacet
  facet normal -0.968583 -0.24869 0
    outer loop
      vertex -5.95269 -0.751999 6
      vertex -5.57866 -2.20875 -4
      vertex -5.57866 -2.20875 6
    endloop
  endfacet
  facet normal 0.809017 -0.587785 0
    outer loop
      vertex 4.37381 -4.10728 0
      vertex 5.25784 -2.89052 -4
      vertex 5.25784 -2.89052 0
    endloop
  endfacet
  facet normal 0.809017 -0.587785 0
    outer loop
      vertex 5.25784 -2.89052 -4
      vertex 4.37381 -4.10728 0
      vertex 4.37381 -4.10728 -4
    endloop
  endfacet
  facet normal 0.809017 -0.587785 0
    outer loop
      vertex 4.37381 -4.10728 6
      vertex 5.25784 -2.89052 2
      vertex 5.25784 -2.89052 6
    endloop
  endfacet
  facet normal 0.809017 -0.587785 0
    outer loop
      vertex 5.25784 -2.89052 2
      vertex 4.37381 -4.10728 6
      vertex 4.37381 -4.10728 2
    endloop
  endfacet
  facet normal 0.42578 -0.904827 0
    outer loop
      vertex 1.8541 -5.70634 -4
      vertex 3.21496 -5.06597 0
      vertex 1.8541 -5.70634 0
    endloop
  endfacet
  facet normal 0.42578 -0.904827 0
    outer loop
      vertex 3.21496 -5.06597 0
      vertex 1.8541 -5.70634 -4
      vertex 3.21496 -5.06597 -4
    endloop
  endfacet
  facet normal 0.42578 -0.904827 0
    outer loop
      vertex 1.8541 -5.70634 2
      vertex 3.21496 -5.06597 6
      vertex 1.8541 -5.70634 6
    endloop
  endfacet
  facet normal 0.42578 -0.904827 0
    outer loop
      vertex 3.21496 -5.06597 6
      vertex 1.8541 -5.70634 2
      vertex 3.21496 -5.06597 2
    endloop
  endfacet
  facet normal -0.309017 -0.951056 0
    outer loop
      vertex -2.55468 -5.42896 -4
      vertex -1.12429 -5.89372 6
      vertex -2.55468 -5.42896 6
    endloop
  endfacet
  facet normal -0.309017 -0.951056 -0
    outer loop
      vertex -1.12429 -5.89372 6
      vertex -2.55468 -5.42896 -4
      vertex -1.12429 -5.89372 -4
    endloop
  endfacet
  facet normal -0.876307 -0.481754 0
    outer loop
      vertex -4.8541 -3.52671 -4
      vertex -5.57866 -2.20875 6
      vertex -5.57866 -2.20875 -4
    endloop
  endfacet
  facet normal -0.876307 -0.481754 0
    outer loop
      vertex -5.57866 -2.20875 6
      vertex -4.8541 -3.52671 -4
      vertex -4.8541 -3.52671 6
    endloop
  endfacet
  facet normal 0.929776 -0.368125 0
    outer loop
      vertex 5.25784 -2.89052 0
      vertex 5.8115 -1.49214 -4
      vertex 5.8115 -1.49214 0
    endloop
  endfacet
  facet normal 0.929776 -0.368125 0
    outer loop
      vertex 5.8115 -1.49214 -4
      vertex 5.25784 -2.89052 0
      vertex 5.25784 -2.89052 -4
    endloop
  endfacet
  facet normal 0.929776 -0.368125 0
    outer loop
      vertex 5.25784 -2.89052 6
      vertex 5.8115 -1.49214 2
      vertex 5.8115 -1.49214 6
    endloop
  endfacet
  facet normal 0.929776 -0.368125 0
    outer loop
      vertex 5.8115 -1.49214 2
      vertex 5.25784 -2.89052 6
      vertex 5.25784 -2.89052 2
    endloop
  endfacet
  facet normal 0.637424 -0.770513 0
    outer loop
      vertex 3.21496 -5.06597 -4
      vertex 4.37381 -4.10728 0
      vertex 3.21496 -5.06597 0
    endloop
  endfacet
  facet normal 0.637424 -0.770513 0
    outer loop
      vertex 4.37381 -4.10728 0
      vertex 3.21496 -5.06597 -4
      vertex 4.37381 -4.10728 -4
    endloop
  endfacet
  facet normal 0.637424 -0.770513 0
    outer loop
      vertex 3.21496 -5.06597 2
      vertex 4.37381 -4.10728 6
      vertex 3.21496 -5.06597 6
    endloop
  endfacet
  facet normal 0.637424 -0.770513 0
    outer loop
      vertex 4.37381 -4.10728 6
      vertex 3.21496 -5.06597 2
      vertex 4.37381 -4.10728 2
    endloop
  endfacet
  facet normal 0.992115 0.125332 0
    outer loop
      vertex 51 0 2
      vertex 50.8115 1.49214 0
      vertex 50.8115 1.49214 2
    endloop
  endfacet
  facet normal 0.992115 0.125332 0
    outer loop
      vertex 50.8115 1.49214 0
      vertex 51 0 2
      vertex 51 0 0
    endloop
  endfacet
  facet normal -0.0627904 0.998027 0
    outer loop
      vertex 45.3767 5.98816 0
      vertex 45 5.96446 2
      vertex 45.3767 5.98816 2
    endloop
  endfacet
  facet normal -0.0627904 0.998027 0
    outer loop
      vertex 45 5.96446 2
      vertex 45.3767 5.98816 0
      vertex 45 5.96446 0
    endloop
  endfacet
  facet normal -0.0627904 -0.998027 0
    outer loop
      vertex 45 -5.96446 0
      vertex 45.3767 -5.98816 2
      vertex 45 -5.96446 2
    endloop
  endfacet
  facet normal -0.0627904 -0.998027 -0
    outer loop
      vertex 45.3767 -5.98816 2
      vertex 45 -5.96446 0
      vertex 45.3767 -5.98816 0
    endloop
  endfacet
  facet normal 0.187381 -0.982287 0
    outer loop
      vertex 45.3767 -5.98816 0
      vertex 46.8541 -5.70634 2
      vertex 45.3767 -5.98816 2
    endloop
  endfacet
  facet normal 0.187381 -0.982287 0
    outer loop
      vertex 46.8541 -5.70634 2
      vertex 45.3767 -5.98816 0
      vertex 46.8541 -5.70634 0
    endloop
  endfacet
  facet normal 0.637424 0.770513 -0
    outer loop
      vertex 49.3738 4.10728 0
      vertex 48.215 5.06597 2
      vertex 49.3738 4.10728 2
    endloop
  endfacet
  facet normal 0.637424 0.770513 0
    outer loop
      vertex 48.215 5.06597 2
      vertex 49.3738 4.10728 0
      vertex 48.215 5.06597 0
    endloop
  endfacet
  facet normal 0.425781 0.904826 -0
    outer loop
      vertex 48.215 5.06597 0
      vertex 46.8541 5.70634 2
      vertex 48.215 5.06597 2
    endloop
  endfacet
  facet normal 0.425781 0.904826 0
    outer loop
      vertex 46.8541 5.70634 2
      vertex 48.215 5.06597 0
      vertex 46.8541 5.70634 0
    endloop
  endfacet
  facet normal 0.929776 -0.368126 0
    outer loop
      vertex 50.2578 -2.89052 2
      vertex 50.8115 -1.49214 0
      vertex 50.8115 -1.49214 2
    endloop
  endfacet
  facet normal 0.929776 -0.368126 0
    outer loop
      vertex 50.8115 -1.49214 0
      vertex 50.2578 -2.89052 2
      vertex 50.2578 -2.89052 0
    endloop
  endfacet
  facet normal 0 0 -1
    outer loop
      vertex 43.0877 -2.31154 0
      vertex 45 -5.96446 0
      vertex 45 -6 0
    endloop
  endfacet
  facet normal 0 0 -1
    outer loop
      vertex 45 -5.96446 0
      vertex 43.7227 -2.71448 0
      vertex 44.4379 -2.94686 0
    endloop
  endfacet
  facet normal 0 0 -1
    outer loop
      vertex 45 -5.96446 0
      vertex 43.0877 -2.31154 0
      vertex 43.7227 -2.71448 0
    endloop
  endfacet
  facet normal 0 0 -1
    outer loop
      vertex 45 -6 0
      vertex 42.5729 -1.76336 0
      vertex 43.0877 -2.31154 0
    endloop
  endfacet
  facet normal 0 0 -1
    outer loop
      vertex 42.0237 -0.375999 0
      vertex 6 0 0
      vertex 42.0237 0.375999 0
    endloop
  endfacet
  facet normal 0 0 -1
    outer loop
      vertex 5.8115 -1.49214 0
      vertex 42.0237 -0.375999 0
      vertex 42.2107 -1.10437 0
    endloop
  endfacet
  facet normal 0 0 -1
    outer loop
      vertex 5.25784 -2.89052 0
      vertex 42.2107 -1.10437 0
      vertex 42.5729 -1.76336 0
    endloop
  endfacet
  facet normal 0 0 -1
    outer loop
      vertex 5.25784 -2.89052 0
      vertex 42.5729 -1.76336 0
      vertex 45 -6 0
    endloop
  endfacet
  facet normal -0 0 -1
    outer loop
      vertex 42.0237 -0.375999 0
      vertex 5.8115 -1.49214 0
      vertex 6 0 0
    endloop
  endfacet
  facet normal 0 0 -1
    outer loop
      vertex 42.2107 -1.10437 0
      vertex 5.25784 -2.89052 0
      vertex 5.8115 -1.49214 0
    endloop
  endfacet
  facet normal 0 0 -1
    outer loop
      vertex 45 -6 0
      vertex 4.37381 -4.10728 0
      vertex 5.25784 -2.89052 0
    endloop
  endfacet
  facet normal 0 0 -1
    outer loop
      vertex 45 -6 0
      vertex 3.21496 -5.06597 0
      vertex 4.37381 -4.10728 0
    endloop
  endfacet
  facet normal 0 0 -1
    outer loop
      vertex 45 -6 0
      vertex 1.8541 -5.70634 0
      vertex 3.21496 -5.06597 0
    endloop
  endfacet
  facet normal 0 0 -1
    outer loop
      vertex 45 -6 0
      vertex 0.376742 -5.98816 0
      vertex 1.8541 -5.70634 0
    endloop
  endfacet
  facet normal 0 0 -1
    outer loop
      vertex 0 -6 0
      vertex 0.376742 -5.98816 0
      vertex 45 -6 0
    endloop
  endfacet
  facet normal -0 0 -1
    outer loop
      vertex 0.376742 -5.98816 0
      vertex 0 -6 0
      vertex 0 -5.96446 0
    endloop
  endfacet
  facet normal 0 0 -1
    outer loop
      vertex 48 0 0
      vertex 51 0 0
      vertex 50.8115 -1.49214 0
    endloop
  endfacet
  facet normal 0 0 -1
    outer loop
      vertex 47.9058 -0.746069 0
      vertex 50.8115 -1.49214 0
      vertex 50.2578 -2.89052 0
    endloop
  endfacet
  facet normal 0 0 -1
    outer loop
      vertex 51 0 0
      vertex 48 0 0
      vertex 50.8115 1.49214 0
    endloop
  endfacet
  facet normal 0 0 -1
    outer loop
      vertex 47.6289 -1.44526 0
      vertex 50.2578 -2.89052 0
      vertex 49.3738 -4.10728 0
    endloop
  endfacet
  facet normal 0 0 -1
    outer loop
      vertex 47.9058 0.746069 0
      vertex 50.8115 1.49214 0
      vertex 48 0 0
    endloop
  endfacet
  facet normal 0 0 -1
    outer loop
      vertex 47.1869 -2.05364 0
      vertex 49.3738 -4.10728 0
      vertex 48.215 -5.06597 0
    endloop
  endfacet
  facet normal -0 0 -1
    outer loop
      vertex 50.8115 1.49214 0
      vertex 47.9058 0.746069 0
      vertex 50.2578 2.89052 0
    endloop
  endfacet
  facet normal 0 0 -1
    outer loop
      vertex 47.6289 1.44526 0
      vertex 50.2578 2.89052 0
      vertex 47.9058 0.746069 0
    endloop
  endfacet
  facet normal 0 0 -1
    outer loop
      vertex 50.8115 -1.49214 0
      vertex 47.9058 -0.746069 0
      vertex 48 0 0
    endloop
  endfacet
  facet normal 0 0 -1
    outer loop
      vertex 50.2578 -2.89052 0
      vertex 47.6289 -1.44526 0
      vertex 47.9058 -0.746069 0
    endloop
  endfacet
  facet normal 0 0 -1
    outer loop
      vertex 49.3738 -4.10728 0
      vertex 47.1869 -2.05364 0
      vertex 47.6289 -1.44526 0
    endloop
  endfacet
  facet normal 0 0 -1
    outer loop
      vertex 46.6075 -2.53298 0
      vertex 48.215 -5.06597 0
      vertex 46.8541 -5.70634 0
    endloop
  endfacet
  facet normal 0 0 -1
    outer loop
      vertex 48.215 -5.06597 0
      vertex 46.6075 -2.53298 0
      vertex 47.1869 -2.05364 0
    endloop
  endfacet
  facet normal 0 0 -1
    outer loop
      vertex 46.8541 -5.70634 0
      vertex 45.9271 -2.85317 0
      vertex 46.6075 -2.53298 0
    endloop
  endfacet
  facet normal 0 0 -1
    outer loop
      vertex 45.3767 -5.98816 0
      vertex 45.9271 -2.85317 0
      vertex 46.8541 -5.70634 0
    endloop
  endfacet
  facet normal 0 0 -1
    outer loop
      vertex 45.3767 -5.98816 0
      vertex 45.1884 -2.99408 0
      vertex 45.9271 -2.85317 0
    endloop
  endfacet
  facet normal 0 0 -1
    outer loop
      vertex 45 -5.96446 0
      vertex 45.1884 -2.99408 0
      vertex 45.3767 -5.98816 0
    endloop
  endfacet
  facet normal -0 0 -1
    outer loop
      vertex 45.1884 -2.99408 0
      vertex 45 -5.96446 0
      vertex 44.4379 -2.94686 0
    endloop
  endfacet
  facet normal -0 0 -1
    outer loop
      vertex 50.2578 2.89052 0
      vertex 47.6289 1.44526 0
      vertex 49.3738 4.10728 0
    endloop
  endfacet
  facet normal 0 0 -1
    outer loop
      vertex 47.1869 2.05364 0
      vertex 49.3738 4.10728 0
      vertex 47.6289 1.44526 0
    endloop
  endfacet
  facet normal -0 0 -1
    outer loop
      vertex 49.3738 4.10728 0
      vertex 47.1869 2.05364 0
      vertex 48.215 5.06597 0
    endloop
  endfacet
  facet normal 0 0 -1
    outer loop
      vertex 46.6075 2.53298 0
      vertex 48.215 5.06597 0
      vertex 47.1869 2.05364 0
    endloop
  endfacet
  facet normal -0 0 -1
    outer loop
      vertex 48.215 5.06597 0
      vertex 46.6075 2.53298 0
      vertex 46.8541 5.70634 0
    endloop
  endfacet
  facet normal 0 0 -1
    outer loop
      vertex 45.9271 2.85317 0
      vertex 46.8541 5.70634 0
      vertex 46.6075 2.53298 0
    endloop
  endfacet
  facet normal 0 0 -1
    outer loop
      vertex 45.9271 2.85317 0
      vertex 45.3767 5.98816 0
      vertex 46.8541 5.70634 0
    endloop
  endfacet
  facet normal 0 0 -1
    outer loop
      vertex 45.1884 2.99408 0
      vertex 45.3767 5.98816 0
      vertex 45.9271 2.85317 0
    endloop
  endfacet
  facet normal 0 0 -1
    outer loop
      vertex 45.1884 2.99408 0
      vertex 45 5.96446 0
      vertex 45.3767 5.98816 0
    endloop
  endfacet
  facet normal 0 0 -1
    outer loop
      vertex 44.4379 2.94686 0
      vertex 45 5.96446 0
      vertex 45.1884 2.99408 0
    endloop
  endfacet
  facet normal 0 0 -1
    outer loop
      vertex 43.7227 2.71448 0
      vertex 45 5.96446 0
      vertex 44.4379 2.94686 0
    endloop
  endfacet
  facet normal 0 0 -1
    outer loop
      vertex 43.0877 2.31154 0
      vertex 45 5.96446 0
      vertex 43.7227 2.71448 0
    endloop
  endfacet
  facet normal -0 0 -1
    outer loop
      vertex 45 5.96446 0
      vertex 43.0877 2.31154 0
      vertex 45 6 0
    endloop
  endfacet
  facet normal 0 0 -1
    outer loop
      vertex 42.5729 1.76336 0
      vertex 45 6 0
      vertex 43.0877 2.31154 0
    endloop
  endfacet
  facet normal 0 0 -1
    outer loop
      vertex 5.8115 1.49214 0
      vertex 42.0237 0.375999 0
      vertex 6 0 0
    endloop
  endfacet
  facet normal 0 0 -1
    outer loop
      vertex 42.0237 0.375999 0
      vertex 5.8115 1.49214 0
      vertex 42.2107 1.10437 0
    endloop
  endfacet
  facet normal 0 0 -1
    outer loop
      vertex 5.25784 2.89052 0
      vertex 42.2107 1.10437 0
      vertex 5.8115 1.49214 0
    endloop
  endfacet
  facet normal 0 0 -1
    outer loop
      vertex 42.2107 1.10437 0
      vertex 5.25784 2.89052 0
      vertex 42.5729 1.76336 0
    endloop
  endfacet
  facet normal 0 0 -1
    outer loop
      vertex 42.5729 1.76336 0
      vertex 5.25784 2.89052 0
      vertex 45 6 0
    endloop
  endfacet
  facet normal 0 0 -1
    outer loop
      vertex 4.37381 4.10728 0
      vertex 45 6 0
      vertex 5.25784 2.89052 0
    endloop
  endfacet
  facet normal 0 0 -1
    outer loop
      vertex 3.21496 5.06597 0
      vertex 45 6 0
      vertex 4.37381 4.10728 0
    endloop
  endfacet
  facet normal 0 0 -1
    outer loop
      vertex 1.8541 5.70634 0
      vertex 45 6 0
      vertex 3.21496 5.06597 0
    endloop
  endfacet
  facet normal 0 0 -1
    outer loop
      vertex 0.376742 5.98816 0
      vertex 45 6 0
      vertex 1.8541 5.70634 0
    endloop
  endfacet
  facet normal 0 0 -1
    outer loop
      vertex 0.376742 5.98816 0
      vertex 0 6 0
      vertex 45 6 0
    endloop
  endfacet
  facet normal 0 0 -1
    outer loop
      vertex 0 6 0
      vertex 0.376742 5.98816 0
      vertex 0 5.96446 0
    endloop
  endfacet
  facet normal 0.809016 0.587786 0
    outer loop
      vertex 50.2578 2.89052 2
      vertex 49.3738 4.10728 0
      vertex 49.3738 4.10728 2
    endloop
  endfacet
  facet normal 0.809016 0.587786 0
    outer loop
      vertex 49.3738 4.10728 0
      vertex 50.2578 2.89052 2
      vertex 50.2578 2.89052 0
    endloop
  endfacet
  facet normal 0.929776 0.368126 0
    outer loop
      vertex 50.8115 1.49214 2
      vertex 50.2578 2.89052 0
      vertex 50.2578 2.89052 2
    endloop
  endfacet
  facet normal 0.929776 0.368126 0
    outer loop
      vertex 50.2578 2.89052 0
      vertex 50.8115 1.49214 2
      vertex 50.8115 1.49214 0
    endloop
  endfacet
  facet normal 0.187381 0.982287 -0
    outer loop
      vertex 46.8541 5.70634 0
      vertex 45.3767 5.98816 2
      vertex 46.8541 5.70634 2
    endloop
  endfacet
  facet normal 0.187381 0.982287 0
    outer loop
      vertex 45.3767 5.98816 2
      vertex 46.8541 5.70634 0
      vertex 45.3767 5.98816 0
    endloop
  endfacet
  facet normal 0 0 1
    outer loop
      vertex 43.0877 2.31154 2
      vertex 45 5.96446 2
      vertex 45 6 2
    endloop
  endfacet
  facet normal 0 0 1
    outer loop
      vertex 45 5.96446 2
      vertex 43.7227 2.71448 2
      vertex 44.4379 2.94686 2
    endloop
  endfacet
  facet normal 0 0 1
    outer loop
      vertex 45 5.96446 2
      vertex 43.0877 2.31154 2
      vertex 43.7227 2.71448 2
    endloop
  endfacet
  facet normal 0 0 1
    outer loop
      vertex 45 6 2
      vertex 42.5729 1.76336 2
      vertex 43.0877 2.31154 2
    endloop
  endfacet
  facet normal 0 0 1
    outer loop
      vertex 42.0237 0.375999 2
      vertex 6 0 2
      vertex 42.0237 -0.375999 2
    endloop
  endfacet
  facet normal 0 0 1
    outer loop
      vertex 5.8115 1.49214 2
      vertex 42.0237 0.375999 2
      vertex 42.2107 1.10437 2
    endloop
  endfacet
  facet normal 0 0 1
    outer loop
      vertex 5.25784 2.89052 2
      vertex 42.2107 1.10437 2
      vertex 42.5729 1.76336 2
    endloop
  endfacet
  facet normal -0 0 1
    outer loop
      vertex 5.25784 2.89052 2
      vertex 42.5729 1.76336 2
      vertex 45 6 2
    endloop
  endfacet
  facet normal 0 0 1
    outer loop
      vertex 42.0237 0.375999 2
      vertex 5.8115 1.49214 2
      vertex 6 0 2
    endloop
  endfacet
  facet normal 0 0 1
    outer loop
      vertex 42.2107 1.10437 2
      vertex 5.25784 2.89052 2
      vertex 5.8115 1.49214 2
    endloop
  endfacet
  facet normal 0 0 1
    outer loop
      vertex 45 6 2
      vertex 4.37381 4.10728 2
      vertex 5.25784 2.89052 2
    endloop
  endfacet
  facet normal 0 0 1
    outer loop
      vertex 45 6 2
      vertex 3.21496 5.06597 2
      vertex 4.37381 4.10728 2
    endloop
  endfacet
  facet normal 0 0 1
    outer loop
      vertex 45 6 2
      vertex 1.8541 5.70634 2
      vertex 3.21496 5.06597 2
    endloop
  endfacet
  facet normal 0 0 1
    outer loop
      vertex 45 6 2
      vertex 0.376742 5.98816 2
      vertex 1.8541 5.70634 2
    endloop
  endfacet
  facet normal -0 0 1
    outer loop
      vertex 0 6 2
      vertex 0.376742 5.98816 2
      vertex 45 6 2
    endloop
  endfacet
  facet normal 0 0 1
    outer loop
      vertex 0.376742 5.98816 2
      vertex 0 6 2
      vertex 0 5.96446 2
    endloop
  endfacet
  facet normal 0 0 1
    outer loop
      vertex 48 0 2
      vertex 51 0 2
      vertex 50.8115 1.49214 2
    endloop
  endfacet
  facet normal 0 0 1
    outer loop
      vertex 47.9058 0.746069 2
      vertex 50.8115 1.49214 2
      vertex 50.2578 2.89052 2
    endloop
  endfacet
  facet normal 0 0 1
    outer loop
      vertex 51 0 2
      vertex 48 0 2
      vertex 50.8115 -1.49214 2
    endloop
  endfacet
  facet normal 0 0 1
    outer loop
      vertex 47.6289 1.44526 2
      vertex 50.2578 2.89052 2
      vertex 49.3738 4.10728 2
    endloop
  endfacet
  facet normal -0 0 1
    outer loop
      vertex 47.9058 -0.746069 2
      vertex 50.8115 -1.49214 2
      vertex 48 0 2
    endloop
  endfacet
  facet normal 0 0 1
    outer loop
      vertex 47.1869 2.05364 2
      vertex 49.3738 4.10728 2
      vertex 48.215 5.06597 2
    endloop
  endfacet
  facet normal 0 0 1
    outer loop
      vertex 50.8115 -1.49214 2
      vertex 47.9058 -0.746069 2
      vertex 50.2578 -2.89052 2
    endloop
  endfacet
  facet normal -0 0 1
    outer loop
      vertex 47.6289 -1.44526 2
      vertex 50.2578 -2.89052 2
      vertex 47.9058 -0.746069 2
    endloop
  endfacet
  facet normal 0 0 1
    outer loop
      vertex 50.8115 1.49214 2
      vertex 47.9058 0.746069 2
      vertex 48 0 2
    endloop
  endfacet
  facet normal 0 0 1
    outer loop
      vertex 50.2578 2.89052 2
      vertex 47.6289 1.44526 2
      vertex 47.9058 0.746069 2
    endloop
  endfacet
  facet normal 0 0 1
    outer loop
      vertex 49.3738 4.10728 2
      vertex 47.1869 2.05364 2
      vertex 47.6289 1.44526 2
    endloop
  endfacet
  facet normal 0 0 1
    outer loop
      vertex 46.6075 2.53298 2
      vertex 48.215 5.06597 2
      vertex 46.8541 5.70634 2
    endloop
  endfacet
  facet normal 0 0 1
    outer loop
      vertex 48.215 5.06597 2
      vertex 46.6075 2.53298 2
      vertex 47.1869 2.05364 2
    endloop
  endfacet
  facet normal 0 0 1
    outer loop
      vertex 46.8541 5.70634 2
      vertex 45.9271 2.85317 2
      vertex 46.6075 2.53298 2
    endloop
  endfacet
  facet normal 0 0 1
    outer loop
      vertex 45.3767 5.98816 2
      vertex 45.9271 2.85317 2
      vertex 46.8541 5.70634 2
    endloop
  endfacet
  facet normal 0 0 1
    outer loop
      vertex 45.3767 5.98816 2
      vertex 45.1884 2.99408 2
      vertex 45.9271 2.85317 2
    endloop
  endfacet
  facet normal -0 0 1
    outer loop
      vertex 45 5.96446 2
      vertex 45.1884 2.99408 2
      vertex 45.3767 5.98816 2
    endloop
  endfacet
  facet normal 0 0 1
    outer loop
      vertex 45.1884 2.99408 2
      vertex 45 5.96446 2
      vertex 44.4379 2.94686 2
    endloop
  endfacet
  facet normal 0 0 1
    outer loop
      vertex 50.2578 -2.89052 2
      vertex 47.6289 -1.44526 2
      vertex 49.3738 -4.10728 2
    endloop
  endfacet
  facet normal -0 0 1
    outer loop
      vertex 47.1869 -2.05364 2
      vertex 49.3738 -4.10728 2
      vertex 47.6289 -1.44526 2
    endloop
  endfacet
  facet normal 0 0 1
    outer loop
      vertex 49.3738 -4.10728 2
      vertex 47.1869 -2.05364 2
      vertex 48.215 -5.06597 2
    endloop
  endfacet
  facet normal -0 0 1
    outer loop
      vertex 46.6075 -2.53298 2
      vertex 48.215 -5.06597 2
      vertex 47.1869 -2.05364 2
    endloop
  endfacet
  facet normal 0 0 1
    outer loop
      vertex 48.215 -5.06597 2
      vertex 46.6075 -2.53298 2
      vertex 46.8541 -5.70634 2
    endloop
  endfacet
  facet normal -0 0 1
    outer loop
      vertex 45.9271 -2.85317 2
      vertex 46.8541 -5.70634 2
      vertex 46.6075 -2.53298 2
    endloop
  endfacet
  facet normal 0 0 1
    outer loop
      vertex 45.9271 -2.85317 2
      vertex 45.3767 -5.98816 2
      vertex 46.8541 -5.70634 2
    endloop
  endfacet
  facet normal -0 0 1
    outer loop
      vertex 45.1884 -2.99408 2
      vertex 45.3767 -5.98816 2
      vertex 45.9271 -2.85317 2
    endloop
  endfacet
  facet normal 0 0 1
    outer loop
      vertex 45.1884 -2.99408 2
      vertex 45 -5.96446 2
      vertex 45.3767 -5.98816 2
    endloop
  endfacet
  facet normal 0 0 1
    outer loop
      vertex 44.4379 -2.94686 2
      vertex 45 -5.96446 2
      vertex 45.1884 -2.99408 2
    endloop
  endfacet
  facet normal 0 0 1
    outer loop
      vertex 43.7227 -2.71448 2
      vertex 45 -5.96446 2
      vertex 44.4379 -2.94686 2
    endloop
  endfacet
  facet normal 0 0 1
    outer loop
      vertex 43.0877 -2.31154 2
      vertex 45 -5.96446 2
      vertex 43.7227 -2.71448 2
    endloop
  endfacet
  facet normal 0 0 1
    outer loop
      vertex 45 -5.96446 2
      vertex 43.0877 -2.31154 2
      vertex 45 -6 2
    endloop
  endfacet
  facet normal 0 0 1
    outer loop
      vertex 42.5729 -1.76336 2
      vertex 45 -6 2
      vertex 43.0877 -2.31154 2
    endloop
  endfacet
  facet normal 0 0 1
    outer loop
      vertex 5.8115 -1.49214 2
      vertex 42.0237 -0.375999 2
      vertex 6 0 2
    endloop
  endfacet
  facet normal 0 0 1
    outer loop
      vertex 42.0237 -0.375999 2
      vertex 5.8115 -1.49214 2
      vertex 42.2107 -1.10437 2
    endloop
  endfacet
  facet normal 0 0 1
    outer loop
      vertex 5.25784 -2.89052 2
      vertex 42.2107 -1.10437 2
      vertex 5.8115 -1.49214 2
    endloop
  endfacet
  facet normal 0 0 1
    outer loop
      vertex 42.2107 -1.10437 2
      vertex 5.25784 -2.89052 2
      vertex 42.5729 -1.76336 2
    endloop
  endfacet
  facet normal 0 0 1
    outer loop
      vertex 42.5729 -1.76336 2
      vertex 5.25784 -2.89052 2
      vertex 45 -6 2
    endloop
  endfacet
  facet normal -0 0 1
    outer loop
      vertex 4.37381 -4.10728 2
      vertex 45 -6 2
      vertex 5.25784 -2.89052 2
    endloop
  endfacet
  facet normal -0 0 1
    outer loop
      vertex 3.21496 -5.06597 2
      vertex 45 -6 2
      vertex 4.37381 -4.10728 2
    endloop
  endfacet
  facet normal -0 0 1
    outer loop
      vertex 1.8541 -5.70634 2
      vertex 45 -6 2
      vertex 3.21496 -5.06597 2
    endloop
  endfacet
  facet normal -0 0 1
    outer loop
      vertex 0.376742 -5.98816 2
      vertex 45 -6 2
      vertex 1.8541 -5.70634 2
    endloop
  endfacet
  facet normal 0 0 1
    outer loop
      vertex 0.376742 -5.98816 2
      vertex 0 -6 2
      vertex 45 -6 2
    endloop
  endfacet
  facet normal 0 0 1
    outer loop
      vertex 0 -6 2
      vertex 0.376742 -5.98816 2
      vertex 0 -5.96446 2
    endloop
  endfacet
  facet normal 0.992115 -0.125332 0
    outer loop
      vertex 50.8115 -1.49214 2
      vertex 51 0 0
      vertex 51 0 2
    endloop
  endfacet
  facet normal 0.992115 -0.125332 0
    outer loop
      vertex 51 0 0
      vertex 50.8115 -1.49214 2
      vertex 50.8115 -1.49214 0
    endloop
  endfacet
  facet normal 0.809016 -0.587786 0
    outer loop
      vertex 49.3738 -4.10728 2
      vertex 50.2578 -2.89052 0
      vertex 50.2578 -2.89052 2
    endloop
  endfacet
  facet normal 0.809016 -0.587786 0
    outer loop
      vertex 50.2578 -2.89052 0
      vertex 49.3738 -4.10728 2
      vertex 49.3738 -4.10728 0
    endloop
  endfacet
  facet normal 0.425781 -0.904826 0
    outer loop
      vertex 46.8541 -5.70634 0
      vertex 48.215 -5.06597 2
      vertex 46.8541 -5.70634 2
    endloop
  endfacet
  facet normal 0.425781 -0.904826 0
    outer loop
      vertex 48.215 -5.06597 2
      vertex 46.8541 -5.70634 0
      vertex 48.215 -5.06597 0
    endloop
  endfacet
  facet normal 0.637424 -0.770513 0
    outer loop
      vertex 48.215 -5.06597 0
      vertex 49.3738 -4.10728 2
      vertex 48.215 -5.06597 2
    endloop
  endfacet
  facet normal 0.637424 -0.770513 0
    outer loop
      vertex 49.3738 -4.10728 2
      vertex 48.215 -5.06597 0
      vertex 49.3738 -4.10728 0
    endloop
  endfacet
  facet normal -1 0 0
    outer loop
      vertex 0 -6 0
      vertex 0 -5.96446 2
      vertex 0 -5.96446 0
    endloop
  endfacet
  facet normal -1 -0 0
    outer loop
      vertex 0 -5.96446 2
      vertex 0 -6 0
      vertex 0 -6 2
    endloop
  endfacet
  facet normal -1 0 0
    outer loop
      vertex 0 5.96446 0
      vertex 0 6 2
      vertex 0 6 0
    endloop
  endfacet
  facet normal -1 -0 0
    outer loop
      vertex 0 6 2
      vertex 0 5.96446 0
      vertex 0 5.96446 2
    endloop
  endfacet
  facet normal 1 -0 0
    outer loop
      vertex 45 -6 2
      vertex 45 -5.96446 0
      vertex 45 -5.96446 2
    endloop
  endfacet
  facet normal 1 0 0
    outer loop
      vertex 45 -5.96446 0
      vertex 45 -6 2
      vertex 45 -6 0
    endloop
  endfacet
  facet normal 1 -0 0
    outer loop
      vertex 45 5.96446 2
      vertex 45 6 0
      vertex 45 6 2
    endloop
  endfacet
  facet normal 1 0 0
    outer loop
      vertex 45 6 0
      vertex 45 5.96446 2
      vertex 45 5.96446 0
    endloop
  endfacet
  facet normal 0 -1 0
    outer loop
      vertex 0 -6 0
      vertex 45 -6 2
      vertex 0 -6 2
    endloop
  endfacet
  facet normal 0 -1 -0
    outer loop
      vertex 45 -6 2
      vertex 0 -6 0
      vertex 45 -6 0
    endloop
  endfacet
  facet normal 0 1 -0
    outer loop
      vertex 45 6 0
      vertex 0 6 2
      vertex 45 6 2
    endloop
  endfacet
  facet normal 0 1 0
    outer loop
      vertex 0 6 2
      vertex 45 6 0
      vertex 0 6 0
    endloop
  endfacet
  facet normal -0.992115 -0.125334 0
    outer loop
      vertex 3 0 -4
      vertex 2.90575 0.746069 6
      vertex 2.90575 0.746069 -4
    endloop
  endfacet
  facet normal -0.992115 -0.125334 0
    outer loop
      vertex 2.90575 0.746069 6
      vertex 3 0 -4
      vertex 3 0 6
    endloop
  endfacet
  facet normal 1 -0 0
    outer loop
      vertex -2.97634 -0.375999 6
      vertex -2.97634 0.375999 -4
      vertex -2.97634 0.375999 6
    endloop
  endfacet
  facet normal 1 0 0
    outer loop
      vertex -2.97634 0.375999 -4
      vertex -2.97634 -0.375999 6
      vertex -2.97634 -0.375999 -4
    endloop
  endfacet
  facet normal 0.0627905 -0.998027 0
    outer loop
      vertex -0.562143 2.94686 -4
      vertex 0.188371 2.99408 6
      vertex -0.562143 2.94686 6
    endloop
  endfacet
  facet normal 0.0627905 -0.998027 0
    outer loop
      vertex 0.188371 2.99408 6
      vertex -0.562143 2.94686 -4
      vertex 0.188371 2.99408 -4
    endloop
  endfacet
  facet normal -0.187381 0.982287 0
    outer loop
      vertex 0.927051 -2.85317 -4
      vertex 0.188371 -2.99408 6
      vertex 0.927051 -2.85317 6
    endloop
  endfacet
  facet normal -0.187381 0.982287 0
    outer loop
      vertex 0.188371 -2.99408 6
      vertex 0.927051 -2.85317 -4
      vertex 0.188371 -2.99408 -4
    endloop
  endfacet
  facet normal -0.637424 -0.770513 0
    outer loop
      vertex 1.60748 2.53298 -4
      vertex 2.18691 2.05364 6
      vertex 1.60748 2.53298 6
    endloop
  endfacet
  facet normal -0.637424 -0.770513 -0
    outer loop
      vertex 2.18691 2.05364 6
      vertex 1.60748 2.53298 -4
      vertex 2.18691 2.05364 -4
    endloop
  endfacet
  facet normal -0.929776 -0.368125 0
    outer loop
      vertex 2.90575 0.746069 -4
      vertex 2.62892 1.44526 6
      vertex 2.62892 1.44526 -4
    endloop
  endfacet
  facet normal -0.929776 -0.368125 0
    outer loop
      vertex 2.62892 1.44526 6
      vertex 2.90575 0.746069 -4
      vertex 2.90575 0.746069 6
    endloop
  endfacet
  facet normal -0.42578 -0.904827 0
    outer loop
      vertex 0.927051 2.85317 -4
      vertex 1.60748 2.53298 6
      vertex 0.927051 2.85317 6
    endloop
  endfacet
  facet normal -0.42578 -0.904827 -0
    outer loop
      vertex 1.60748 2.53298 6
      vertex 0.927051 2.85317 -4
      vertex 1.60748 2.53298 -4
    endloop
  endfacet
  facet normal 0.728969 -0.684547 0
    outer loop
      vertex -2.42705 1.76336 6
      vertex -1.91227 2.31154 -4
      vertex -1.91227 2.31154 6
    endloop
  endfacet
  facet normal 0.728969 -0.684547 0
    outer loop
      vertex -1.91227 2.31154 -4
      vertex -2.42705 1.76336 6
      vertex -2.42705 1.76336 -4
    endloop
  endfacet
  facet normal 0.535826 -0.844328 0
    outer loop
      vertex -1.91227 2.31154 -4
      vertex -1.27734 2.71448 6
      vertex -1.91227 2.31154 6
    endloop
  endfacet
  facet normal 0.535826 -0.844328 0
    outer loop
      vertex -1.27734 2.71448 6
      vertex -1.91227 2.31154 -4
      vertex -1.27734 2.71448 -4
    endloop
  endfacet
  facet normal -0.809017 -0.587785 0
    outer loop
      vertex 2.62892 1.44526 -4
      vertex 2.18691 2.05364 6
      vertex 2.18691 2.05364 -4
    endloop
  endfacet
  facet normal -0.809017 -0.587785 0
    outer loop
      vertex 2.18691 2.05364 6
      vertex 2.62892 1.44526 -4
      vertex 2.62892 1.44526 6
    endloop
  endfacet
  facet normal -0.187381 -0.982287 0
    outer loop
      vertex 0.188371 2.99408 -4
      vertex 0.927051 2.85317 6
      vertex 0.188371 2.99408 6
    endloop
  endfacet
  facet normal -0.187381 -0.982287 -0
    outer loop
      vertex 0.927051 2.85317 6
      vertex 0.188371 2.99408 -4
      vertex 0.927051 2.85317 -4
    endloop
  endfacet
  facet normal 0.876307 -0.481753 0
    outer loop
      vertex -2.78933 1.10437 6
      vertex -2.42705 1.76336 -4
      vertex -2.42705 1.76336 6
    endloop
  endfacet
  facet normal 0.876307 -0.481753 0
    outer loop
      vertex -2.42705 1.76336 -4
      vertex -2.78933 1.10437 6
      vertex -2.78933 1.10437 -4
    endloop
  endfacet
  facet normal 0.968583 -0.24869 0
    outer loop
      vertex -2.97634 0.375999 6
      vertex -2.78933 1.10437 -4
      vertex -2.78933 1.10437 6
    endloop
  endfacet
  facet normal 0.968583 -0.24869 0
    outer loop
      vertex -2.78933 1.10437 -4
      vertex -2.97634 0.375999 6
      vertex -2.97634 0.375999 -4
    endloop
  endfacet
  facet normal 0.309017 -0.951056 0
    outer loop
      vertex -1.27734 2.71448 -4
      vertex -0.562143 2.94686 6
      vertex -1.27734 2.71448 6
    endloop
  endfacet
  facet normal 0.309017 -0.951056 0
    outer loop
      vertex -0.562143 2.94686 6
      vertex -1.27734 2.71448 -4
      vertex -0.562143 2.94686 -4
    endloop
  endfacet
  facet normal -0.992115 0.125334 0
    outer loop
      vertex 2.90575 -0.746069 -4
      vertex 3 0 6
      vertex 3 0 -4
    endloop
  endfacet
  facet normal -0.992115 0.125334 0
    outer loop
      vertex 3 0 6
      vertex 2.90575 -0.746069 -4
      vertex 2.90575 -0.746069 6
    endloop
  endfacet
  facet normal -0.809017 0.587785 0
    outer loop
      vertex 2.18691 -2.05364 -4
      vertex 2.62892 -1.44526 6
      vertex 2.62892 -1.44526 -4
    endloop
  endfacet
  facet normal -0.809017 0.587785 0
    outer loop
      vertex 2.62892 -1.44526 6
      vertex 2.18691 -2.05364 -4
      vertex 2.18691 -2.05364 6
    endloop
  endfacet
  facet normal -0.929776 0.368125 0
    outer loop
      vertex 2.62892 -1.44526 -4
      vertex 2.90575 -0.746069 6
      vertex 2.90575 -0.746069 -4
    endloop
  endfacet
  facet normal -0.929776 0.368125 0
    outer loop
      vertex 2.90575 -0.746069 6
      vertex 2.62892 -1.44526 -4
      vertex 2.62892 -1.44526 6
    endloop
  endfacet
  facet normal 0.728969 0.684547 0
    outer loop
      vertex -1.91227 -2.31154 6
      vertex -2.42705 -1.76336 -4
      vertex -2.42705 -1.76336 6
    endloop
  endfacet
  facet normal 0.728969 0.684547 0
    outer loop
      vertex -2.42705 -1.76336 -4
      vertex -1.91227 -2.31154 6
      vertex -1.91227 -2.31154 -4
    endloop
  endfacet
  facet normal 0.0627905 0.998027 -0
    outer loop
      vertex 0.188371 -2.99408 -4
      vertex -0.562143 -2.94686 6
      vertex 0.188371 -2.99408 6
    endloop
  endfacet
  facet normal 0.0627905 0.998027 0
    outer loop
      vertex -0.562143 -2.94686 6
      vertex 0.188371 -2.99408 -4
      vertex -0.562143 -2.94686 -4
    endloop
  endfacet
  facet normal 0.535826 0.844328 -0
    outer loop
      vertex -1.27734 -2.71448 -4
      vertex -1.91227 -2.31154 6
      vertex -1.27734 -2.71448 6
    endloop
  endfacet
  facet normal 0.535826 0.844328 0
    outer loop
      vertex -1.91227 -2.31154 6
      vertex -1.27734 -2.71448 -4
      vertex -1.91227 -2.31154 -4
    endloop
  endfacet
  facet normal 0.309017 0.951056 -0
    outer loop
      vertex -0.562143 -2.94686 -4
      vertex -1.27734 -2.71448 6
      vertex -0.562143 -2.94686 6
    endloop
  endfacet
  facet normal 0.309017 0.951056 0
    outer loop
      vertex -1.27734 -2.71448 6
      vertex -0.562143 -2.94686 -4
      vertex -1.27734 -2.71448 -4
    endloop
  endfacet
  facet normal 0.876307 0.481753 0
    outer loop
      vertex -2.42705 -1.76336 6
      vertex -2.78933 -1.10437 -4
      vertex -2.78933 -1.10437 6
    endloop
  endfacet
  facet normal 0.876307 0.481753 0
    outer loop
      vertex -2.78933 -1.10437 -4
      vertex -2.42705 -1.76336 6
      vertex -2.42705 -1.76336 -4
    endloop
  endfacet
  facet normal 0.968583 0.24869 0
    outer loop
      vertex -2.78933 -1.10437 6
      vertex -2.97634 -0.375999 -4
      vertex -2.97634 -0.375999 6
    endloop
  endfacet
  facet normal 0.968583 0.24869 0
    outer loop
      vertex -2.97634 -0.375999 -4
      vertex -2.78933 -1.10437 6
      vertex -2.78933 -1.10437 -4
    endloop
  endfacet
  facet normal -0.637424 0.770513 0
    outer loop
      vertex 2.18691 -2.05364 -4
      vertex 1.60748 -2.53298 6
      vertex 2.18691 -2.05364 6
    endloop
  endfacet
  facet normal -0.637424 0.770513 0
    outer loop
      vertex 1.60748 -2.53298 6
      vertex 2.18691 -2.05364 -4
      vertex 1.60748 -2.53298 -4
    endloop
  endfacet
  facet normal -0.42578 0.904827 0
    outer loop
      vertex 1.60748 -2.53298 -4
      vertex 0.927051 -2.85317 6
      vertex 1.60748 -2.53298 6
    endloop
  endfacet
  facet normal -0.42578 0.904827 0
    outer loop
      vertex 0.927051 -2.85317 6
      vertex 1.60748 -2.53298 -4
      vertex 0.927051 -2.85317 -4
    endloop
  endfacet
  facet normal -0.992115 -0.125332 0
    outer loop
      vertex 48 0 0
      vertex 47.9058 0.746069 2
      vertex 47.9058 0.746069 0
    endloop
  endfacet
  facet normal -0.992115 -0.125332 0
    outer loop
      vertex 47.9058 0.746069 2
      vertex 48 0 0
      vertex 48 0 2
    endloop
  endfacet
  facet normal 1 -0 0
    outer loop
      vertex 42.0237 -0.375999 2
      vertex 42.0237 0.375999 0
      vertex 42.0237 0.375999 2
    endloop
  endfacet
  facet normal 1 0 0
    outer loop
      vertex 42.0237 0.375999 0
      vertex 42.0237 -0.375999 2
      vertex 42.0237 -0.375999 0
    endloop
  endfacet
  facet normal 0.0627904 -0.998027 0
    outer loop
      vertex 44.4379 2.94686 0
      vertex 45.1884 2.99408 2
      vertex 44.4379 2.94686 2
    endloop
  endfacet
  facet normal 0.0627904 -0.998027 0
    outer loop
      vertex 45.1884 2.99408 2
      vertex 44.4379 2.94686 0
      vertex 45.1884 2.99408 0
    endloop
  endfacet
  facet normal -0.18738 0.982287 0
    outer loop
      vertex 45.9271 -2.85317 0
      vertex 45.1884 -2.99408 2
      vertex 45.9271 -2.85317 2
    endloop
  endfacet
  facet normal -0.18738 0.982287 0
    outer loop
      vertex 45.1884 -2.99408 2
      vertex 45.9271 -2.85317 0
      vertex 45.1884 -2.99408 0
    endloop
  endfacet
  facet normal -0.637424 -0.770513 0
    outer loop
      vertex 46.6075 2.53298 0
      vertex 47.1869 2.05364 2
      vertex 46.6075 2.53298 2
    endloop
  endfacet
  facet normal -0.637424 -0.770513 -0
    outer loop
      vertex 47.1869 2.05364 2
      vertex 46.6075 2.53298 0
      vertex 47.1869 2.05364 0
    endloop
  endfacet
  facet normal -0.929777 -0.368123 0
    outer loop
      vertex 47.9058 0.746069 0
      vertex 47.6289 1.44526 2
      vertex 47.6289 1.44526 0
    endloop
  endfacet
  facet normal -0.929777 -0.368123 0
    outer loop
      vertex 47.6289 1.44526 2
      vertex 47.9058 0.746069 0
      vertex 47.9058 0.746069 2
    endloop
  endfacet
  facet normal -0.425781 -0.904826 0
    outer loop
      vertex 45.9271 2.85317 0
      vertex 46.6075 2.53298 2
      vertex 45.9271 2.85317 2
    endloop
  endfacet
  facet normal -0.425781 -0.904826 -0
    outer loop
      vertex 46.6075 2.53298 2
      vertex 45.9271 2.85317 0
      vertex 46.6075 2.53298 0
    endloop
  endfacet
  facet normal 0.728969 -0.684546 0
    outer loop
      vertex 42.5729 1.76336 2
      vertex 43.0877 2.31154 0
      vertex 43.0877 2.31154 2
    endloop
  endfacet
  facet normal 0.728969 -0.684546 0
    outer loop
      vertex 43.0877 2.31154 0
      vertex 42.5729 1.76336 2
      vertex 42.5729 1.76336 0
    endloop
  endfacet
  facet normal 0.535824 -0.84433 0
    outer loop
      vertex 43.0877 2.31154 0
      vertex 43.7227 2.71448 2
      vertex 43.0877 2.31154 2
    endloop
  endfacet
  facet normal 0.535824 -0.84433 0
    outer loop
      vertex 43.7227 2.71448 2
      vertex 43.0877 2.31154 0
      vertex 43.7227 2.71448 0
    endloop
  endfacet
  facet normal -0.809015 -0.587788 0
    outer loop
      vertex 47.6289 1.44526 0
      vertex 47.1869 2.05364 2
      vertex 47.1869 2.05364 0
    endloop
  endfacet
  facet normal -0.809015 -0.587788 0
    outer loop
      vertex 47.1869 2.05364 2
      vertex 47.6289 1.44526 0
      vertex 47.6289 1.44526 2
    endloop
  endfacet
  facet normal -0.18738 -0.982287 0
    outer loop
      vertex 45.1884 2.99408 0
      vertex 45.9271 2.85317 2
      vertex 45.1884 2.99408 2
    endloop
  endfacet
  facet normal -0.18738 -0.982287 -0
    outer loop
      vertex 45.9271 2.85317 2
      vertex 45.1884 2.99408 0
      vertex 45.9271 2.85317 0
    endloop
  endfacet
  facet normal 0.876307 -0.481753 0
    outer loop
      vertex 42.2107 1.10437 2
      vertex 42.5729 1.76336 0
      vertex 42.5729 1.76336 2
    endloop
  endfacet
  facet normal 0.876307 -0.481753 0
    outer loop
      vertex 42.5729 1.76336 0
      vertex 42.2107 1.10437 2
      vertex 42.2107 1.10437 0
    endloop
  endfacet
  facet normal 0.968583 -0.248691 0
    outer loop
      vertex 42.0237 0.375999 2
      vertex 42.2107 1.10437 0
      vertex 42.2107 1.10437 2
    endloop
  endfacet
  facet normal 0.968583 -0.248691 0
    outer loop
      vertex 42.2107 1.10437 0
      vertex 42.0237 0.375999 2
      vertex 42.0237 0.375999 0
    endloop
  endfacet
  facet normal 0.309019 -0.951056 0
    outer loop
      vertex 43.7227 2.71448 0
      vertex 44.4379 2.94686 2
      vertex 43.7227 2.71448 2
    endloop
  endfacet
  facet normal 0.309019 -0.951056 0
    outer loop
      vertex 44.4379 2.94686 2
      vertex 43.7227 2.71448 0
      vertex 44.4379 2.94686 0
    endloop
  endfacet
  facet normal -0.809015 0.587788 0
    outer loop
      vertex 47.1869 -2.05364 0
      vertex 47.6289 -1.44526 2
      vertex 47.6289 -1.44526 0
    endloop
  endfacet
  facet normal -0.809015 0.587788 0
    outer loop
      vertex 47.6289 -1.44526 2
      vertex 47.1869 -2.05364 0
      vertex 47.1869 -2.05364 2
    endloop
  endfacet
  facet normal -0.929777 0.368123 0
    outer loop
      vertex 47.6289 -1.44526 0
      vertex 47.9058 -0.746069 2
      vertex 47.9058 -0.746069 0
    endloop
  endfacet
  facet normal -0.929777 0.368123 0
    outer loop
      vertex 47.9058 -0.746069 2
      vertex 47.6289 -1.44526 0
      vertex 47.6289 -1.44526 2
    endloop
  endfacet
  facet normal 0.535824 0.84433 -0
    outer loop
      vertex 43.7227 -2.71448 0
      vertex 43.0877 -2.31154 2
      vertex 43.7227 -2.71448 2
    endloop
  endfacet
  facet normal 0.535824 0.84433 0
    outer loop
      vertex 43.0877 -2.31154 2
      vertex 43.7227 -2.71448 0
      vertex 43.0877 -2.31154 0
    endloop
  endfacet
  facet normal 0.728969 0.684546 0
    outer loop
      vertex 43.0877 -2.31154 2
      vertex 42.5729 -1.76336 0
      vertex 42.5729 -1.76336 2
    endloop
  endfacet
  facet normal 0.728969 0.684546 0
    outer loop
      vertex 42.5729 -1.76336 0
      vertex 43.0877 -2.31154 2
      vertex 43.0877 -2.31154 0
    endloop
  endfacet
  facet normal -0.425781 0.904826 0
    outer loop
      vertex 46.6075 -2.53298 0
      vertex 45.9271 -2.85317 2
      vertex 46.6075 -2.53298 2
    endloop
  endfacet
  facet normal -0.425781 0.904826 0
    outer loop
      vertex 45.9271 -2.85317 2
      vertex 46.6075 -2.53298 0
      vertex 45.9271 -2.85317 0
    endloop
  endfacet
  facet normal -0.992115 0.125332 0
    outer loop
      vertex 47.9058 -0.746069 0
      vertex 48 0 2
      vertex 48 0 0
    endloop
  endfacet
  facet normal -0.992115 0.125332 0
    outer loop
      vertex 48 0 2
      vertex 47.9058 -0.746069 0
      vertex 47.9058 -0.746069 2
    endloop
  endfacet
  facet normal 0.0627904 0.998027 -0
    outer loop
      vertex 45.1884 -2.99408 0
      vertex 44.4379 -2.94686 2
      vertex 45.1884 -2.99408 2
    endloop
  endfacet
  facet normal 0.0627904 0.998027 0
    outer loop
      vertex 44.4379 -2.94686 2
      vertex 45.1884 -2.99408 0
      vertex 44.4379 -2.94686 0
    endloop
  endfacet
  facet normal 0.876307 0.481753 0
    outer loop
      vertex 42.5729 -1.76336 2
      vertex 42.2107 -1.10437 0
      vertex 42.2107 -1.10437 2
    endloop
  endfacet
  facet normal 0.876307 0.481753 0
    outer loop
      vertex 42.2107 -1.10437 0
      vertex 42.5729 -1.76336 2
      vertex 42.5729 -1.76336 0
    endloop
  endfacet
  facet normal 0.968583 0.248691 0
    outer loop
      vertex 42.2107 -1.10437 2
      vertex 42.0237 -0.375999 0
      vertex 42.0237 -0.375999 2
    endloop
  endfacet
  facet normal 0.968583 0.248691 0
    outer loop
      vertex 42.0237 -0.375999 0
      vertex 42.2107 -1.10437 2
      vertex 42.2107 -1.10437 0
    endloop
  endfacet
  facet normal -0.637424 0.770513 0
    outer loop
      vertex 47.1869 -2.05364 0
      vertex 46.6075 -2.53298 2
      vertex 47.1869 -2.05364 2
    endloop
  endfacet
  facet normal -0.637424 0.770513 0
    outer loop
      vertex 46.6075 -2.53298 2
      vertex 47.1869 -2.05364 0
      vertex 46.6075 -2.53298 0
    endloop
  endfacet
  facet normal 0.309019 0.951056 -0
    outer loop
      vertex 44.4379 -2.94686 0
      vertex 43.7227 -2.71448 2
      vertex 44.4379 -2.94686 2
    endloop
  endfacet
  facet normal 0.309019 0.951056 0
    outer loop
      vertex 43.7227 -2.71448 2
      vertex 44.4379 -2.94686 0
      vertex 43.7227 -2.71448 0
    endloop
  endfacet
endsolid OpenSCAD_Model
