solid OpenSCAD_Model
  facet normal 0 0 -1
    outer loop
      vertex 17.9058 104.254 0
      vertex 20 110 0
      vertex 17.9058 70.7461 0
    endloop
  endfacet
  facet normal 0 0 -1
    outer loop
      vertex 20 110 0
      vertex 17.9058 104.254 0
      vertex 18 105 0
    endloop
  endfacet
  facet normal 0 0 -1
    outer loop
      vertex 17.6289 71.4453 0
      vertex 17.9058 104.254 0
      vertex 17.9058 70.7461 0
    endloop
  endfacet
  facet normal 0 0 -1
    outer loop
      vertex 17.6289 71.4453 0
      vertex 17.6289 103.555 0
      vertex 17.9058 104.254 0
    endloop
  endfacet
  facet normal 0 0 -1
    outer loop
      vertex 17.1869 72.0536 0
      vertex 17.6289 103.555 0
      vertex 17.6289 71.4453 0
    endloop
  endfacet
  facet normal 0 0 -1
    outer loop
      vertex 17.1869 72.0536 0
      vertex 17.1869 102.946 0
      vertex 17.6289 103.555 0
    endloop
  endfacet
  facet normal 0 0 -1
    outer loop
      vertex 16.6075 72.533 0
      vertex 17.1869 102.946 0
      vertex 17.1869 72.0536 0
    endloop
  endfacet
  facet normal 0 0 -1
    outer loop
      vertex 16.6075 72.533 0
      vertex 16.6075 102.467 0
      vertex 17.1869 102.946 0
    endloop
  endfacet
  facet normal 0 0 -1
    outer loop
      vertex 15.9271 72.8532 0
      vertex 16.6075 102.467 0
      vertex 16.6075 72.533 0
    endloop
  endfacet
  facet normal 0 0 -1
    outer loop
      vertex 15.9271 72.8532 0
      vertex 15.9271 102.147 0
      vertex 16.6075 102.467 0
    endloop
  endfacet
  facet normal 0 0 -1
    outer loop
      vertex 15.1884 72.9941 0
      vertex 15.9271 102.147 0
      vertex 15.9271 72.8532 0
    endloop
  endfacet
  facet normal 0 0 -1
    outer loop
      vertex 15.1884 72.9941 0
      vertex 15.1884 102.006 0
      vertex 15.9271 102.147 0
    endloop
  endfacet
  facet normal 0 0 -1
    outer loop
      vertex 14.4379 72.9469 0
      vertex 15.1884 102.006 0
      vertex 15.1884 72.9941 0
    endloop
  endfacet
  facet normal 0 0 -1
    outer loop
      vertex 14.4379 72.9469 0
      vertex 14.4379 102.053 0
      vertex 15.1884 102.006 0
    endloop
  endfacet
  facet normal 0 0 -1
    outer loop
      vertex 13.7227 72.7145 0
      vertex 14.4379 102.053 0
      vertex 14.4379 72.9469 0
    endloop
  endfacet
  facet normal 0 0 -1
    outer loop
      vertex 13.7227 72.7145 0
      vertex 13.7227 102.286 0
      vertex 14.4379 102.053 0
    endloop
  endfacet
  facet normal 0 0 -1
    outer loop
      vertex 13.0877 72.3115 0
      vertex 13.7227 102.286 0
      vertex 13.7227 72.7145 0
    endloop
  endfacet
  facet normal 0 0 -1
    outer loop
      vertex 13.0877 72.3115 0
      vertex 13.0877 102.688 0
      vertex 13.7227 102.286 0
    endloop
  endfacet
  facet normal 0 0 -1
    outer loop
      vertex 10 70 0
      vertex 13.0877 72.3115 0
      vertex 12.5729 71.7634 0
    endloop
  endfacet
  facet normal -0 0 -1
    outer loop
      vertex 13.0877 72.3115 0
      vertex 10 70 0
      vertex 13.0877 102.688 0
    endloop
  endfacet
  facet normal 0 0 -1
    outer loop
      vertex 10 70 0
      vertex 12.5729 71.7634 0
      vertex 12.2107 71.1044 0
    endloop
  endfacet
  facet normal -0 0 -1
    outer loop
      vertex 13.0877 102.688 0
      vertex 10 70 0
      vertex 12.5729 103.237 0
    endloop
  endfacet
  facet normal 0 0 -1
    outer loop
      vertex 10 70 0
      vertex 12.2107 71.1044 0
      vertex 12.0237 70.376 0
    endloop
  endfacet
  facet normal -0 0 -1
    outer loop
      vertex 12.5729 103.237 0
      vertex 10 70 0
      vertex 12.2107 103.896 0
    endloop
  endfacet
  facet normal 0 0 -1
    outer loop
      vertex 20 30 0
      vertex 18 70 0
      vertex 20 110 0
    endloop
  endfacet
  facet normal 0 0 -1
    outer loop
      vertex 20 30 0
      vertex 17.9058 69.2539 0
      vertex 18 70 0
    endloop
  endfacet
  facet normal 0 0 -1
    outer loop
      vertex 20 30 0
      vertex 17.6289 68.5547 0
      vertex 17.9058 69.2539 0
    endloop
  endfacet
  facet normal 0 0 -1
    outer loop
      vertex 20 30 0
      vertex 17.1869 67.9464 0
      vertex 17.6289 68.5547 0
    endloop
  endfacet
  facet normal 0 0 -1
    outer loop
      vertex 20 30 0
      vertex 16.6075 67.467 0
      vertex 17.1869 67.9464 0
    endloop
  endfacet
  facet normal 0 0 -1
    outer loop
      vertex 20 30 0
      vertex 15.9271 67.1468 0
      vertex 16.6075 67.467 0
    endloop
  endfacet
  facet normal 0 0 -1
    outer loop
      vertex 20 30 0
      vertex 15.1884 67.0059 0
      vertex 15.9271 67.1468 0
    endloop
  endfacet
  facet normal 0 0 -1
    outer loop
      vertex 20 30 0
      vertex 15 30 0
      vertex 15.1884 67.0059 0
    endloop
  endfacet
  facet normal 0 -0 -1
    outer loop
      vertex 15 30 0
      vertex 20 30 0
      vertex 10 0 0
    endloop
  endfacet
  facet normal 0 0 -1
    outer loop
      vertex 17.9058 70.7461 0
      vertex 20 110 0
      vertex 18 70 0
    endloop
  endfacet
  facet normal 0 0 -1
    outer loop
      vertex 17.9058 105.746 0
      vertex 20 110 0
      vertex 18 105 0
    endloop
  endfacet
  facet normal 0 0 -1
    outer loop
      vertex 17.6289 106.445 0
      vertex 20 110 0
      vertex 17.9058 105.746 0
    endloop
  endfacet
  facet normal 0 0 -1
    outer loop
      vertex 17.1869 107.054 0
      vertex 20 110 0
      vertex 17.6289 106.445 0
    endloop
  endfacet
  facet normal 0 0 -1
    outer loop
      vertex 16.6075 107.533 0
      vertex 20 110 0
      vertex 17.1869 107.054 0
    endloop
  endfacet
  facet normal 0 0 -1
    outer loop
      vertex 15.9271 107.853 0
      vertex 20 110 0
      vertex 16.6075 107.533 0
    endloop
  endfacet
  facet normal 0 0 -1
    outer loop
      vertex 15.1884 107.994 0
      vertex 20 110 0
      vertex 15.9271 107.853 0
    endloop
  endfacet
  facet normal 0 0 -1
    outer loop
      vertex 10 110 0
      vertex 15.1884 107.994 0
      vertex 14.4379 107.947 0
    endloop
  endfacet
  facet normal 0 0 -1
    outer loop
      vertex 10 110 0
      vertex 14.4379 107.947 0
      vertex 13.7227 107.714 0
    endloop
  endfacet
  facet normal 0 0 -1
    outer loop
      vertex 15.1884 107.994 0
      vertex 10 110 0
      vertex 20 110 0
    endloop
  endfacet
  facet normal 0 0 -1
    outer loop
      vertex 13.0877 107.312 0
      vertex 10 110 0
      vertex 13.7227 107.714 0
    endloop
  endfacet
  facet normal 0 0 -1
    outer loop
      vertex 12.5729 106.763 0
      vertex 10 110 0
      vertex 13.0877 107.312 0
    endloop
  endfacet
  facet normal 0 0 -1
    outer loop
      vertex 12.2107 106.104 0
      vertex 10 110 0
      vertex 12.5729 106.763 0
    endloop
  endfacet
  facet normal 0 0 -1
    outer loop
      vertex 12.0237 105.376 0
      vertex 10 110 0
      vertex 12.2107 106.104 0
    endloop
  endfacet
  facet normal 0 0 -1
    outer loop
      vertex 12.0237 104.624 0
      vertex 10 110 0
      vertex 12.0237 105.376 0
    endloop
  endfacet
  facet normal 0 0 -1
    outer loop
      vertex 15 30 0
      vertex 14.4379 67.0531 0
      vertex 15.1884 67.0059 0
    endloop
  endfacet
  facet normal 0 0 -1
    outer loop
      vertex 15 30 0
      vertex 13.7227 67.2855 0
      vertex 14.4379 67.0531 0
    endloop
  endfacet
  facet normal 0 0 -1
    outer loop
      vertex 15 30 0
      vertex 13.0877 67.6885 0
      vertex 13.7227 67.2855 0
    endloop
  endfacet
  facet normal 0 0 -1
    outer loop
      vertex 10 70 0
      vertex 13.0877 67.6885 0
      vertex 15 30 0
    endloop
  endfacet
  facet normal 0 0 -1
    outer loop
      vertex 13.0877 67.6885 0
      vertex 10 70 0
      vertex 12.5729 68.2366 0
    endloop
  endfacet
  facet normal 0 0 -1
    outer loop
      vertex 12.5729 68.2366 0
      vertex 10 70 0
      vertex 12.2107 68.8956 0
    endloop
  endfacet
  facet normal 0 0 -1
    outer loop
      vertex 10 70 0
      vertex 12.0237 70.376 0
      vertex 12.0237 69.624 0
    endloop
  endfacet
  facet normal 0 0 -1
    outer loop
      vertex 10 110 0
      vertex 12.2107 103.896 0
      vertex 10 70 0
    endloop
  endfacet
  facet normal 0 0 -1
    outer loop
      vertex 12.2107 103.896 0
      vertex 10 110 0
      vertex 12.0237 104.624 0
    endloop
  endfacet
  facet normal 0 0 -1
    outer loop
      vertex 12.2107 68.8956 0
      vertex 10 70 0
      vertex 12.0237 69.624 0
    endloop
  endfacet
  facet normal 0.948683 -0.316228 0
    outer loop
      vertex 10 0 7
      vertex 20 30 0
      vertex 20 30 7
    endloop
  endfacet
  facet normal 0.948683 -0.316228 0
    outer loop
      vertex 20 30 0
      vertex 10 0 7
      vertex 10 0 0
    endloop
  endfacet
  facet normal -0.986394 0.164399 0
    outer loop
      vertex 10 0 0
      vertex 15 30 7
      vertex 15 30 0
    endloop
  endfacet
  facet normal -0.986394 0.164399 0
    outer loop
      vertex 15 30 7
      vertex 10 0 0
      vertex 10 0 7
    endloop
  endfacet
  facet normal 0 0 1
    outer loop
      vertex 14.4379 67.0531 7
      vertex 15 30 7
      vertex 15.1884 67.0059 7
    endloop
  endfacet
  facet normal 0 0 1
    outer loop
      vertex 13.7227 67.2855 7
      vertex 15 30 7
      vertex 14.4379 67.0531 7
    endloop
  endfacet
  facet normal 0 0 1
    outer loop
      vertex 13.0877 67.6885 7
      vertex 15 30 7
      vertex 13.7227 67.2855 7
    endloop
  endfacet
  facet normal 0 0 1
    outer loop
      vertex 10 70 7
      vertex 13.0877 67.6885 7
      vertex 12.5729 68.2366 7
    endloop
  endfacet
  facet normal 0 0 1
    outer loop
      vertex 10 70 7
      vertex 12.5729 68.2366 7
      vertex 12.2107 68.8956 7
    endloop
  endfacet
  facet normal 0 0 1
    outer loop
      vertex 10 70 7
      vertex 12.2107 68.8956 7
      vertex 12.0237 69.624 7
    endloop
  endfacet
  facet normal 0 0 1
    outer loop
      vertex 13.0877 67.6885 7
      vertex 10 70 7
      vertex 15 30 7
    endloop
  endfacet
  facet normal 0 0 1
    outer loop
      vertex 12.0237 70.376 7
      vertex 10 70 7
      vertex 12.0237 69.624 7
    endloop
  endfacet
  facet normal 0 0 1
    outer loop
      vertex 17.9058 70.7461 7
      vertex 20 110 7
      vertex 17.9058 104.254 7
    endloop
  endfacet
  facet normal 0 0 1
    outer loop
      vertex 20 110 7
      vertex 17.9058 70.7461 7
      vertex 18 70 7
    endloop
  endfacet
  facet normal -0 0 1
    outer loop
      vertex 17.6289 103.555 7
      vertex 17.9058 70.7461 7
      vertex 17.9058 104.254 7
    endloop
  endfacet
  facet normal 0 0 1
    outer loop
      vertex 17.6289 103.555 7
      vertex 17.6289 71.4453 7
      vertex 17.9058 70.7461 7
    endloop
  endfacet
  facet normal -0 0 1
    outer loop
      vertex 17.1869 102.946 7
      vertex 17.6289 71.4453 7
      vertex 17.6289 103.555 7
    endloop
  endfacet
  facet normal 0 0 1
    outer loop
      vertex 17.1869 102.946 7
      vertex 17.1869 72.0536 7
      vertex 17.6289 71.4453 7
    endloop
  endfacet
  facet normal -0 0 1
    outer loop
      vertex 16.6075 102.467 7
      vertex 17.1869 72.0536 7
      vertex 17.1869 102.946 7
    endloop
  endfacet
  facet normal 0 0 1
    outer loop
      vertex 16.6075 102.467 7
      vertex 16.6075 72.533 7
      vertex 17.1869 72.0536 7
    endloop
  endfacet
  facet normal -0 0 1
    outer loop
      vertex 15.9271 102.147 7
      vertex 16.6075 72.533 7
      vertex 16.6075 102.467 7
    endloop
  endfacet
  facet normal 0 0 1
    outer loop
      vertex 15.9271 102.147 7
      vertex 15.9271 72.8532 7
      vertex 16.6075 72.533 7
    endloop
  endfacet
  facet normal -0 0 1
    outer loop
      vertex 15.1884 102.006 7
      vertex 15.9271 72.8532 7
      vertex 15.9271 102.147 7
    endloop
  endfacet
  facet normal 0 0 1
    outer loop
      vertex 15.1884 102.006 7
      vertex 15.1884 72.9941 7
      vertex 15.9271 72.8532 7
    endloop
  endfacet
  facet normal 0 0 1
    outer loop
      vertex 14.4379 102.053 7
      vertex 15.1884 72.9941 7
      vertex 15.1884 102.006 7
    endloop
  endfacet
  facet normal 0 0 1
    outer loop
      vertex 14.4379 102.053 7
      vertex 14.4379 72.9469 7
      vertex 15.1884 72.9941 7
    endloop
  endfacet
  facet normal 0 0 1
    outer loop
      vertex 13.7227 102.286 7
      vertex 14.4379 72.9469 7
      vertex 14.4379 102.053 7
    endloop
  endfacet
  facet normal 0 0 1
    outer loop
      vertex 13.7227 102.286 7
      vertex 13.7227 72.7145 7
      vertex 14.4379 72.9469 7
    endloop
  endfacet
  facet normal 0 0 1
    outer loop
      vertex 13.0877 102.688 7
      vertex 13.7227 72.7145 7
      vertex 13.7227 102.286 7
    endloop
  endfacet
  facet normal 0 0 1
    outer loop
      vertex 13.0877 102.688 7
      vertex 13.0877 72.3115 7
      vertex 13.7227 72.7145 7
    endloop
  endfacet
  facet normal 0 0 1
    outer loop
      vertex 10 70 7
      vertex 13.0877 102.688 7
      vertex 12.5729 103.237 7
    endloop
  endfacet
  facet normal 0 0 1
    outer loop
      vertex 13.0877 102.688 7
      vertex 10 70 7
      vertex 13.0877 72.3115 7
    endloop
  endfacet
  facet normal 0 0 1
    outer loop
      vertex 10 70 7
      vertex 12.5729 103.237 7
      vertex 12.2107 103.896 7
    endloop
  endfacet
  facet normal 0 0 1
    outer loop
      vertex 13.0877 72.3115 7
      vertex 10 70 7
      vertex 12.5729 71.7634 7
    endloop
  endfacet
  facet normal 0 0 1
    outer loop
      vertex 10 110 7
      vertex 12.2107 103.896 7
      vertex 12.0237 104.624 7
    endloop
  endfacet
  facet normal 0 0 1
    outer loop
      vertex 10 70 7
      vertex 12.2107 103.896 7
      vertex 10 110 7
    endloop
  endfacet
  facet normal 0 0 1
    outer loop
      vertex 17.9058 104.254 7
      vertex 20 110 7
      vertex 18 105 7
    endloop
  endfacet
  facet normal 0 0 1
    outer loop
      vertex 20 110 7
      vertex 17.9058 105.746 7
      vertex 18 105 7
    endloop
  endfacet
  facet normal 0 0 1
    outer loop
      vertex 20 110 7
      vertex 17.6289 106.445 7
      vertex 17.9058 105.746 7
    endloop
  endfacet
  facet normal 0 0 1
    outer loop
      vertex 20 110 7
      vertex 17.1869 107.054 7
      vertex 17.6289 106.445 7
    endloop
  endfacet
  facet normal 0 0 1
    outer loop
      vertex 20 110 7
      vertex 16.6075 107.533 7
      vertex 17.1869 107.054 7
    endloop
  endfacet
  facet normal 0 0 1
    outer loop
      vertex 20 110 7
      vertex 15.9271 107.853 7
      vertex 16.6075 107.533 7
    endloop
  endfacet
  facet normal 0 0 1
    outer loop
      vertex 20 110 7
      vertex 15.1884 107.994 7
      vertex 15.9271 107.853 7
    endloop
  endfacet
  facet normal -0 0 1
    outer loop
      vertex 10 110 7
      vertex 15.1884 107.994 7
      vertex 20 110 7
    endloop
  endfacet
  facet normal 0 0 1
    outer loop
      vertex 15.1884 107.994 7
      vertex 10 110 7
      vertex 14.4379 107.947 7
    endloop
  endfacet
  facet normal 0 0 1
    outer loop
      vertex 10 110 7
      vertex 12.0237 104.624 7
      vertex 12.0237 105.376 7
    endloop
  endfacet
  facet normal 0 0 1
    outer loop
      vertex 12.5729 71.7634 7
      vertex 10 70 7
      vertex 12.2107 71.1044 7
    endloop
  endfacet
  facet normal 0 0 1
    outer loop
      vertex 12.2107 71.1044 7
      vertex 10 70 7
      vertex 12.0237 70.376 7
    endloop
  endfacet
  facet normal 0 0 1
    outer loop
      vertex 12.2107 106.104 7
      vertex 10 110 7
      vertex 12.0237 105.376 7
    endloop
  endfacet
  facet normal 0 0 1
    outer loop
      vertex 12.5729 106.763 7
      vertex 10 110 7
      vertex 12.2107 106.104 7
    endloop
  endfacet
  facet normal 0 0 1
    outer loop
      vertex 13.0877 107.312 7
      vertex 10 110 7
      vertex 12.5729 106.763 7
    endloop
  endfacet
  facet normal 0 0 1
    outer loop
      vertex 13.7227 107.714 7
      vertex 10 110 7
      vertex 13.0877 107.312 7
    endloop
  endfacet
  facet normal 0 0 1
    outer loop
      vertex 14.4379 107.947 7
      vertex 10 110 7
      vertex 13.7227 107.714 7
    endloop
  endfacet
  facet normal 0 0 1
    outer loop
      vertex 20 110 7
      vertex 18 70 7
      vertex 20 30 7
    endloop
  endfacet
  facet normal -0 0 1
    outer loop
      vertex 17.9058 69.2539 7
      vertex 20 30 7
      vertex 18 70 7
    endloop
  endfacet
  facet normal -0 0 1
    outer loop
      vertex 17.6289 68.5547 7
      vertex 20 30 7
      vertex 17.9058 69.2539 7
    endloop
  endfacet
  facet normal -0 0 1
    outer loop
      vertex 17.1869 67.9464 7
      vertex 20 30 7
      vertex 17.6289 68.5547 7
    endloop
  endfacet
  facet normal -0 0 1
    outer loop
      vertex 16.6075 67.467 7
      vertex 20 30 7
      vertex 17.1869 67.9464 7
    endloop
  endfacet
  facet normal -0 0 1
    outer loop
      vertex 15.9271 67.1468 7
      vertex 20 30 7
      vertex 16.6075 67.467 7
    endloop
  endfacet
  facet normal -0 0 1
    outer loop
      vertex 15.1884 67.0059 7
      vertex 20 30 7
      vertex 15.9271 67.1468 7
    endloop
  endfacet
  facet normal 0 0 1
    outer loop
      vertex 15 30 7
      vertex 20 30 7
      vertex 15.1884 67.0059 7
    endloop
  endfacet
  facet normal 0 0 1
    outer loop
      vertex 20 30 7
      vertex 15 30 7
      vertex 10 0 7
    endloop
  endfacet
  facet normal -0.992278 -0.124035 0
    outer loop
      vertex 15 30 0
      vertex 10 70 7
      vertex 10 70 0
    endloop
  endfacet
  facet normal -0.992278 -0.124035 0
    outer loop
      vertex 10 70 7
      vertex 15 30 0
      vertex 15 30 7
    endloop
  endfacet
  facet normal 1 0 0
    outer loop
      vertex 20 110 7
      vertex 20 95 5
      vertex 20 110 5
    endloop
  endfacet
  facet normal 1 0 0
    outer loop
      vertex 20 95 5
      vertex 20 30 7
      vertex 20 95 2
    endloop
  endfacet
  facet normal 1 -0 0
    outer loop
      vertex 20 30 7
      vertex 20 95 5
      vertex 20 110 7
    endloop
  endfacet
  facet normal 1 -0 0
    outer loop
      vertex 20 95 2
      vertex 20 110 0
      vertex 20 110 2
    endloop
  endfacet
  facet normal 1 0 0
    outer loop
      vertex 20 30 0
      vertex 20 95 2
      vertex 20 30 7
    endloop
  endfacet
  facet normal 1 0 0
    outer loop
      vertex 20 95 2
      vertex 20 30 0
      vertex 20 110 0
    endloop
  endfacet
  facet normal -1 0 0
    outer loop
      vertex 10 110 0
      vertex 10 95 2
      vertex 10 110 2
    endloop
  endfacet
  facet normal -1 -0 0
    outer loop
      vertex 10 95 2
      vertex 10 70 0
      vertex 10 95 5
    endloop
  endfacet
  facet normal -1 0 0
    outer loop
      vertex 10 70 0
      vertex 10 95 2
      vertex 10 110 0
    endloop
  endfacet
  facet normal -1 0 0
    outer loop
      vertex 10 95 5
      vertex 10 110 7
      vertex 10 110 5
    endloop
  endfacet
  facet normal -1 0 0
    outer loop
      vertex 10 95 5
      vertex 10 70 7
      vertex 10 110 7
    endloop
  endfacet
  facet normal -1 0 0
    outer loop
      vertex 10 70 7
      vertex 10 95 5
      vertex 10 70 0
    endloop
  endfacet
  facet normal 0 1 -0
    outer loop
      vertex 20 110 0
      vertex 10 110 2
      vertex 20 110 2
    endloop
  endfacet
  facet normal 0 1 0
    outer loop
      vertex 10 110 2
      vertex 20 110 0
      vertex 10 110 0
    endloop
  endfacet
  facet normal 0 1 -0
    outer loop
      vertex 20 110 5
      vertex 10 110 7
      vertex 20 110 7
    endloop
  endfacet
  facet normal 0 1 0
    outer loop
      vertex 10 110 7
      vertex 20 110 5
      vertex 10 110 5
    endloop
  endfacet
  facet normal -0.992115 -0.125332 0
    outer loop
      vertex 18 70 0
      vertex 17.9058 70.7461 7
      vertex 17.9058 70.7461 0
    endloop
  endfacet
  facet normal -0.992115 -0.125332 0
    outer loop
      vertex 17.9058 70.7461 7
      vertex 18 70 0
      vertex 18 70 7
    endloop
  endfacet
  facet normal 1 -0 0
    outer loop
      vertex 12.0237 69.624 7
      vertex 12.0237 70.376 0
      vertex 12.0237 70.376 7
    endloop
  endfacet
  facet normal 1 0 0
    outer loop
      vertex 12.0237 70.376 0
      vertex 12.0237 69.624 7
      vertex 12.0237 69.624 0
    endloop
  endfacet
  facet normal 0.0627904 -0.998027 0
    outer loop
      vertex 14.4379 72.9469 0
      vertex 15.1884 72.9941 7
      vertex 14.4379 72.9469 7
    endloop
  endfacet
  facet normal 0.0627904 -0.998027 0
    outer loop
      vertex 15.1884 72.9941 7
      vertex 14.4379 72.9469 0
      vertex 15.1884 72.9941 0
    endloop
  endfacet
  facet normal -0.187377 0.982288 0
    outer loop
      vertex 15.9271 67.1468 0
      vertex 15.1884 67.0059 7
      vertex 15.9271 67.1468 7
    endloop
  endfacet
  facet normal -0.187377 0.982288 0
    outer loop
      vertex 15.1884 67.0059 7
      vertex 15.9271 67.1468 0
      vertex 15.1884 67.0059 0
    endloop
  endfacet
  facet normal -0.637422 -0.770515 0
    outer loop
      vertex 16.6075 72.533 0
      vertex 17.1869 72.0536 7
      vertex 16.6075 72.533 7
    endloop
  endfacet
  facet normal -0.637422 -0.770515 -0
    outer loop
      vertex 17.1869 72.0536 7
      vertex 16.6075 72.533 0
      vertex 17.1869 72.0536 0
    endloop
  endfacet
  facet normal -0.929775 -0.368127 0
    outer loop
      vertex 17.9058 70.7461 0
      vertex 17.6289 71.4453 7
      vertex 17.6289 71.4453 0
    endloop
  endfacet
  facet normal -0.929775 -0.368127 0
    outer loop
      vertex 17.6289 71.4453 7
      vertex 17.9058 70.7461 0
      vertex 17.9058 70.7461 7
    endloop
  endfacet
  facet normal -0.425785 -0.904824 0
    outer loop
      vertex 15.9271 72.8532 0
      vertex 16.6075 72.533 7
      vertex 15.9271 72.8532 7
    endloop
  endfacet
  facet normal -0.425785 -0.904824 -0
    outer loop
      vertex 16.6075 72.533 7
      vertex 15.9271 72.8532 0
      vertex 16.6075 72.533 0
    endloop
  endfacet
  facet normal 0.728971 -0.684545 0
    outer loop
      vertex 12.5729 71.7634 7
      vertex 13.0877 72.3115 0
      vertex 13.0877 72.3115 7
    endloop
  endfacet
  facet normal 0.728971 -0.684545 0
    outer loop
      vertex 13.0877 72.3115 0
      vertex 12.5729 71.7634 7
      vertex 12.5729 71.7634 0
    endloop
  endfacet
  facet normal 0.535824 -0.84433 0
    outer loop
      vertex 13.0877 72.3115 0
      vertex 13.7227 72.7145 7
      vertex 13.0877 72.3115 7
    endloop
  endfacet
  facet normal 0.535824 -0.84433 0
    outer loop
      vertex 13.7227 72.7145 7
      vertex 13.0877 72.3115 0
      vertex 13.7227 72.7145 0
    endloop
  endfacet
  facet normal -0.809018 -0.587784 0
    outer loop
      vertex 17.6289 71.4453 0
      vertex 17.1869 72.0536 7
      vertex 17.1869 72.0536 0
    endloop
  endfacet
  facet normal -0.809018 -0.587784 0
    outer loop
      vertex 17.1869 72.0536 7
      vertex 17.6289 71.4453 0
      vertex 17.6289 71.4453 7
    endloop
  endfacet
  facet normal -0.187377 -0.982288 0
    outer loop
      vertex 15.1884 72.9941 0
      vertex 15.9271 72.8532 7
      vertex 15.1884 72.9941 7
    endloop
  endfacet
  facet normal -0.187377 -0.982288 -0
    outer loop
      vertex 15.9271 72.8532 7
      vertex 15.1884 72.9941 0
      vertex 15.9271 72.8532 0
    endloop
  endfacet
  facet normal 0.876307 -0.481754 0
    outer loop
      vertex 12.2107 71.1044 7
      vertex 12.5729 71.7634 0
      vertex 12.5729 71.7634 7
    endloop
  endfacet
  facet normal 0.876307 -0.481754 0
    outer loop
      vertex 12.5729 71.7634 0
      vertex 12.2107 71.1044 7
      vertex 12.2107 71.1044 0
    endloop
  endfacet
  facet normal 0.968583 -0.248691 0
    outer loop
      vertex 12.0237 70.376 7
      vertex 12.2107 71.1044 0
      vertex 12.2107 71.1044 7
    endloop
  endfacet
  facet normal 0.968583 -0.248691 0
    outer loop
      vertex 12.2107 71.1044 0
      vertex 12.0237 70.376 7
      vertex 12.0237 70.376 0
    endloop
  endfacet
  facet normal 0.309021 -0.951055 0
    outer loop
      vertex 13.7227 72.7145 0
      vertex 14.4379 72.9469 7
      vertex 13.7227 72.7145 7
    endloop
  endfacet
  facet normal 0.309021 -0.951055 0
    outer loop
      vertex 14.4379 72.9469 7
      vertex 13.7227 72.7145 0
      vertex 14.4379 72.9469 0
    endloop
  endfacet
  facet normal -0.992115 0.125332 0
    outer loop
      vertex 17.9058 69.2539 0
      vertex 18 70 7
      vertex 18 70 0
    endloop
  endfacet
  facet normal -0.992115 0.125332 0
    outer loop
      vertex 18 70 7
      vertex 17.9058 69.2539 0
      vertex 17.9058 69.2539 7
    endloop
  endfacet
  facet normal -0.809018 0.587784 0
    outer loop
      vertex 17.1869 67.9464 0
      vertex 17.6289 68.5547 7
      vertex 17.6289 68.5547 0
    endloop
  endfacet
  facet normal -0.809018 0.587784 0
    outer loop
      vertex 17.6289 68.5547 7
      vertex 17.1869 67.9464 0
      vertex 17.1869 67.9464 7
    endloop
  endfacet
  facet normal -0.929775 0.368127 0
    outer loop
      vertex 17.6289 68.5547 0
      vertex 17.9058 69.2539 7
      vertex 17.9058 69.2539 0
    endloop
  endfacet
  facet normal -0.929775 0.368127 0
    outer loop
      vertex 17.9058 69.2539 7
      vertex 17.6289 68.5547 0
      vertex 17.6289 68.5547 7
    endloop
  endfacet
  facet normal 0.728966 0.68455 0
    outer loop
      vertex 13.0877 67.6885 7
      vertex 12.5729 68.2366 0
      vertex 12.5729 68.2366 7
    endloop
  endfacet
  facet normal 0.728966 0.68455 0
    outer loop
      vertex 12.5729 68.2366 0
      vertex 13.0877 67.6885 7
      vertex 13.0877 67.6885 0
    endloop
  endfacet
  facet normal -0.425785 0.904824 0
    outer loop
      vertex 16.6075 67.467 0
      vertex 15.9271 67.1468 7
      vertex 16.6075 67.467 7
    endloop
  endfacet
  facet normal -0.425785 0.904824 0
    outer loop
      vertex 15.9271 67.1468 7
      vertex 16.6075 67.467 0
      vertex 15.9271 67.1468 0
    endloop
  endfacet
  facet normal 0.0627904 0.998027 -0
    outer loop
      vertex 15.1884 67.0059 0
      vertex 14.4379 67.0531 7
      vertex 15.1884 67.0059 7
    endloop
  endfacet
  facet normal 0.0627904 0.998027 0
    outer loop
      vertex 14.4379 67.0531 7
      vertex 15.1884 67.0059 0
      vertex 14.4379 67.0531 0
    endloop
  endfacet
  facet normal 0.535824 0.84433 -0
    outer loop
      vertex 13.7227 67.2855 0
      vertex 13.0877 67.6885 7
      vertex 13.7227 67.2855 7
    endloop
  endfacet
  facet normal 0.535824 0.84433 0
    outer loop
      vertex 13.0877 67.6885 7
      vertex 13.7227 67.2855 0
      vertex 13.0877 67.6885 0
    endloop
  endfacet
  facet normal 0.309021 0.951055 -0
    outer loop
      vertex 14.4379 67.0531 0
      vertex 13.7227 67.2855 7
      vertex 14.4379 67.0531 7
    endloop
  endfacet
  facet normal 0.309021 0.951055 0
    outer loop
      vertex 13.7227 67.2855 7
      vertex 14.4379 67.0531 0
      vertex 13.7227 67.2855 0
    endloop
  endfacet
  facet normal 0.876309 0.481749 0
    outer loop
      vertex 12.5729 68.2366 7
      vertex 12.2107 68.8956 0
      vertex 12.2107 68.8956 7
    endloop
  endfacet
  facet normal 0.876309 0.481749 0
    outer loop
      vertex 12.2107 68.8956 0
      vertex 12.5729 68.2366 7
      vertex 12.5729 68.2366 0
    endloop
  endfacet
  facet normal 0.968583 0.248691 0
    outer loop
      vertex 12.2107 68.8956 7
      vertex 12.0237 69.624 0
      vertex 12.0237 69.624 7
    endloop
  endfacet
  facet normal 0.968583 0.248691 0
    outer loop
      vertex 12.0237 69.624 0
      vertex 12.2107 68.8956 7
      vertex 12.2107 68.8956 0
    endloop
  endfacet
  facet normal -0.637422 0.770515 0
    outer loop
      vertex 17.1869 67.9464 0
      vertex 16.6075 67.467 7
      vertex 17.1869 67.9464 7
    endloop
  endfacet
  facet normal -0.637422 0.770515 0
    outer loop
      vertex 16.6075 67.467 7
      vertex 17.1869 67.9464 0
      vertex 16.6075 67.467 0
    endloop
  endfacet
  facet normal -0.992115 -0.125332 0
    outer loop
      vertex 18 105 0
      vertex 17.9058 105.746 2
      vertex 17.9058 105.746 0
    endloop
  endfacet
  facet normal -0.992115 -0.125332 0
    outer loop
      vertex 17.9058 105.746 2
      vertex 18 105 0
      vertex 18 105 2
    endloop
  endfacet
  facet normal -0.992115 -0.125332 0
    outer loop
      vertex 18 105 5
      vertex 17.9058 105.746 7
      vertex 17.9058 105.746 5
    endloop
  endfacet
  facet normal -0.992115 -0.125332 0
    outer loop
      vertex 17.9058 105.746 7
      vertex 18 105 5
      vertex 18 105 7
    endloop
  endfacet
  facet normal 1 -0 0
    outer loop
      vertex 12.0237 104.624 2
      vertex 12.0237 105.376 0
      vertex 12.0237 105.376 2
    endloop
  endfacet
  facet normal 1 0 0
    outer loop
      vertex 12.0237 105.376 0
      vertex 12.0237 104.624 2
      vertex 12.0237 104.624 0
    endloop
  endfacet
  facet normal 1 -0 0
    outer loop
      vertex 12.0237 104.624 7
      vertex 12.0237 105.376 5
      vertex 12.0237 105.376 7
    endloop
  endfacet
  facet normal 1 0 0
    outer loop
      vertex 12.0237 105.376 5
      vertex 12.0237 104.624 7
      vertex 12.0237 104.624 5
    endloop
  endfacet
  facet normal 0.0627904 -0.998027 0
    outer loop
      vertex 14.4379 107.947 0
      vertex 15.1884 107.994 2
      vertex 14.4379 107.947 2
    endloop
  endfacet
  facet normal 0.0627904 -0.998027 0
    outer loop
      vertex 15.1884 107.994 2
      vertex 14.4379 107.947 0
      vertex 15.1884 107.994 0
    endloop
  endfacet
  facet normal 0.0627904 -0.998027 0
    outer loop
      vertex 14.4379 107.947 5
      vertex 15.1884 107.994 7
      vertex 14.4379 107.947 7
    endloop
  endfacet
  facet normal 0.0627904 -0.998027 0
    outer loop
      vertex 15.1884 107.994 7
      vertex 14.4379 107.947 5
      vertex 15.1884 107.994 5
    endloop
  endfacet
  facet normal -0.187377 0.982288 0
    outer loop
      vertex 15.9271 102.147 0
      vertex 15.1884 102.006 2
      vertex 15.9271 102.147 2
    endloop
  endfacet
  facet normal -0.187377 0.982288 0
    outer loop
      vertex 15.1884 102.006 2
      vertex 15.9271 102.147 0
      vertex 15.1884 102.006 0
    endloop
  endfacet
  facet normal -0.187377 0.982288 0
    outer loop
      vertex 15.9271 102.147 5
      vertex 15.1884 102.006 7
      vertex 15.9271 102.147 7
    endloop
  endfacet
  facet normal -0.187377 0.982288 0
    outer loop
      vertex 15.1884 102.006 7
      vertex 15.9271 102.147 5
      vertex 15.1884 102.006 5
    endloop
  endfacet
  facet normal -0.637422 -0.770515 0
    outer loop
      vertex 16.6075 107.533 0
      vertex 17.1869 107.054 2
      vertex 16.6075 107.533 2
    endloop
  endfacet
  facet normal -0.637422 -0.770515 -0
    outer loop
      vertex 17.1869 107.054 2
      vertex 16.6075 107.533 0
      vertex 17.1869 107.054 0
    endloop
  endfacet
  facet normal -0.637422 -0.770515 0
    outer loop
      vertex 16.6075 107.533 5
      vertex 17.1869 107.054 7
      vertex 16.6075 107.533 7
    endloop
  endfacet
  facet normal -0.637422 -0.770515 -0
    outer loop
      vertex 17.1869 107.054 7
      vertex 16.6075 107.533 5
      vertex 17.1869 107.054 5
    endloop
  endfacet
  facet normal -0.929775 -0.368127 0
    outer loop
      vertex 17.9058 105.746 0
      vertex 17.6289 106.445 2
      vertex 17.6289 106.445 0
    endloop
  endfacet
  facet normal -0.929775 -0.368127 0
    outer loop
      vertex 17.6289 106.445 2
      vertex 17.9058 105.746 0
      vertex 17.9058 105.746 2
    endloop
  endfacet
  facet normal -0.929775 -0.368127 0
    outer loop
      vertex 17.9058 105.746 5
      vertex 17.6289 106.445 7
      vertex 17.6289 106.445 5
    endloop
  endfacet
  facet normal -0.929775 -0.368127 0
    outer loop
      vertex 17.6289 106.445 7
      vertex 17.9058 105.746 5
      vertex 17.9058 105.746 7
    endloop
  endfacet
  facet normal -0.425785 -0.904824 0
    outer loop
      vertex 15.9271 107.853 0
      vertex 16.6075 107.533 2
      vertex 15.9271 107.853 2
    endloop
  endfacet
  facet normal -0.425785 -0.904824 -0
    outer loop
      vertex 16.6075 107.533 2
      vertex 15.9271 107.853 0
      vertex 16.6075 107.533 0
    endloop
  endfacet
  facet normal -0.425785 -0.904824 0
    outer loop
      vertex 15.9271 107.853 5
      vertex 16.6075 107.533 7
      vertex 15.9271 107.853 7
    endloop
  endfacet
  facet normal -0.425785 -0.904824 -0
    outer loop
      vertex 16.6075 107.533 7
      vertex 15.9271 107.853 5
      vertex 16.6075 107.533 5
    endloop
  endfacet
  facet normal 0.728971 -0.684545 0
    outer loop
      vertex 12.5729 106.763 2
      vertex 13.0877 107.312 0
      vertex 13.0877 107.312 2
    endloop
  endfacet
  facet normal 0.728971 -0.684545 0
    outer loop
      vertex 13.0877 107.312 0
      vertex 12.5729 106.763 2
      vertex 12.5729 106.763 0
    endloop
  endfacet
  facet normal 0.728971 -0.684545 0
    outer loop
      vertex 12.5729 106.763 7
      vertex 13.0877 107.312 5
      vertex 13.0877 107.312 7
    endloop
  endfacet
  facet normal 0.728971 -0.684545 0
    outer loop
      vertex 13.0877 107.312 5
      vertex 12.5729 106.763 7
      vertex 12.5729 106.763 5
    endloop
  endfacet
  facet normal 0.535824 -0.84433 0
    outer loop
      vertex 13.0877 107.312 0
      vertex 13.7227 107.714 2
      vertex 13.0877 107.312 2
    endloop
  endfacet
  facet normal 0.535824 -0.84433 0
    outer loop
      vertex 13.7227 107.714 2
      vertex 13.0877 107.312 0
      vertex 13.7227 107.714 0
    endloop
  endfacet
  facet normal 0.535824 -0.84433 0
    outer loop
      vertex 13.0877 107.312 5
      vertex 13.7227 107.714 7
      vertex 13.0877 107.312 7
    endloop
  endfacet
  facet normal 0.535824 -0.84433 0
    outer loop
      vertex 13.7227 107.714 7
      vertex 13.0877 107.312 5
      vertex 13.7227 107.714 5
    endloop
  endfacet
  facet normal -0.809018 -0.587784 0
    outer loop
      vertex 17.6289 106.445 0
      vertex 17.1869 107.054 2
      vertex 17.1869 107.054 0
    endloop
  endfacet
  facet normal -0.809018 -0.587784 0
    outer loop
      vertex 17.1869 107.054 2
      vertex 17.6289 106.445 0
      vertex 17.6289 106.445 2
    endloop
  endfacet
  facet normal -0.809018 -0.587784 0
    outer loop
      vertex 17.6289 106.445 5
      vertex 17.1869 107.054 7
      vertex 17.1869 107.054 5
    endloop
  endfacet
  facet normal -0.809018 -0.587784 0
    outer loop
      vertex 17.1869 107.054 7
      vertex 17.6289 106.445 5
      vertex 17.6289 106.445 7
    endloop
  endfacet
  facet normal -0.187377 -0.982288 0
    outer loop
      vertex 15.1884 107.994 0
      vertex 15.9271 107.853 2
      vertex 15.1884 107.994 2
    endloop
  endfacet
  facet normal -0.187377 -0.982288 -0
    outer loop
      vertex 15.9271 107.853 2
      vertex 15.1884 107.994 0
      vertex 15.9271 107.853 0
    endloop
  endfacet
  facet normal -0.187377 -0.982288 0
    outer loop
      vertex 15.1884 107.994 5
      vertex 15.9271 107.853 7
      vertex 15.1884 107.994 7
    endloop
  endfacet
  facet normal -0.187377 -0.982288 -0
    outer loop
      vertex 15.9271 107.853 7
      vertex 15.1884 107.994 5
      vertex 15.9271 107.853 5
    endloop
  endfacet
  facet normal 0.876307 -0.481754 0
    outer loop
      vertex 12.2107 106.104 2
      vertex 12.5729 106.763 0
      vertex 12.5729 106.763 2
    endloop
  endfacet
  facet normal 0.876307 -0.481754 0
    outer loop
      vertex 12.5729 106.763 0
      vertex 12.2107 106.104 2
      vertex 12.2107 106.104 0
    endloop
  endfacet
  facet normal 0.876307 -0.481754 0
    outer loop
      vertex 12.2107 106.104 7
      vertex 12.5729 106.763 5
      vertex 12.5729 106.763 7
    endloop
  endfacet
  facet normal 0.876307 -0.481754 0
    outer loop
      vertex 12.5729 106.763 5
      vertex 12.2107 106.104 7
      vertex 12.2107 106.104 5
    endloop
  endfacet
  facet normal 0.968583 -0.248691 0
    outer loop
      vertex 12.0237 105.376 2
      vertex 12.2107 106.104 0
      vertex 12.2107 106.104 2
    endloop
  endfacet
  facet normal 0.968583 -0.248691 0
    outer loop
      vertex 12.2107 106.104 0
      vertex 12.0237 105.376 2
      vertex 12.0237 105.376 0
    endloop
  endfacet
  facet normal 0.968583 -0.248691 0
    outer loop
      vertex 12.0237 105.376 7
      vertex 12.2107 106.104 5
      vertex 12.2107 106.104 7
    endloop
  endfacet
  facet normal 0.968583 -0.248691 0
    outer loop
      vertex 12.2107 106.104 5
      vertex 12.0237 105.376 7
      vertex 12.0237 105.376 5
    endloop
  endfacet
  facet normal 0.309021 -0.951055 0
    outer loop
      vertex 13.7227 107.714 0
      vertex 14.4379 107.947 2
      vertex 13.7227 107.714 2
    endloop
  endfacet
  facet normal 0.309021 -0.951055 0
    outer loop
      vertex 14.4379 107.947 2
      vertex 13.7227 107.714 0
      vertex 14.4379 107.947 0
    endloop
  endfacet
  facet normal 0.309021 -0.951055 0
    outer loop
      vertex 13.7227 107.714 5
      vertex 14.4379 107.947 7
      vertex 13.7227 107.714 7
    endloop
  endfacet
  facet normal 0.309021 -0.951055 0
    outer loop
      vertex 14.4379 107.947 7
      vertex 13.7227 107.714 5
      vertex 14.4379 107.947 5
    endloop
  endfacet
  facet normal -0.992115 0.125332 0
    outer loop
      vertex 17.9058 104.254 0
      vertex 18 105 2
      vertex 18 105 0
    endloop
  endfacet
  facet normal -0.992115 0.125332 0
    outer loop
      vertex 18 105 2
      vertex 17.9058 104.254 0
      vertex 17.9058 104.254 2
    endloop
  endfacet
  facet normal -0.992115 0.125332 0
    outer loop
      vertex 17.9058 104.254 5
      vertex 18 105 7
      vertex 18 105 5
    endloop
  endfacet
  facet normal -0.992115 0.125332 0
    outer loop
      vertex 18 105 7
      vertex 17.9058 104.254 5
      vertex 17.9058 104.254 7
    endloop
  endfacet
  facet normal -0.809018 0.587784 0
    outer loop
      vertex 17.1869 102.946 0
      vertex 17.6289 103.555 2
      vertex 17.6289 103.555 0
    endloop
  endfacet
  facet normal -0.809018 0.587784 0
    outer loop
      vertex 17.6289 103.555 2
      vertex 17.1869 102.946 0
      vertex 17.1869 102.946 2
    endloop
  endfacet
  facet normal -0.809018 0.587784 0
    outer loop
      vertex 17.1869 102.946 5
      vertex 17.6289 103.555 7
      vertex 17.6289 103.555 5
    endloop
  endfacet
  facet normal -0.809018 0.587784 0
    outer loop
      vertex 17.6289 103.555 7
      vertex 17.1869 102.946 5
      vertex 17.1869 102.946 7
    endloop
  endfacet
  facet normal -0.929775 0.368127 0
    outer loop
      vertex 17.6289 103.555 0
      vertex 17.9058 104.254 2
      vertex 17.9058 104.254 0
    endloop
  endfacet
  facet normal -0.929775 0.368127 0
    outer loop
      vertex 17.9058 104.254 2
      vertex 17.6289 103.555 0
      vertex 17.6289 103.555 2
    endloop
  endfacet
  facet normal -0.929775 0.368127 0
    outer loop
      vertex 17.6289 103.555 5
      vertex 17.9058 104.254 7
      vertex 17.9058 104.254 5
    endloop
  endfacet
  facet normal -0.929775 0.368127 0
    outer loop
      vertex 17.9058 104.254 7
      vertex 17.6289 103.555 5
      vertex 17.6289 103.555 7
    endloop
  endfacet
  facet normal 0.728966 0.68455 0
    outer loop
      vertex 13.0877 102.688 7
      vertex 12.5729 103.237 5
      vertex 12.5729 103.237 7
    endloop
  endfacet
  facet normal 0.728966 0.68455 0
    outer loop
      vertex 12.5729 103.237 5
      vertex 13.0877 102.688 7
      vertex 13.0877 102.688 5
    endloop
  endfacet
  facet normal 0.728966 0.68455 0
    outer loop
      vertex 13.0877 102.688 2
      vertex 12.5729 103.237 0
      vertex 12.5729 103.237 2
    endloop
  endfacet
  facet normal 0.728966 0.68455 0
    outer loop
      vertex 12.5729 103.237 0
      vertex 13.0877 102.688 2
      vertex 13.0877 102.688 0
    endloop
  endfacet
  facet normal 0.968583 0.248691 0
    outer loop
      vertex 12.2107 103.896 7
      vertex 12.0237 104.624 5
      vertex 12.0237 104.624 7
    endloop
  endfacet
  facet normal 0.968583 0.248691 0
    outer loop
      vertex 12.0237 104.624 5
      vertex 12.2107 103.896 7
      vertex 12.2107 103.896 5
    endloop
  endfacet
  facet normal 0.968583 0.248691 0
    outer loop
      vertex 12.2107 103.896 2
      vertex 12.0237 104.624 0
      vertex 12.0237 104.624 2
    endloop
  endfacet
  facet normal 0.968583 0.248691 0
    outer loop
      vertex 12.0237 104.624 0
      vertex 12.2107 103.896 2
      vertex 12.2107 103.896 0
    endloop
  endfacet
  facet normal 0.0627904 0.998027 -0
    outer loop
      vertex 15.1884 102.006 0
      vertex 14.4379 102.053 2
      vertex 15.1884 102.006 2
    endloop
  endfacet
  facet normal 0.0627904 0.998027 0
    outer loop
      vertex 14.4379 102.053 2
      vertex 15.1884 102.006 0
      vertex 14.4379 102.053 0
    endloop
  endfacet
  facet normal 0.0627904 0.998027 -0
    outer loop
      vertex 15.1884 102.006 5
      vertex 14.4379 102.053 7
      vertex 15.1884 102.006 7
    endloop
  endfacet
  facet normal 0.0627904 0.998027 0
    outer loop
      vertex 14.4379 102.053 7
      vertex 15.1884 102.006 5
      vertex 14.4379 102.053 5
    endloop
  endfacet
  facet normal 0.535824 0.84433 -0
    outer loop
      vertex 13.7227 102.286 5
      vertex 13.0877 102.688 7
      vertex 13.7227 102.286 7
    endloop
  endfacet
  facet normal 0.535824 0.84433 0
    outer loop
      vertex 13.0877 102.688 7
      vertex 13.7227 102.286 5
      vertex 13.0877 102.688 5
    endloop
  endfacet
  facet normal 0.535824 0.84433 -0
    outer loop
      vertex 13.7227 102.286 0
      vertex 13.0877 102.688 2
      vertex 13.7227 102.286 2
    endloop
  endfacet
  facet normal 0.535824 0.84433 0
    outer loop
      vertex 13.0877 102.688 2
      vertex 13.7227 102.286 0
      vertex 13.0877 102.688 0
    endloop
  endfacet
  facet normal 0.309021 0.951055 -0
    outer loop
      vertex 14.4379 102.053 5
      vertex 13.7227 102.286 7
      vertex 14.4379 102.053 7
    endloop
  endfacet
  facet normal 0.309021 0.951055 0
    outer loop
      vertex 13.7227 102.286 7
      vertex 14.4379 102.053 5
      vertex 13.7227 102.286 5
    endloop
  endfacet
  facet normal 0.309021 0.951055 -0
    outer loop
      vertex 14.4379 102.053 0
      vertex 13.7227 102.286 2
      vertex 14.4379 102.053 2
    endloop
  endfacet
  facet normal 0.309021 0.951055 0
    outer loop
      vertex 13.7227 102.286 2
      vertex 14.4379 102.053 0
      vertex 13.7227 102.286 0
    endloop
  endfacet
  facet normal 0.876309 0.481749 0
    outer loop
      vertex 12.5729 103.237 7
      vertex 12.2107 103.896 5
      vertex 12.2107 103.896 7
    endloop
  endfacet
  facet normal 0.876309 0.481749 0
    outer loop
      vertex 12.2107 103.896 5
      vertex 12.5729 103.237 7
      vertex 12.5729 103.237 5
    endloop
  endfacet
  facet normal 0.876309 0.481749 0
    outer loop
      vertex 12.5729 103.237 2
      vertex 12.2107 103.896 0
      vertex 12.2107 103.896 2
    endloop
  endfacet
  facet normal 0.876309 0.481749 0
    outer loop
      vertex 12.2107 103.896 0
      vertex 12.5729 103.237 2
      vertex 12.5729 103.237 0
    endloop
  endfacet
  facet normal -0.637422 0.770515 0
    outer loop
      vertex 17.1869 102.946 0
      vertex 16.6075 102.467 2
      vertex 17.1869 102.946 2
    endloop
  endfacet
  facet normal -0.637422 0.770515 0
    outer loop
      vertex 16.6075 102.467 2
      vertex 17.1869 102.946 0
      vertex 16.6075 102.467 0
    endloop
  endfacet
  facet normal -0.637422 0.770515 0
    outer loop
      vertex 17.1869 102.946 5
      vertex 16.6075 102.467 7
      vertex 17.1869 102.946 7
    endloop
  endfacet
  facet normal -0.637422 0.770515 0
    outer loop
      vertex 16.6075 102.467 7
      vertex 17.1869 102.946 5
      vertex 16.6075 102.467 5
    endloop
  endfacet
  facet normal -0.425785 0.904824 0
    outer loop
      vertex 16.6075 102.467 0
      vertex 15.9271 102.147 2
      vertex 16.6075 102.467 2
    endloop
  endfacet
  facet normal -0.425785 0.904824 0
    outer loop
      vertex 15.9271 102.147 2
      vertex 16.6075 102.467 0
      vertex 15.9271 102.147 0
    endloop
  endfacet
  facet normal -0.425785 0.904824 0
    outer loop
      vertex 16.6075 102.467 5
      vertex 15.9271 102.147 7
      vertex 16.6075 102.467 7
    endloop
  endfacet
  facet normal -0.425785 0.904824 0
    outer loop
      vertex 15.9271 102.147 7
      vertex 16.6075 102.467 5
      vertex 15.9271 102.147 5
    endloop
  endfacet
  facet normal 0 0 -1
    outer loop
      vertex 17.9058 104.254 5
      vertex 20 110 5
      vertex 20 95 5
    endloop
  endfacet
  facet normal 0 0 -1
    outer loop
      vertex 20 110 5
      vertex 17.9058 104.254 5
      vertex 18 105 5
    endloop
  endfacet
  facet normal 0 0 -1
    outer loop
      vertex 20 95 5
      vertex 17.6289 103.555 5
      vertex 17.9058 104.254 5
    endloop
  endfacet
  facet normal 0 0 -1
    outer loop
      vertex 20 95 5
      vertex 17.1869 102.946 5
      vertex 17.6289 103.555 5
    endloop
  endfacet
  facet normal 0 0 -1
    outer loop
      vertex 20 95 5
      vertex 16.6075 102.467 5
      vertex 17.1869 102.946 5
    endloop
  endfacet
  facet normal 0 0 -1
    outer loop
      vertex 20 95 5
      vertex 15.9271 102.147 5
      vertex 16.6075 102.467 5
    endloop
  endfacet
  facet normal 0 0 -1
    outer loop
      vertex 20 95 5
      vertex 15.1884 102.006 5
      vertex 15.9271 102.147 5
    endloop
  endfacet
  facet normal 0 0 -1
    outer loop
      vertex 10 95 5
      vertex 15.1884 102.006 5
      vertex 20 95 5
    endloop
  endfacet
  facet normal -0 0 -1
    outer loop
      vertex 15.1884 102.006 5
      vertex 10 95 5
      vertex 14.4379 102.053 5
    endloop
  endfacet
  facet normal -0 0 -1
    outer loop
      vertex 14.4379 102.053 5
      vertex 10 95 5
      vertex 13.7227 102.286 5
    endloop
  endfacet
  facet normal -0 0 -1
    outer loop
      vertex 13.7227 102.286 5
      vertex 10 95 5
      vertex 13.0877 102.688 5
    endloop
  endfacet
  facet normal 0 0 -1
    outer loop
      vertex 10 110 5
      vertex 12.0237 104.624 5
      vertex 10 95 5
    endloop
  endfacet
  facet normal -0 0 -1
    outer loop
      vertex 12.2107 103.896 5
      vertex 10 95 5
      vertex 12.0237 104.624 5
    endloop
  endfacet
  facet normal -0 0 -1
    outer loop
      vertex 12.5729 103.237 5
      vertex 10 95 5
      vertex 12.2107 103.896 5
    endloop
  endfacet
  facet normal -0 0 -1
    outer loop
      vertex 13.0877 102.688 5
      vertex 10 95 5
      vertex 12.5729 103.237 5
    endloop
  endfacet
  facet normal 0 0 -1
    outer loop
      vertex 17.9058 105.746 5
      vertex 20 110 5
      vertex 18 105 5
    endloop
  endfacet
  facet normal 0 0 -1
    outer loop
      vertex 17.6289 106.445 5
      vertex 20 110 5
      vertex 17.9058 105.746 5
    endloop
  endfacet
  facet normal 0 0 -1
    outer loop
      vertex 17.1869 107.054 5
      vertex 20 110 5
      vertex 17.6289 106.445 5
    endloop
  endfacet
  facet normal 0 0 -1
    outer loop
      vertex 16.6075 107.533 5
      vertex 20 110 5
      vertex 17.1869 107.054 5
    endloop
  endfacet
  facet normal 0 0 -1
    outer loop
      vertex 15.9271 107.853 5
      vertex 20 110 5
      vertex 16.6075 107.533 5
    endloop
  endfacet
  facet normal 0 0 -1
    outer loop
      vertex 15.1884 107.994 5
      vertex 20 110 5
      vertex 15.9271 107.853 5
    endloop
  endfacet
  facet normal 0 0 -1
    outer loop
      vertex 10 110 5
      vertex 15.1884 107.994 5
      vertex 14.4379 107.947 5
    endloop
  endfacet
  facet normal 0 0 -1
    outer loop
      vertex 10 110 5
      vertex 14.4379 107.947 5
      vertex 13.7227 107.714 5
    endloop
  endfacet
  facet normal 0 0 -1
    outer loop
      vertex 15.1884 107.994 5
      vertex 10 110 5
      vertex 20 110 5
    endloop
  endfacet
  facet normal 0 0 -1
    outer loop
      vertex 13.0877 107.312 5
      vertex 10 110 5
      vertex 13.7227 107.714 5
    endloop
  endfacet
  facet normal 0 0 -1
    outer loop
      vertex 12.5729 106.763 5
      vertex 10 110 5
      vertex 13.0877 107.312 5
    endloop
  endfacet
  facet normal 0 0 -1
    outer loop
      vertex 12.2107 106.104 5
      vertex 10 110 5
      vertex 12.5729 106.763 5
    endloop
  endfacet
  facet normal 0 0 -1
    outer loop
      vertex 12.0237 105.376 5
      vertex 10 110 5
      vertex 12.2107 106.104 5
    endloop
  endfacet
  facet normal 0 0 -1
    outer loop
      vertex 12.0237 104.624 5
      vertex 10 110 5
      vertex 12.0237 105.376 5
    endloop
  endfacet
  facet normal 0 0 1
    outer loop
      vertex 17.9058 104.254 2
      vertex 20 110 2
      vertex 18 105 2
    endloop
  endfacet
  facet normal 0 0 1
    outer loop
      vertex 20 110 2
      vertex 17.9058 105.746 2
      vertex 18 105 2
    endloop
  endfacet
  facet normal 0 0 1
    outer loop
      vertex 20 110 2
      vertex 17.6289 106.445 2
      vertex 17.9058 105.746 2
    endloop
  endfacet
  facet normal 0 0 1
    outer loop
      vertex 20 110 2
      vertex 17.1869 107.054 2
      vertex 17.6289 106.445 2
    endloop
  endfacet
  facet normal 0 0 1
    outer loop
      vertex 20 110 2
      vertex 16.6075 107.533 2
      vertex 17.1869 107.054 2
    endloop
  endfacet
  facet normal 0 0 1
    outer loop
      vertex 20 110 2
      vertex 15.9271 107.853 2
      vertex 16.6075 107.533 2
    endloop
  endfacet
  facet normal 0 0 1
    outer loop
      vertex 20 110 2
      vertex 15.1884 107.994 2
      vertex 15.9271 107.853 2
    endloop
  endfacet
  facet normal -0 0 1
    outer loop
      vertex 10 110 2
      vertex 15.1884 107.994 2
      vertex 20 110 2
    endloop
  endfacet
  facet normal 0 0 1
    outer loop
      vertex 15.1884 107.994 2
      vertex 10 110 2
      vertex 14.4379 107.947 2
    endloop
  endfacet
  facet normal 0 0 1
    outer loop
      vertex 12.0237 105.376 2
      vertex 10 110 2
      vertex 12.0237 104.624 2
    endloop
  endfacet
  facet normal 0 0 1
    outer loop
      vertex 12.2107 106.104 2
      vertex 10 110 2
      vertex 12.0237 105.376 2
    endloop
  endfacet
  facet normal 0 0 1
    outer loop
      vertex 12.5729 106.763 2
      vertex 10 110 2
      vertex 12.2107 106.104 2
    endloop
  endfacet
  facet normal 0 0 1
    outer loop
      vertex 13.0877 107.312 2
      vertex 10 110 2
      vertex 12.5729 106.763 2
    endloop
  endfacet
  facet normal 0 0 1
    outer loop
      vertex 13.7227 107.714 2
      vertex 10 110 2
      vertex 13.0877 107.312 2
    endloop
  endfacet
  facet normal 0 0 1
    outer loop
      vertex 14.4379 107.947 2
      vertex 10 110 2
      vertex 13.7227 107.714 2
    endloop
  endfacet
  facet normal 0 0 1
    outer loop
      vertex 20 110 2
      vertex 17.9058 104.254 2
      vertex 20 95 2
    endloop
  endfacet
  facet normal -0 0 1
    outer loop
      vertex 17.6289 103.555 2
      vertex 20 95 2
      vertex 17.9058 104.254 2
    endloop
  endfacet
  facet normal -0 0 1
    outer loop
      vertex 17.1869 102.946 2
      vertex 20 95 2
      vertex 17.6289 103.555 2
    endloop
  endfacet
  facet normal -0 0 1
    outer loop
      vertex 16.6075 102.467 2
      vertex 20 95 2
      vertex 17.1869 102.946 2
    endloop
  endfacet
  facet normal -0 0 1
    outer loop
      vertex 15.9271 102.147 2
      vertex 20 95 2
      vertex 16.6075 102.467 2
    endloop
  endfacet
  facet normal -0 0 1
    outer loop
      vertex 15.1884 102.006 2
      vertex 20 95 2
      vertex 15.9271 102.147 2
    endloop
  endfacet
  facet normal 0 0 1
    outer loop
      vertex 10 95 2
      vertex 15.1884 102.006 2
      vertex 14.4379 102.053 2
    endloop
  endfacet
  facet normal 0 0 1
    outer loop
      vertex 10 95 2
      vertex 14.4379 102.053 2
      vertex 13.7227 102.286 2
    endloop
  endfacet
  facet normal 0 0 1
    outer loop
      vertex 10 95 2
      vertex 13.7227 102.286 2
      vertex 13.0877 102.688 2
    endloop
  endfacet
  facet normal 0 0 1
    outer loop
      vertex 10 95 2
      vertex 13.0877 102.688 2
      vertex 12.5729 103.237 2
    endloop
  endfacet
  facet normal 0 0 1
    outer loop
      vertex 10 95 2
      vertex 12.0237 104.624 2
      vertex 10 110 2
    endloop
  endfacet
  facet normal 0 0 1
    outer loop
      vertex 15.1884 102.006 2
      vertex 10 95 2
      vertex 20 95 2
    endloop
  endfacet
  facet normal 0 0 1
    outer loop
      vertex 12.2107 103.896 2
      vertex 10 95 2
      vertex 12.5729 103.237 2
    endloop
  endfacet
  facet normal 0 0 1
    outer loop
      vertex 12.0237 104.624 2
      vertex 10 95 2
      vertex 12.2107 103.896 2
    endloop
  endfacet
  facet normal 0 1 -0
    outer loop
      vertex 20 95 2
      vertex 10 95 5
      vertex 20 95 5
    endloop
  endfacet
  facet normal 0 1 0
    outer loop
      vertex 10 95 5
      vertex 20 95 2
      vertex 10 95 2
    endloop
  endfacet
endsolid OpenSCAD_Model
