solid OpenSCAD_Model
  facet normal 0.992115 0.125334 0
    outer loop
      vertex 2.5 0 15
      vertex 2.42146 0.621724 2
      vertex 2.42146 0.621724 15
    endloop
  endfacet
  facet normal 0.992115 0.125334 0
    outer loop
      vertex 2.42146 0.621724 2
      vertex 2.5 0 15
      vertex 2.5 0 2
    endloop
  endfacet
  facet normal -1 0 0
    outer loop
      vertex -2.48029 -0.313333 2
      vertex -2.48029 0.313333 15
      vertex -2.48029 0.313333 2
    endloop
  endfacet
  facet normal -1 -0 0
    outer loop
      vertex -2.48029 0.313333 15
      vertex -2.48029 -0.313333 2
      vertex -2.48029 -0.313333 15
    endloop
  endfacet
  facet normal -0.0627901 0.998027 0
    outer loop
      vertex 0.156976 2.49507 5.85945
      vertex 0.156976 2.49507 2
      vertex 0 2.48519 4.5
    endloop
  endfacet
  facet normal -0.0627905 0.998027 -2.50837e-08
    outer loop
      vertex -0.468452 2.45572 2
      vertex 0 2.48519 4.5
      vertex 0.156976 2.49507 2
    endloop
  endfacet
  facet normal -0.0627906 0.998027 0
    outer loop
      vertex 0 2.48519 4.5
      vertex -0.468452 2.45572 2
      vertex -0.468452 2.45572 8.55692
    endloop
  endfacet
  facet normal 0 0 -1
    outer loop
      vertex 4.84292 -1.24345 0
      vertex 4.84292 1.24345 0
      vertex 5 0 0
    endloop
  endfacet
  facet normal 0 0 -1
    outer loop
      vertex 4.38153 -2.40877 0
      vertex 4.84292 1.24345 0
      vertex 4.84292 -1.24345 0
    endloop
  endfacet
  facet normal 0 0 -1
    outer loop
      vertex 4.38153 -2.40877 0
      vertex 4.38153 2.40877 0
      vertex 4.84292 1.24345 0
    endloop
  endfacet
  facet normal 0 0 -1
    outer loop
      vertex 3.64484 -3.42274 0
      vertex 4.38153 2.40877 0
      vertex 4.38153 -2.40877 0
    endloop
  endfacet
  facet normal 0 0 -1
    outer loop
      vertex 3.64484 -3.42274 0
      vertex 3.64484 3.42274 0
      vertex 4.38153 2.40877 0
    endloop
  endfacet
  facet normal 0 0 -1
    outer loop
      vertex 2.67913 -4.22164 0
      vertex 3.64484 3.42274 0
      vertex 3.64484 -3.42274 0
    endloop
  endfacet
  facet normal 0 0 -1
    outer loop
      vertex 2.67913 -4.22164 0
      vertex 2.67913 4.22164 0
      vertex 3.64484 3.42274 0
    endloop
  endfacet
  facet normal 0 0 -1
    outer loop
      vertex 1.54508 -4.75528 0
      vertex 2.67913 4.22164 0
      vertex 2.67913 -4.22164 0
    endloop
  endfacet
  facet normal 0 0 -1
    outer loop
      vertex 1.54508 -4.75528 0
      vertex 1.54508 4.75528 0
      vertex 2.67913 4.22164 0
    endloop
  endfacet
  facet normal 0 0 -1
    outer loop
      vertex 0.313952 -4.99013 0
      vertex 1.54508 4.75528 0
      vertex 1.54508 -4.75528 0
    endloop
  endfacet
  facet normal 0 0 -1
    outer loop
      vertex 0.313952 -4.99013 0
      vertex 0.313952 4.99013 0
      vertex 1.54508 4.75528 0
    endloop
  endfacet
  facet normal 0 0 -1
    outer loop
      vertex -0.936906 -4.91144 0
      vertex 0.313952 4.99013 0
      vertex 0.313952 -4.99013 0
    endloop
  endfacet
  facet normal 0 0 -1
    outer loop
      vertex -0.936906 -4.91144 0
      vertex -0.936906 4.91144 0
      vertex 0.313952 4.99013 0
    endloop
  endfacet
  facet normal 0 0 -1
    outer loop
      vertex -2.1289 -4.52413 0
      vertex -0.936906 4.91144 0
      vertex -0.936906 -4.91144 0
    endloop
  endfacet
  facet normal 0 0 -1
    outer loop
      vertex -2.1289 -4.52413 0
      vertex -2.1289 4.52413 0
      vertex -0.936906 4.91144 0
    endloop
  endfacet
  facet normal 0 0 -1
    outer loop
      vertex -3.18712 -3.85257 0
      vertex -2.1289 4.52413 0
      vertex -2.1289 -4.52413 0
    endloop
  endfacet
  facet normal 0 0 -1
    outer loop
      vertex -3.18712 -3.85257 0
      vertex -3.18712 3.85257 0
      vertex -2.1289 4.52413 0
    endloop
  endfacet
  facet normal 0 0 -1
    outer loop
      vertex -4.04508 -2.93893 0
      vertex -3.18712 3.85257 0
      vertex -3.18712 -3.85257 0
    endloop
  endfacet
  facet normal 0 0 -1
    outer loop
      vertex -4.04508 -2.93893 0
      vertex -4.04508 2.93893 0
      vertex -3.18712 3.85257 0
    endloop
  endfacet
  facet normal 0 0 -1
    outer loop
      vertex -4.64888 -1.84062 0
      vertex -4.04508 2.93893 0
      vertex -4.04508 -2.93893 0
    endloop
  endfacet
  facet normal 0 0 -1
    outer loop
      vertex -4.64888 -1.84062 0
      vertex -4.64888 1.84062 0
      vertex -4.04508 2.93893 0
    endloop
  endfacet
  facet normal 0 0 -1
    outer loop
      vertex -4.96057 -0.626666 0
      vertex -4.64888 1.84062 0
      vertex -4.64888 -1.84062 0
    endloop
  endfacet
  facet normal 0 0 -1
    outer loop
      vertex -4.64888 1.84062 0
      vertex -4.96057 -0.626666 0
      vertex -4.96057 0.626666 0
    endloop
  endfacet
  facet normal 0.637423 0.770514 -0
    outer loop
      vertex 1.82242 1.71137 2
      vertex 1.33957 2.11082 15
      vertex 1.82242 1.71137 15
    endloop
  endfacet
  facet normal 0.637423 0.770514 0
    outer loop
      vertex 1.33957 2.11082 15
      vertex 1.82242 1.71137 2
      vertex 1.33957 2.11082 2
    endloop
  endfacet
  facet normal 0.425781 0.904826 -1.03422e-07
    outer loop
      vertex 1.33957 2.11082 15
      vertex 0.772542 2.37764 11.1904
      vertex 1.21244 2.17064 15
    endloop
  endfacet
  facet normal 0.42578 0.904827 -0
    outer loop
      vertex 1.33957 2.11082 2
      vertex 0.772542 2.37764 11.1904
      vertex 1.33957 2.11082 15
    endloop
  endfacet
  facet normal 0.42578 0.904827 0
    outer loop
      vertex 0.772542 2.37764 11.1904
      vertex 1.33957 2.11082 2
      vertex 0.772542 2.37764 2
    endloop
  endfacet
  facet normal -0.728969 0.684547 0
    outer loop
      vertex -2.02254 1.46946 2
      vertex -1.59356 1.92628 15
      vertex -1.59356 1.92628 2
    endloop
  endfacet
  facet normal -0.728969 0.684547 0
    outer loop
      vertex -1.59356 1.92628 15
      vertex -2.02254 1.46946 2
      vertex -2.02254 1.46946 15
    endloop
  endfacet
  facet normal -0.876306 0.481754 0
    outer loop
      vertex -2.32444 0.920311 2
      vertex -2.02254 1.46946 15
      vertex -2.02254 1.46946 2
    endloop
  endfacet
  facet normal -0.876306 0.481754 0
    outer loop
      vertex -2.02254 1.46946 15
      vertex -2.32444 0.920311 2
      vertex -2.32444 0.920311 15
    endloop
  endfacet
  facet normal -0.535826 0.844328 -5.56204e-08
    outer loop
      vertex -1.06445 2.26207 13.7184
      vertex -1.59356 1.92628 15
      vertex -1.21244 2.16815 15
    endloop
  endfacet
  facet normal -0.535826 0.844328 0
    outer loop
      vertex -1.59356 1.92628 2
      vertex -1.06445 2.26207 13.7184
      vertex -1.06445 2.26207 2
    endloop
  endfacet
  facet normal -0.535826 0.844328 0
    outer loop
      vertex -1.06445 2.26207 13.7184
      vertex -1.59356 1.92628 2
      vertex -1.59356 1.92628 15
    endloop
  endfacet
  facet normal -0.968583 -0.24869 0
    outer loop
      vertex -2.32444 -0.920311 2
      vertex -2.48029 -0.313333 15
      vertex -2.48029 -0.313333 2
    endloop
  endfacet
  facet normal -0.968583 -0.24869 0
    outer loop
      vertex -2.48029 -0.313333 15
      vertex -2.32444 -0.920311 2
      vertex -2.32444 -0.920311 15
    endloop
  endfacet
  facet normal 0.809017 0.587785 0
    outer loop
      vertex 2.19077 1.20438 15
      vertex 1.82242 1.71137 2
      vertex 1.82242 1.71137 15
    endloop
  endfacet
  facet normal 0.809017 0.587785 0
    outer loop
      vertex 1.82242 1.71137 2
      vertex 2.19077 1.20438 15
      vertex 2.19077 1.20438 2
    endloop
  endfacet
  facet normal 0.929777 0.368124 0
    outer loop
      vertex 2.42146 0.621724 15
      vertex 2.19077 1.20438 2
      vertex 2.19077 1.20438 15
    endloop
  endfacet
  facet normal 0.929777 0.368124 0
    outer loop
      vertex 2.19077 1.20438 2
      vertex 2.42146 0.621724 15
      vertex 2.42146 0.621724 2
    endloop
  endfacet
  facet normal 0.187382 0.982287 -0
    outer loop
      vertex 0.772542 2.37764 2
      vertex 0.156976 2.49507 5.85945
      vertex 0.772542 2.37764 11.1904
    endloop
  endfacet
  facet normal 0.187382 0.982287 0
    outer loop
      vertex 0.156976 2.49507 5.85945
      vertex 0.772542 2.37764 2
      vertex 0.156976 2.49507 2
    endloop
  endfacet
  facet normal -0.968583 0.24869 0
    outer loop
      vertex -2.48029 0.313333 2
      vertex -2.32444 0.920311 15
      vertex -2.32444 0.920311 2
    endloop
  endfacet
  facet normal -0.968583 0.24869 0
    outer loop
      vertex -2.32444 0.920311 15
      vertex -2.48029 0.313333 2
      vertex -2.48029 0.313333 15
    endloop
  endfacet
  facet normal 0 0 -1
    outer loop
      vertex 2.5 0 15
      vertex 3.75 0 15
      vertex 3.63219 -0.932587 15
    endloop
  endfacet
  facet normal 0 0 -1
    outer loop
      vertex 2.42146 -0.621724 15
      vertex 3.63219 -0.932587 15
      vertex 3.28615 -1.80658 15
    endloop
  endfacet
  facet normal 0 0 -1
    outer loop
      vertex 3.75 0 15
      vertex 2.5 0 15
      vertex 3.63219 0.932587 15
    endloop
  endfacet
  facet normal 0 0 -1
    outer loop
      vertex 2.19077 -1.20438 15
      vertex 3.28615 -1.80658 15
      vertex 2.78235 -2.5 15
    endloop
  endfacet
  facet normal 0 0 -1
    outer loop
      vertex 2.42146 0.621724 15
      vertex 3.63219 0.932587 15
      vertex 2.5 0 15
    endloop
  endfacet
  facet normal -0 0 -1
    outer loop
      vertex 3.63219 0.932587 15
      vertex 2.42146 0.621724 15
      vertex 3.28615 1.80658 15
    endloop
  endfacet
  facet normal 0 0 -1
    outer loop
      vertex 3.63219 -0.932587 15
      vertex 2.42146 -0.621724 15
      vertex 2.5 0 15
    endloop
  endfacet
  facet normal 0 0 -1
    outer loop
      vertex 3.28615 -1.80658 15
      vertex 2.19077 -1.20438 15
      vertex 2.42146 -0.621724 15
    endloop
  endfacet
  facet normal 0 0 -1
    outer loop
      vertex 2.78235 -2.5 15
      vertex 1.82242 -1.71137 15
      vertex 2.19077 -1.20438 15
    endloop
  endfacet
  facet normal 0 0 -1
    outer loop
      vertex 2.78235 -2.5 15
      vertex 1.33957 -2.11082 15
      vertex 1.82242 -1.71137 15
    endloop
  endfacet
  facet normal 0 0 -1
    outer loop
      vertex 1.21244 -2.5 15
      vertex 1.33957 -2.11082 15
      vertex 2.78235 -2.5 15
    endloop
  endfacet
  facet normal 0 0 -1
    outer loop
      vertex 1.33957 -2.11082 15
      vertex 1.21244 -2.5 15
      vertex 1.21244 -2.17064 15
    endloop
  endfacet
  facet normal 0 0 -1
    outer loop
      vertex 2.19077 1.20438 15
      vertex 3.28615 1.80658 15
      vertex 2.42146 0.621724 15
    endloop
  endfacet
  facet normal -0 0 -1
    outer loop
      vertex 3.28615 1.80658 15
      vertex 2.19077 1.20438 15
      vertex 2.78235 2.5 15
    endloop
  endfacet
  facet normal 0 0 -1
    outer loop
      vertex 1.82242 1.71137 15
      vertex 2.78235 2.5 15
      vertex 2.19077 1.20438 15
    endloop
  endfacet
  facet normal 0 0 -1
    outer loop
      vertex 1.33957 2.11082 15
      vertex 2.78235 2.5 15
      vertex 1.82242 1.71137 15
    endloop
  endfacet
  facet normal 0 0 -1
    outer loop
      vertex 1.21244 2.5 15
      vertex 1.33957 2.11082 15
      vertex 1.21244 2.17064 15
    endloop
  endfacet
  facet normal 0 0 -1
    outer loop
      vertex 1.33957 2.11082 15
      vertex 1.21244 2.5 15
      vertex 2.78235 2.5 15
    endloop
  endfacet
  facet normal 0 0 -1
    outer loop
      vertex -1.21244 -2.5 15
      vertex -1.59356 -1.92628 15
      vertex -1.21244 -2.16815 15
    endloop
  endfacet
  facet normal 0 0 -1
    outer loop
      vertex -2.75603 -2.5 15
      vertex -1.59356 -1.92628 15
      vertex -1.21244 -2.5 15
    endloop
  endfacet
  facet normal 0 0 -1
    outer loop
      vertex -3.72043 0.469999 15
      vertex -2.48029 0.313333 15
      vertex -2.48029 -0.313333 15
    endloop
  endfacet
  facet normal -0 0 -1
    outer loop
      vertex -1.59356 -1.92628 15
      vertex -2.75603 -2.5 15
      vertex -2.02254 -1.46946 15
    endloop
  endfacet
  facet normal 0 0 -1
    outer loop
      vertex -3.03381 -2.20419 15
      vertex -2.02254 -1.46946 15
      vertex -2.75603 -2.5 15
    endloop
  endfacet
  facet normal -0 0 -1
    outer loop
      vertex -2.02254 -1.46946 15
      vertex -3.03381 -2.20419 15
      vertex -2.32444 -0.920311 15
    endloop
  endfacet
  facet normal 0 0 -1
    outer loop
      vertex -3.48666 -1.38047 15
      vertex -2.32444 -0.920311 15
      vertex -3.03381 -2.20419 15
    endloop
  endfacet
  facet normal -0 0 -1
    outer loop
      vertex -2.32444 -0.920311 15
      vertex -3.48666 -1.38047 15
      vertex -2.48029 -0.313333 15
    endloop
  endfacet
  facet normal 0 0 -1
    outer loop
      vertex -2.48029 -0.313333 15
      vertex -3.48666 -1.38047 15
      vertex -3.72043 -0.469999 15
    endloop
  endfacet
  facet normal 0 0 -1
    outer loop
      vertex -3.72043 0.469999 15
      vertex -2.48029 -0.313333 15
      vertex -3.72043 -0.469999 15
    endloop
  endfacet
  facet normal 0 0 -1
    outer loop
      vertex -2.48029 0.313333 15
      vertex -3.03381 2.20419 15
      vertex -2.75603 2.5 15
    endloop
  endfacet
  facet normal 0 0 -1
    outer loop
      vertex -2.48029 0.313333 15
      vertex -3.72043 0.469999 15
      vertex -3.48666 1.38047 15
    endloop
  endfacet
  facet normal 0 0 -1
    outer loop
      vertex -2.48029 0.313333 15
      vertex -3.48666 1.38047 15
      vertex -3.03381 2.20419 15
    endloop
  endfacet
  facet normal 0 0 -1
    outer loop
      vertex -1.59356 1.92628 15
      vertex -1.21244 2.5 15
      vertex -1.21244 2.16815 15
    endloop
  endfacet
  facet normal 0 0 -1
    outer loop
      vertex -2.75603 2.5 15
      vertex -1.59356 1.92628 15
      vertex -2.02254 1.46946 15
    endloop
  endfacet
  facet normal 0 0 -1
    outer loop
      vertex -1.59356 1.92628 15
      vertex -2.75603 2.5 15
      vertex -1.21244 2.5 15
    endloop
  endfacet
  facet normal 0 0 -1
    outer loop
      vertex -2.32444 0.920311 15
      vertex -2.75603 2.5 15
      vertex -2.02254 1.46946 15
    endloop
  endfacet
  facet normal 0 0 -1
    outer loop
      vertex -2.75603 2.5 15
      vertex -2.32444 0.920311 15
      vertex -2.48029 0.313333 15
    endloop
  endfacet
  facet normal -0.309018 0.951056 0
    outer loop
      vertex -1.06445 2.26207 2
      vertex -0.468452 2.45572 8.55692
      vertex -0.468452 2.45572 2
    endloop
  endfacet
  facet normal -0.309018 0.951056 0
    outer loop
      vertex -0.468452 2.45572 8.55692
      vertex -1.06445 2.26207 2
      vertex -1.06445 2.26207 13.7184
    endloop
  endfacet
  facet normal 0.992115 -0.125334 0
    outer loop
      vertex 2.42146 -0.621724 15
      vertex 2.5 0 2
      vertex 2.5 0 15
    endloop
  endfacet
  facet normal 0.992115 -0.125334 0
    outer loop
      vertex 2.5 0 2
      vertex 2.42146 -0.621724 15
      vertex 2.42146 -0.621724 2
    endloop
  endfacet
  facet normal 0.187382 -0.982287 0
    outer loop
      vertex 0.772542 -2.37764 2
      vertex 0.156976 -2.49507 5.85945
      vertex 0.156976 -2.49507 2
    endloop
  endfacet
  facet normal 0.187382 -0.982287 0
    outer loop
      vertex 0.156976 -2.49507 5.85945
      vertex 0.772542 -2.37764 2
      vertex 0.772542 -2.37764 11.1904
    endloop
  endfacet
  facet normal -0.535826 -0.844328 -5.56204e-08
    outer loop
      vertex -1.59356 -1.92628 15
      vertex -1.06445 -2.26207 13.7184
      vertex -1.21244 -2.16815 15
    endloop
  endfacet
  facet normal -0.535826 -0.844328 0
    outer loop
      vertex -1.59356 -1.92628 2
      vertex -1.06445 -2.26207 13.7184
      vertex -1.59356 -1.92628 15
    endloop
  endfacet
  facet normal -0.535826 -0.844328 -0
    outer loop
      vertex -1.06445 -2.26207 13.7184
      vertex -1.59356 -1.92628 2
      vertex -1.06445 -2.26207 2
    endloop
  endfacet
  facet normal -0.0627906 -0.998027 -0
    outer loop
      vertex -0.468452 -2.45572 8.55692
      vertex -0.468452 -2.45572 2
      vertex 0 -2.48519 4.5
    endloop
  endfacet
  facet normal -0.0627901 -0.998027 0
    outer loop
      vertex 0 -2.48519 4.5
      vertex 0.156976 -2.49507 2
      vertex 0.156976 -2.49507 5.85945
    endloop
  endfacet
  facet normal -0.0627905 -0.998027 -2.50837e-08
    outer loop
      vertex 0.156976 -2.49507 2
      vertex 0 -2.48519 4.5
      vertex -0.468452 -2.45572 2
    endloop
  endfacet
  facet normal -0.876306 -0.481754 0
    outer loop
      vertex -2.02254 -1.46946 2
      vertex -2.32444 -0.920311 15
      vertex -2.32444 -0.920311 2
    endloop
  endfacet
  facet normal -0.876306 -0.481754 0
    outer loop
      vertex -2.32444 -0.920311 15
      vertex -2.02254 -1.46946 2
      vertex -2.02254 -1.46946 15
    endloop
  endfacet
  facet normal 0.809017 -0.587785 0
    outer loop
      vertex 1.82242 -1.71137 15
      vertex 2.19077 -1.20438 2
      vertex 2.19077 -1.20438 15
    endloop
  endfacet
  facet normal 0.809017 -0.587785 0
    outer loop
      vertex 2.19077 -1.20438 2
      vertex 1.82242 -1.71137 15
      vertex 1.82242 -1.71137 2
    endloop
  endfacet
  facet normal 0.425781 -0.904826 -1.03422e-07
    outer loop
      vertex 0.772542 -2.37764 11.1904
      vertex 1.33957 -2.11082 15
      vertex 1.21244 -2.17064 15
    endloop
  endfacet
  facet normal 0.42578 -0.904827 0
    outer loop
      vertex 1.33957 -2.11082 2
      vertex 0.772542 -2.37764 11.1904
      vertex 0.772542 -2.37764 2
    endloop
  endfacet
  facet normal 0.42578 -0.904827 0
    outer loop
      vertex 0.772542 -2.37764 11.1904
      vertex 1.33957 -2.11082 2
      vertex 1.33957 -2.11082 15
    endloop
  endfacet
  facet normal -0.309018 -0.951056 0
    outer loop
      vertex -1.06445 -2.26207 2
      vertex -0.468452 -2.45572 8.55692
      vertex -1.06445 -2.26207 13.7184
    endloop
  endfacet
  facet normal -0.309018 -0.951056 -0
    outer loop
      vertex -0.468452 -2.45572 8.55692
      vertex -1.06445 -2.26207 2
      vertex -0.468452 -2.45572 2
    endloop
  endfacet
  facet normal -0.728969 -0.684547 0
    outer loop
      vertex -1.59356 -1.92628 2
      vertex -2.02254 -1.46946 15
      vertex -2.02254 -1.46946 2
    endloop
  endfacet
  facet normal -0.728969 -0.684547 0
    outer loop
      vertex -2.02254 -1.46946 15
      vertex -1.59356 -1.92628 2
      vertex -1.59356 -1.92628 15
    endloop
  endfacet
  facet normal 0.929777 -0.368124 0
    outer loop
      vertex 2.19077 -1.20438 15
      vertex 2.42146 -0.621724 2
      vertex 2.42146 -0.621724 15
    endloop
  endfacet
  facet normal 0.929777 -0.368124 0
    outer loop
      vertex 2.42146 -0.621724 2
      vertex 2.19077 -1.20438 15
      vertex 2.19077 -1.20438 2
    endloop
  endfacet
  facet normal 0.637423 -0.770514 0
    outer loop
      vertex 1.33957 -2.11082 2
      vertex 1.82242 -1.71137 15
      vertex 1.33957 -2.11082 15
    endloop
  endfacet
  facet normal 0.637423 -0.770514 0
    outer loop
      vertex 1.82242 -1.71137 15
      vertex 1.33957 -2.11082 2
      vertex 1.82242 -1.71137 2
    endloop
  endfacet
  facet normal 0.992115 0.125333 0
    outer loop
      vertex 5 0 2
      vertex 4.84292 1.24345 0
      vertex 4.84292 1.24345 2
    endloop
  endfacet
  facet normal 0.992115 0.125333 0
    outer loop
      vertex 4.84292 1.24345 0
      vertex 5 0 2
      vertex 5 0 0
    endloop
  endfacet
  facet normal -1 0 0
    outer loop
      vertex -4.96057 -0.626666 0
      vertex -4.96057 0.626666 2
      vertex -4.96057 0.626666 0
    endloop
  endfacet
  facet normal -1 -0 0
    outer loop
      vertex -4.96057 0.626666 2
      vertex -4.96057 -0.626666 0
      vertex -4.96057 -0.626666 2
    endloop
  endfacet
  facet normal -0.0627904 0.998027 0
    outer loop
      vertex 0.313952 4.99013 0
      vertex -0.936906 4.91144 2
      vertex 0.313952 4.99013 2
    endloop
  endfacet
  facet normal -0.0627904 0.998027 0
    outer loop
      vertex -0.936906 4.91144 2
      vertex 0.313952 4.99013 0
      vertex -0.936906 4.91144 0
    endloop
  endfacet
  facet normal 0.187381 -0.982287 0
    outer loop
      vertex 0.313952 -4.99013 0
      vertex 1.54508 -4.75528 2
      vertex 0.313952 -4.99013 2
    endloop
  endfacet
  facet normal 0.187381 -0.982287 0
    outer loop
      vertex 1.54508 -4.75528 2
      vertex 0.313952 -4.99013 0
      vertex 1.54508 -4.75528 0
    endloop
  endfacet
  facet normal 0.637423 0.770514 -0
    outer loop
      vertex 3.64484 3.42274 0
      vertex 2.67913 4.22164 2
      vertex 3.64484 3.42274 2
    endloop
  endfacet
  facet normal 0.637423 0.770514 0
    outer loop
      vertex 2.67913 4.22164 2
      vertex 3.64484 3.42274 0
      vertex 2.67913 4.22164 0
    endloop
  endfacet
  facet normal 0.42578 0.904827 -0
    outer loop
      vertex 2.67913 4.22164 0
      vertex 1.54508 4.75528 2
      vertex 2.67913 4.22164 2
    endloop
  endfacet
  facet normal 0.42578 0.904827 0
    outer loop
      vertex 1.54508 4.75528 2
      vertex 2.67913 4.22164 0
      vertex 1.54508 4.75528 0
    endloop
  endfacet
  facet normal -0.728968 0.684547 0
    outer loop
      vertex -4.04508 2.93893 0
      vertex -3.18712 3.85257 2
      vertex -3.18712 3.85257 0
    endloop
  endfacet
  facet normal -0.728968 0.684547 0
    outer loop
      vertex -3.18712 3.85257 2
      vertex -4.04508 2.93893 0
      vertex -4.04508 2.93893 2
    endloop
  endfacet
  facet normal 0 0 1
    outer loop
      vertex 2.5 0 2
      vertex 5 0 2
      vertex 4.84292 1.24345 2
    endloop
  endfacet
  facet normal 0 0 1
    outer loop
      vertex 2.42146 0.621724 2
      vertex 4.84292 1.24345 2
      vertex 4.38153 2.40877 2
    endloop
  endfacet
  facet normal 0 0 1
    outer loop
      vertex 5 0 2
      vertex 2.5 0 2
      vertex 4.84292 -1.24345 2
    endloop
  endfacet
  facet normal 0 0 1
    outer loop
      vertex 2.19077 1.20438 2
      vertex 4.38153 2.40877 2
      vertex 3.64484 3.42274 2
    endloop
  endfacet
  facet normal -0 0 1
    outer loop
      vertex 2.42146 -0.621724 2
      vertex 4.84292 -1.24345 2
      vertex 2.5 0 2
    endloop
  endfacet
  facet normal 0 0 1
    outer loop
      vertex 1.82242 1.71137 2
      vertex 3.64484 3.42274 2
      vertex 2.67913 4.22164 2
    endloop
  endfacet
  facet normal 0 0 1
    outer loop
      vertex 4.84292 -1.24345 2
      vertex 2.42146 -0.621724 2
      vertex 4.38153 -2.40877 2
    endloop
  endfacet
  facet normal -0 0 1
    outer loop
      vertex 2.19077 -1.20438 2
      vertex 4.38153 -2.40877 2
      vertex 2.42146 -0.621724 2
    endloop
  endfacet
  facet normal 0 0 1
    outer loop
      vertex 4.84292 1.24345 2
      vertex 2.42146 0.621724 2
      vertex 2.5 0 2
    endloop
  endfacet
  facet normal 0 0 1
    outer loop
      vertex 4.38153 2.40877 2
      vertex 2.19077 1.20438 2
      vertex 2.42146 0.621724 2
    endloop
  endfacet
  facet normal 0 0 1
    outer loop
      vertex 3.64484 3.42274 2
      vertex 1.82242 1.71137 2
      vertex 2.19077 1.20438 2
    endloop
  endfacet
  facet normal 0 0 1
    outer loop
      vertex 1.33957 2.11082 2
      vertex 2.67913 4.22164 2
      vertex 1.54508 4.75528 2
    endloop
  endfacet
  facet normal 0 0 1
    outer loop
      vertex 2.67913 4.22164 2
      vertex 1.33957 2.11082 2
      vertex 1.82242 1.71137 2
    endloop
  endfacet
  facet normal 0 0 1
    outer loop
      vertex 1.54508 4.75528 2
      vertex 0.772542 2.37764 2
      vertex 1.33957 2.11082 2
    endloop
  endfacet
  facet normal 0 0 1
    outer loop
      vertex 0.313952 4.99013 2
      vertex 0.772542 2.37764 2
      vertex 1.54508 4.75528 2
    endloop
  endfacet
  facet normal 0 0 1
    outer loop
      vertex 0.313952 4.99013 2
      vertex 0.156976 2.49507 2
      vertex 0.772542 2.37764 2
    endloop
  endfacet
  facet normal 0 0 1
    outer loop
      vertex 0.313952 4.99013 2
      vertex -0.468452 2.45572 2
      vertex 0.156976 2.49507 2
    endloop
  endfacet
  facet normal -0 0 1
    outer loop
      vertex -0.936906 4.91144 2
      vertex -0.468452 2.45572 2
      vertex 0.313952 4.99013 2
    endloop
  endfacet
  facet normal 0 0 1
    outer loop
      vertex -0.936906 4.91144 2
      vertex -1.06445 2.26207 2
      vertex -0.468452 2.45572 2
    endloop
  endfacet
  facet normal -0 0 1
    outer loop
      vertex -2.1289 4.52413 2
      vertex -1.06445 2.26207 2
      vertex -0.936906 4.91144 2
    endloop
  endfacet
  facet normal 0 0 1
    outer loop
      vertex -1.06445 2.26207 2
      vertex -2.1289 4.52413 2
      vertex -1.59356 1.92628 2
    endloop
  endfacet
  facet normal -0 0 1
    outer loop
      vertex -3.18712 3.85257 2
      vertex -1.59356 1.92628 2
      vertex -2.1289 4.52413 2
    endloop
  endfacet
  facet normal 0 0 1
    outer loop
      vertex -1.59356 1.92628 2
      vertex -3.18712 3.85257 2
      vertex -2.02254 1.46946 2
    endloop
  endfacet
  facet normal -0 0 1
    outer loop
      vertex -4.04508 2.93893 2
      vertex -2.02254 1.46946 2
      vertex -3.18712 3.85257 2
    endloop
  endfacet
  facet normal -0 0 1
    outer loop
      vertex -4.64888 1.84062 2
      vertex -2.32444 0.920311 2
      vertex -4.04508 2.93893 2
    endloop
  endfacet
  facet normal 0 0 1
    outer loop
      vertex -2.02254 1.46946 2
      vertex -4.04508 2.93893 2
      vertex -2.32444 0.920311 2
    endloop
  endfacet
  facet normal 0 0 1
    outer loop
      vertex 4.38153 -2.40877 2
      vertex 2.19077 -1.20438 2
      vertex 3.64484 -3.42274 2
    endloop
  endfacet
  facet normal -0 0 1
    outer loop
      vertex 1.82242 -1.71137 2
      vertex 3.64484 -3.42274 2
      vertex 2.19077 -1.20438 2
    endloop
  endfacet
  facet normal 0 0 1
    outer loop
      vertex 3.64484 -3.42274 2
      vertex 1.82242 -1.71137 2
      vertex 2.67913 -4.22164 2
    endloop
  endfacet
  facet normal -0 0 1
    outer loop
      vertex 1.33957 -2.11082 2
      vertex 2.67913 -4.22164 2
      vertex 1.82242 -1.71137 2
    endloop
  endfacet
  facet normal 0 0 1
    outer loop
      vertex 2.67913 -4.22164 2
      vertex 1.33957 -2.11082 2
      vertex 1.54508 -4.75528 2
    endloop
  endfacet
  facet normal -0 0 1
    outer loop
      vertex 0.772542 -2.37764 2
      vertex 1.54508 -4.75528 2
      vertex 1.33957 -2.11082 2
    endloop
  endfacet
  facet normal 0 0 1
    outer loop
      vertex 0.772542 -2.37764 2
      vertex 0.313952 -4.99013 2
      vertex 1.54508 -4.75528 2
    endloop
  endfacet
  facet normal -0 0 1
    outer loop
      vertex 0.156976 -2.49507 2
      vertex 0.313952 -4.99013 2
      vertex 0.772542 -2.37764 2
    endloop
  endfacet
  facet normal 0 0 1
    outer loop
      vertex -0.468452 -2.45572 2
      vertex 0.313952 -4.99013 2
      vertex 0.156976 -2.49507 2
    endloop
  endfacet
  facet normal 0 0 1
    outer loop
      vertex -0.468452 -2.45572 2
      vertex -0.936906 -4.91144 2
      vertex 0.313952 -4.99013 2
    endloop
  endfacet
  facet normal 0 0 1
    outer loop
      vertex -1.06445 -2.26207 2
      vertex -0.936906 -4.91144 2
      vertex -0.468452 -2.45572 2
    endloop
  endfacet
  facet normal 0 0 1
    outer loop
      vertex -2.1289 -4.52413 2
      vertex -1.06445 -2.26207 2
      vertex -1.59356 -1.92628 2
    endloop
  endfacet
  facet normal 0 0 1
    outer loop
      vertex -3.18712 -3.85257 2
      vertex -1.59356 -1.92628 2
      vertex -2.02254 -1.46946 2
    endloop
  endfacet
  facet normal 0 0 1
    outer loop
      vertex -1.06445 -2.26207 2
      vertex -2.1289 -4.52413 2
      vertex -0.936906 -4.91144 2
    endloop
  endfacet
  facet normal 0 0 1
    outer loop
      vertex -4.04508 -2.93893 2
      vertex -2.02254 -1.46946 2
      vertex -2.32444 -0.920311 2
    endloop
  endfacet
  facet normal 0 0 1
    outer loop
      vertex -4.64888 -1.84062 2
      vertex -2.32444 -0.920311 2
      vertex -2.48029 -0.313333 2
    endloop
  endfacet
  facet normal 0 0 1
    outer loop
      vertex -2.32444 0.920311 2
      vertex -4.64888 1.84062 2
      vertex -2.48029 0.313333 2
    endloop
  endfacet
  facet normal 0 0 1
    outer loop
      vertex -1.59356 -1.92628 2
      vertex -3.18712 -3.85257 2
      vertex -2.1289 -4.52413 2
    endloop
  endfacet
  facet normal -0 0 1
    outer loop
      vertex -4.96057 0.626666 2
      vertex -2.48029 0.313333 2
      vertex -4.64888 1.84062 2
    endloop
  endfacet
  facet normal 0 0 1
    outer loop
      vertex -2.02254 -1.46946 2
      vertex -4.04508 -2.93893 2
      vertex -3.18712 -3.85257 2
    endloop
  endfacet
  facet normal 0 0 1
    outer loop
      vertex -2.48029 0.313333 2
      vertex -4.96057 0.626666 2
      vertex -2.48029 -0.313333 2
    endloop
  endfacet
  facet normal 0 0 1
    outer loop
      vertex -2.32444 -0.920311 2
      vertex -4.64888 -1.84062 2
      vertex -4.04508 -2.93893 2
    endloop
  endfacet
  facet normal 0 0 1
    outer loop
      vertex -4.96057 -0.626666 2
      vertex -2.48029 -0.313333 2
      vertex -4.96057 0.626666 2
    endloop
  endfacet
  facet normal 0 0 1
    outer loop
      vertex -2.48029 -0.313333 2
      vertex -4.96057 -0.626666 2
      vertex -4.64888 -1.84062 2
    endloop
  endfacet
  facet normal -0.535827 0.844328 0
    outer loop
      vertex -2.1289 4.52413 0
      vertex -3.18712 3.85257 2
      vertex -2.1289 4.52413 2
    endloop
  endfacet
  facet normal -0.535827 0.844328 0
    outer loop
      vertex -3.18712 3.85257 2
      vertex -2.1289 4.52413 0
      vertex -3.18712 3.85257 0
    endloop
  endfacet
  facet normal 0.929776 -0.368125 0
    outer loop
      vertex 4.38153 -2.40877 2
      vertex 4.84292 -1.24345 0
      vertex 4.84292 -1.24345 2
    endloop
  endfacet
  facet normal 0.929776 -0.368125 0
    outer loop
      vertex 4.84292 -1.24345 0
      vertex 4.38153 -2.40877 2
      vertex 4.38153 -2.40877 0
    endloop
  endfacet
  facet normal 0.809017 0.587785 0
    outer loop
      vertex 4.38153 2.40877 2
      vertex 3.64484 3.42274 0
      vertex 3.64484 3.42274 2
    endloop
  endfacet
  facet normal 0.809017 0.587785 0
    outer loop
      vertex 3.64484 3.42274 0
      vertex 4.38153 2.40877 2
      vertex 4.38153 2.40877 0
    endloop
  endfacet
  facet normal 0.929776 0.368125 0
    outer loop
      vertex 4.84292 1.24345 2
      vertex 4.38153 2.40877 0
      vertex 4.38153 2.40877 2
    endloop
  endfacet
  facet normal 0.929776 0.368125 0
    outer loop
      vertex 4.38153 2.40877 0
      vertex 4.84292 1.24345 2
      vertex 4.84292 1.24345 0
    endloop
  endfacet
  facet normal 0.187381 0.982287 -0
    outer loop
      vertex 1.54508 4.75528 0
      vertex 0.313952 4.99013 2
      vertex 1.54508 4.75528 2
    endloop
  endfacet
  facet normal 0.187381 0.982287 0
    outer loop
      vertex 0.313952 4.99013 2
      vertex 1.54508 4.75528 0
      vertex 0.313952 4.99013 0
    endloop
  endfacet
  facet normal -0.876307 0.481753 0
    outer loop
      vertex -4.64888 1.84062 0
      vertex -4.04508 2.93893 2
      vertex -4.04508 2.93893 0
    endloop
  endfacet
  facet normal -0.876307 0.481753 0
    outer loop
      vertex -4.04508 2.93893 2
      vertex -4.64888 1.84062 0
      vertex -4.64888 1.84062 2
    endloop
  endfacet
  facet normal -0.968583 0.24869 0
    outer loop
      vertex -4.96057 0.626666 0
      vertex -4.64888 1.84062 2
      vertex -4.64888 1.84062 0
    endloop
  endfacet
  facet normal -0.968583 0.24869 0
    outer loop
      vertex -4.64888 1.84062 2
      vertex -4.96057 0.626666 0
      vertex -4.96057 0.626666 2
    endloop
  endfacet
  facet normal -0.309017 0.951056 0
    outer loop
      vertex -0.936906 4.91144 0
      vertex -2.1289 4.52413 2
      vertex -0.936906 4.91144 2
    endloop
  endfacet
  facet normal -0.309017 0.951056 0
    outer loop
      vertex -2.1289 4.52413 2
      vertex -0.936906 4.91144 0
      vertex -2.1289 4.52413 0
    endloop
  endfacet
  facet normal 0.809017 -0.587785 0
    outer loop
      vertex 3.64484 -3.42274 2
      vertex 4.38153 -2.40877 0
      vertex 4.38153 -2.40877 2
    endloop
  endfacet
  facet normal 0.809017 -0.587785 0
    outer loop
      vertex 4.38153 -2.40877 0
      vertex 3.64484 -3.42274 2
      vertex 3.64484 -3.42274 0
    endloop
  endfacet
  facet normal 0.992115 -0.125333 0
    outer loop
      vertex 4.84292 -1.24345 2
      vertex 5 0 0
      vertex 5 0 2
    endloop
  endfacet
  facet normal 0.992115 -0.125333 0
    outer loop
      vertex 5 0 0
      vertex 4.84292 -1.24345 2
      vertex 4.84292 -1.24345 0
    endloop
  endfacet
  facet normal -0.535827 -0.844328 0
    outer loop
      vertex -3.18712 -3.85257 0
      vertex -2.1289 -4.52413 2
      vertex -3.18712 -3.85257 2
    endloop
  endfacet
  facet normal -0.535827 -0.844328 -0
    outer loop
      vertex -2.1289 -4.52413 2
      vertex -3.18712 -3.85257 0
      vertex -2.1289 -4.52413 0
    endloop
  endfacet
  facet normal -0.728968 -0.684547 0
    outer loop
      vertex -3.18712 -3.85257 0
      vertex -4.04508 -2.93893 2
      vertex -4.04508 -2.93893 0
    endloop
  endfacet
  facet normal -0.728968 -0.684547 0
    outer loop
      vertex -4.04508 -2.93893 2
      vertex -3.18712 -3.85257 0
      vertex -3.18712 -3.85257 2
    endloop
  endfacet
  facet normal 0.42578 -0.904827 0
    outer loop
      vertex 1.54508 -4.75528 0
      vertex 2.67913 -4.22164 2
      vertex 1.54508 -4.75528 2
    endloop
  endfacet
  facet normal 0.42578 -0.904827 0
    outer loop
      vertex 2.67913 -4.22164 2
      vertex 1.54508 -4.75528 0
      vertex 2.67913 -4.22164 0
    endloop
  endfacet
  facet normal -0.0627904 -0.998027 0
    outer loop
      vertex -0.936906 -4.91144 0
      vertex 0.313952 -4.99013 2
      vertex -0.936906 -4.91144 2
    endloop
  endfacet
  facet normal -0.0627904 -0.998027 -0
    outer loop
      vertex 0.313952 -4.99013 2
      vertex -0.936906 -4.91144 0
      vertex 0.313952 -4.99013 0
    endloop
  endfacet
  facet normal -0.876307 -0.481753 0
    outer loop
      vertex -4.04508 -2.93893 0
      vertex -4.64888 -1.84062 2
      vertex -4.64888 -1.84062 0
    endloop
  endfacet
  facet normal -0.876307 -0.481753 0
    outer loop
      vertex -4.64888 -1.84062 2
      vertex -4.04508 -2.93893 0
      vertex -4.04508 -2.93893 2
    endloop
  endfacet
  facet normal -0.968583 -0.24869 0
    outer loop
      vertex -4.64888 -1.84062 0
      vertex -4.96057 -0.626666 2
      vertex -4.96057 -0.626666 0
    endloop
  endfacet
  facet normal -0.968583 -0.24869 0
    outer loop
      vertex -4.96057 -0.626666 2
      vertex -4.64888 -1.84062 0
      vertex -4.64888 -1.84062 2
    endloop
  endfacet
  facet normal 0.637423 -0.770514 0
    outer loop
      vertex 2.67913 -4.22164 0
      vertex 3.64484 -3.42274 2
      vertex 2.67913 -4.22164 2
    endloop
  endfacet
  facet normal 0.637423 -0.770514 0
    outer loop
      vertex 3.64484 -3.42274 2
      vertex 2.67913 -4.22164 0
      vertex 3.64484 -3.42274 0
    endloop
  endfacet
  facet normal -0.309017 -0.951056 0
    outer loop
      vertex -2.1289 -4.52413 0
      vertex -0.936906 -4.91144 2
      vertex -2.1289 -4.52413 2
    endloop
  endfacet
  facet normal -0.309017 -0.951056 -0
    outer loop
      vertex -0.936906 -4.91144 2
      vertex -2.1289 -4.52413 0
      vertex -0.936906 -4.91144 0
    endloop
  endfacet
  facet normal 0.843174 0.106518 0.526984
    outer loop
      vertex 3.63219 0.932587 15
      vertex 2.5 0 17
      vertex 3.75 0 15
    endloop
  endfacet
  facet normal -0.823175 -0.211356 0.526984
    outer loop
      vertex -2.48029 -0.313333 17
      vertex -3.72043 -0.469999 15
      vertex -2.32444 -0.920311 17
    endloop
  endfacet
  facet normal -0.849876 0 0.526984
    outer loop
      vertex -3.72043 0.469999 15
      vertex -2.48029 -0.313333 17
      vertex -2.48029 0.313333 17
    endloop
  endfacet
  facet normal -0.849876 0 0.526984
    outer loop
      vertex -2.48029 -0.313333 17
      vertex -3.72043 0.469999 15
      vertex -3.72043 -0.469999 15
    endloop
  endfacet
  facet normal -0.619533 0.58178 0.526984
    outer loop
      vertex -3.03381 2.20419 15
      vertex -2.28947 2.5 15.5485
      vertex -2.75603 2.5 15
    endloop
  endfacet
  facet normal -0.619533 0.581779 0.526984
    outer loop
      vertex -2.28947 2.5 15.5485
      vertex -3.03381 2.20419 15
      vertex -2.02254 1.46946 17
    endloop
  endfacet
  facet normal -0.619533 0.581779 0.526984
    outer loop
      vertex -2.02254 1.46946 17
      vertex -2.06818 2.5 15.8087
      vertex -2.28947 2.5 15.5485
    endloop
  endfacet
  facet normal -0.619533 0.581779 0.526984
    outer loop
      vertex -2.06818 2.5 15.8087
      vertex -2.02254 1.46946 17
      vertex -1.59356 1.92628 17
    endloop
  endfacet
  facet normal 0.687564 0.499545 0.526983
    outer loop
      vertex 2.66223 2.5 15.1567
      vertex 3.28615 1.80658 15
      vertex 2.78235 2.5 15
    endloop
  endfacet
  facet normal 0.687564 0.499544 0.526984
    outer loop
      vertex 3.28615 1.80658 15
      vertex 2.66223 2.5 15.1567
      vertex 1.82242 1.71137 17
    endloop
  endfacet
  facet normal 0.843174 -0.106518 0.526984
    outer loop
      vertex 3.75 0 15
      vertex 2.5 0 17
      vertex 3.63219 -0.932587 15
    endloop
  endfacet
  facet normal -0.744751 0.409431 0.526984
    outer loop
      vertex -2.02254 1.46946 17
      vertex -3.03381 2.20419 15
      vertex -2.32444 0.920311 17
    endloop
  endfacet
  facet normal -0.455385 0.717574 0.526984
    outer loop
      vertex -1.59478 2.5 16.2177
      vertex -2.06818 2.5 15.8087
      vertex -1.59356 1.92628 17
    endloop
  endfacet
  facet normal -0.823175 -0.211356 0.526983
    outer loop
      vertex -2.32444 -0.920311 17
      vertex -3.72043 -0.469999 15
      vertex -3.48666 -1.38047 15
    endloop
  endfacet
  facet normal -0.744752 -0.40943 0.526984
    outer loop
      vertex -2.32444 -0.920311 17
      vertex -3.48666 -1.38047 15
      vertex -3.03381 -2.20419 15
    endloop
  endfacet
  facet normal 0.687563 -0.499545 0.526984
    outer loop
      vertex 2.66223 -2.5 15.1567
      vertex 3.28615 -1.80658 15
      vertex 1.82242 -1.71137 17
    endloop
  endfacet
  facet normal 0.687563 -0.499544 0.526985
    outer loop
      vertex 3.28615 -1.80658 15
      vertex 2.66223 -2.5 15.1567
      vertex 2.78235 -2.5 15
    endloop
  endfacet
  facet normal 0.843174 -0.106519 0.526984
    outer loop
      vertex 2.5 0 17
      vertex 2.42146 -0.621724 17
      vertex 3.63219 -0.932587 15
    endloop
  endfacet
  facet normal 0.54173 0.654841 0.526985
    outer loop
      vertex 1.82242 1.71137 17
      vertex 1.41676 2.23246 16.7695
      vertex 1.44338 2.02494 17
    endloop
  endfacet
  facet normal 0.541731 0.654841 0.526984
    outer loop
      vertex 1.82242 1.71137 17
      vertex 1.58655 2.5 16.2625
      vertex 1.41676 2.23246 16.7695
    endloop
  endfacet
  facet normal 0.54173 0.654841 0.526984
    outer loop
      vertex 1.58655 2.5 16.2625
      vertex 1.82242 1.71137 17
      vertex 1.92375 2.5 15.9159
    endloop
  endfacet
  facet normal 0.843174 0.106519 0.526984
    outer loop
      vertex 3.63219 0.932587 15
      vertex 2.42146 0.621724 17
      vertex 2.5 0 17
    endloop
  endfacet
  facet normal 0.687564 0.499544 0.526984
    outer loop
      vertex 3.28615 1.80658 15
      vertex 1.82242 1.71137 17
      vertex 2.19077 1.20438 17
    endloop
  endfacet
  facet normal 0.541731 0.654841 0.526984
    outer loop
      vertex 1.92375 2.5 15.9159
      vertex 1.82242 1.71137 17
      vertex 2.66223 2.5 15.1567
    endloop
  endfacet
  facet normal -0.744752 0.40943 0.526984
    outer loop
      vertex -3.03381 2.20419 15
      vertex -3.48666 1.38047 15
      vertex -2.32444 0.920311 17
    endloop
  endfacet
  facet normal -0.823175 0.211356 0.526983
    outer loop
      vertex -3.48666 1.38047 15
      vertex -3.72043 0.469999 15
      vertex -2.32444 0.920311 17
    endloop
  endfacet
  facet normal -0.455386 0.717574 0.526983
    outer loop
      vertex -1.37498 2.5 16.4077
      vertex -1.59356 1.92628 17
      vertex -1.44338 2.02159 17
    endloop
  endfacet
  facet normal -0.455384 0.717575 0.526984
    outer loop
      vertex -1.59356 1.92628 17
      vertex -1.37498 2.5 16.4077
      vertex -1.59478 2.5 16.2177
    endloop
  endfacet
  facet normal -0.619533 -0.581779 0.526984
    outer loop
      vertex -2.28947 -2.5 15.5485
      vertex -3.03381 -2.20419 15
      vertex -2.75603 -2.5 15
    endloop
  endfacet
  facet normal -0.619533 -0.581779 0.526984
    outer loop
      vertex -3.03381 -2.20419 15
      vertex -2.28947 -2.5 15.5485
      vertex -2.02254 -1.46946 17
    endloop
  endfacet
  facet normal -0.619532 -0.58178 0.526984
    outer loop
      vertex -2.06818 -2.5 15.8087
      vertex -2.02254 -1.46946 17
      vertex -2.28947 -2.5 15.5485
    endloop
  endfacet
  facet normal -0.619533 -0.58178 0.526984
    outer loop
      vertex -2.02254 -1.46946 17
      vertex -2.06818 -2.5 15.8087
      vertex -1.59356 -1.92628 17
    endloop
  endfacet
  facet normal -0.455385 -0.717574 0.526984
    outer loop
      vertex -1.59356 -1.92628 17
      vertex -2.06818 -2.5 15.8087
      vertex -1.59478 -2.5 16.2177
    endloop
  endfacet
  facet normal 0.541732 -0.65484 0.526984
    outer loop
      vertex 2.66223 -2.5 15.1567
      vertex 1.82242 -1.71137 17
      vertex 1.92375 -2.5 15.9159
    endloop
  endfacet
  facet normal 0.361862 -0.768989 0.526983
    outer loop
      vertex 1.41676 -2.23246 16.7695
      vertex 1.37499 -2.5 16.4078
      vertex 1.58655 -2.5 16.2625
    endloop
  endfacet
  facet normal 0.687564 -0.499544 0.526984
    outer loop
      vertex 2.19077 -1.20438 17
      vertex 1.82242 -1.71137 17
      vertex 3.28615 -1.80658 15
    endloop
  endfacet
  facet normal 0.361862 0.768989 0.526984
    outer loop
      vertex 1.58655 2.5 16.2625
      vertex 1.37499 2.5 16.4078
      vertex 1.41676 2.23246 16.7695
    endloop
  endfacet
  facet normal 0.790194 0.312859 0.526984
    outer loop
      vertex 3.28615 1.80658 15
      vertex 2.42146 0.621724 17
      vertex 3.63219 0.932587 15
    endloop
  endfacet
  facet normal 0.790194 0.31286 0.526984
    outer loop
      vertex 3.28615 1.80658 15
      vertex 2.19077 1.20438 17
      vertex 2.42146 0.621724 17
    endloop
  endfacet
  facet normal 0 0 1
    outer loop
      vertex -2.02254 1.46946 17
      vertex -1.44338 2.02159 17
      vertex -1.59356 1.92628 17
    endloop
  endfacet
  facet normal 0 0 1
    outer loop
      vertex -2.32444 0.920311 17
      vertex -1.44338 2.02159 17
      vertex -2.02254 1.46946 17
    endloop
  endfacet
  facet normal 0 0 1
    outer loop
      vertex -1.44338 2.02159 17
      vertex -2.32444 0.920311 17
      vertex -1.44338 -2.02159 17
    endloop
  endfacet
  facet normal 0 0 1
    outer loop
      vertex -1.44338 -2.02159 17
      vertex -2.02254 -1.46946 17
      vertex -1.59356 -1.92628 17
    endloop
  endfacet
  facet normal -0 0 1
    outer loop
      vertex -2.32444 -0.920311 17
      vertex -1.44338 -2.02159 17
      vertex -2.32444 0.920311 17
    endloop
  endfacet
  facet normal 0 0 1
    outer loop
      vertex -1.44338 -2.02159 17
      vertex -2.32444 -0.920311 17
      vertex -2.02254 -1.46946 17
    endloop
  endfacet
  facet normal -0 0 1
    outer loop
      vertex -2.48029 0.313333 17
      vertex -2.32444 -0.920311 17
      vertex -2.32444 0.920311 17
    endloop
  endfacet
  facet normal 0 0 1
    outer loop
      vertex -2.32444 -0.920311 17
      vertex -2.48029 0.313333 17
      vertex -2.48029 -0.313333 17
    endloop
  endfacet
  facet normal 0 0 1
    outer loop
      vertex 2.42146 0.621724 17
      vertex 2.42146 -0.621724 17
      vertex 2.5 0 17
    endloop
  endfacet
  facet normal 0 0 1
    outer loop
      vertex 2.19077 1.20438 17
      vertex 2.42146 -0.621724 17
      vertex 2.42146 0.621724 17
    endloop
  endfacet
  facet normal 0 0 1
    outer loop
      vertex 2.19077 1.20438 17
      vertex 2.19077 -1.20438 17
      vertex 2.42146 -0.621724 17
    endloop
  endfacet
  facet normal 0 0 1
    outer loop
      vertex 1.44338 2.02494 17
      vertex 2.19077 1.20438 17
      vertex 1.82242 1.71137 17
    endloop
  endfacet
  facet normal 0 0 1
    outer loop
      vertex 2.19077 1.20438 17
      vertex 1.44338 2.02494 17
      vertex 2.19077 -1.20438 17
    endloop
  endfacet
  facet normal 0 0 1
    outer loop
      vertex 1.44338 -2.02494 17
      vertex 2.19077 -1.20438 17
      vertex 1.44338 2.02494 17
    endloop
  endfacet
  facet normal 0 0 1
    outer loop
      vertex 2.19077 -1.20438 17
      vertex 1.44338 -2.02494 17
      vertex 1.82242 -1.71137 17
    endloop
  endfacet
  facet normal -0.823175 0.211356 0.526984
    outer loop
      vertex -2.32444 0.920311 17
      vertex -3.72043 0.469999 15
      vertex -2.48029 0.313333 17
    endloop
  endfacet
  facet normal -0.744751 -0.409431 0.526984
    outer loop
      vertex -2.32444 -0.920311 17
      vertex -3.03381 -2.20419 15
      vertex -2.02254 -1.46946 17
    endloop
  endfacet
  facet normal 0.54173 -0.654841 0.526985
    outer loop
      vertex 1.41676 -2.23246 16.7695
      vertex 1.82242 -1.71137 17
      vertex 1.44338 -2.02494 17
    endloop
  endfacet
  facet normal 0.541731 -0.654841 0.526983
    outer loop
      vertex 1.58655 -2.5 16.2625
      vertex 1.82242 -1.71137 17
      vertex 1.41676 -2.23246 16.7695
    endloop
  endfacet
  facet normal 0.541729 -0.654841 0.526984
    outer loop
      vertex 1.82242 -1.71137 17
      vertex 1.58655 -2.5 16.2625
      vertex 1.92375 -2.5 15.9159
    endloop
  endfacet
  facet normal 0.790194 -0.31286 0.526984
    outer loop
      vertex 2.42146 -0.621724 17
      vertex 2.19077 -1.20438 17
      vertex 3.28615 -1.80658 15
    endloop
  endfacet
  facet normal 0.790194 -0.312859 0.526984
    outer loop
      vertex 3.63219 -0.932587 15
      vertex 2.42146 -0.621724 17
      vertex 3.28615 -1.80658 15
    endloop
  endfacet
  facet normal -0.455385 -0.717574 0.526984
    outer loop
      vertex -1.59356 -1.92628 17
      vertex -1.37498 -2.5 16.4077
      vertex -1.44338 -2.02159 17
    endloop
  endfacet
  facet normal -0.455387 -0.717573 0.526983
    outer loop
      vertex -1.37498 -2.5 16.4077
      vertex -1.59356 -1.92628 17
      vertex -1.59478 -2.5 16.2177
    endloop
  endfacet
  facet normal 0 1 0
    outer loop
      vertex -1.21244 2.5 15
      vertex -1.59478 2.5 16.2177
      vertex -1.37498 2.5 16.4077
    endloop
  endfacet
  facet normal 0 1 0
    outer loop
      vertex -1.59478 2.5 16.2177
      vertex -1.21244 2.5 15
      vertex -2.06818 2.5 15.8087
    endloop
  endfacet
  facet normal 0 1 0
    outer loop
      vertex -2.06818 2.5 15.8087
      vertex -1.21244 2.5 15
      vertex -2.28947 2.5 15.5485
    endloop
  endfacet
  facet normal 0 1 0
    outer loop
      vertex -2.28947 2.5 15.5485
      vertex -1.21244 2.5 15
      vertex -2.75603 2.5 15
    endloop
  endfacet
  facet normal 0 1 0
    outer loop
      vertex 1.21244 2.5 15
      vertex 1.58655 2.5 16.2625
      vertex 1.92375 2.5 15.9159
    endloop
  endfacet
  facet normal 0 1 0
    outer loop
      vertex 1.21244 2.5 15
      vertex 1.92375 2.5 15.9159
      vertex 2.66223 2.5 15.1567
    endloop
  endfacet
  facet normal 0 1 0
    outer loop
      vertex 1.21244 2.5 15
      vertex 2.66223 2.5 15.1567
      vertex 2.78235 2.5 15
    endloop
  endfacet
  facet normal 0 1 0
    outer loop
      vertex 1.58655 2.5 16.2625
      vertex 1.21244 2.5 15
      vertex 1.37499 2.5 16.4078
    endloop
  endfacet
  facet normal 0 -1 0
    outer loop
      vertex -1.21244 -2.5 15
      vertex -2.06818 -2.5 15.8087
      vertex -2.28947 -2.5 15.5485
    endloop
  endfacet
  facet normal 0 -1 0
    outer loop
      vertex -2.06818 -2.5 15.8087
      vertex -1.21244 -2.5 15
      vertex -1.59478 -2.5 16.2177
    endloop
  endfacet
  facet normal 0 -1 0
    outer loop
      vertex -1.21244 -2.5 15
      vertex -2.28947 -2.5 15.5485
      vertex -2.75603 -2.5 15
    endloop
  endfacet
  facet normal 0 -1 0
    outer loop
      vertex -1.59478 -2.5 16.2177
      vertex -1.21244 -2.5 15
      vertex -1.37498 -2.5 16.4077
    endloop
  endfacet
  facet normal 0 -1 0
    outer loop
      vertex 1.21244 -2.5 15
      vertex 1.58655 -2.5 16.2625
      vertex 1.37499 -2.5 16.4078
    endloop
  endfacet
  facet normal 0 -1 -0
    outer loop
      vertex 1.58655 -2.5 16.2625
      vertex 1.21244 -2.5 15
      vertex 1.92375 -2.5 15.9159
    endloop
  endfacet
  facet normal 0 -1 -0
    outer loop
      vertex 1.92375 -2.5 15.9159
      vertex 1.21244 -2.5 15
      vertex 2.66223 -2.5 15.1567
    endloop
  endfacet
  facet normal 0 -1 -0
    outer loop
      vertex 2.66223 -2.5 15.1567
      vertex 1.21244 -2.5 15
      vertex 2.78235 -2.5 15
    endloop
  endfacet
  facet normal -0.993399 0 0.114708
    outer loop
      vertex 0.156976 -2.49507 5.85945
      vertex 0.156976 2.49507 5.85945
      vertex 0 2.48519 4.5
    endloop
  endfacet
  facet normal -0.993399 0 0.114708
    outer loop
      vertex 0.156976 2.49507 5.85945
      vertex 0.156976 -2.49507 5.85945
      vertex 0.772542 2.37764 11.1904
    endloop
  endfacet
  facet normal -0.993399 0 0.114708
    outer loop
      vertex 0.772542 2.37764 11.1904
      vertex 0.772542 -2.37764 11.1904
      vertex 1.21244 2.17064 15
    endloop
  endfacet
  facet normal -0.993399 0 0.114708
    outer loop
      vertex 1.21244 -2.17064 15
      vertex 1.21244 2.17064 15
      vertex 0.772542 -2.37764 11.1904
    endloop
  endfacet
  facet normal -0.993399 0 0.114708
    outer loop
      vertex 1.44338 2.02494 17
      vertex 1.21244 -2.17064 15
      vertex 1.44338 -2.02494 17
    endloop
  endfacet
  facet normal -0.993399 0 0.114708
    outer loop
      vertex 1.21244 2.17064 15
      vertex 1.21244 -2.17064 15
      vertex 1.44338 2.02494 17
    endloop
  endfacet
  facet normal -0.993399 0 0.114708
    outer loop
      vertex 0.156976 -2.49507 5.85945
      vertex 0 2.48519 4.5
      vertex 0 -2.48519 4.5
    endloop
  endfacet
  facet normal -0.993399 0 0.114708
    outer loop
      vertex 0.772542 2.37764 11.1904
      vertex 0.156976 -2.49507 5.85945
      vertex 0.772542 -2.37764 11.1904
    endloop
  endfacet
  facet normal -0.993399 0 0.114708
    outer loop
      vertex 1.21244 2.17064 15
      vertex 1.37499 2.5 16.4078
      vertex 1.21244 2.5 15
    endloop
  endfacet
  facet normal -0.993399 -3.0337e-07 0.114708
    outer loop
      vertex 1.37499 2.5 16.4078
      vertex 1.21244 2.17064 15
      vertex 1.41676 2.23246 16.7695
    endloop
  endfacet
  facet normal -0.993399 -4.38848e-08 0.114708
    outer loop
      vertex 1.41676 2.23246 16.7695
      vertex 1.21244 2.17064 15
      vertex 1.44338 2.02494 17
    endloop
  endfacet
  facet normal -0.993399 4.38848e-08 0.114708
    outer loop
      vertex 1.21244 -2.17064 15
      vertex 1.41676 -2.23246 16.7695
      vertex 1.44338 -2.02494 17
    endloop
  endfacet
  facet normal -0.993399 0 0.114708
    outer loop
      vertex 1.37499 -2.5 16.4078
      vertex 1.21244 -2.17064 15
      vertex 1.21244 -2.5 15
    endloop
  endfacet
  facet normal -0.993399 -1.19295e-07 0.114708
    outer loop
      vertex 1.21244 -2.17064 15
      vertex 1.37499 -2.5 16.4078
      vertex 1.41676 -2.23246 16.7695
    endloop
  endfacet
  facet normal 0.993399 0 0.114708
    outer loop
      vertex -1.37498 2.5 16.4077
      vertex -1.21244 2.16815 15
      vertex -1.21244 2.5 15
    endloop
  endfacet
  facet normal 0.993399 3.53101e-07 0.114708
    outer loop
      vertex -1.21244 2.16815 15
      vertex -1.37498 2.5 16.4077
      vertex -1.44338 2.02159 17
    endloop
  endfacet
  facet normal 0.993399 -0 0.114708
    outer loop
      vertex -0.468452 -2.45572 8.55692
      vertex -0.468452 2.45572 8.55692
      vertex -1.06445 2.26207 13.7184
    endloop
  endfacet
  facet normal 0.993399 -0 0.114708
    outer loop
      vertex -1.06445 -2.26207 13.7184
      vertex -1.06445 2.26207 13.7184
      vertex -1.21244 2.16815 15
    endloop
  endfacet
  facet normal 0.993399 -0 0.114708
    outer loop
      vertex -1.21244 -2.16815 15
      vertex -1.21244 2.16815 15
      vertex -1.44338 2.02159 17
    endloop
  endfacet
  facet normal 0.993399 0 0.114708
    outer loop
      vertex -1.21244 -2.16815 15
      vertex -1.44338 2.02159 17
      vertex -1.44338 -2.02159 17
    endloop
  endfacet
  facet normal 0.993399 0 0.114708
    outer loop
      vertex -1.21244 2.16815 15
      vertex -1.21244 -2.16815 15
      vertex -1.06445 -2.26207 13.7184
    endloop
  endfacet
  facet normal 0.993399 0 0.114708
    outer loop
      vertex -1.06445 2.26207 13.7184
      vertex -1.06445 -2.26207 13.7184
      vertex -0.468452 -2.45572 8.55692
    endloop
  endfacet
  facet normal 0.993399 0 0.114708
    outer loop
      vertex -0.468452 2.45572 8.55692
      vertex -0.468452 -2.45572 8.55692
      vertex 0 2.48519 4.5
    endloop
  endfacet
  facet normal 0.993399 0 0.114708
    outer loop
      vertex 0 2.48519 4.5
      vertex -0.468452 -2.45572 8.55692
      vertex 0 -2.48519 4.5
    endloop
  endfacet
  facet normal 0.993399 -1.22377e-07 0.114708
    outer loop
      vertex -1.37498 -2.5 16.4077
      vertex -1.21244 -2.16815 15
      vertex -1.44338 -2.02159 17
    endloop
  endfacet
  facet normal 0.993399 0 0.114708
    outer loop
      vertex -1.21244 -2.16815 15
      vertex -1.37498 -2.5 16.4077
      vertex -1.21244 -2.5 15
    endloop
  endfacet
endsolid OpenSCAD_Model
